G04 EAGLE Gerber RS-274X export*
G75*
%MOMM*%
%FSLAX34Y34*%
%LPD*%
%INSoldermask Top*%
%IPPOS*%
%AMOC8*
5,1,8,0,0,1.08239X$1,22.5*%
G01*
%ADD10C,3.429000*%
%ADD11C,0.762000*%
%ADD12C,0.225588*%
%ADD13C,0.225369*%
%ADD14C,0.225400*%
%ADD15C,0.428259*%
%ADD16C,0.226609*%
%ADD17C,2.006600*%


D10*
X25400Y228600D03*
X228600Y228600D03*
D11*
X245110Y8890D03*
X7620Y246380D03*
D12*
X4543Y160507D02*
X4543Y149493D01*
X4543Y160507D02*
X23557Y160507D01*
X23557Y149493D01*
X4543Y149493D01*
X4543Y151636D02*
X23557Y151636D01*
X23557Y153779D02*
X4543Y153779D01*
X4543Y155922D02*
X23557Y155922D01*
X23557Y158065D02*
X4543Y158065D01*
X4543Y160208D02*
X23557Y160208D01*
X4543Y104507D02*
X4543Y93493D01*
X4543Y104507D02*
X23557Y104507D01*
X23557Y93493D01*
X4543Y93493D01*
X4543Y95636D02*
X23557Y95636D01*
X23557Y97779D02*
X4543Y97779D01*
X4543Y99922D02*
X23557Y99922D01*
X23557Y102065D02*
X4543Y102065D01*
X4543Y104208D02*
X23557Y104208D01*
D13*
X44542Y139492D02*
X44542Y144508D01*
X57058Y144508D01*
X57058Y139492D01*
X44542Y139492D01*
X44542Y141633D02*
X57058Y141633D01*
X57058Y143774D02*
X44542Y143774D01*
X44542Y134508D02*
X44542Y129492D01*
X44542Y134508D02*
X57058Y134508D01*
X57058Y129492D01*
X44542Y129492D01*
X44542Y131633D02*
X57058Y131633D01*
X57058Y133774D02*
X44542Y133774D01*
X44542Y124508D02*
X44542Y119492D01*
X44542Y124508D02*
X57058Y124508D01*
X57058Y119492D01*
X44542Y119492D01*
X44542Y121633D02*
X57058Y121633D01*
X57058Y123774D02*
X44542Y123774D01*
X44542Y114508D02*
X44542Y109492D01*
X44542Y114508D02*
X57058Y114508D01*
X57058Y109492D01*
X44542Y109492D01*
X44542Y111633D02*
X57058Y111633D01*
X57058Y113774D02*
X44542Y113774D01*
D12*
X249457Y104507D02*
X249457Y93493D01*
X230443Y93493D01*
X230443Y104507D01*
X249457Y104507D01*
X249457Y95636D02*
X230443Y95636D01*
X230443Y97779D02*
X249457Y97779D01*
X249457Y99922D02*
X230443Y99922D01*
X230443Y102065D02*
X249457Y102065D01*
X249457Y104208D02*
X230443Y104208D01*
X249457Y149493D02*
X249457Y160507D01*
X249457Y149493D02*
X230443Y149493D01*
X230443Y160507D01*
X249457Y160507D01*
X249457Y151636D02*
X230443Y151636D01*
X230443Y153779D02*
X249457Y153779D01*
X249457Y155922D02*
X230443Y155922D01*
X230443Y158065D02*
X249457Y158065D01*
X249457Y160208D02*
X230443Y160208D01*
D13*
X209458Y114508D02*
X209458Y109492D01*
X196942Y109492D01*
X196942Y114508D01*
X209458Y114508D01*
X209458Y111633D02*
X196942Y111633D01*
X196942Y113774D02*
X209458Y113774D01*
X209458Y119492D02*
X209458Y124508D01*
X209458Y119492D02*
X196942Y119492D01*
X196942Y124508D01*
X209458Y124508D01*
X209458Y121633D02*
X196942Y121633D01*
X196942Y123774D02*
X209458Y123774D01*
X209458Y129492D02*
X209458Y134508D01*
X209458Y129492D02*
X196942Y129492D01*
X196942Y134508D01*
X209458Y134508D01*
X209458Y131633D02*
X196942Y131633D01*
X196942Y133774D02*
X209458Y133774D01*
X209458Y139492D02*
X209458Y144508D01*
X209458Y139492D02*
X196942Y139492D01*
X196942Y144508D01*
X209458Y144508D01*
X209458Y141633D02*
X196942Y141633D01*
X196942Y143774D02*
X209458Y143774D01*
D14*
X62548Y64072D02*
X52532Y64072D01*
X52532Y73088D01*
X62548Y73088D01*
X62548Y64072D01*
X62548Y66213D02*
X52532Y66213D01*
X52532Y68354D02*
X62548Y68354D01*
X62548Y70495D02*
X52532Y70495D01*
X52532Y72636D02*
X62548Y72636D01*
X69532Y64072D02*
X79548Y64072D01*
X69532Y64072D02*
X69532Y73088D01*
X79548Y73088D01*
X79548Y64072D01*
X79548Y66213D02*
X69532Y66213D01*
X69532Y68354D02*
X79548Y68354D01*
X79548Y70495D02*
X69532Y70495D01*
X69532Y72636D02*
X79548Y72636D01*
D15*
X27744Y72074D02*
X27744Y65086D01*
X20756Y65086D01*
X20756Y72074D01*
X27744Y72074D01*
X27744Y69155D02*
X20756Y69155D01*
X45284Y72074D02*
X45284Y65086D01*
X38296Y65086D01*
X38296Y72074D01*
X45284Y72074D01*
X45284Y69155D02*
X38296Y69155D01*
D14*
X184848Y156672D02*
X184848Y166688D01*
X184848Y156672D02*
X175832Y156672D01*
X175832Y166688D01*
X184848Y166688D01*
X184848Y158813D02*
X175832Y158813D01*
X175832Y160954D02*
X184848Y160954D01*
X184848Y163095D02*
X175832Y163095D01*
X175832Y165236D02*
X184848Y165236D01*
X184848Y173672D02*
X184848Y183688D01*
X184848Y173672D02*
X175832Y173672D01*
X175832Y183688D01*
X184848Y183688D01*
X184848Y175813D02*
X175832Y175813D01*
X175832Y177954D02*
X184848Y177954D01*
X184848Y180095D02*
X175832Y180095D01*
X175832Y182236D02*
X184848Y182236D01*
X167068Y166688D02*
X167068Y156672D01*
X158052Y156672D01*
X158052Y166688D01*
X167068Y166688D01*
X167068Y158813D02*
X158052Y158813D01*
X158052Y160954D02*
X167068Y160954D01*
X167068Y163095D02*
X158052Y163095D01*
X158052Y165236D02*
X167068Y165236D01*
X167068Y173672D02*
X167068Y183688D01*
X167068Y173672D02*
X158052Y173672D01*
X158052Y183688D01*
X167068Y183688D01*
X167068Y175813D02*
X158052Y175813D01*
X158052Y177954D02*
X167068Y177954D01*
X167068Y180095D02*
X158052Y180095D01*
X158052Y182236D02*
X167068Y182236D01*
D10*
X228600Y25400D03*
X25400Y25400D03*
D16*
X137498Y137498D02*
X140502Y137498D01*
X137498Y137498D02*
X137498Y140502D01*
X140502Y140502D01*
X140502Y137498D01*
X140502Y139651D02*
X137498Y139651D01*
X137498Y129498D02*
X140502Y129498D01*
X137498Y129498D02*
X137498Y132502D01*
X140502Y132502D01*
X140502Y129498D01*
X140502Y131651D02*
X137498Y131651D01*
X137498Y121498D02*
X140502Y121498D01*
X137498Y121498D02*
X137498Y124502D01*
X140502Y124502D01*
X140502Y121498D01*
X140502Y123651D02*
X137498Y123651D01*
X137498Y113498D02*
X140502Y113498D01*
X137498Y113498D02*
X137498Y116502D01*
X140502Y116502D01*
X140502Y113498D01*
X140502Y115651D02*
X137498Y115651D01*
X116502Y113498D02*
X113498Y113498D01*
X113498Y116502D01*
X116502Y116502D01*
X116502Y113498D01*
X116502Y115651D02*
X113498Y115651D01*
X113498Y121498D02*
X116502Y121498D01*
X113498Y121498D02*
X113498Y124502D01*
X116502Y124502D01*
X116502Y121498D01*
X116502Y123651D02*
X113498Y123651D01*
X113498Y129498D02*
X116502Y129498D01*
X113498Y129498D02*
X113498Y132502D01*
X116502Y132502D01*
X116502Y129498D01*
X116502Y131651D02*
X113498Y131651D01*
X113498Y137498D02*
X116502Y137498D01*
X113498Y137498D02*
X113498Y140502D01*
X116502Y140502D01*
X116502Y137498D01*
X116502Y139651D02*
X113498Y139651D01*
D14*
X102408Y127698D02*
X92392Y127698D01*
X102408Y127698D02*
X102408Y118682D01*
X92392Y118682D01*
X92392Y127698D01*
X92392Y120823D02*
X102408Y120823D01*
X102408Y122964D02*
X92392Y122964D01*
X92392Y125105D02*
X102408Y125105D01*
X102408Y127246D02*
X92392Y127246D01*
X85408Y127698D02*
X75392Y127698D01*
X85408Y127698D02*
X85408Y118682D01*
X75392Y118682D01*
X75392Y127698D01*
X75392Y120823D02*
X85408Y120823D01*
X85408Y122964D02*
X75392Y122964D01*
X75392Y125105D02*
X85408Y125105D01*
X85408Y127246D02*
X75392Y127246D01*
X106108Y139282D02*
X106108Y149298D01*
X106108Y139282D02*
X97092Y139282D01*
X97092Y149298D01*
X106108Y149298D01*
X106108Y141423D02*
X97092Y141423D01*
X97092Y143564D02*
X106108Y143564D01*
X106108Y145705D02*
X97092Y145705D01*
X97092Y147846D02*
X106108Y147846D01*
X106108Y156282D02*
X106108Y166298D01*
X106108Y156282D02*
X97092Y156282D01*
X97092Y166298D01*
X106108Y166298D01*
X106108Y158423D02*
X97092Y158423D01*
X97092Y160564D02*
X106108Y160564D01*
X106108Y162705D02*
X97092Y162705D01*
X97092Y164846D02*
X106108Y164846D01*
D17*
X190500Y12700D03*
X165100Y12700D03*
X139700Y12700D03*
X114300Y12700D03*
X88900Y12700D03*
X63500Y12700D03*
D14*
X75392Y97092D02*
X85408Y97092D01*
X75392Y97092D02*
X75392Y106108D01*
X85408Y106108D01*
X85408Y97092D01*
X85408Y99233D02*
X75392Y99233D01*
X75392Y101374D02*
X85408Y101374D01*
X85408Y103515D02*
X75392Y103515D01*
X75392Y105656D02*
X85408Y105656D01*
X92392Y97092D02*
X102408Y97092D01*
X92392Y97092D02*
X92392Y106108D01*
X102408Y106108D01*
X102408Y97092D01*
X102408Y99233D02*
X92392Y99233D01*
X92392Y101374D02*
X102408Y101374D01*
X102408Y103515D02*
X92392Y103515D01*
X92392Y105656D02*
X102408Y105656D01*
M02*
