G04 EAGLE Gerber RS-274X export*
G75*
%MOMM*%
%FSLAX34Y34*%
%LPD*%
%INSilkscreen Bottom*%
%IPPOS*%
%AMOC8*
5,1,8,0,0,1.08239X$1,22.5*%
G01*
%ADD10C,0.203200*%
%ADD11C,0.152400*%

G36*
X129195Y104914D02*
X129195Y104914D01*
X129198Y104911D01*
X129798Y105011D01*
X130497Y105111D01*
X131197Y105211D01*
X131205Y105219D01*
X131212Y105216D01*
X133012Y106116D01*
X133015Y106123D01*
X133021Y106122D01*
X133521Y106522D01*
X133522Y106526D01*
X133525Y106525D01*
X134525Y107525D01*
X134526Y107537D01*
X134534Y107538D01*
X134833Y108135D01*
X135231Y108733D01*
X135231Y108737D01*
X135234Y108738D01*
X135534Y109338D01*
X135533Y109343D01*
X135537Y109344D01*
X135737Y109944D01*
X135735Y109951D01*
X135739Y109953D01*
X135939Y111353D01*
X135936Y111358D01*
X135939Y111360D01*
X135939Y111960D01*
X135936Y111964D01*
X135939Y111967D01*
X135739Y113367D01*
X135734Y113372D01*
X135737Y113376D01*
X135537Y113975D01*
X135337Y114674D01*
X135329Y114680D01*
X135331Y114687D01*
X134932Y115286D01*
X134632Y115785D01*
X134624Y115789D01*
X134625Y115795D01*
X134127Y116293D01*
X133728Y116791D01*
X133721Y116793D01*
X133722Y116798D01*
X133122Y117298D01*
X133116Y117298D01*
X133115Y117302D01*
X132615Y117602D01*
X132612Y117602D01*
X132612Y117604D01*
X132012Y117904D01*
X132010Y117904D01*
X132009Y117905D01*
X131309Y118205D01*
X131306Y118205D01*
X131306Y118207D01*
X130706Y118407D01*
X130701Y118405D01*
X130699Y118405D01*
X130697Y118409D01*
X129998Y118509D01*
X129398Y118609D01*
X129393Y118606D01*
X129390Y118609D01*
X97290Y118609D01*
X97286Y118606D01*
X97283Y118609D01*
X96583Y118509D01*
X96579Y118505D01*
X96576Y118507D01*
X95876Y118307D01*
X95875Y118306D01*
X95874Y118307D01*
X95274Y118107D01*
X95271Y118102D01*
X95268Y118104D01*
X94068Y117504D01*
X94066Y117500D01*
X94063Y117501D01*
X93463Y117101D01*
X93460Y117094D01*
X93455Y117095D01*
X92555Y116195D01*
X92554Y116188D01*
X92549Y116187D01*
X91749Y114987D01*
X91749Y114983D01*
X91746Y114982D01*
X91446Y114382D01*
X91446Y114380D01*
X91446Y114379D01*
X91447Y114377D01*
X91443Y114376D01*
X91243Y113776D01*
X91244Y113774D01*
X91243Y113774D01*
X91205Y113641D01*
X91191Y113592D01*
X91149Y113444D01*
X91106Y113297D01*
X91092Y113247D01*
X91050Y113100D01*
X91043Y113074D01*
X91044Y113070D01*
X91041Y113068D01*
X90941Y112468D01*
X90944Y112463D01*
X90941Y112460D01*
X90941Y111060D01*
X90944Y111056D01*
X90941Y111053D01*
X91041Y110353D01*
X91046Y110348D01*
X91043Y110344D01*
X91243Y109745D01*
X91443Y109046D01*
X91448Y109042D01*
X91446Y109038D01*
X91746Y108438D01*
X91753Y108435D01*
X91752Y108429D01*
X92150Y107931D01*
X92549Y107333D01*
X92556Y107330D01*
X92555Y107325D01*
X93055Y106825D01*
X93059Y106825D01*
X93059Y106822D01*
X94059Y106022D01*
X94067Y106021D01*
X94068Y106016D01*
X95268Y105416D01*
X95275Y105417D01*
X95276Y105413D01*
X95975Y105213D01*
X96574Y105013D01*
X96581Y105015D01*
X96583Y105011D01*
X97283Y104911D01*
X97288Y104914D01*
X97290Y104911D01*
X129190Y104911D01*
X129195Y104914D01*
G37*
G36*
X70247Y19897D02*
X70247Y19897D01*
X70245Y19900D01*
X70249Y19902D01*
X70349Y20502D01*
X70346Y20507D01*
X70349Y20510D01*
X70349Y60510D01*
X70313Y60557D01*
X70306Y60552D01*
X70300Y60559D01*
X69900Y60559D01*
X69887Y60550D01*
X69878Y60554D01*
X63789Y57559D01*
X63212Y57559D01*
X57222Y60554D01*
X57213Y60552D01*
X57210Y60558D01*
X56710Y60658D01*
X56656Y60632D01*
X56663Y60619D01*
X56651Y60610D01*
X56651Y20010D01*
X56687Y19963D01*
X56690Y19965D01*
X56692Y19961D01*
X57292Y19861D01*
X57297Y19864D01*
X57300Y19861D01*
X70200Y19861D01*
X70247Y19897D01*
G37*
G36*
X121147Y19897D02*
X121147Y19897D01*
X121142Y19904D01*
X121149Y19910D01*
X121149Y57110D01*
X121146Y57115D01*
X121149Y57118D01*
X121049Y57718D01*
X121005Y57759D01*
X121003Y57756D01*
X121000Y57759D01*
X107500Y57759D01*
X107453Y57723D01*
X107458Y57716D01*
X107451Y57710D01*
X107451Y20510D01*
X107454Y20505D01*
X107451Y20502D01*
X107551Y19902D01*
X107595Y19861D01*
X107598Y19864D01*
X107600Y19861D01*
X121100Y19861D01*
X121147Y19897D01*
G37*
G36*
X128627Y158287D02*
X128627Y158287D01*
X128625Y158290D01*
X128629Y158292D01*
X128729Y158892D01*
X128726Y158897D01*
X128729Y158900D01*
X128729Y171800D01*
X128693Y171847D01*
X128691Y171846D01*
X128690Y171848D01*
X128190Y171948D01*
X128183Y171945D01*
X128180Y171949D01*
X96180Y171949D01*
X96176Y171946D01*
X96173Y171949D01*
X95473Y171849D01*
X95468Y171844D01*
X95464Y171847D01*
X94865Y171647D01*
X94166Y171447D01*
X94165Y171446D01*
X94164Y171447D01*
X93564Y171247D01*
X93559Y171239D01*
X93553Y171241D01*
X92353Y170441D01*
X92352Y170438D01*
X92349Y170438D01*
X91849Y170038D01*
X91847Y170031D01*
X91842Y170031D01*
X91042Y169031D01*
X91041Y169027D01*
X91039Y169027D01*
X90639Y168427D01*
X90639Y168423D01*
X90636Y168422D01*
X90336Y167822D01*
X90336Y167819D01*
X90335Y167819D01*
X90337Y167817D01*
X90333Y167816D01*
X90133Y167216D01*
X90134Y167214D01*
X90133Y167214D01*
X90109Y167129D01*
X90066Y166981D01*
X90052Y166932D01*
X90010Y166784D01*
X89968Y166637D01*
X89954Y166587D01*
X89933Y166514D01*
X89935Y166509D01*
X89931Y166507D01*
X89831Y165808D01*
X89731Y165208D01*
X89737Y165198D01*
X89731Y165193D01*
X89931Y163793D01*
X89932Y163792D01*
X89931Y163792D01*
X90031Y163192D01*
X90035Y163189D01*
X90033Y163186D01*
X90233Y162486D01*
X90238Y162482D01*
X90236Y162478D01*
X90536Y161878D01*
X90540Y161876D01*
X90539Y161873D01*
X90939Y161273D01*
X90942Y161272D01*
X90942Y161269D01*
X91742Y160269D01*
X91749Y160267D01*
X91748Y160262D01*
X92348Y159762D01*
X92349Y159762D01*
X92849Y159362D01*
X92857Y159361D01*
X92858Y159356D01*
X94058Y158756D01*
X94063Y158757D01*
X94064Y158753D01*
X94664Y158553D01*
X94666Y158554D01*
X94666Y158553D01*
X95366Y158353D01*
X95371Y158355D01*
X95373Y158351D01*
X96073Y158251D01*
X96078Y158254D01*
X96080Y158251D01*
X128580Y158251D01*
X128627Y158287D01*
G37*
G36*
X95647Y19897D02*
X95647Y19897D01*
X95646Y19899D01*
X95648Y19900D01*
X95748Y20400D01*
X95745Y20407D01*
X95749Y20410D01*
X95749Y52410D01*
X95746Y52414D01*
X95749Y52417D01*
X95649Y53117D01*
X95644Y53122D01*
X95647Y53126D01*
X95447Y53725D01*
X95247Y54424D01*
X95246Y54425D01*
X95247Y54426D01*
X95047Y55026D01*
X95039Y55031D01*
X95041Y55037D01*
X94241Y56237D01*
X94238Y56238D01*
X94238Y56241D01*
X93838Y56741D01*
X93831Y56743D01*
X93831Y56748D01*
X92831Y57548D01*
X92827Y57549D01*
X92827Y57551D01*
X92227Y57951D01*
X92223Y57951D01*
X92222Y57954D01*
X91622Y58254D01*
X91617Y58253D01*
X91616Y58257D01*
X91016Y58457D01*
X91014Y58456D01*
X91014Y58457D01*
X90314Y58657D01*
X90309Y58656D01*
X90307Y58659D01*
X89608Y58759D01*
X89008Y58859D01*
X88998Y58853D01*
X88993Y58859D01*
X87593Y58659D01*
X87592Y58658D01*
X87592Y58659D01*
X86992Y58559D01*
X86989Y58555D01*
X86986Y58557D01*
X86286Y58357D01*
X86282Y58352D01*
X86278Y58354D01*
X85678Y58054D01*
X85676Y58050D01*
X85673Y58051D01*
X85073Y57651D01*
X85072Y57648D01*
X85069Y57648D01*
X84069Y56848D01*
X84067Y56841D01*
X84062Y56842D01*
X83562Y56242D01*
X83562Y56241D01*
X83162Y55741D01*
X83161Y55733D01*
X83156Y55732D01*
X82556Y54532D01*
X82557Y54527D01*
X82553Y54526D01*
X82353Y53926D01*
X82354Y53924D01*
X82353Y53924D01*
X82334Y53857D01*
X82291Y53709D01*
X82277Y53660D01*
X82235Y53512D01*
X82193Y53364D01*
X82179Y53315D01*
X82153Y53224D01*
X82155Y53219D01*
X82151Y53217D01*
X82051Y52517D01*
X82054Y52512D01*
X82051Y52510D01*
X82051Y20010D01*
X82087Y19963D01*
X82090Y19965D01*
X82092Y19961D01*
X82692Y19861D01*
X82697Y19864D01*
X82700Y19861D01*
X95600Y19861D01*
X95647Y19897D01*
G37*
G36*
X53155Y68084D02*
X53155Y68084D01*
X53158Y68081D01*
X53758Y68181D01*
X53799Y68225D01*
X53796Y68228D01*
X53799Y68230D01*
X53799Y81730D01*
X53763Y81777D01*
X53756Y81772D01*
X53750Y81779D01*
X21250Y81779D01*
X21245Y81776D01*
X21242Y81779D01*
X20642Y81679D01*
X20639Y81675D01*
X20636Y81677D01*
X19936Y81477D01*
X19935Y81476D01*
X19934Y81477D01*
X19334Y81277D01*
X19333Y81274D01*
X19331Y81275D01*
X18631Y80975D01*
X18628Y80971D01*
X18625Y80972D01*
X18125Y80672D01*
X18124Y80671D01*
X18123Y80671D01*
X17523Y80271D01*
X17520Y80264D01*
X17515Y80265D01*
X16515Y79265D01*
X16515Y79261D01*
X16512Y79261D01*
X16112Y78761D01*
X16111Y78753D01*
X16106Y78752D01*
X15506Y77552D01*
X15506Y77550D01*
X15506Y77549D01*
X15507Y77547D01*
X15503Y77546D01*
X15303Y76946D01*
X15304Y76944D01*
X15303Y76944D01*
X15293Y76910D01*
X15251Y76762D01*
X15237Y76713D01*
X15195Y76565D01*
X15152Y76417D01*
X15138Y76368D01*
X15103Y76244D01*
X15105Y76239D01*
X15101Y76237D01*
X15001Y75537D01*
X15004Y75532D01*
X15001Y75530D01*
X15001Y74230D01*
X15004Y74226D01*
X15001Y74223D01*
X15101Y73523D01*
X15106Y73518D01*
X15103Y73514D01*
X15303Y72915D01*
X15503Y72216D01*
X15508Y72212D01*
X15506Y72208D01*
X15806Y71608D01*
X15813Y71605D01*
X15812Y71599D01*
X16210Y71101D01*
X16609Y70503D01*
X16612Y70502D01*
X16612Y70499D01*
X17012Y69999D01*
X17022Y69997D01*
X17023Y69989D01*
X17621Y69590D01*
X18119Y69192D01*
X18127Y69191D01*
X18128Y69186D01*
X19328Y68586D01*
X19335Y68587D01*
X19336Y68583D01*
X20035Y68383D01*
X20634Y68183D01*
X20641Y68185D01*
X20643Y68181D01*
X21343Y68081D01*
X21348Y68084D01*
X21350Y68081D01*
X53150Y68081D01*
X53155Y68084D01*
G37*
G36*
X196811Y21139D02*
X196811Y21139D01*
X196818Y21134D01*
X197318Y21334D01*
X197333Y21358D01*
X197340Y21364D01*
X197338Y21367D01*
X197343Y21375D01*
X197349Y21380D01*
X197349Y52980D01*
X197346Y52984D01*
X197349Y52987D01*
X197249Y53683D01*
X197249Y54280D01*
X197243Y54288D01*
X197247Y54294D01*
X197047Y54994D01*
X197046Y54995D01*
X197047Y54996D01*
X196847Y55596D01*
X196844Y55597D01*
X196845Y55599D01*
X196545Y56299D01*
X196537Y56304D01*
X196538Y56311D01*
X196140Y56809D01*
X195741Y57407D01*
X195738Y57408D01*
X195738Y57411D01*
X195338Y57911D01*
X195331Y57913D01*
X195331Y57918D01*
X194831Y58318D01*
X194827Y58319D01*
X194827Y58321D01*
X194229Y58720D01*
X193731Y59118D01*
X193721Y59119D01*
X193719Y59125D01*
X193019Y59425D01*
X193016Y59425D01*
X193016Y59427D01*
X192416Y59627D01*
X192409Y59625D01*
X192407Y59629D01*
X191708Y59729D01*
X191108Y59829D01*
X191107Y59828D01*
X191107Y59829D01*
X190407Y59929D01*
X190398Y59924D01*
X190393Y59929D01*
X189693Y59829D01*
X189692Y59828D01*
X189692Y59829D01*
X189092Y59729D01*
X189089Y59725D01*
X189086Y59727D01*
X188386Y59527D01*
X188385Y59526D01*
X188384Y59527D01*
X187784Y59327D01*
X187781Y59322D01*
X187778Y59324D01*
X187178Y59024D01*
X187176Y59020D01*
X187173Y59021D01*
X186573Y58621D01*
X186572Y58618D01*
X186569Y58618D01*
X186069Y58218D01*
X186068Y58214D01*
X186065Y58215D01*
X185065Y57215D01*
X185065Y57211D01*
X185062Y57211D01*
X184662Y56711D01*
X184661Y56704D01*
X184660Y56703D01*
X184656Y56702D01*
X184356Y56102D01*
X184357Y56097D01*
X184353Y56096D01*
X184154Y55498D01*
X183855Y54799D01*
X183857Y54790D01*
X183851Y54787D01*
X183751Y54088D01*
X183651Y53488D01*
X183654Y53483D01*
X183651Y53480D01*
X183651Y21680D01*
X183659Y21669D01*
X183654Y21662D01*
X183854Y21162D01*
X183895Y21137D01*
X183900Y21131D01*
X196800Y21131D01*
X196811Y21139D01*
G37*
G36*
X146011Y19869D02*
X146011Y19869D01*
X146018Y19864D01*
X146518Y20064D01*
X146533Y20088D01*
X146540Y20094D01*
X146538Y20097D01*
X146543Y20105D01*
X146549Y20110D01*
X146549Y56410D01*
X146546Y56415D01*
X146549Y56418D01*
X146449Y57018D01*
X146405Y57059D01*
X146403Y57056D01*
X146400Y57059D01*
X133500Y57059D01*
X133495Y57056D01*
X133492Y57059D01*
X132892Y56959D01*
X132851Y56915D01*
X132854Y56913D01*
X132851Y56910D01*
X132851Y20410D01*
X132859Y20399D01*
X132854Y20392D01*
X133054Y19892D01*
X133095Y19867D01*
X133100Y19861D01*
X146000Y19861D01*
X146011Y19869D01*
G37*
G36*
X237920Y50946D02*
X237920Y50946D01*
X238028Y50956D01*
X238041Y50962D01*
X238055Y50964D01*
X238152Y51012D01*
X238251Y51057D01*
X238264Y51068D01*
X238273Y51072D01*
X238288Y51088D01*
X238365Y51150D01*
X240950Y53735D01*
X241013Y53824D01*
X241079Y53909D01*
X241084Y53922D01*
X241092Y53934D01*
X241123Y54037D01*
X241159Y54140D01*
X241159Y54154D01*
X241163Y54167D01*
X241159Y54275D01*
X241160Y54384D01*
X241155Y54397D01*
X241155Y54411D01*
X241117Y54513D01*
X241082Y54615D01*
X241073Y54630D01*
X241069Y54639D01*
X241055Y54656D01*
X241001Y54738D01*
X238237Y58128D01*
X238794Y59210D01*
X238800Y59230D01*
X238842Y59325D01*
X239213Y60484D01*
X243564Y60927D01*
X243668Y60955D01*
X243774Y60980D01*
X243786Y60987D01*
X243799Y60990D01*
X243889Y61051D01*
X243982Y61108D01*
X243990Y61119D01*
X244002Y61127D01*
X244068Y61213D01*
X244137Y61297D01*
X244141Y61310D01*
X244150Y61321D01*
X244184Y61424D01*
X244223Y61525D01*
X244224Y61543D01*
X244228Y61552D01*
X244228Y61574D01*
X244237Y61672D01*
X244237Y65328D01*
X244220Y65435D01*
X244206Y65543D01*
X244200Y65555D01*
X244198Y65569D01*
X244146Y65665D01*
X244099Y65762D01*
X244089Y65772D01*
X244083Y65784D01*
X244003Y65858D01*
X243927Y65935D01*
X243915Y65941D01*
X243905Y65951D01*
X243806Y65996D01*
X243709Y66044D01*
X243691Y66048D01*
X243682Y66052D01*
X243661Y66054D01*
X243564Y66073D01*
X239213Y66516D01*
X238842Y67675D01*
X238833Y67692D01*
X238831Y67700D01*
X238827Y67707D01*
X238794Y67790D01*
X238237Y68872D01*
X241001Y72262D01*
X241055Y72356D01*
X241112Y72448D01*
X241115Y72461D01*
X241122Y72473D01*
X241143Y72580D01*
X241168Y72685D01*
X241166Y72699D01*
X241169Y72713D01*
X241154Y72820D01*
X241144Y72928D01*
X241138Y72941D01*
X241136Y72955D01*
X241088Y73052D01*
X241043Y73151D01*
X241032Y73164D01*
X241028Y73173D01*
X241012Y73188D01*
X240950Y73265D01*
X238365Y75850D01*
X238276Y75913D01*
X238191Y75979D01*
X238178Y75984D01*
X238166Y75992D01*
X238063Y76023D01*
X237960Y76059D01*
X237946Y76059D01*
X237933Y76063D01*
X237825Y76059D01*
X237716Y76060D01*
X237703Y76055D01*
X237689Y76055D01*
X237587Y76017D01*
X237485Y75982D01*
X237470Y75973D01*
X237461Y75969D01*
X237444Y75955D01*
X237362Y75901D01*
X233972Y73137D01*
X232890Y73694D01*
X232870Y73700D01*
X232775Y73742D01*
X231616Y74113D01*
X231173Y78464D01*
X231145Y78568D01*
X231120Y78674D01*
X231113Y78686D01*
X231110Y78699D01*
X231049Y78789D01*
X230992Y78882D01*
X230981Y78890D01*
X230973Y78902D01*
X230887Y78968D01*
X230803Y79037D01*
X230790Y79041D01*
X230779Y79050D01*
X230676Y79084D01*
X230575Y79123D01*
X230557Y79124D01*
X230548Y79128D01*
X230526Y79128D01*
X230428Y79137D01*
X226772Y79137D01*
X226665Y79120D01*
X226557Y79106D01*
X226545Y79100D01*
X226531Y79098D01*
X226435Y79046D01*
X226338Y78999D01*
X226328Y78989D01*
X226316Y78983D01*
X226242Y78903D01*
X226165Y78827D01*
X226159Y78815D01*
X226149Y78805D01*
X226104Y78706D01*
X226056Y78609D01*
X226052Y78591D01*
X226048Y78582D01*
X226046Y78561D01*
X226027Y78464D01*
X225584Y74113D01*
X224425Y73742D01*
X224407Y73732D01*
X224310Y73694D01*
X223228Y73137D01*
X219838Y75901D01*
X219744Y75955D01*
X219652Y76012D01*
X219639Y76015D01*
X219627Y76022D01*
X219520Y76043D01*
X219415Y76068D01*
X219401Y76066D01*
X219387Y76069D01*
X219280Y76054D01*
X219172Y76044D01*
X219159Y76038D01*
X219146Y76036D01*
X219048Y75988D01*
X218949Y75943D01*
X218936Y75932D01*
X218927Y75928D01*
X218912Y75912D01*
X218835Y75850D01*
X216250Y73265D01*
X216187Y73176D01*
X216121Y73091D01*
X216116Y73078D01*
X216108Y73066D01*
X216077Y72963D01*
X216041Y72860D01*
X216041Y72846D01*
X216037Y72833D01*
X216041Y72725D01*
X216040Y72616D01*
X216045Y72603D01*
X216045Y72589D01*
X216083Y72487D01*
X216118Y72385D01*
X216127Y72370D01*
X216131Y72361D01*
X216145Y72344D01*
X216199Y72262D01*
X218963Y68872D01*
X218406Y67790D01*
X218400Y67770D01*
X218358Y67675D01*
X217987Y66516D01*
X213636Y66073D01*
X213532Y66045D01*
X213426Y66020D01*
X213414Y66013D01*
X213401Y66010D01*
X213311Y65949D01*
X213218Y65892D01*
X213210Y65881D01*
X213198Y65873D01*
X213132Y65787D01*
X213064Y65703D01*
X213059Y65690D01*
X213050Y65679D01*
X213016Y65576D01*
X212977Y65475D01*
X212976Y65457D01*
X212972Y65448D01*
X212973Y65426D01*
X212963Y65328D01*
X212963Y61672D01*
X212980Y61565D01*
X212994Y61457D01*
X213000Y61445D01*
X213002Y61431D01*
X213054Y61335D01*
X213101Y61238D01*
X213111Y61228D01*
X213117Y61216D01*
X213197Y61142D01*
X213273Y61065D01*
X213285Y61059D01*
X213296Y61049D01*
X213394Y61004D01*
X213491Y60956D01*
X213509Y60952D01*
X213518Y60948D01*
X213539Y60946D01*
X213636Y60927D01*
X217987Y60484D01*
X218358Y59325D01*
X218368Y59307D01*
X218406Y59210D01*
X218963Y58128D01*
X216199Y54738D01*
X216145Y54644D01*
X216088Y54552D01*
X216085Y54539D01*
X216078Y54527D01*
X216057Y54420D01*
X216032Y54315D01*
X216034Y54301D01*
X216031Y54287D01*
X216046Y54180D01*
X216056Y54072D01*
X216062Y54059D01*
X216064Y54046D01*
X216112Y53948D01*
X216157Y53849D01*
X216168Y53836D01*
X216172Y53827D01*
X216188Y53812D01*
X216250Y53735D01*
X218835Y51150D01*
X218924Y51087D01*
X219009Y51021D01*
X219022Y51016D01*
X219034Y51008D01*
X219137Y50977D01*
X219240Y50941D01*
X219254Y50941D01*
X219267Y50937D01*
X219375Y50941D01*
X219484Y50940D01*
X219497Y50945D01*
X219511Y50945D01*
X219613Y50983D01*
X219715Y51018D01*
X219730Y51027D01*
X219739Y51031D01*
X219756Y51045D01*
X219838Y51099D01*
X223228Y53863D01*
X224310Y53306D01*
X224363Y53289D01*
X224412Y53263D01*
X224478Y53252D01*
X224542Y53231D01*
X224598Y53232D01*
X224652Y53223D01*
X224719Y53234D01*
X224786Y53235D01*
X224838Y53253D01*
X224893Y53262D01*
X224953Y53294D01*
X225016Y53317D01*
X225059Y53351D01*
X225109Y53377D01*
X225155Y53426D01*
X225207Y53468D01*
X225238Y53515D01*
X225276Y53555D01*
X225332Y53660D01*
X225340Y53673D01*
X225341Y53678D01*
X225345Y53685D01*
X227498Y58882D01*
X227518Y58965D01*
X227523Y58978D01*
X227525Y58994D01*
X227550Y59079D01*
X227549Y59100D01*
X227554Y59120D01*
X227546Y59202D01*
X227548Y59221D01*
X227543Y59241D01*
X227539Y59322D01*
X227532Y59342D01*
X227530Y59363D01*
X227499Y59432D01*
X227492Y59459D01*
X227477Y59483D01*
X227451Y59550D01*
X227438Y59566D01*
X227429Y59585D01*
X227384Y59634D01*
X227364Y59666D01*
X227333Y59691D01*
X227295Y59737D01*
X227272Y59753D01*
X227262Y59763D01*
X227241Y59775D01*
X227176Y59820D01*
X227175Y59821D01*
X227174Y59822D01*
X226275Y60328D01*
X225588Y60972D01*
X225073Y61760D01*
X224761Y62648D01*
X224669Y63585D01*
X224802Y64517D01*
X225153Y65391D01*
X225702Y66156D01*
X226416Y66769D01*
X227256Y67194D01*
X228173Y67408D01*
X229114Y67398D01*
X230026Y67164D01*
X230856Y66721D01*
X231557Y66092D01*
X232089Y65315D01*
X232420Y64434D01*
X232533Y63499D01*
X232425Y62582D01*
X232105Y61714D01*
X231591Y60945D01*
X230912Y60318D01*
X230028Y59823D01*
X229986Y59790D01*
X229944Y59767D01*
X229913Y59734D01*
X229865Y59699D01*
X229853Y59683D01*
X229837Y59670D01*
X229802Y59615D01*
X229777Y59589D01*
X229763Y59558D01*
X229722Y59501D01*
X229716Y59482D01*
X229706Y59465D01*
X229687Y59390D01*
X229677Y59367D01*
X229674Y59343D01*
X229651Y59268D01*
X229652Y59248D01*
X229647Y59228D01*
X229654Y59143D01*
X229653Y59124D01*
X229656Y59107D01*
X229659Y59024D01*
X229667Y58999D01*
X229668Y58985D01*
X229678Y58963D01*
X229702Y58882D01*
X230011Y58137D01*
X230942Y55889D01*
X231252Y55140D01*
X231855Y53685D01*
X231884Y53638D01*
X231905Y53586D01*
X231948Y53535D01*
X231984Y53478D01*
X232027Y53443D01*
X232063Y53400D01*
X232120Y53366D01*
X232172Y53323D01*
X232224Y53304D01*
X232272Y53275D01*
X232338Y53261D01*
X232401Y53237D01*
X232456Y53235D01*
X232510Y53224D01*
X232577Y53231D01*
X232644Y53229D01*
X232698Y53245D01*
X232753Y53252D01*
X232864Y53296D01*
X232878Y53300D01*
X232882Y53303D01*
X232890Y53306D01*
X233972Y53863D01*
X237362Y51099D01*
X237456Y51045D01*
X237548Y50988D01*
X237561Y50985D01*
X237573Y50978D01*
X237680Y50957D01*
X237785Y50932D01*
X237799Y50934D01*
X237813Y50931D01*
X237920Y50946D01*
G37*
G36*
X184204Y178574D02*
X184204Y178574D01*
X184207Y178571D01*
X184907Y178671D01*
X184912Y178676D01*
X184916Y178673D01*
X185515Y178873D01*
X186214Y179073D01*
X186218Y179078D01*
X186222Y179076D01*
X187422Y179676D01*
X187425Y179683D01*
X187431Y179682D01*
X188431Y180482D01*
X188432Y180486D01*
X188435Y180485D01*
X188935Y180985D01*
X188936Y180992D01*
X188941Y180993D01*
X189741Y182193D01*
X189741Y182197D01*
X189744Y182198D01*
X190044Y182798D01*
X190043Y182803D01*
X190047Y182804D01*
X190247Y183404D01*
X190246Y183406D01*
X190247Y183406D01*
X190255Y183433D01*
X190297Y183581D01*
X190311Y183630D01*
X190353Y183778D01*
X190354Y183778D01*
X190353Y183778D01*
X190396Y183926D01*
X190410Y183975D01*
X190447Y184106D01*
X190446Y184110D01*
X190449Y184112D01*
X190549Y184712D01*
X190546Y184717D01*
X190549Y184720D01*
X190549Y186120D01*
X190546Y186125D01*
X190549Y186128D01*
X190449Y186728D01*
X190445Y186731D01*
X190447Y186734D01*
X190247Y187434D01*
X190246Y187435D01*
X190247Y187436D01*
X190047Y188036D01*
X190042Y188039D01*
X190044Y188042D01*
X189744Y188642D01*
X189740Y188644D01*
X189741Y188647D01*
X188941Y189847D01*
X188934Y189850D01*
X188935Y189855D01*
X188435Y190355D01*
X188431Y190355D01*
X188431Y190358D01*
X187431Y191158D01*
X187423Y191159D01*
X187422Y191164D01*
X186222Y191764D01*
X186215Y191763D01*
X186214Y191767D01*
X185515Y191967D01*
X184916Y192167D01*
X184909Y192165D01*
X184907Y192169D01*
X184207Y192269D01*
X184202Y192266D01*
X184200Y192269D01*
X159400Y192269D01*
X159396Y192266D01*
X159393Y192269D01*
X157993Y192069D01*
X157985Y192061D01*
X157978Y192064D01*
X157381Y191766D01*
X156784Y191567D01*
X156779Y191559D01*
X156773Y191561D01*
X156175Y191163D01*
X155578Y190864D01*
X155573Y190854D01*
X155565Y190855D01*
X154565Y189855D01*
X154565Y189851D01*
X154562Y189851D01*
X154162Y189351D01*
X154161Y189343D01*
X154156Y189342D01*
X153857Y188745D01*
X153459Y188147D01*
X153459Y188141D01*
X153456Y188139D01*
X153457Y188137D01*
X153453Y188136D01*
X153253Y187536D01*
X153254Y187534D01*
X153253Y187534D01*
X153229Y187449D01*
X153186Y187301D01*
X153172Y187252D01*
X153130Y187104D01*
X153088Y186957D01*
X153074Y186907D01*
X153053Y186834D01*
X153054Y186830D01*
X153051Y186828D01*
X152951Y186228D01*
X152954Y186223D01*
X152951Y186220D01*
X152951Y184820D01*
X152954Y184816D01*
X152951Y184813D01*
X153051Y184113D01*
X153056Y184108D01*
X153053Y184104D01*
X153453Y182904D01*
X153456Y182903D01*
X153455Y182901D01*
X153755Y182201D01*
X153759Y182198D01*
X153758Y182195D01*
X154058Y181695D01*
X154059Y181694D01*
X154059Y181693D01*
X154459Y181093D01*
X154466Y181090D01*
X154465Y181085D01*
X154965Y180585D01*
X154969Y180585D01*
X154969Y180582D01*
X155969Y179782D01*
X155973Y179781D01*
X155973Y179779D01*
X156573Y179379D01*
X156577Y179379D01*
X156578Y179376D01*
X157178Y179076D01*
X157183Y179077D01*
X157184Y179073D01*
X157784Y178873D01*
X157786Y178874D01*
X157786Y178873D01*
X158486Y178673D01*
X158496Y178676D01*
X158500Y178671D01*
X159196Y178671D01*
X159792Y178571D01*
X159797Y178574D01*
X159800Y178571D01*
X184200Y178571D01*
X184204Y178574D01*
G37*
G36*
X171847Y21167D02*
X171847Y21167D01*
X171845Y21170D01*
X171849Y21172D01*
X171949Y21772D01*
X171946Y21777D01*
X171949Y21780D01*
X171949Y50980D01*
X171946Y50985D01*
X171949Y50988D01*
X171849Y51588D01*
X171824Y51611D01*
X171822Y51624D01*
X165122Y54924D01*
X165090Y54918D01*
X165078Y54924D01*
X158478Y51624D01*
X158466Y51600D01*
X158453Y51596D01*
X158253Y50996D01*
X158255Y50991D01*
X158253Y50990D01*
X158257Y50984D01*
X158251Y50980D01*
X158251Y21280D01*
X158287Y21233D01*
X158290Y21235D01*
X158292Y21231D01*
X158892Y21131D01*
X158897Y21134D01*
X158900Y21131D01*
X171800Y21131D01*
X171847Y21167D01*
G37*
G36*
X79425Y225482D02*
X79425Y225482D01*
X79451Y225483D01*
X79505Y225513D01*
X79563Y225535D01*
X79580Y225554D01*
X79603Y225566D01*
X79638Y225617D01*
X79680Y225662D01*
X79688Y225687D01*
X79703Y225708D01*
X79719Y225792D01*
X79730Y225828D01*
X79728Y225838D01*
X79730Y225850D01*
X79730Y239550D01*
X79726Y239570D01*
X79727Y239597D01*
X79627Y240397D01*
X79619Y240421D01*
X79616Y240454D01*
X79416Y241154D01*
X79397Y241188D01*
X79376Y241246D01*
X78776Y242246D01*
X78756Y242266D01*
X78688Y242347D01*
X78188Y242747D01*
X78183Y242749D01*
X78178Y242754D01*
X77778Y243054D01*
X77743Y243069D01*
X77691Y243103D01*
X77191Y243303D01*
X77162Y243307D01*
X77125Y243323D01*
X76625Y243423D01*
X76619Y243423D01*
X76613Y243425D01*
X76013Y243525D01*
X75986Y243523D01*
X75950Y243530D01*
X74750Y243530D01*
X74735Y243527D01*
X74720Y243529D01*
X74588Y243492D01*
X74581Y243491D01*
X74581Y243490D01*
X74580Y243490D01*
X74204Y243302D01*
X74180Y243290D01*
X74161Y243274D01*
X74137Y243265D01*
X74095Y243219D01*
X74047Y243179D01*
X74037Y243157D01*
X74020Y243138D01*
X74002Y243078D01*
X73976Y243021D01*
X73978Y242996D01*
X73970Y242972D01*
X73981Y242910D01*
X73984Y242848D01*
X73996Y242826D01*
X74000Y242801D01*
X74049Y242728D01*
X74067Y242696D01*
X74075Y242691D01*
X74081Y242681D01*
X74181Y242581D01*
X74213Y242561D01*
X74280Y242510D01*
X74680Y242310D01*
X74703Y242304D01*
X74730Y242289D01*
X74945Y242218D01*
X75418Y241745D01*
X75470Y241588D01*
X75470Y241312D01*
X75405Y241119D01*
X75255Y240892D01*
X74736Y240374D01*
X74341Y240216D01*
X73912Y240130D01*
X73197Y240130D01*
X72506Y240303D01*
X72010Y240634D01*
X71689Y241035D01*
X71530Y241512D01*
X71530Y242081D01*
X71777Y242739D01*
X72419Y243381D01*
X72424Y243390D01*
X72434Y243397D01*
X73234Y244297D01*
X73235Y244299D01*
X73236Y244300D01*
X73936Y245100D01*
X73952Y245129D01*
X73982Y245165D01*
X74482Y246065D01*
X74493Y246103D01*
X74521Y246168D01*
X74721Y247068D01*
X74721Y247070D01*
X74722Y247072D01*
X74721Y247101D01*
X74730Y247150D01*
X74730Y247950D01*
X74722Y247987D01*
X74711Y248070D01*
X74411Y248970D01*
X74392Y249001D01*
X74372Y249052D01*
X73872Y249852D01*
X73851Y249873D01*
X73783Y249950D01*
X72883Y250650D01*
X72859Y250661D01*
X72832Y250684D01*
X71732Y251284D01*
X71713Y251289D01*
X71699Y251299D01*
X71666Y251306D01*
X71618Y251324D01*
X70518Y251524D01*
X70489Y251523D01*
X70450Y251530D01*
X69450Y251530D01*
X69417Y251523D01*
X69368Y251521D01*
X68468Y251321D01*
X68435Y251305D01*
X68380Y251290D01*
X68374Y251287D01*
X67614Y250907D01*
X66980Y250590D01*
X66958Y250572D01*
X66922Y250554D01*
X66522Y250254D01*
X66507Y250236D01*
X66481Y250219D01*
X66381Y250119D01*
X66368Y250097D01*
X66348Y250081D01*
X66322Y250024D01*
X66290Y249972D01*
X66287Y249946D01*
X66277Y249922D01*
X66279Y249861D01*
X66273Y249799D01*
X66282Y249775D01*
X66283Y249749D01*
X66313Y249695D01*
X66335Y249637D01*
X66354Y249620D01*
X66366Y249597D01*
X66417Y249562D01*
X66462Y249520D01*
X66487Y249512D01*
X66508Y249497D01*
X66592Y249481D01*
X66628Y249470D01*
X66638Y249472D01*
X66650Y249470D01*
X66750Y249470D01*
X66765Y249473D01*
X66780Y249471D01*
X66912Y249508D01*
X66919Y249509D01*
X66919Y249510D01*
X66920Y249510D01*
X67040Y249570D01*
X67503Y249570D01*
X67858Y249481D01*
X67866Y249481D01*
X67875Y249477D01*
X68326Y249387D01*
X68649Y249225D01*
X68970Y248985D01*
X69121Y248759D01*
X69198Y248604D01*
X69270Y248388D01*
X69270Y247897D01*
X69197Y247606D01*
X68855Y247092D01*
X68300Y246538D01*
X67930Y246261D01*
X67659Y246080D01*
X67427Y245964D01*
X67317Y245909D01*
X66603Y245730D01*
X66412Y245730D01*
X66255Y245782D01*
X66063Y245975D01*
X66002Y246096D01*
X65930Y246312D01*
X65930Y247150D01*
X65918Y247201D01*
X65917Y247245D01*
X65909Y247259D01*
X65905Y247286D01*
X65895Y247301D01*
X65891Y247319D01*
X65849Y247370D01*
X65834Y247397D01*
X65826Y247402D01*
X65808Y247430D01*
X65792Y247439D01*
X65781Y247452D01*
X65717Y247481D01*
X65705Y247488D01*
X65692Y247497D01*
X65688Y247498D01*
X65657Y247515D01*
X65639Y247516D01*
X65622Y247523D01*
X65566Y247521D01*
X65550Y247524D01*
X65540Y247524D01*
X65530Y247522D01*
X65484Y247524D01*
X65465Y247517D01*
X65449Y247517D01*
X65415Y247498D01*
X65394Y247490D01*
X65372Y247485D01*
X65364Y247478D01*
X65348Y247472D01*
X64548Y246972D01*
X64521Y246945D01*
X64466Y246903D01*
X63666Y246003D01*
X63653Y245980D01*
X63629Y245954D01*
X62929Y244854D01*
X62917Y244820D01*
X62889Y244770D01*
X62389Y243270D01*
X62387Y243248D01*
X62376Y243220D01*
X62076Y241620D01*
X62078Y241584D01*
X62070Y241528D01*
X62170Y239828D01*
X62179Y239797D01*
X62182Y239753D01*
X62682Y237853D01*
X62700Y237821D01*
X62718Y237765D01*
X63718Y235965D01*
X63735Y235947D01*
X63750Y235917D01*
X64450Y235017D01*
X64466Y235003D01*
X64481Y234981D01*
X65281Y234181D01*
X65291Y234175D01*
X65300Y234164D01*
X66100Y233464D01*
X66125Y233450D01*
X66154Y233424D01*
X67154Y232824D01*
X67179Y232816D01*
X67209Y232797D01*
X68209Y232397D01*
X68228Y232394D01*
X68250Y232383D01*
X69350Y232083D01*
X69367Y232083D01*
X69388Y232075D01*
X70588Y231875D01*
X70614Y231877D01*
X70650Y231870D01*
X72519Y231870D01*
X73016Y231787D01*
X73914Y231248D01*
X74871Y230292D01*
X76061Y228903D01*
X76072Y228895D01*
X76081Y228881D01*
X77269Y227693D01*
X77758Y227107D01*
X77770Y227097D01*
X77781Y227081D01*
X78248Y226614D01*
X78524Y226154D01*
X78549Y226128D01*
X78581Y226081D01*
X79081Y225581D01*
X79103Y225568D01*
X79119Y225548D01*
X79176Y225522D01*
X79228Y225490D01*
X79254Y225487D01*
X79278Y225477D01*
X79339Y225479D01*
X79401Y225473D01*
X79425Y225482D01*
G37*
G36*
X173268Y216720D02*
X173268Y216720D01*
X173351Y216723D01*
X173355Y216726D01*
X173359Y216726D01*
X173488Y216793D01*
X173988Y217193D01*
X173999Y217208D01*
X174019Y217221D01*
X174504Y217706D01*
X175488Y218493D01*
X175499Y218508D01*
X175519Y218521D01*
X176404Y219406D01*
X176888Y219793D01*
X176899Y219808D01*
X176919Y219821D01*
X177419Y220321D01*
X177459Y220386D01*
X177503Y220448D01*
X177505Y220460D01*
X177510Y220468D01*
X177514Y220505D01*
X177530Y220590D01*
X177530Y238990D01*
X177527Y239003D01*
X177529Y239017D01*
X177508Y239087D01*
X177491Y239159D01*
X177482Y239169D01*
X177478Y239182D01*
X177427Y239236D01*
X177381Y239292D01*
X177368Y239298D01*
X177359Y239308D01*
X177225Y239363D01*
X176733Y239461D01*
X176342Y239559D01*
X176334Y239559D01*
X176325Y239563D01*
X175825Y239663D01*
X175793Y239662D01*
X175750Y239670D01*
X175388Y239670D01*
X174433Y239861D01*
X174042Y239959D01*
X174034Y239959D01*
X174025Y239963D01*
X173525Y240063D01*
X173523Y240063D01*
X173522Y240063D01*
X173438Y240060D01*
X173351Y240057D01*
X173350Y240057D01*
X173349Y240057D01*
X173275Y240016D01*
X173199Y239975D01*
X173198Y239974D01*
X173197Y239974D01*
X173149Y239905D01*
X173098Y239834D01*
X173098Y239833D01*
X173097Y239832D01*
X173070Y239690D01*
X173070Y238974D01*
X172947Y239128D01*
X172924Y239145D01*
X172846Y239216D01*
X171846Y239816D01*
X171833Y239820D01*
X171820Y239830D01*
X171220Y240130D01*
X171182Y240139D01*
X171113Y240165D01*
X169313Y240465D01*
X169274Y240463D01*
X169203Y240467D01*
X167603Y240267D01*
X167569Y240255D01*
X167514Y240245D01*
X166214Y239745D01*
X166187Y239727D01*
X166146Y239711D01*
X165046Y239011D01*
X165022Y238987D01*
X164981Y238959D01*
X164081Y238059D01*
X164061Y238027D01*
X164022Y237982D01*
X163322Y236782D01*
X163314Y236756D01*
X163295Y236727D01*
X162795Y235427D01*
X162792Y235401D01*
X162778Y235370D01*
X162478Y233970D01*
X162479Y233937D01*
X162470Y233890D01*
X162470Y232490D01*
X162473Y232478D01*
X162471Y232463D01*
X162571Y231063D01*
X162574Y231051D01*
X162574Y231036D01*
X162774Y229636D01*
X162787Y229601D01*
X162799Y229544D01*
X163299Y228344D01*
X163315Y228321D01*
X163329Y228286D01*
X164029Y227186D01*
X164053Y227162D01*
X164081Y227121D01*
X164981Y226221D01*
X165005Y226206D01*
X165032Y226179D01*
X166032Y225479D01*
X166066Y225465D01*
X166114Y225435D01*
X167414Y224935D01*
X167452Y224930D01*
X167525Y224911D01*
X169025Y224811D01*
X169036Y224812D01*
X169050Y224810D01*
X169650Y224810D01*
X169676Y224816D01*
X169713Y224815D01*
X170313Y224915D01*
X170336Y224925D01*
X170370Y224929D01*
X171570Y225329D01*
X171599Y225347D01*
X171646Y225364D01*
X172146Y225664D01*
X172162Y225680D01*
X172188Y225693D01*
X172688Y226093D01*
X172699Y226108D01*
X172719Y226121D01*
X172870Y226272D01*
X172870Y217090D01*
X172871Y217086D01*
X172870Y217081D01*
X172890Y217001D01*
X172909Y216921D01*
X172912Y216918D01*
X172913Y216913D01*
X172967Y216851D01*
X173019Y216788D01*
X173024Y216786D01*
X173027Y216782D01*
X173103Y216750D01*
X173178Y216717D01*
X173182Y216717D01*
X173186Y216715D01*
X173268Y216720D01*
G37*
G36*
X157380Y224717D02*
X157380Y224717D01*
X157425Y224717D01*
X157888Y224810D01*
X158350Y224810D01*
X158365Y224813D01*
X158380Y224811D01*
X158512Y224848D01*
X158519Y224849D01*
X158519Y224850D01*
X158520Y224850D01*
X158883Y225031D01*
X159242Y225121D01*
X159272Y225137D01*
X159320Y225150D01*
X160040Y225510D01*
X160120Y225550D01*
X160136Y225563D01*
X160161Y225574D01*
X160461Y225774D01*
X160482Y225797D01*
X160519Y225821D01*
X161119Y226421D01*
X161131Y226441D01*
X161154Y226462D01*
X161454Y226862D01*
X161466Y226888D01*
X161490Y226920D01*
X161690Y227320D01*
X161698Y227353D01*
X161719Y227398D01*
X161919Y228198D01*
X161919Y228206D01*
X161923Y228215D01*
X162023Y228715D01*
X162022Y228747D01*
X162030Y228790D01*
X162030Y229290D01*
X162027Y229305D01*
X162029Y229324D01*
X161929Y230424D01*
X161918Y230458D01*
X161911Y230510D01*
X161611Y231410D01*
X161590Y231444D01*
X161559Y231511D01*
X161059Y232211D01*
X161039Y232229D01*
X161019Y232259D01*
X160419Y232859D01*
X160386Y232879D01*
X160339Y232920D01*
X159639Y233320D01*
X159613Y233328D01*
X159584Y233346D01*
X158784Y233646D01*
X158760Y233649D01*
X158733Y233661D01*
X157833Y233861D01*
X157816Y233861D01*
X157797Y233867D01*
X157015Y233965D01*
X156133Y234161D01*
X156114Y234161D01*
X156092Y234168D01*
X155193Y234268D01*
X154401Y234367D01*
X153738Y234462D01*
X153229Y234631D01*
X152922Y234862D01*
X152706Y235149D01*
X152630Y235528D01*
X152630Y235728D01*
X152711Y235970D01*
X152714Y236007D01*
X152720Y236038D01*
X152723Y236045D01*
X152723Y236053D01*
X152730Y236090D01*
X152730Y236200D01*
X152863Y236465D01*
X153075Y236678D01*
X153540Y236910D01*
X153650Y236910D01*
X153665Y236913D01*
X153680Y236911D01*
X153812Y236948D01*
X153819Y236949D01*
X153819Y236950D01*
X153820Y236950D01*
X153940Y237010D01*
X154550Y237010D01*
X154565Y237013D01*
X154580Y237011D01*
X154712Y237048D01*
X154719Y237049D01*
X154719Y237050D01*
X154720Y237050D01*
X154779Y237079D01*
X154930Y237029D01*
X154967Y237026D01*
X155050Y237010D01*
X155488Y237010D01*
X155730Y236929D01*
X155767Y236926D01*
X155850Y236910D01*
X155960Y236910D01*
X156225Y236778D01*
X156738Y236265D01*
X156870Y236000D01*
X156870Y235790D01*
X156873Y235775D01*
X156871Y235760D01*
X156908Y235628D01*
X156909Y235621D01*
X156910Y235621D01*
X156910Y235620D01*
X156970Y235500D01*
X156970Y235290D01*
X156981Y235240D01*
X156983Y235189D01*
X157001Y235157D01*
X157009Y235121D01*
X157042Y235082D01*
X157066Y235037D01*
X157096Y235016D01*
X157119Y234988D01*
X157166Y234967D01*
X157208Y234937D01*
X157250Y234929D01*
X157278Y234917D01*
X157308Y234918D01*
X157350Y234910D01*
X161250Y234910D01*
X161325Y234927D01*
X161402Y234941D01*
X161409Y234947D01*
X161419Y234949D01*
X161479Y234999D01*
X161541Y235045D01*
X161545Y235053D01*
X161552Y235059D01*
X161584Y235130D01*
X161619Y235199D01*
X161620Y235210D01*
X161623Y235218D01*
X161622Y235253D01*
X161626Y235344D01*
X161526Y236044D01*
X161523Y236053D01*
X161523Y236065D01*
X161423Y236565D01*
X161415Y236582D01*
X161414Y236598D01*
X161412Y236603D01*
X161411Y236610D01*
X161211Y237210D01*
X161193Y237239D01*
X161176Y237286D01*
X160876Y237786D01*
X160864Y237798D01*
X160854Y237818D01*
X160554Y238218D01*
X160536Y238233D01*
X160519Y238259D01*
X160119Y238659D01*
X160099Y238671D01*
X160078Y238694D01*
X159278Y239294D01*
X159262Y239301D01*
X159246Y239316D01*
X158746Y239616D01*
X158721Y239624D01*
X158691Y239643D01*
X157691Y240043D01*
X157658Y240048D01*
X157613Y240065D01*
X155813Y240365D01*
X155786Y240363D01*
X155750Y240370D01*
X153550Y240370D01*
X153524Y240364D01*
X153488Y240365D01*
X152919Y240270D01*
X152450Y240270D01*
X152420Y240263D01*
X152375Y240263D01*
X151875Y240163D01*
X151857Y240154D01*
X151830Y240151D01*
X151244Y239955D01*
X150858Y239859D01*
X150838Y239849D01*
X150809Y239843D01*
X150309Y239643D01*
X150297Y239635D01*
X150280Y239630D01*
X150020Y239500D01*
X149880Y239430D01*
X149858Y239412D01*
X149822Y239394D01*
X149422Y239094D01*
X149407Y239076D01*
X149381Y239059D01*
X148681Y238359D01*
X148679Y238355D01*
X148675Y238353D01*
X148597Y238231D01*
X148403Y237746D01*
X148210Y237360D01*
X148201Y237322D01*
X148175Y237253D01*
X147975Y236053D01*
X147977Y236026D01*
X147970Y235990D01*
X147970Y227080D01*
X147910Y226960D01*
X147906Y226945D01*
X147897Y226932D01*
X147871Y226798D01*
X147870Y226792D01*
X147870Y226791D01*
X147870Y226790D01*
X147870Y226480D01*
X147810Y226360D01*
X147806Y226345D01*
X147797Y226332D01*
X147771Y226198D01*
X147770Y226192D01*
X147770Y226191D01*
X147770Y226190D01*
X147770Y226180D01*
X147710Y226060D01*
X147706Y226045D01*
X147697Y226032D01*
X147671Y225898D01*
X147670Y225892D01*
X147670Y225891D01*
X147670Y225890D01*
X147670Y225880D01*
X147610Y225760D01*
X147606Y225745D01*
X147597Y225732D01*
X147571Y225598D01*
X147570Y225592D01*
X147570Y225591D01*
X147570Y225590D01*
X147570Y225490D01*
X147581Y225440D01*
X147583Y225389D01*
X147601Y225357D01*
X147609Y225321D01*
X147642Y225282D01*
X147666Y225237D01*
X147696Y225216D01*
X147719Y225188D01*
X147766Y225167D01*
X147808Y225137D01*
X147850Y225129D01*
X147878Y225117D01*
X147908Y225118D01*
X147950Y225110D01*
X151850Y225110D01*
X151900Y225121D01*
X151951Y225123D01*
X151983Y225141D01*
X152019Y225149D01*
X152058Y225182D01*
X152103Y225206D01*
X152124Y225236D01*
X152152Y225259D01*
X152173Y225306D01*
X152203Y225348D01*
X152211Y225390D01*
X152223Y225418D01*
X152222Y225448D01*
X152230Y225490D01*
X152230Y225539D01*
X152259Y225586D01*
X152303Y225648D01*
X152305Y225660D01*
X152310Y225668D01*
X152314Y225705D01*
X152316Y225719D01*
X152319Y225721D01*
X152359Y225786D01*
X152403Y225848D01*
X152405Y225860D01*
X152410Y225868D01*
X152414Y225905D01*
X152430Y225990D01*
X152430Y226013D01*
X152639Y225874D01*
X152675Y225860D01*
X152730Y225829D01*
X152982Y225745D01*
X153239Y225574D01*
X153259Y225566D01*
X153280Y225550D01*
X153459Y225461D01*
X153739Y225274D01*
X153775Y225260D01*
X153830Y225229D01*
X154130Y225129D01*
X154143Y225128D01*
X154158Y225121D01*
X154544Y225025D01*
X154830Y224929D01*
X154867Y224926D01*
X154950Y224910D01*
X155188Y224910D01*
X155430Y224829D01*
X155467Y224826D01*
X155550Y224810D01*
X156188Y224810D01*
X156430Y224729D01*
X156467Y224726D01*
X156550Y224710D01*
X157350Y224710D01*
X157380Y224717D01*
G37*
G36*
X126384Y225118D02*
X126384Y225118D01*
X126418Y225116D01*
X126467Y225137D01*
X126519Y225149D01*
X126545Y225171D01*
X126577Y225185D01*
X126622Y225235D01*
X126652Y225259D01*
X126660Y225276D01*
X126675Y225292D01*
X130323Y231279D01*
X131370Y230233D01*
X131370Y225490D01*
X131381Y225440D01*
X131383Y225389D01*
X131401Y225357D01*
X131409Y225321D01*
X131442Y225282D01*
X131466Y225237D01*
X131496Y225216D01*
X131519Y225188D01*
X131566Y225167D01*
X131608Y225137D01*
X131650Y225129D01*
X131678Y225117D01*
X131708Y225118D01*
X131750Y225110D01*
X135550Y225110D01*
X135600Y225121D01*
X135651Y225123D01*
X135683Y225141D01*
X135719Y225149D01*
X135758Y225182D01*
X135803Y225206D01*
X135824Y225236D01*
X135852Y225259D01*
X135873Y225306D01*
X135903Y225348D01*
X135911Y225390D01*
X135923Y225418D01*
X135922Y225448D01*
X135930Y225490D01*
X135930Y242890D01*
X135921Y242928D01*
X135922Y242967D01*
X135902Y243011D01*
X135891Y243059D01*
X135866Y243089D01*
X135850Y243124D01*
X135804Y243163D01*
X135781Y243192D01*
X135761Y243201D01*
X135741Y243219D01*
X131941Y245419D01*
X131880Y245437D01*
X131822Y245463D01*
X131798Y245462D01*
X131775Y245469D01*
X131713Y245459D01*
X131649Y245457D01*
X131628Y245445D01*
X131604Y245441D01*
X131553Y245404D01*
X131497Y245374D01*
X131483Y245354D01*
X131463Y245340D01*
X131434Y245284D01*
X131397Y245232D01*
X131392Y245205D01*
X131382Y245187D01*
X131381Y245149D01*
X131370Y245090D01*
X131370Y235535D01*
X127124Y239953D01*
X127057Y239997D01*
X126992Y240043D01*
X126984Y240044D01*
X126979Y240048D01*
X126946Y240052D01*
X126850Y240070D01*
X122250Y240070D01*
X122223Y240064D01*
X122196Y240066D01*
X122140Y240044D01*
X122081Y240031D01*
X122060Y240013D01*
X122034Y240003D01*
X121994Y239959D01*
X121948Y239921D01*
X121936Y239895D01*
X121918Y239875D01*
X121901Y239817D01*
X121877Y239762D01*
X121878Y239735D01*
X121870Y239708D01*
X121881Y239649D01*
X121883Y239589D01*
X121897Y239565D01*
X121902Y239538D01*
X121948Y239471D01*
X121966Y239437D01*
X121976Y239430D01*
X121984Y239419D01*
X127061Y234437D01*
X121332Y225698D01*
X121307Y225629D01*
X121277Y225562D01*
X121277Y225549D01*
X121273Y225536D01*
X121281Y225463D01*
X121283Y225389D01*
X121290Y225377D01*
X121291Y225364D01*
X121331Y225302D01*
X121366Y225237D01*
X121377Y225229D01*
X121385Y225218D01*
X121448Y225180D01*
X121508Y225137D01*
X121523Y225134D01*
X121533Y225128D01*
X121572Y225125D01*
X121650Y225110D01*
X126350Y225110D01*
X126384Y225118D01*
G37*
G36*
X86900Y225121D02*
X86900Y225121D01*
X86951Y225123D01*
X86983Y225141D01*
X87019Y225149D01*
X87058Y225182D01*
X87103Y225206D01*
X87124Y225236D01*
X87152Y225259D01*
X87173Y225306D01*
X87203Y225348D01*
X87211Y225390D01*
X87223Y225418D01*
X87222Y225448D01*
X87230Y225490D01*
X87230Y234263D01*
X87322Y234902D01*
X87498Y235430D01*
X87766Y235878D01*
X88022Y236218D01*
X88304Y236430D01*
X89354Y236605D01*
X90620Y236424D01*
X90996Y236199D01*
X91337Y235772D01*
X91598Y235337D01*
X91781Y234696D01*
X91970Y233848D01*
X91970Y225490D01*
X91981Y225440D01*
X91983Y225389D01*
X92001Y225357D01*
X92009Y225321D01*
X92042Y225282D01*
X92066Y225237D01*
X92096Y225216D01*
X92119Y225188D01*
X92166Y225167D01*
X92208Y225137D01*
X92250Y225129D01*
X92278Y225117D01*
X92308Y225118D01*
X92350Y225110D01*
X96250Y225110D01*
X96300Y225121D01*
X96351Y225123D01*
X96383Y225141D01*
X96419Y225149D01*
X96458Y225182D01*
X96503Y225206D01*
X96524Y225236D01*
X96552Y225259D01*
X96573Y225306D01*
X96603Y225348D01*
X96611Y225390D01*
X96623Y225418D01*
X96622Y225448D01*
X96630Y225490D01*
X96630Y237890D01*
X96628Y237899D01*
X96630Y237911D01*
X96530Y239711D01*
X96518Y239750D01*
X96517Y239791D01*
X96494Y239832D01*
X96481Y239877D01*
X96453Y239907D01*
X96434Y239943D01*
X96395Y239970D01*
X96363Y240005D01*
X96325Y240019D01*
X96292Y240043D01*
X96236Y240054D01*
X96202Y240067D01*
X96179Y240065D01*
X96150Y240070D01*
X92550Y240070D01*
X92500Y240059D01*
X92449Y240057D01*
X92417Y240039D01*
X92381Y240031D01*
X92342Y239998D01*
X92297Y239974D01*
X92276Y239944D01*
X92248Y239921D01*
X92227Y239874D01*
X92197Y239832D01*
X92189Y239790D01*
X92177Y239762D01*
X92178Y239732D01*
X92170Y239690D01*
X92170Y238749D01*
X91947Y239028D01*
X91924Y239045D01*
X91921Y239052D01*
X91905Y239063D01*
X91861Y239106D01*
X91261Y239506D01*
X91253Y239509D01*
X91246Y239516D01*
X90746Y239816D01*
X90713Y239826D01*
X90670Y239851D01*
X89470Y240251D01*
X89445Y240253D01*
X89413Y240265D01*
X88213Y240465D01*
X88174Y240463D01*
X88096Y240466D01*
X86696Y240266D01*
X86680Y240260D01*
X86658Y240259D01*
X85458Y239959D01*
X85424Y239942D01*
X85365Y239922D01*
X84465Y239422D01*
X84437Y239396D01*
X84381Y239359D01*
X83781Y238759D01*
X83761Y238726D01*
X83718Y238675D01*
X83218Y237775D01*
X83212Y237754D01*
X83197Y237731D01*
X82797Y236731D01*
X82791Y236693D01*
X82771Y236624D01*
X82671Y235524D01*
X82672Y235522D01*
X82671Y235519D01*
X82571Y234219D01*
X82573Y234206D01*
X82570Y234190D01*
X82570Y225490D01*
X82581Y225440D01*
X82583Y225389D01*
X82601Y225357D01*
X82609Y225321D01*
X82642Y225282D01*
X82666Y225237D01*
X82696Y225216D01*
X82719Y225188D01*
X82766Y225167D01*
X82808Y225137D01*
X82850Y225129D01*
X82878Y225117D01*
X82908Y225118D01*
X82950Y225110D01*
X86850Y225110D01*
X86900Y225121D01*
G37*
G36*
X107904Y224914D02*
X107904Y224914D01*
X107923Y224921D01*
X107950Y224923D01*
X109050Y225223D01*
X109082Y225240D01*
X109135Y225258D01*
X110035Y225758D01*
X110058Y225779D01*
X110097Y225801D01*
X110797Y226401D01*
X110814Y226424D01*
X110882Y226505D01*
X111382Y227405D01*
X111392Y227438D01*
X111414Y227481D01*
X111714Y228481D01*
X111715Y228500D01*
X111724Y228522D01*
X111924Y229622D01*
X111923Y229651D01*
X111930Y229690D01*
X111930Y239690D01*
X111919Y239740D01*
X111917Y239791D01*
X111899Y239823D01*
X111891Y239859D01*
X111858Y239898D01*
X111834Y239943D01*
X111804Y239964D01*
X111781Y239992D01*
X111734Y240013D01*
X111692Y240043D01*
X111650Y240051D01*
X111622Y240063D01*
X111592Y240062D01*
X111550Y240070D01*
X107650Y240070D01*
X107600Y240059D01*
X107549Y240057D01*
X107517Y240039D01*
X107481Y240031D01*
X107442Y239998D01*
X107397Y239974D01*
X107376Y239944D01*
X107348Y239921D01*
X107327Y239874D01*
X107297Y239832D01*
X107289Y239790D01*
X107277Y239762D01*
X107278Y239732D01*
X107270Y239690D01*
X107270Y230917D01*
X107178Y230278D01*
X106993Y229721D01*
X106826Y229304D01*
X106500Y228978D01*
X106191Y228746D01*
X105786Y228665D01*
X105150Y228574D01*
X104507Y228666D01*
X103984Y228753D01*
X103586Y228992D01*
X103152Y229426D01*
X102902Y229843D01*
X102724Y230464D01*
X102628Y231330D01*
X102530Y232309D01*
X102530Y239690D01*
X102519Y239740D01*
X102517Y239791D01*
X102499Y239823D01*
X102491Y239859D01*
X102458Y239898D01*
X102434Y239943D01*
X102404Y239964D01*
X102381Y239992D01*
X102334Y240013D01*
X102292Y240043D01*
X102250Y240051D01*
X102222Y240063D01*
X102192Y240062D01*
X102150Y240070D01*
X98350Y240070D01*
X98300Y240059D01*
X98249Y240057D01*
X98217Y240039D01*
X98181Y240031D01*
X98142Y239998D01*
X98097Y239974D01*
X98076Y239944D01*
X98048Y239921D01*
X98027Y239874D01*
X97997Y239832D01*
X97989Y239790D01*
X97977Y239762D01*
X97978Y239732D01*
X97970Y239690D01*
X97970Y225490D01*
X97981Y225440D01*
X97983Y225389D01*
X98001Y225357D01*
X98009Y225321D01*
X98042Y225282D01*
X98066Y225237D01*
X98096Y225216D01*
X98119Y225188D01*
X98166Y225167D01*
X98208Y225137D01*
X98250Y225129D01*
X98278Y225117D01*
X98308Y225118D01*
X98350Y225110D01*
X102050Y225110D01*
X102100Y225121D01*
X102151Y225123D01*
X102183Y225141D01*
X102219Y225149D01*
X102258Y225182D01*
X102303Y225206D01*
X102324Y225236D01*
X102352Y225259D01*
X102373Y225306D01*
X102403Y225348D01*
X102411Y225390D01*
X102423Y225418D01*
X102422Y225448D01*
X102430Y225490D01*
X102430Y226419D01*
X102696Y226206D01*
X103181Y225721D01*
X103212Y225702D01*
X103254Y225664D01*
X103754Y225364D01*
X103787Y225354D01*
X103830Y225329D01*
X105030Y224929D01*
X105055Y224927D01*
X105088Y224915D01*
X105688Y224815D01*
X105692Y224815D01*
X105696Y224814D01*
X106396Y224714D01*
X106435Y224717D01*
X106504Y224714D01*
X107904Y224914D01*
G37*
G36*
X186476Y224816D02*
X186476Y224816D01*
X186513Y224815D01*
X187713Y225015D01*
X187740Y225026D01*
X187780Y225033D01*
X188880Y225433D01*
X188896Y225443D01*
X188920Y225450D01*
X189240Y225610D01*
X189920Y225950D01*
X189942Y225968D01*
X189978Y225986D01*
X190778Y226586D01*
X190803Y226615D01*
X190850Y226657D01*
X191550Y227557D01*
X191566Y227592D01*
X191607Y227660D01*
X192007Y228760D01*
X192011Y228789D01*
X192025Y228828D01*
X192225Y230028D01*
X192220Y230109D01*
X192217Y230191D01*
X192214Y230195D01*
X192214Y230200D01*
X192173Y230271D01*
X192134Y230343D01*
X192130Y230346D01*
X192127Y230350D01*
X192059Y230396D01*
X191992Y230443D01*
X191987Y230444D01*
X191983Y230446D01*
X191955Y230450D01*
X191850Y230470D01*
X188150Y230470D01*
X188131Y230466D01*
X188111Y230468D01*
X188047Y230446D01*
X187981Y230431D01*
X187966Y230418D01*
X187947Y230412D01*
X187900Y230364D01*
X187848Y230321D01*
X187839Y230302D01*
X187826Y230288D01*
X187788Y230188D01*
X187777Y230162D01*
X187777Y230158D01*
X187775Y230153D01*
X187684Y229609D01*
X187510Y229260D01*
X187507Y229246D01*
X187497Y229231D01*
X187337Y228830D01*
X187062Y228624D01*
X186141Y228256D01*
X185681Y228164D01*
X185166Y228078D01*
X184842Y228159D01*
X184806Y228159D01*
X184750Y228170D01*
X184423Y228170D01*
X183991Y228343D01*
X183969Y228346D01*
X183942Y228359D01*
X183644Y228433D01*
X183163Y228915D01*
X183030Y229180D01*
X183030Y229543D01*
X183103Y229834D01*
X183246Y230048D01*
X183486Y230288D01*
X183903Y230538D01*
X185244Y230921D01*
X186128Y231118D01*
X187125Y231317D01*
X187149Y231328D01*
X187184Y231334D01*
X187963Y231626D01*
X188742Y231821D01*
X188759Y231830D01*
X188784Y231834D01*
X189584Y232134D01*
X189605Y232149D01*
X189639Y232160D01*
X190339Y232560D01*
X190367Y232586D01*
X190419Y232621D01*
X191419Y233621D01*
X191423Y233628D01*
X191430Y233633D01*
X191506Y233757D01*
X191806Y234557D01*
X191811Y234592D01*
X191813Y234599D01*
X191824Y234624D01*
X191824Y234632D01*
X191827Y234643D01*
X191927Y235443D01*
X191923Y235481D01*
X191926Y235548D01*
X191726Y236848D01*
X191713Y236880D01*
X191703Y236931D01*
X191303Y237931D01*
X191282Y237961D01*
X191239Y238037D01*
X190639Y238737D01*
X190624Y238748D01*
X190622Y238752D01*
X190607Y238763D01*
X190578Y238794D01*
X189778Y239394D01*
X189757Y239403D01*
X189735Y239422D01*
X188835Y239922D01*
X188802Y239932D01*
X188759Y239954D01*
X187759Y240254D01*
X187728Y240256D01*
X187684Y240269D01*
X186584Y240369D01*
X186583Y240369D01*
X186582Y240369D01*
X185382Y240469D01*
X185354Y240465D01*
X185316Y240469D01*
X183116Y240269D01*
X183085Y240259D01*
X183041Y240254D01*
X182041Y239954D01*
X182012Y239938D01*
X181965Y239922D01*
X181065Y239422D01*
X181049Y239407D01*
X181022Y239394D01*
X180222Y238794D01*
X180201Y238769D01*
X180164Y238740D01*
X179464Y237940D01*
X179448Y237910D01*
X179397Y237831D01*
X178997Y236831D01*
X178992Y236800D01*
X178976Y236758D01*
X178776Y235658D01*
X178780Y235573D01*
X178783Y235489D01*
X178784Y235487D01*
X178785Y235485D01*
X178826Y235410D01*
X178866Y235337D01*
X178868Y235336D01*
X178869Y235334D01*
X178941Y235285D01*
X179008Y235237D01*
X179010Y235237D01*
X179012Y235236D01*
X179029Y235233D01*
X179150Y235210D01*
X182850Y235210D01*
X182863Y235213D01*
X182877Y235211D01*
X182947Y235232D01*
X183019Y235249D01*
X183029Y235258D01*
X183042Y235262D01*
X183096Y235313D01*
X183152Y235359D01*
X183158Y235372D01*
X183168Y235381D01*
X183223Y235515D01*
X183321Y236007D01*
X183393Y236296D01*
X183875Y236778D01*
X184183Y236931D01*
X184533Y237019D01*
X184988Y237110D01*
X185788Y237110D01*
X186030Y237029D01*
X186067Y237026D01*
X186150Y237010D01*
X186488Y237010D01*
X186682Y236945D01*
X187131Y236646D01*
X187185Y236484D01*
X187260Y236181D01*
X187194Y235849D01*
X186978Y235562D01*
X186671Y235331D01*
X186137Y235153D01*
X184774Y234764D01*
X184003Y234667D01*
X183984Y234660D01*
X183958Y234659D01*
X183162Y234460D01*
X182268Y234261D01*
X182247Y234251D01*
X182217Y234246D01*
X181417Y233946D01*
X181410Y233942D01*
X181400Y233940D01*
X180700Y233640D01*
X180685Y233628D01*
X180661Y233620D01*
X179961Y233220D01*
X179941Y233201D01*
X179907Y233182D01*
X179307Y232682D01*
X179283Y232651D01*
X179278Y232646D01*
X179277Y232645D01*
X179234Y232601D01*
X178834Y232001D01*
X178821Y231968D01*
X178794Y231924D01*
X178494Y231124D01*
X178489Y231087D01*
X178472Y231032D01*
X178372Y230132D01*
X178376Y230102D01*
X178371Y230061D01*
X178471Y228761D01*
X178471Y228760D01*
X178510Y228620D01*
X179010Y227620D01*
X179023Y227604D01*
X179034Y227579D01*
X179634Y226679D01*
X179659Y226655D01*
X179722Y226586D01*
X180522Y225986D01*
X180548Y225974D01*
X180580Y225950D01*
X181580Y225450D01*
X181599Y225445D01*
X181620Y225433D01*
X182720Y225033D01*
X182749Y225029D01*
X182788Y225015D01*
X183988Y224815D01*
X184014Y224817D01*
X184050Y224810D01*
X186450Y224810D01*
X186476Y224816D01*
G37*
G36*
X119300Y225121D02*
X119300Y225121D01*
X119351Y225123D01*
X119383Y225141D01*
X119419Y225149D01*
X119458Y225182D01*
X119503Y225206D01*
X119524Y225236D01*
X119552Y225259D01*
X119573Y225306D01*
X119603Y225348D01*
X119611Y225390D01*
X119623Y225418D01*
X119622Y225448D01*
X119630Y225490D01*
X119630Y236710D01*
X123050Y236710D01*
X123075Y236716D01*
X123101Y236713D01*
X123159Y236735D01*
X123219Y236749D01*
X123239Y236766D01*
X123263Y236775D01*
X123305Y236820D01*
X123352Y236859D01*
X123363Y236883D01*
X123380Y236902D01*
X123398Y236961D01*
X123423Y237018D01*
X123422Y237043D01*
X123430Y237068D01*
X123419Y237129D01*
X123417Y237191D01*
X123404Y237213D01*
X123400Y237239D01*
X123352Y237310D01*
X123334Y237343D01*
X123326Y237349D01*
X123319Y237359D01*
X122719Y237959D01*
X122699Y237971D01*
X122678Y237994D01*
X122322Y238262D01*
X122054Y238618D01*
X122036Y238633D01*
X122019Y238659D01*
X121419Y239259D01*
X121399Y239271D01*
X121378Y239294D01*
X121022Y239562D01*
X120754Y239918D01*
X120742Y239929D01*
X120734Y239943D01*
X120676Y239984D01*
X120621Y240029D01*
X120606Y240033D01*
X120592Y240043D01*
X120465Y240067D01*
X120453Y240070D01*
X120452Y240070D01*
X120450Y240070D01*
X119630Y240070D01*
X119630Y240790D01*
X119626Y240808D01*
X119628Y240832D01*
X119528Y241732D01*
X119520Y241753D01*
X119519Y241782D01*
X119319Y242582D01*
X119301Y242617D01*
X119280Y242679D01*
X118880Y243379D01*
X118861Y243399D01*
X118842Y243433D01*
X118342Y244033D01*
X118330Y244043D01*
X118319Y244059D01*
X117719Y244659D01*
X117712Y244663D01*
X117707Y244670D01*
X117584Y244746D01*
X116784Y245046D01*
X116772Y245048D01*
X116759Y245054D01*
X115759Y245354D01*
X115728Y245356D01*
X115684Y245369D01*
X114584Y245469D01*
X114569Y245467D01*
X114550Y245470D01*
X113750Y245470D01*
X113713Y245462D01*
X113630Y245451D01*
X113388Y245370D01*
X112450Y245370D01*
X112400Y245359D01*
X112349Y245357D01*
X112317Y245339D01*
X112281Y245331D01*
X112242Y245298D01*
X112197Y245274D01*
X112176Y245244D01*
X112148Y245221D01*
X112127Y245174D01*
X112097Y245132D01*
X112089Y245090D01*
X112077Y245062D01*
X112078Y245032D01*
X112070Y244990D01*
X112070Y242090D01*
X112081Y242040D01*
X112083Y241989D01*
X112101Y241957D01*
X112109Y241921D01*
X112142Y241882D01*
X112166Y241837D01*
X112196Y241816D01*
X112219Y241788D01*
X112266Y241767D01*
X112308Y241737D01*
X112350Y241729D01*
X112378Y241717D01*
X112408Y241718D01*
X112450Y241710D01*
X114188Y241710D01*
X114704Y241538D01*
X114739Y241520D01*
X114789Y241370D01*
X114802Y241350D01*
X114810Y241320D01*
X114891Y241157D01*
X114970Y240843D01*
X114970Y240070D01*
X112650Y240070D01*
X112600Y240059D01*
X112549Y240057D01*
X112517Y240039D01*
X112481Y240031D01*
X112442Y239998D01*
X112397Y239974D01*
X112376Y239944D01*
X112348Y239921D01*
X112327Y239874D01*
X112297Y239832D01*
X112289Y239790D01*
X112277Y239762D01*
X112278Y239732D01*
X112270Y239690D01*
X112270Y237090D01*
X112281Y237040D01*
X112283Y236989D01*
X112301Y236957D01*
X112309Y236921D01*
X112342Y236882D01*
X112366Y236837D01*
X112396Y236816D01*
X112419Y236788D01*
X112466Y236767D01*
X112508Y236737D01*
X112550Y236729D01*
X112578Y236717D01*
X112608Y236718D01*
X112650Y236710D01*
X114970Y236710D01*
X114970Y225490D01*
X114981Y225440D01*
X114983Y225389D01*
X115001Y225357D01*
X115009Y225321D01*
X115042Y225282D01*
X115066Y225237D01*
X115096Y225216D01*
X115119Y225188D01*
X115166Y225167D01*
X115208Y225137D01*
X115250Y225129D01*
X115278Y225117D01*
X115308Y225118D01*
X115350Y225110D01*
X119250Y225110D01*
X119300Y225121D01*
G37*
G36*
X146300Y225121D02*
X146300Y225121D01*
X146351Y225123D01*
X146383Y225141D01*
X146419Y225149D01*
X146458Y225182D01*
X146503Y225206D01*
X146524Y225236D01*
X146552Y225259D01*
X146573Y225306D01*
X146603Y225348D01*
X146611Y225390D01*
X146623Y225418D01*
X146622Y225448D01*
X146630Y225490D01*
X146630Y238990D01*
X146627Y239003D01*
X146629Y239017D01*
X146608Y239087D01*
X146591Y239159D01*
X146582Y239169D01*
X146578Y239182D01*
X146527Y239236D01*
X146481Y239292D01*
X146468Y239298D01*
X146459Y239308D01*
X146325Y239363D01*
X145333Y239561D01*
X144942Y239659D01*
X144906Y239659D01*
X144850Y239670D01*
X144388Y239670D01*
X143933Y239761D01*
X143542Y239859D01*
X143534Y239859D01*
X143525Y239863D01*
X143033Y239961D01*
X142642Y240059D01*
X142632Y240059D01*
X142622Y240063D01*
X142546Y240060D01*
X142469Y240062D01*
X142460Y240057D01*
X142449Y240057D01*
X142382Y240020D01*
X142313Y239987D01*
X142306Y239979D01*
X142297Y239974D01*
X142253Y239911D01*
X142205Y239851D01*
X142203Y239841D01*
X142197Y239832D01*
X142170Y239690D01*
X142170Y238346D01*
X142066Y238501D01*
X142044Y238522D01*
X142019Y238559D01*
X141519Y239059D01*
X141492Y239075D01*
X141461Y239106D01*
X140261Y239906D01*
X140225Y239920D01*
X140154Y239956D01*
X138754Y240356D01*
X138716Y240358D01*
X138650Y240370D01*
X137250Y240370D01*
X137176Y240353D01*
X137101Y240340D01*
X137091Y240333D01*
X137081Y240331D01*
X137052Y240307D01*
X136981Y240259D01*
X136881Y240159D01*
X136841Y240094D01*
X136797Y240032D01*
X136795Y240020D01*
X136790Y240012D01*
X136786Y239975D01*
X136770Y239890D01*
X136770Y236290D01*
X136781Y236240D01*
X136783Y236189D01*
X136801Y236157D01*
X136809Y236121D01*
X136842Y236082D01*
X136866Y236037D01*
X136896Y236016D01*
X136919Y235988D01*
X136966Y235967D01*
X137008Y235937D01*
X137050Y235929D01*
X137078Y235917D01*
X137108Y235918D01*
X137150Y235910D01*
X137250Y235910D01*
X137265Y235913D01*
X137280Y235911D01*
X137412Y235948D01*
X137419Y235949D01*
X137419Y235950D01*
X137420Y235950D01*
X137540Y236010D01*
X138531Y236010D01*
X139485Y235914D01*
X140194Y235737D01*
X140708Y235395D01*
X141229Y234873D01*
X141787Y233573D01*
X141970Y232748D01*
X141970Y225490D01*
X141981Y225440D01*
X141983Y225389D01*
X142001Y225357D01*
X142009Y225321D01*
X142042Y225282D01*
X142066Y225237D01*
X142096Y225216D01*
X142119Y225188D01*
X142166Y225167D01*
X142208Y225137D01*
X142250Y225129D01*
X142278Y225117D01*
X142308Y225118D01*
X142350Y225110D01*
X146250Y225110D01*
X146300Y225121D01*
G37*
%LPC*%
G36*
X62608Y42959D02*
X62608Y42959D01*
X62019Y43156D01*
X60827Y43752D01*
X60335Y44145D01*
X59838Y44741D01*
X59442Y45237D01*
X59146Y45829D01*
X58948Y46421D01*
X58849Y47113D01*
X58849Y48502D01*
X59046Y49091D01*
X59641Y50281D01*
X60133Y50773D01*
X60629Y51170D01*
X61225Y51567D01*
X61819Y51864D01*
X62411Y52062D01*
X63107Y52161D01*
X63800Y52260D01*
X64492Y52161D01*
X65085Y52063D01*
X66275Y51467D01*
X66866Y51073D01*
X67262Y50579D01*
X67262Y50578D01*
X67760Y49981D01*
X68054Y49490D01*
X68253Y48796D01*
X68254Y48795D01*
X68253Y48794D01*
X68451Y48202D01*
X68451Y47113D01*
X68352Y46421D01*
X68154Y45829D01*
X67857Y45235D01*
X67460Y44639D01*
X67066Y44147D01*
X66474Y43752D01*
X65978Y43454D01*
X65286Y43158D01*
X64692Y43059D01*
X63997Y42959D01*
X62608Y42959D01*
G37*
%LPD*%
%LPC*%
G36*
X27554Y70279D02*
X27554Y70279D01*
X26961Y70378D01*
X26270Y70576D01*
X25775Y70872D01*
X25772Y70872D01*
X25772Y70874D01*
X25179Y71171D01*
X24687Y71663D01*
X24190Y72259D01*
X23893Y72753D01*
X23596Y73348D01*
X23398Y74041D01*
X23299Y74634D01*
X23299Y75327D01*
X23398Y76020D01*
X23406Y76046D01*
X23448Y76194D01*
X23490Y76341D01*
X23504Y76391D01*
X23546Y76538D01*
X23547Y76538D01*
X23546Y76538D01*
X23589Y76686D01*
X23596Y76712D01*
X23892Y77303D01*
X24288Y77799D01*
X24685Y78295D01*
X25279Y78790D01*
X25773Y79087D01*
X26368Y79384D01*
X27061Y79582D01*
X27654Y79681D01*
X30936Y79681D01*
X31405Y79400D01*
X31501Y78826D01*
X31501Y71333D01*
X31404Y70657D01*
X31031Y70377D01*
X30347Y70279D01*
X27554Y70279D01*
G37*
%LPD*%
%LPC*%
G36*
X110703Y44659D02*
X110703Y44659D01*
X110027Y44756D01*
X109747Y45130D01*
X109649Y45813D01*
X109649Y48606D01*
X109748Y49199D01*
X109748Y49200D01*
X109749Y49200D01*
X109748Y49200D01*
X109791Y49348D01*
X109805Y49397D01*
X109847Y49545D01*
X109889Y49693D01*
X109903Y49742D01*
X109945Y49890D01*
X109946Y49890D01*
X109945Y49890D01*
X109946Y49892D01*
X110242Y50483D01*
X110638Y50979D01*
X111035Y51475D01*
X111629Y51970D01*
X112123Y52267D01*
X112718Y52564D01*
X113411Y52762D01*
X114004Y52861D01*
X114697Y52861D01*
X115390Y52762D01*
X116082Y52564D01*
X116673Y52268D01*
X117169Y51872D01*
X117665Y51475D01*
X118160Y50881D01*
X118457Y50387D01*
X118754Y49792D01*
X118952Y49099D01*
X119051Y48506D01*
X119051Y45226D01*
X118770Y44852D01*
X118192Y44659D01*
X110703Y44659D01*
G37*
%LPD*%
G36*
X99704Y134954D02*
X99704Y134954D01*
X99706Y134951D01*
X100506Y135051D01*
X100522Y135067D01*
X100535Y135065D01*
X100835Y135365D01*
X100836Y135377D01*
X100841Y135381D01*
X100838Y135386D01*
X100838Y135387D01*
X100849Y135393D01*
X100949Y136093D01*
X100946Y136098D01*
X100949Y136100D01*
X100949Y143600D01*
X100946Y143605D01*
X100949Y143608D01*
X100849Y144208D01*
X100827Y144229D01*
X100825Y144242D01*
X100325Y144542D01*
X100307Y144540D01*
X100300Y144549D01*
X96000Y144549D01*
X95991Y144542D01*
X95984Y144547D01*
X95384Y144347D01*
X95381Y144342D01*
X95378Y144344D01*
X94778Y144044D01*
X94773Y144034D01*
X94765Y144035D01*
X94265Y143535D01*
X94264Y143528D01*
X94259Y143527D01*
X93859Y142927D01*
X93860Y142918D01*
X93853Y142916D01*
X93653Y142316D01*
X93657Y142305D01*
X93653Y142302D01*
X93651Y142300D01*
X93651Y141600D01*
X93654Y141596D01*
X93651Y141593D01*
X93751Y140893D01*
X93756Y140888D01*
X93753Y140884D01*
X94046Y140006D01*
X93758Y139525D01*
X93758Y139522D01*
X93756Y139522D01*
X93456Y138922D01*
X93458Y138911D01*
X93451Y138907D01*
X93351Y138207D01*
X93354Y138202D01*
X93351Y138200D01*
X93351Y137500D01*
X93357Y137492D01*
X93353Y137486D01*
X93553Y136786D01*
X93558Y136782D01*
X93556Y136778D01*
X93856Y136178D01*
X93866Y136173D01*
X93865Y136165D01*
X94365Y135665D01*
X94372Y135664D01*
X94373Y135659D01*
X94973Y135259D01*
X94982Y135260D01*
X94984Y135253D01*
X95584Y135053D01*
X95590Y135055D01*
X95592Y135051D01*
X96192Y134951D01*
X96197Y134954D01*
X96200Y134951D01*
X99700Y134951D01*
X99704Y134954D01*
G37*
%LPC*%
G36*
X112893Y107109D02*
X112893Y107109D01*
X112201Y107208D01*
X111609Y107406D01*
X111017Y107702D01*
X110523Y108097D01*
X110028Y108591D01*
X109631Y109187D01*
X109628Y109188D01*
X109628Y109191D01*
X109228Y109691D01*
X109185Y109702D01*
X109213Y109716D01*
X109238Y109770D01*
X109234Y109772D01*
X109237Y109776D01*
X108838Y110971D01*
X108740Y111660D01*
X108839Y112353D01*
X108938Y113049D01*
X109136Y113641D01*
X109432Y114233D01*
X109827Y114727D01*
X110819Y115719D01*
X112005Y116313D01*
X112598Y116411D01*
X113293Y116511D01*
X115288Y116511D01*
X116472Y116412D01*
X116845Y116132D01*
X116941Y115556D01*
X116941Y108060D01*
X116977Y108013D01*
X116985Y108019D01*
X116992Y108011D01*
X117020Y108012D01*
X116986Y108009D01*
X116942Y107969D01*
X116941Y107968D01*
X116845Y107391D01*
X116376Y107109D01*
X112893Y107109D01*
G37*
%LPD*%
%LPC*%
G36*
X59225Y32859D02*
X59225Y32859D01*
X58947Y33229D01*
X58849Y34013D01*
X58849Y36707D01*
X58948Y37399D01*
X59146Y37991D01*
X59443Y38587D01*
X59740Y39081D01*
X60235Y39675D01*
X60729Y40070D01*
X61322Y40465D01*
X61916Y40663D01*
X62511Y40862D01*
X63203Y40961D01*
X63897Y40961D01*
X64589Y40862D01*
X65184Y40663D01*
X65778Y40465D01*
X66369Y40072D01*
X67359Y39081D01*
X67954Y37891D01*
X68152Y37299D01*
X68251Y36607D01*
X68251Y33424D01*
X67970Y32955D01*
X67396Y32859D01*
X59225Y32859D01*
G37*
%LPD*%
%LPC*%
G36*
X160825Y34129D02*
X160825Y34129D01*
X160547Y34499D01*
X160449Y35283D01*
X160449Y37977D01*
X160548Y38669D01*
X160746Y39261D01*
X161043Y39857D01*
X161340Y40351D01*
X161835Y40945D01*
X162329Y41340D01*
X162922Y41735D01*
X163516Y41933D01*
X164111Y42132D01*
X164803Y42231D01*
X165497Y42231D01*
X166189Y42132D01*
X166784Y41933D01*
X167378Y41735D01*
X167969Y41342D01*
X168959Y40351D01*
X169554Y39161D01*
X169752Y38569D01*
X169851Y37877D01*
X169851Y34694D01*
X169570Y34225D01*
X168996Y34129D01*
X160825Y34129D01*
G37*
%LPD*%
G36*
X82509Y134958D02*
X82509Y134958D01*
X82516Y134953D01*
X83116Y135153D01*
X83129Y135173D01*
X83142Y135175D01*
X83442Y135675D01*
X83440Y135693D01*
X83449Y135700D01*
X83449Y140351D01*
X85060Y138171D01*
X85061Y138171D01*
X85061Y138170D01*
X85361Y137770D01*
X85372Y137767D01*
X85373Y137759D01*
X85973Y137359D01*
X85998Y137361D01*
X86007Y137351D01*
X86707Y137451D01*
X86720Y137464D01*
X86731Y137462D01*
X87231Y137862D01*
X87233Y137870D01*
X87239Y137870D01*
X89037Y140268D01*
X89051Y140281D01*
X89051Y135600D01*
X89062Y135585D01*
X89058Y135575D01*
X89358Y135075D01*
X89386Y135063D01*
X89393Y135051D01*
X90093Y134951D01*
X90098Y134954D01*
X90100Y134951D01*
X90900Y134951D01*
X90925Y134970D01*
X90938Y134969D01*
X91338Y135469D01*
X91339Y135477D01*
X91341Y135479D01*
X91339Y135483D01*
X91339Y135487D01*
X91349Y135492D01*
X91449Y136092D01*
X91446Y136097D01*
X91449Y136100D01*
X91449Y143600D01*
X91442Y143609D01*
X91447Y143616D01*
X91247Y144216D01*
X91227Y144229D01*
X91225Y144242D01*
X90725Y144542D01*
X90707Y144540D01*
X90700Y144549D01*
X89900Y144549D01*
X89887Y144540D01*
X89878Y144544D01*
X89278Y144244D01*
X89271Y144231D01*
X89262Y144231D01*
X88862Y143731D01*
X88862Y143730D01*
X88861Y143730D01*
X86482Y140558D01*
X85930Y140742D01*
X84439Y142730D01*
X83239Y144330D01*
X83219Y144335D01*
X83216Y144347D01*
X82616Y144547D01*
X82601Y144542D01*
X82595Y144549D01*
X81695Y144449D01*
X81681Y144436D01*
X81670Y144439D01*
X81270Y144139D01*
X81265Y144119D01*
X81253Y144116D01*
X81053Y143516D01*
X81057Y143505D01*
X81051Y143500D01*
X81051Y136000D01*
X81057Y135992D01*
X81053Y135986D01*
X81253Y135286D01*
X81273Y135271D01*
X81275Y135258D01*
X81775Y134958D01*
X81793Y134960D01*
X81800Y134951D01*
X82500Y134951D01*
X82509Y134958D01*
G37*
%LPC*%
G36*
X85204Y43059D02*
X85204Y43059D01*
X84624Y43156D01*
X84249Y43530D01*
X84249Y47707D01*
X84348Y48399D01*
X84544Y48986D01*
X84935Y49475D01*
X85529Y49970D01*
X86020Y50264D01*
X86707Y50461D01*
X87397Y50461D01*
X88085Y50362D01*
X88677Y50067D01*
X89175Y49768D01*
X89207Y49771D01*
X89218Y49764D01*
X89717Y49964D01*
X90308Y50161D01*
X90996Y50161D01*
X91589Y50062D01*
X92277Y49865D01*
X92767Y49473D01*
X93259Y48981D01*
X93552Y48395D01*
X93651Y47707D01*
X93651Y44313D01*
X93553Y43529D01*
X93272Y43155D01*
X92696Y43059D01*
X85204Y43059D01*
G37*
%LPD*%
%LPC*%
G36*
X100883Y160449D02*
X100883Y160449D01*
X100191Y160548D01*
X99604Y160744D01*
X99115Y161135D01*
X98620Y161729D01*
X98326Y162220D01*
X98129Y162907D01*
X98129Y163597D01*
X98228Y164285D01*
X98523Y164877D01*
X98822Y165375D01*
X98822Y165378D01*
X98823Y165379D01*
X98822Y165380D01*
X98819Y165407D01*
X98826Y165418D01*
X98626Y165917D01*
X98429Y166508D01*
X98429Y167196D01*
X98528Y167789D01*
X98543Y167841D01*
X98585Y167989D01*
X98599Y168038D01*
X98641Y168186D01*
X98642Y168186D01*
X98641Y168186D01*
X98684Y168334D01*
X98698Y168383D01*
X98725Y168477D01*
X99117Y168967D01*
X99609Y169459D01*
X100195Y169752D01*
X100883Y169851D01*
X104277Y169851D01*
X105061Y169753D01*
X105435Y169472D01*
X105531Y168896D01*
X105531Y161404D01*
X105434Y160824D01*
X105060Y160449D01*
X100883Y160449D01*
G37*
%LPD*%
G36*
X165369Y89238D02*
X165369Y89238D01*
X165376Y89233D01*
X165976Y89433D01*
X165981Y89441D01*
X165987Y89439D01*
X166587Y89839D01*
X166588Y89842D01*
X166591Y89842D01*
X167091Y90242D01*
X167093Y90249D01*
X167098Y90249D01*
X167498Y90749D01*
X167499Y90759D01*
X167505Y90761D01*
X167805Y91461D01*
X167805Y91464D01*
X167807Y91464D01*
X168007Y92064D01*
X168005Y92070D01*
X168009Y92072D01*
X168109Y92672D01*
X168108Y92673D01*
X168109Y92673D01*
X168209Y93373D01*
X168206Y93378D01*
X168209Y93380D01*
X168209Y94880D01*
X168206Y94884D01*
X168209Y94887D01*
X168109Y95587D01*
X168104Y95592D01*
X168107Y95596D01*
X167907Y96195D01*
X167707Y96894D01*
X167702Y96898D01*
X167704Y96902D01*
X167404Y97502D01*
X167401Y97503D01*
X167402Y97505D01*
X167102Y98005D01*
X167099Y98007D01*
X167099Y98010D01*
X166799Y98410D01*
X166784Y98414D01*
X166782Y98424D01*
X165582Y99024D01*
X165572Y99022D01*
X165568Y99029D01*
X164968Y99129D01*
X164963Y99126D01*
X164960Y99129D01*
X164160Y99129D01*
X164155Y99126D01*
X164152Y99129D01*
X163552Y99029D01*
X163548Y99024D01*
X163544Y99027D01*
X162944Y98827D01*
X162937Y98816D01*
X162928Y98818D01*
X162329Y98318D01*
X161829Y97918D01*
X161826Y97904D01*
X161816Y97902D01*
X161216Y96702D01*
X161218Y96691D01*
X161211Y96687D01*
X161116Y96018D01*
X161070Y96028D01*
X161069Y96027D01*
X161060Y96027D01*
X161046Y96017D01*
X161017Y96003D01*
X161019Y95997D01*
X161012Y95991D01*
X161014Y95989D01*
X161011Y95987D01*
X160911Y95287D01*
X160914Y95282D01*
X160911Y95280D01*
X160911Y94683D01*
X160811Y93886D01*
X160816Y93878D01*
X160811Y93873D01*
X161011Y92473D01*
X161015Y92469D01*
X161013Y92466D01*
X161213Y91766D01*
X161214Y91765D01*
X161213Y91764D01*
X161413Y91164D01*
X161420Y91160D01*
X161418Y91155D01*
X161718Y90655D01*
X161722Y90653D01*
X161722Y90649D01*
X162122Y90149D01*
X162129Y90147D01*
X162129Y90142D01*
X162629Y89742D01*
X162637Y89741D01*
X162638Y89736D01*
X163238Y89436D01*
X163245Y89437D01*
X163246Y89433D01*
X163946Y89233D01*
X163956Y89236D01*
X163960Y89231D01*
X165360Y89231D01*
X165369Y89238D01*
G37*
G36*
X91709Y89238D02*
X91709Y89238D01*
X91716Y89233D01*
X92316Y89433D01*
X92321Y89441D01*
X92327Y89439D01*
X92927Y89839D01*
X92928Y89842D01*
X92931Y89842D01*
X93431Y90242D01*
X93433Y90249D01*
X93438Y90249D01*
X93838Y90749D01*
X93839Y90759D01*
X93845Y90761D01*
X94145Y91461D01*
X94145Y91464D01*
X94147Y91464D01*
X94347Y92064D01*
X94345Y92070D01*
X94349Y92072D01*
X94449Y92672D01*
X94448Y92673D01*
X94449Y92673D01*
X94549Y93373D01*
X94546Y93378D01*
X94549Y93380D01*
X94549Y94880D01*
X94546Y94884D01*
X94549Y94887D01*
X94449Y95587D01*
X94444Y95592D01*
X94447Y95596D01*
X94247Y96195D01*
X94047Y96894D01*
X94042Y96898D01*
X94044Y96902D01*
X93744Y97502D01*
X93741Y97503D01*
X93742Y97505D01*
X93442Y98005D01*
X93439Y98007D01*
X93439Y98010D01*
X93139Y98410D01*
X93124Y98414D01*
X93122Y98424D01*
X91922Y99024D01*
X91912Y99022D01*
X91908Y99029D01*
X91308Y99129D01*
X91303Y99126D01*
X91300Y99129D01*
X90500Y99129D01*
X90495Y99126D01*
X90492Y99129D01*
X89892Y99029D01*
X89888Y99024D01*
X89884Y99027D01*
X89284Y98827D01*
X89277Y98816D01*
X89268Y98818D01*
X88669Y98318D01*
X88169Y97918D01*
X88166Y97904D01*
X88156Y97902D01*
X87556Y96702D01*
X87558Y96691D01*
X87551Y96687D01*
X87456Y96018D01*
X87410Y96028D01*
X87409Y96027D01*
X87400Y96027D01*
X87386Y96017D01*
X87357Y96003D01*
X87359Y95997D01*
X87352Y95991D01*
X87354Y95989D01*
X87351Y95987D01*
X87251Y95287D01*
X87254Y95282D01*
X87251Y95280D01*
X87251Y94683D01*
X87151Y93886D01*
X87156Y93878D01*
X87151Y93873D01*
X87351Y92473D01*
X87355Y92469D01*
X87353Y92466D01*
X87553Y91766D01*
X87554Y91765D01*
X87553Y91764D01*
X87753Y91164D01*
X87760Y91160D01*
X87758Y91155D01*
X88058Y90655D01*
X88062Y90653D01*
X88062Y90649D01*
X88462Y90149D01*
X88469Y90147D01*
X88469Y90142D01*
X88969Y89742D01*
X88977Y89741D01*
X88978Y89736D01*
X89578Y89436D01*
X89585Y89437D01*
X89586Y89433D01*
X90286Y89233D01*
X90296Y89236D01*
X90300Y89231D01*
X91700Y89231D01*
X91709Y89238D01*
G37*
G36*
X58511Y134959D02*
X58511Y134959D01*
X58519Y134955D01*
X59219Y135255D01*
X59221Y135257D01*
X59222Y135256D01*
X59822Y135556D01*
X59825Y135563D01*
X59831Y135562D01*
X60331Y135962D01*
X60333Y135969D01*
X60338Y135969D01*
X60738Y136469D01*
X60739Y136477D01*
X60744Y136478D01*
X61044Y137078D01*
X61042Y137089D01*
X61049Y137093D01*
X61149Y137793D01*
X61146Y137798D01*
X61149Y137800D01*
X61149Y138500D01*
X61143Y138508D01*
X61147Y138514D01*
X60947Y139214D01*
X60942Y139218D01*
X60944Y139222D01*
X60644Y139822D01*
X60631Y139829D01*
X60631Y139838D01*
X60174Y140204D01*
X60535Y140565D01*
X60537Y140578D01*
X60545Y140581D01*
X60845Y141281D01*
X60844Y141287D01*
X60848Y141291D01*
X60847Y141292D01*
X60849Y141293D01*
X60949Y141993D01*
X60944Y142002D01*
X60949Y142007D01*
X60849Y142707D01*
X60844Y142712D01*
X60847Y142716D01*
X60647Y143316D01*
X60636Y143323D01*
X60638Y143331D01*
X60238Y143831D01*
X60234Y143832D01*
X60235Y143835D01*
X59735Y144335D01*
X59723Y144336D01*
X59722Y144344D01*
X59122Y144644D01*
X59117Y144643D01*
X59116Y144647D01*
X58516Y144847D01*
X58509Y144845D01*
X58507Y144849D01*
X57807Y144949D01*
X57806Y144948D01*
X57805Y144949D01*
X57801Y144949D01*
X57800Y144949D01*
X57100Y144949D01*
X57099Y144949D01*
X57097Y144949D01*
X57091Y144944D01*
X57086Y144947D01*
X56386Y144747D01*
X56382Y144742D01*
X56378Y144744D01*
X55778Y144444D01*
X55773Y144434D01*
X55765Y144435D01*
X55265Y143935D01*
X55265Y143931D01*
X55262Y143931D01*
X54862Y143431D01*
X54861Y143418D01*
X54853Y143416D01*
X54653Y142816D01*
X54654Y142814D01*
X54653Y142814D01*
X54647Y142795D01*
X54633Y142746D01*
X54591Y142598D01*
X54549Y142450D01*
X54535Y142401D01*
X54493Y142253D01*
X54453Y142114D01*
X54455Y142107D01*
X54454Y142105D01*
X54458Y142100D01*
X54451Y142093D01*
X54551Y141393D01*
X54559Y141385D01*
X54556Y141378D01*
X54856Y140778D01*
X54863Y140775D01*
X54862Y140769D01*
X55234Y140304D01*
X54865Y139935D01*
X54864Y139925D01*
X54857Y139924D01*
X54457Y139224D01*
X54458Y139217D01*
X54453Y139216D01*
X54253Y138616D01*
X54255Y138610D01*
X54253Y138609D01*
X54256Y138604D01*
X54251Y138600D01*
X54251Y137500D01*
X54258Y137491D01*
X54253Y137484D01*
X54453Y136884D01*
X54461Y136879D01*
X54459Y136873D01*
X54859Y136273D01*
X54866Y136270D01*
X54865Y136265D01*
X55365Y135765D01*
X55369Y135765D01*
X55369Y135762D01*
X55869Y135362D01*
X55877Y135361D01*
X55878Y135356D01*
X56478Y135056D01*
X56489Y135058D01*
X56493Y135051D01*
X57193Y134951D01*
X57198Y134954D01*
X57200Y134951D01*
X58500Y134951D01*
X58511Y134959D01*
G37*
G36*
X49613Y134960D02*
X49613Y134960D01*
X49622Y134956D01*
X50822Y135556D01*
X50824Y135560D01*
X50827Y135559D01*
X51427Y135959D01*
X51431Y135969D01*
X51438Y135969D01*
X51838Y136469D01*
X51839Y136477D01*
X51844Y136478D01*
X52144Y137078D01*
X52142Y137089D01*
X52149Y137093D01*
X52249Y137793D01*
X52246Y137798D01*
X52249Y137800D01*
X52249Y138500D01*
X52243Y138508D01*
X52247Y138514D01*
X52047Y139214D01*
X52039Y139220D01*
X52041Y139227D01*
X51641Y139827D01*
X51634Y139830D01*
X51635Y139835D01*
X51265Y140205D01*
X51539Y140570D01*
X51539Y140575D01*
X51543Y140576D01*
X51943Y141276D01*
X51941Y141286D01*
X51948Y141291D01*
X51947Y141292D01*
X51949Y141293D01*
X52049Y141993D01*
X52044Y142002D01*
X52049Y142007D01*
X51949Y142707D01*
X51941Y142715D01*
X51944Y142722D01*
X51644Y143322D01*
X51637Y143325D01*
X51638Y143331D01*
X51238Y143831D01*
X51234Y143832D01*
X51235Y143835D01*
X50735Y144335D01*
X50723Y144336D01*
X50722Y144344D01*
X50122Y144644D01*
X50117Y144643D01*
X50116Y144647D01*
X49516Y144847D01*
X49509Y144845D01*
X49507Y144849D01*
X48807Y144949D01*
X48806Y144948D01*
X48805Y144949D01*
X48801Y144949D01*
X48800Y144949D01*
X48100Y144949D01*
X48099Y144949D01*
X48098Y144949D01*
X48090Y144943D01*
X48084Y144947D01*
X47484Y144747D01*
X47481Y144742D01*
X47478Y144744D01*
X46878Y144444D01*
X46873Y144434D01*
X46865Y144435D01*
X46365Y143935D01*
X46365Y143931D01*
X46362Y143931D01*
X45962Y143431D01*
X45961Y143423D01*
X45956Y143422D01*
X45656Y142822D01*
X45658Y142811D01*
X45651Y142807D01*
X45551Y142107D01*
X45556Y142098D01*
X45551Y142093D01*
X45651Y141393D01*
X45659Y141385D01*
X45656Y141378D01*
X45956Y140778D01*
X45963Y140775D01*
X45962Y140769D01*
X46334Y140304D01*
X45965Y139935D01*
X45964Y139925D01*
X45957Y139924D01*
X45557Y139224D01*
X45558Y139222D01*
X45556Y139222D01*
X45256Y138622D01*
X45258Y138612D01*
X45253Y138609D01*
X45256Y138604D01*
X45251Y138600D01*
X45251Y138200D01*
X45254Y138196D01*
X45251Y138193D01*
X45351Y137493D01*
X45356Y137488D01*
X45353Y137484D01*
X45553Y136884D01*
X45558Y136881D01*
X45556Y136878D01*
X45856Y136278D01*
X45866Y136273D01*
X45865Y136265D01*
X46365Y135765D01*
X46372Y135764D01*
X46373Y135759D01*
X46973Y135359D01*
X46977Y135359D01*
X46978Y135356D01*
X47578Y135056D01*
X47589Y135058D01*
X47592Y135051D01*
X48192Y134951D01*
X48197Y134954D01*
X48200Y134951D01*
X49600Y134951D01*
X49613Y134960D01*
G37*
%LPC*%
G36*
X104913Y107207D02*
X104913Y107207D01*
X104536Y107583D01*
X104439Y108263D01*
X104439Y109560D01*
X104410Y109598D01*
X104408Y109606D01*
X103908Y109806D01*
X103895Y109802D01*
X103890Y109809D01*
X102490Y109809D01*
X102461Y109787D01*
X102448Y109786D01*
X101948Y108986D01*
X101949Y108979D01*
X101944Y108977D01*
X101351Y107395D01*
X100782Y107111D01*
X100207Y107207D01*
X99529Y107594D01*
X99342Y108063D01*
X99352Y108099D01*
X99366Y108148D01*
X99409Y108296D01*
X99451Y108443D01*
X99465Y108493D01*
X99507Y108640D01*
X99537Y108744D01*
X99735Y109241D01*
X100235Y110441D01*
X100231Y110460D01*
X100234Y110463D01*
X100233Y110464D01*
X100238Y110470D01*
X100138Y110970D01*
X100129Y110978D01*
X100132Y110985D01*
X99833Y111483D01*
X99536Y112078D01*
X99339Y112767D01*
X99339Y113453D01*
X99357Y113516D01*
X99371Y113565D01*
X99414Y113713D01*
X99456Y113861D01*
X99470Y113910D01*
X99512Y114058D01*
X99537Y114145D01*
X99735Y114738D01*
X100127Y115326D01*
X100619Y115720D01*
X101215Y116117D01*
X101809Y116414D01*
X102398Y116611D01*
X105882Y116611D01*
X106451Y116421D01*
X106641Y115852D01*
X106641Y107774D01*
X106358Y107302D01*
X105686Y107110D01*
X104913Y107207D01*
G37*
%LPD*%
G36*
X78621Y134967D02*
X78621Y134967D01*
X78635Y134965D01*
X79035Y135365D01*
X79036Y135377D01*
X79041Y135381D01*
X79038Y135386D01*
X79049Y135392D01*
X79149Y135992D01*
X79146Y135997D01*
X79149Y136000D01*
X79149Y143500D01*
X79143Y143508D01*
X79147Y143514D01*
X78947Y144214D01*
X78930Y144227D01*
X78930Y144239D01*
X78530Y144539D01*
X78508Y144539D01*
X78500Y144549D01*
X72300Y144549D01*
X72285Y144538D01*
X72275Y144542D01*
X71775Y144242D01*
X71763Y144214D01*
X71751Y144207D01*
X71651Y143507D01*
X71656Y143499D01*
X71651Y143495D01*
X71751Y142595D01*
X71770Y142574D01*
X71770Y142561D01*
X72170Y142261D01*
X72187Y142261D01*
X72192Y142251D01*
X72792Y142151D01*
X72797Y142154D01*
X72800Y142151D01*
X76196Y142151D01*
X76751Y142058D01*
X76751Y141405D01*
X76660Y140949D01*
X74000Y140949D01*
X73991Y140942D01*
X73984Y140947D01*
X73384Y140747D01*
X73371Y140727D01*
X73358Y140725D01*
X73058Y140225D01*
X73060Y140207D01*
X73051Y140200D01*
X73051Y139300D01*
X73062Y139285D01*
X73058Y139275D01*
X73358Y138775D01*
X73380Y138766D01*
X73384Y138753D01*
X73984Y138553D01*
X73991Y138555D01*
X73993Y138551D01*
X74693Y138451D01*
X74698Y138454D01*
X74700Y138451D01*
X76658Y138451D01*
X76751Y137896D01*
X76751Y137349D01*
X72700Y137349D01*
X72695Y137346D01*
X72692Y137349D01*
X72092Y137249D01*
X72075Y137230D01*
X72062Y137231D01*
X71662Y136731D01*
X71661Y136708D01*
X71651Y136700D01*
X71651Y135900D01*
X71657Y135892D01*
X71653Y135886D01*
X71853Y135186D01*
X71878Y135167D01*
X71882Y135154D01*
X72382Y134954D01*
X72395Y134958D01*
X72400Y134951D01*
X78600Y134951D01*
X78621Y134967D01*
G37*
G36*
X192208Y134957D02*
X192208Y134957D01*
X192214Y134953D01*
X192914Y135153D01*
X192918Y135158D01*
X192922Y135156D01*
X193522Y135456D01*
X193525Y135463D01*
X193531Y135462D01*
X194029Y135860D01*
X194627Y136259D01*
X194631Y136269D01*
X194638Y136269D01*
X195038Y136769D01*
X195039Y136773D01*
X195041Y136773D01*
X195441Y137373D01*
X195441Y137377D01*
X195444Y137378D01*
X195744Y137978D01*
X195743Y137983D01*
X195747Y137984D01*
X195947Y138584D01*
X195945Y138591D01*
X195949Y138593D01*
X196149Y139993D01*
X196144Y140002D01*
X196149Y140007D01*
X196049Y140707D01*
X196048Y140708D01*
X196049Y140708D01*
X195949Y141308D01*
X195945Y141311D01*
X195947Y141314D01*
X195747Y142014D01*
X195736Y142022D01*
X195738Y142031D01*
X195340Y142529D01*
X194941Y143127D01*
X194934Y143130D01*
X194935Y143135D01*
X194435Y143635D01*
X194431Y143635D01*
X194431Y143638D01*
X193931Y144038D01*
X193923Y144039D01*
X193922Y144044D01*
X192722Y144644D01*
X192711Y144642D01*
X192707Y144649D01*
X192008Y144749D01*
X191408Y144849D01*
X191403Y144846D01*
X191400Y144849D01*
X190700Y144849D01*
X190692Y144843D01*
X190686Y144847D01*
X189986Y144647D01*
X189985Y144646D01*
X189984Y144647D01*
X189384Y144447D01*
X189381Y144442D01*
X189378Y144444D01*
X188778Y144144D01*
X188776Y144140D01*
X188773Y144141D01*
X188173Y143741D01*
X188165Y143720D01*
X188153Y143716D01*
X187953Y143116D01*
X187960Y143095D01*
X187953Y143084D01*
X188153Y142484D01*
X188167Y142475D01*
X188165Y142465D01*
X188765Y141865D01*
X188785Y141862D01*
X188790Y141852D01*
X189290Y141752D01*
X189311Y141762D01*
X189322Y141756D01*
X190515Y142352D01*
X191200Y142450D01*
X191889Y142352D01*
X192478Y142155D01*
X193066Y141763D01*
X193455Y141277D01*
X193652Y140590D01*
X193750Y139900D01*
X193652Y139211D01*
X193456Y138624D01*
X193065Y138135D01*
X192473Y137642D01*
X191888Y137349D01*
X190514Y137349D01*
X190049Y137628D01*
X190049Y138854D01*
X191404Y138951D01*
X191422Y138967D01*
X191435Y138965D01*
X191835Y139365D01*
X191839Y139392D01*
X191849Y139400D01*
X191849Y140100D01*
X191842Y140109D01*
X191847Y140116D01*
X191647Y140716D01*
X191618Y140735D01*
X191614Y140747D01*
X190914Y140947D01*
X190904Y140944D01*
X190900Y140949D01*
X188900Y140949D01*
X188892Y140943D01*
X188886Y140947D01*
X188186Y140747D01*
X188179Y140737D01*
X188170Y140739D01*
X187770Y140439D01*
X187763Y140414D01*
X187751Y140407D01*
X187651Y139707D01*
X187654Y139702D01*
X187651Y139700D01*
X187651Y136900D01*
X187658Y136891D01*
X187653Y136884D01*
X187853Y136284D01*
X187864Y136277D01*
X187862Y136269D01*
X188262Y135769D01*
X188274Y135766D01*
X188275Y135758D01*
X188775Y135458D01*
X188778Y135458D01*
X188778Y135456D01*
X189378Y135156D01*
X189389Y135158D01*
X189393Y135151D01*
X190793Y134951D01*
X190798Y134954D01*
X190800Y134951D01*
X192200Y134951D01*
X192208Y134957D01*
G37*
%LPC*%
G36*
X110604Y34259D02*
X110604Y34259D01*
X110024Y34356D01*
X109649Y34730D01*
X109649Y35603D01*
X109650Y35607D01*
X109651Y35607D01*
X109650Y35607D01*
X109693Y35755D01*
X109707Y35804D01*
X109749Y35952D01*
X109791Y36100D01*
X109805Y36149D01*
X109841Y36273D01*
X110309Y36461D01*
X115000Y36461D01*
X115013Y36471D01*
X115030Y36471D01*
X115030Y36483D01*
X115047Y36497D01*
X115030Y36520D01*
X115030Y36549D01*
X110232Y40147D01*
X109649Y40730D01*
X109649Y41407D01*
X109746Y42087D01*
X110124Y42464D01*
X110708Y42561D01*
X110741Y42596D01*
X110747Y42601D01*
X110747Y42602D01*
X110749Y42605D01*
X110746Y42608D01*
X110749Y42610D01*
X110749Y42639D01*
X110751Y42608D01*
X110789Y42562D01*
X110795Y42567D01*
X110800Y42561D01*
X118286Y42561D01*
X118764Y42274D01*
X119051Y41796D01*
X119051Y41030D01*
X118380Y40359D01*
X113600Y40359D01*
X113589Y40351D01*
X113576Y40353D01*
X113574Y40340D01*
X113553Y40323D01*
X113569Y40302D01*
X113565Y40275D01*
X113765Y40075D01*
X113770Y40074D01*
X113770Y40071D01*
X114570Y39471D01*
X118269Y36671D01*
X118858Y36181D01*
X119051Y35602D01*
X119051Y34927D01*
X118671Y34452D01*
X118092Y34259D01*
X110604Y34259D01*
G37*
%LPD*%
%LPC*%
G36*
X34264Y70279D02*
X34264Y70279D01*
X33792Y70562D01*
X33600Y71234D01*
X33697Y72007D01*
X34073Y72384D01*
X34753Y72481D01*
X38150Y72481D01*
X38155Y72484D01*
X38158Y72481D01*
X38758Y72581D01*
X38799Y72625D01*
X38796Y72628D01*
X38799Y72630D01*
X38799Y73330D01*
X38790Y73343D01*
X38794Y73352D01*
X38594Y73752D01*
X38557Y73771D01*
X38550Y73779D01*
X36453Y73779D01*
X35763Y73878D01*
X35291Y74067D01*
X35099Y74737D01*
X35099Y75510D01*
X35477Y75887D01*
X36058Y76081D01*
X38750Y76081D01*
X38797Y76117D01*
X38792Y76124D01*
X38799Y76130D01*
X38799Y76830D01*
X38796Y76835D01*
X38799Y76838D01*
X38699Y77438D01*
X38655Y77479D01*
X38653Y77476D01*
X38650Y77479D01*
X34653Y77479D01*
X33977Y77576D01*
X33697Y77949D01*
X33600Y78825D01*
X33790Y79395D01*
X34362Y79681D01*
X39747Y79681D01*
X40431Y79583D01*
X40807Y79301D01*
X41001Y78623D01*
X41001Y71134D01*
X40905Y70561D01*
X40436Y70279D01*
X34264Y70279D01*
G37*
%LPD*%
%LPC*%
G36*
X113908Y23659D02*
X113908Y23659D01*
X113316Y23857D01*
X113314Y23856D01*
X113314Y23857D01*
X112618Y24056D01*
X112023Y24353D01*
X111531Y24649D01*
X110538Y25641D01*
X110143Y26235D01*
X109847Y26825D01*
X109749Y27418D01*
X109649Y28113D01*
X109649Y28807D01*
X109749Y29603D01*
X109847Y30195D01*
X110143Y30787D01*
X110439Y31280D01*
X110927Y31767D01*
X111508Y31961D01*
X114197Y31961D01*
X114881Y31863D01*
X115257Y31581D01*
X115451Y30903D01*
X115451Y28718D01*
X115261Y28149D01*
X114692Y27959D01*
X114020Y27959D01*
X113648Y28332D01*
X113549Y29714D01*
X113510Y29758D01*
X113504Y29753D01*
X113500Y29759D01*
X112200Y29759D01*
X112167Y29734D01*
X112156Y29732D01*
X111856Y29132D01*
X111859Y29116D01*
X111851Y29110D01*
X111851Y28410D01*
X111854Y28405D01*
X111851Y28402D01*
X111951Y27802D01*
X111956Y27798D01*
X111953Y27794D01*
X112153Y27194D01*
X112164Y27187D01*
X112162Y27178D01*
X112662Y26578D01*
X112669Y26577D01*
X112669Y26572D01*
X113169Y26172D01*
X113182Y26171D01*
X113184Y26163D01*
X113784Y25963D01*
X113791Y25965D01*
X113793Y25961D01*
X114493Y25861D01*
X114502Y25866D01*
X114507Y25861D01*
X115207Y25961D01*
X115211Y25965D01*
X115214Y25963D01*
X115914Y26163D01*
X115922Y26174D01*
X115931Y26172D01*
X116431Y26572D01*
X116433Y26582D01*
X116441Y26583D01*
X116841Y27183D01*
X116840Y27192D01*
X116847Y27194D01*
X117047Y27794D01*
X117045Y27801D01*
X117049Y27803D01*
X117149Y28503D01*
X117144Y28512D01*
X117149Y28517D01*
X117049Y29217D01*
X117041Y29225D01*
X117044Y29232D01*
X116452Y30417D01*
X116545Y30886D01*
X117127Y31467D01*
X117700Y31658D01*
X118268Y31469D01*
X118657Y30885D01*
X118954Y30291D01*
X119152Y29699D01*
X119251Y29003D01*
X119252Y29002D01*
X119251Y29002D01*
X119350Y28409D01*
X119251Y27717D01*
X119152Y27025D01*
X118856Y26432D01*
X118558Y25837D01*
X118163Y25343D01*
X117667Y24847D01*
X117171Y24450D01*
X116578Y24055D01*
X115989Y23858D01*
X114597Y23659D01*
X113908Y23659D01*
G37*
%LPD*%
G36*
X138064Y89234D02*
X138064Y89234D01*
X138067Y89231D01*
X138767Y89331D01*
X138775Y89339D01*
X138782Y89336D01*
X139382Y89636D01*
X139385Y89643D01*
X139391Y89642D01*
X139891Y90042D01*
X139892Y90046D01*
X139895Y90045D01*
X140295Y90445D01*
X140296Y90457D01*
X140304Y90458D01*
X140604Y91058D01*
X140603Y91063D01*
X140607Y91064D01*
X140807Y91664D01*
X140805Y91671D01*
X140809Y91673D01*
X141009Y93073D01*
X141004Y93081D01*
X141009Y93086D01*
X140909Y93886D01*
X140908Y93887D01*
X140909Y93887D01*
X140809Y94587D01*
X140808Y94588D01*
X140809Y94588D01*
X140709Y95188D01*
X140704Y95192D01*
X140707Y95196D01*
X140507Y95796D01*
X140502Y95799D01*
X140504Y95802D01*
X140204Y96402D01*
X140200Y96404D01*
X140201Y96407D01*
X139801Y97007D01*
X139798Y97008D01*
X139798Y97011D01*
X139398Y97511D01*
X139391Y97513D01*
X139391Y97518D01*
X138391Y98318D01*
X138383Y98319D01*
X138382Y98324D01*
X137782Y98624D01*
X137777Y98623D01*
X137776Y98627D01*
X137176Y98827D01*
X137169Y98825D01*
X137167Y98829D01*
X136467Y98929D01*
X136462Y98926D01*
X136460Y98929D01*
X135060Y98929D01*
X135039Y98913D01*
X135025Y98915D01*
X134525Y98415D01*
X134522Y98388D01*
X134511Y98380D01*
X134511Y97680D01*
X134514Y97676D01*
X134511Y97673D01*
X134611Y96973D01*
X134633Y96951D01*
X134635Y96938D01*
X135135Y96638D01*
X135149Y96639D01*
X135153Y96631D01*
X136549Y96432D01*
X137138Y96235D01*
X137725Y95845D01*
X138117Y95255D01*
X138308Y94875D01*
X138307Y94872D01*
X138283Y94924D01*
X138277Y94921D01*
X138276Y94927D01*
X137676Y95127D01*
X137665Y95123D01*
X137660Y95129D01*
X136960Y95129D01*
X136951Y95122D01*
X136944Y95127D01*
X136344Y94927D01*
X136341Y94922D01*
X136338Y94924D01*
X135738Y94624D01*
X135736Y94620D01*
X135733Y94621D01*
X135133Y94221D01*
X135129Y94211D01*
X135122Y94211D01*
X134722Y93711D01*
X134721Y93703D01*
X134716Y93702D01*
X134416Y93102D01*
X134417Y93097D01*
X134413Y93096D01*
X134213Y92496D01*
X134214Y92495D01*
X134213Y92495D01*
X134214Y92493D01*
X134217Y92485D01*
X134211Y92480D01*
X134211Y92280D01*
X134214Y92276D01*
X134211Y92273D01*
X134311Y91573D01*
X134316Y91568D01*
X134313Y91564D01*
X134513Y90964D01*
X134521Y90959D01*
X134519Y90953D01*
X134919Y90353D01*
X134929Y90349D01*
X134929Y90342D01*
X135929Y89542D01*
X135942Y89541D01*
X135944Y89533D01*
X136544Y89333D01*
X136551Y89335D01*
X136553Y89331D01*
X137253Y89231D01*
X137258Y89234D01*
X137260Y89231D01*
X138060Y89231D01*
X138064Y89234D01*
G37*
G36*
X66904Y134954D02*
X66904Y134954D01*
X66907Y134951D01*
X67607Y135051D01*
X67615Y135059D01*
X67622Y135056D01*
X68222Y135356D01*
X68225Y135363D01*
X68231Y135362D01*
X68731Y135762D01*
X68732Y135766D01*
X68735Y135765D01*
X69135Y136165D01*
X69136Y136177D01*
X69144Y136178D01*
X69744Y137378D01*
X69742Y137389D01*
X69749Y137393D01*
X69849Y138093D01*
X69846Y138098D01*
X69849Y138100D01*
X69849Y139600D01*
X69846Y139604D01*
X69849Y139607D01*
X69749Y140307D01*
X69744Y140312D01*
X69747Y140316D01*
X69347Y141516D01*
X69342Y141519D01*
X69344Y141522D01*
X68744Y142722D01*
X68737Y142725D01*
X68738Y142731D01*
X68338Y143231D01*
X68331Y143233D01*
X68331Y143238D01*
X67331Y144038D01*
X67323Y144039D01*
X67322Y144044D01*
X66722Y144344D01*
X66717Y144343D01*
X66716Y144347D01*
X66116Y144547D01*
X66109Y144545D01*
X66107Y144549D01*
X65407Y144649D01*
X65402Y144646D01*
X65400Y144649D01*
X63900Y144649D01*
X63875Y144630D01*
X63862Y144631D01*
X63462Y144131D01*
X63461Y144108D01*
X63451Y144100D01*
X63451Y143400D01*
X63454Y143396D01*
X63451Y143393D01*
X63551Y142693D01*
X63573Y142671D01*
X63575Y142658D01*
X64075Y142358D01*
X64089Y142359D01*
X64093Y142351D01*
X64792Y142251D01*
X65389Y142152D01*
X66079Y141955D01*
X66665Y141565D01*
X67054Y140980D01*
X67130Y140675D01*
X66616Y140847D01*
X66605Y140843D01*
X66600Y140849D01*
X65900Y140849D01*
X65892Y140843D01*
X65886Y140847D01*
X65186Y140647D01*
X65182Y140642D01*
X65178Y140644D01*
X64578Y140344D01*
X64575Y140337D01*
X64569Y140338D01*
X64069Y139938D01*
X64068Y139934D01*
X64065Y139935D01*
X63565Y139435D01*
X63564Y139423D01*
X63556Y139422D01*
X63256Y138822D01*
X63258Y138812D01*
X63251Y138808D01*
X63151Y138208D01*
X63154Y138203D01*
X63151Y138200D01*
X63151Y138000D01*
X63154Y137996D01*
X63151Y137993D01*
X63251Y137293D01*
X63256Y137288D01*
X63253Y137284D01*
X63453Y136684D01*
X63458Y136681D01*
X63456Y136678D01*
X63756Y136078D01*
X63769Y136071D01*
X63769Y136062D01*
X64269Y135662D01*
X64273Y135661D01*
X64273Y135659D01*
X64873Y135259D01*
X64882Y135260D01*
X64884Y135253D01*
X65484Y135053D01*
X65491Y135055D01*
X65493Y135051D01*
X66193Y134951D01*
X66198Y134954D01*
X66200Y134951D01*
X66900Y134951D01*
X66904Y134954D01*
G37*
%LPC*%
G36*
X120209Y107207D02*
X120209Y107207D01*
X119534Y107689D01*
X119441Y108158D01*
X119452Y108197D01*
X119494Y108345D01*
X119536Y108493D01*
X119550Y108542D01*
X119593Y108690D01*
X119635Y108837D01*
X119636Y108842D01*
X122934Y115538D01*
X123231Y116131D01*
X123710Y116611D01*
X124278Y116611D01*
X124858Y116321D01*
X125248Y115833D01*
X128545Y109140D01*
X128841Y108450D01*
X128841Y107884D01*
X128362Y107501D01*
X127681Y107111D01*
X127114Y107206D01*
X126731Y107589D01*
X126135Y108881D01*
X126117Y108890D01*
X126115Y108902D01*
X125615Y109202D01*
X125597Y109200D01*
X125590Y109209D01*
X122890Y109209D01*
X122885Y109206D01*
X122882Y109209D01*
X122282Y109109D01*
X122259Y109085D01*
X122246Y109082D01*
X121646Y107882D01*
X121355Y107300D01*
X120786Y107111D01*
X120209Y107207D01*
G37*
%LPD*%
%LPC*%
G36*
X172409Y180769D02*
X172409Y180769D01*
X171940Y180957D01*
X171749Y181528D01*
X171749Y182306D01*
X172033Y182779D01*
X172608Y182971D01*
X175100Y182971D01*
X175114Y182982D01*
X175132Y182983D01*
X175131Y182995D01*
X175147Y183007D01*
X175129Y183031D01*
X175127Y183061D01*
X174827Y183261D01*
X174823Y183261D01*
X174822Y183264D01*
X174227Y183562D01*
X173731Y183958D01*
X173135Y184455D01*
X172740Y184949D01*
X172345Y185542D01*
X172149Y186128D01*
X172149Y187512D01*
X172346Y188101D01*
X172643Y188695D01*
X173037Y189286D01*
X173529Y189680D01*
X174122Y190075D01*
X174708Y190271D01*
X176192Y190271D01*
X176784Y190073D01*
X177376Y189876D01*
X177865Y189485D01*
X178359Y188893D01*
X178654Y188301D01*
X178852Y187708D01*
X178951Y187116D01*
X178951Y186332D01*
X178766Y185961D01*
X178093Y185769D01*
X177320Y185769D01*
X176946Y186143D01*
X176849Y186827D01*
X176844Y186832D01*
X176847Y186836D01*
X176647Y187436D01*
X176636Y187443D01*
X176638Y187451D01*
X176238Y187951D01*
X176213Y187957D01*
X176207Y187969D01*
X175507Y188069D01*
X175493Y188061D01*
X175484Y188067D01*
X174884Y187867D01*
X174873Y187850D01*
X174862Y187851D01*
X174462Y187351D01*
X174461Y187333D01*
X174451Y187328D01*
X174351Y186728D01*
X174361Y186709D01*
X174356Y186698D01*
X174656Y186098D01*
X174666Y186093D01*
X174665Y186085D01*
X175665Y185085D01*
X175677Y185084D01*
X175678Y185076D01*
X176276Y184777D01*
X177374Y184078D01*
X177969Y183682D01*
X178462Y183189D01*
X178853Y182602D01*
X178951Y182016D01*
X178951Y181438D01*
X178474Y180866D01*
X177896Y180769D01*
X172409Y180769D01*
G37*
%LPD*%
G36*
X163008Y134957D02*
X163008Y134957D01*
X163014Y134953D01*
X163714Y135153D01*
X163720Y135162D01*
X163727Y135159D01*
X164927Y135959D01*
X164930Y135966D01*
X164935Y135965D01*
X165335Y136365D01*
X165337Y136378D01*
X165345Y136381D01*
X165645Y137081D01*
X165640Y137101D01*
X165643Y137104D01*
X165644Y137104D01*
X165644Y137105D01*
X165648Y137110D01*
X165548Y137610D01*
X165533Y137623D01*
X165535Y137635D01*
X164935Y138235D01*
X164914Y138238D01*
X164908Y138249D01*
X164308Y138349D01*
X164304Y138346D01*
X164302Y138349D01*
X164299Y138349D01*
X164289Y138341D01*
X164282Y138346D01*
X163782Y138146D01*
X163776Y138136D01*
X163768Y138138D01*
X163170Y137639D01*
X162582Y137247D01*
X161908Y137151D01*
X161335Y137438D01*
X161054Y137906D01*
X161240Y138465D01*
X161815Y138753D01*
X162408Y138851D01*
X162411Y138855D01*
X162414Y138853D01*
X163114Y139053D01*
X163118Y139058D01*
X163122Y139056D01*
X164322Y139656D01*
X164325Y139663D01*
X164331Y139662D01*
X164831Y140062D01*
X164833Y140069D01*
X164838Y140069D01*
X165238Y140569D01*
X165239Y140583D01*
X165247Y140586D01*
X165280Y140700D01*
X165294Y140749D01*
X165336Y140897D01*
X165378Y141044D01*
X165392Y141094D01*
X165434Y141241D01*
X165435Y141241D01*
X165434Y141241D01*
X165447Y141286D01*
X165446Y141289D01*
X165448Y141291D01*
X165447Y141292D01*
X165449Y141293D01*
X165549Y141993D01*
X165543Y142003D01*
X165549Y142008D01*
X165449Y142608D01*
X165444Y142612D01*
X165447Y142616D01*
X165247Y143216D01*
X165239Y143221D01*
X165241Y143227D01*
X164841Y143827D01*
X164831Y143831D01*
X164831Y143838D01*
X164331Y144238D01*
X164323Y144239D01*
X164322Y144244D01*
X163722Y144544D01*
X163717Y144543D01*
X163716Y144547D01*
X163116Y144747D01*
X163109Y144744D01*
X163106Y144749D01*
X162306Y144849D01*
X162298Y144844D01*
X162293Y144849D01*
X161593Y144749D01*
X161592Y144748D01*
X161592Y144749D01*
X160992Y144649D01*
X160989Y144645D01*
X160986Y144647D01*
X160286Y144447D01*
X160278Y144436D01*
X160269Y144438D01*
X159769Y144038D01*
X159768Y144034D01*
X159765Y144035D01*
X159265Y143535D01*
X159262Y143508D01*
X159251Y143500D01*
X159251Y143000D01*
X159264Y142983D01*
X159260Y142971D01*
X159760Y142271D01*
X159774Y142267D01*
X159775Y142258D01*
X160275Y141958D01*
X160293Y141960D01*
X160300Y141951D01*
X160900Y141951D01*
X160919Y141965D01*
X160932Y141962D01*
X161524Y142456D01*
X162105Y142650D01*
X162774Y142554D01*
X163145Y142090D01*
X162959Y141532D01*
X162380Y141146D01*
X161089Y140848D01*
X161088Y140846D01*
X161086Y140847D01*
X160386Y140647D01*
X160382Y140642D01*
X160378Y140644D01*
X159778Y140344D01*
X159775Y140337D01*
X159769Y140338D01*
X159269Y139938D01*
X159266Y139926D01*
X159258Y139925D01*
X158958Y139425D01*
X158959Y139417D01*
X158953Y139416D01*
X158753Y138816D01*
X158756Y138809D01*
X158751Y138806D01*
X158651Y138006D01*
X158656Y137998D01*
X158651Y137993D01*
X158751Y137293D01*
X158756Y137288D01*
X158753Y137284D01*
X158953Y136684D01*
X158961Y136679D01*
X158959Y136673D01*
X159359Y136073D01*
X159366Y136070D01*
X159365Y136065D01*
X159765Y135665D01*
X159777Y135664D01*
X159778Y135656D01*
X160978Y135056D01*
X160989Y135058D01*
X160993Y135051D01*
X161693Y134951D01*
X161698Y134954D01*
X161700Y134951D01*
X163000Y134951D01*
X163008Y134957D01*
G37*
%LPC*%
G36*
X187349Y44282D02*
X187349Y44282D01*
X187311Y44328D01*
X187305Y44323D01*
X187300Y44329D01*
X186609Y44329D01*
X186140Y44517D01*
X185950Y45085D01*
X186048Y45964D01*
X186331Y46435D01*
X186904Y46531D01*
X189500Y46531D01*
X189512Y46540D01*
X189527Y46539D01*
X189528Y46552D01*
X189547Y46567D01*
X189530Y46589D01*
X189532Y46617D01*
X186435Y49314D01*
X185946Y49902D01*
X185852Y50373D01*
X186139Y50949D01*
X186722Y51434D01*
X187190Y51528D01*
X187769Y51142D01*
X190665Y48245D01*
X190724Y48237D01*
X190726Y48250D01*
X190739Y48250D01*
X191038Y48649D01*
X192135Y49845D01*
X193131Y50742D01*
X193529Y51040D01*
X194115Y51431D01*
X194585Y51431D01*
X195160Y51047D01*
X195451Y50370D01*
X195451Y49900D01*
X194967Y49416D01*
X193568Y48217D01*
X193567Y48217D01*
X191867Y46717D01*
X191866Y46708D01*
X191857Y46704D01*
X191862Y46692D01*
X191856Y46659D01*
X191879Y46654D01*
X191888Y46632D01*
X192288Y46532D01*
X192296Y46536D01*
X192300Y46531D01*
X194297Y46531D01*
X194973Y46434D01*
X195253Y46061D01*
X195350Y45280D01*
X195255Y44610D01*
X194786Y44329D01*
X187400Y44329D01*
X187353Y44293D01*
X187353Y44292D01*
X187358Y44285D01*
X187351Y44280D01*
X187351Y44247D01*
X187349Y44282D01*
G37*
%LPD*%
%LPC*%
G36*
X137507Y44759D02*
X137507Y44759D01*
X136821Y44955D01*
X136234Y45347D01*
X135838Y45841D01*
X135444Y46334D01*
X135247Y46925D01*
X135049Y47617D01*
X135049Y49003D01*
X135077Y49102D01*
X135078Y49102D01*
X135077Y49102D01*
X135120Y49250D01*
X135134Y49299D01*
X135176Y49447D01*
X135218Y49594D01*
X135232Y49644D01*
X135247Y49695D01*
X135444Y50286D01*
X135837Y50777D01*
X136333Y51273D01*
X136823Y51665D01*
X137507Y51861D01*
X138196Y51861D01*
X138785Y51763D01*
X139371Y51469D01*
X139865Y50975D01*
X139884Y50973D01*
X139888Y50962D01*
X140288Y50862D01*
X140328Y50879D01*
X140338Y50879D01*
X140732Y51371D01*
X141312Y51661D01*
X141997Y51661D01*
X142685Y51562D01*
X143273Y51268D01*
X143767Y50873D01*
X144751Y49890D01*
X144751Y48013D01*
X144652Y47325D01*
X144356Y46732D01*
X144059Y46139D01*
X143569Y45648D01*
X142982Y45257D01*
X142404Y45161D01*
X141832Y45351D01*
X141447Y45928D01*
X141352Y46500D01*
X141638Y46977D01*
X142131Y47372D01*
X142133Y47382D01*
X142141Y47383D01*
X142541Y47983D01*
X142540Y48003D01*
X142549Y48010D01*
X142549Y48710D01*
X142540Y48723D01*
X142544Y48732D01*
X142244Y49332D01*
X142214Y49347D01*
X142208Y49359D01*
X141608Y49459D01*
X141565Y49436D01*
X141558Y49435D01*
X141258Y48935D01*
X141258Y48932D01*
X141258Y48931D01*
X141259Y48920D01*
X141251Y48915D01*
X141151Y48018D01*
X141057Y47548D01*
X140492Y47359D01*
X139614Y47359D01*
X139145Y47641D01*
X139049Y48218D01*
X138949Y48917D01*
X138938Y48928D01*
X138941Y48937D01*
X138541Y49537D01*
X138514Y49547D01*
X138508Y49559D01*
X137908Y49659D01*
X137905Y49657D01*
X137897Y49657D01*
X137882Y49645D01*
X137869Y49648D01*
X137369Y49248D01*
X137365Y49233D01*
X137357Y49227D01*
X137353Y49226D01*
X137153Y48626D01*
X137157Y48615D01*
X137151Y48610D01*
X137151Y47810D01*
X137163Y47794D01*
X137159Y47783D01*
X137559Y47183D01*
X137576Y47177D01*
X137578Y47166D01*
X138171Y46869D01*
X138554Y46487D01*
X138650Y45813D01*
X138456Y45039D01*
X138084Y44759D01*
X137507Y44759D01*
G37*
%LPD*%
%LPC*%
G36*
X137214Y23758D02*
X137214Y23758D01*
X136528Y24052D01*
X136035Y24545D01*
X135641Y24939D01*
X135346Y25529D01*
X135148Y26121D01*
X135049Y26813D01*
X135049Y27607D01*
X135148Y28299D01*
X135346Y28891D01*
X135642Y29483D01*
X136035Y29975D01*
X136527Y30368D01*
X137115Y30662D01*
X137803Y30761D01*
X138492Y30761D01*
X139076Y30566D01*
X139567Y30173D01*
X140065Y29675D01*
X140092Y29672D01*
X140099Y29662D01*
X140101Y29662D01*
X140111Y29669D01*
X140124Y29667D01*
X140125Y29676D01*
X140135Y29675D01*
X140533Y30073D01*
X141023Y30465D01*
X141703Y30660D01*
X142288Y30562D01*
X142878Y30365D01*
X143471Y29970D01*
X143967Y29573D01*
X144463Y29078D01*
X144751Y28694D01*
X144751Y27313D01*
X144651Y26618D01*
X144552Y26024D01*
X144257Y25336D01*
X143865Y24845D01*
X143276Y24354D01*
X142692Y24159D01*
X142117Y24159D01*
X141639Y24542D01*
X141349Y25122D01*
X141349Y25687D01*
X141931Y26172D01*
X142431Y26572D01*
X142435Y26587D01*
X142445Y26595D01*
X142442Y26599D01*
X142449Y26603D01*
X142549Y27303D01*
X142543Y27313D01*
X142549Y27318D01*
X142449Y27918D01*
X142430Y27935D01*
X142431Y27948D01*
X141931Y28348D01*
X141901Y28349D01*
X141890Y28358D01*
X141390Y28258D01*
X141355Y28218D01*
X141351Y28216D01*
X141251Y27416D01*
X141153Y26730D01*
X140873Y26357D01*
X140001Y26260D01*
X139330Y26355D01*
X139049Y26824D01*
X139049Y27510D01*
X139042Y27519D01*
X139047Y27526D01*
X138847Y28126D01*
X138828Y28138D01*
X138827Y28151D01*
X138227Y28551D01*
X138202Y28549D01*
X138192Y28559D01*
X137592Y28459D01*
X137571Y28437D01*
X137558Y28435D01*
X137258Y27935D01*
X137259Y27921D01*
X137251Y27916D01*
X137151Y27116D01*
X137158Y27104D01*
X137153Y27096D01*
X137353Y26396D01*
X137367Y26386D01*
X137365Y26375D01*
X137765Y25975D01*
X137777Y25974D01*
X137778Y25966D01*
X138365Y25672D01*
X138649Y25199D01*
X138552Y24322D01*
X138363Y23850D01*
X137796Y23661D01*
X137214Y23758D01*
G37*
%LPD*%
G36*
X180211Y134959D02*
X180211Y134959D01*
X180218Y134954D01*
X180718Y135154D01*
X180730Y135173D01*
X180742Y135175D01*
X181010Y135621D01*
X181465Y135165D01*
X181481Y135163D01*
X181484Y135153D01*
X182084Y134953D01*
X182095Y134957D01*
X182100Y134951D01*
X182800Y134951D01*
X182805Y134954D01*
X182808Y134951D01*
X183408Y135051D01*
X183415Y135059D01*
X183422Y135056D01*
X184022Y135356D01*
X184026Y135364D01*
X184032Y135362D01*
X184632Y135862D01*
X184633Y135869D01*
X184638Y135869D01*
X185038Y136369D01*
X185039Y136373D01*
X185041Y136373D01*
X185441Y136973D01*
X185440Y136982D01*
X185447Y136984D01*
X185647Y137584D01*
X185645Y137591D01*
X185649Y137593D01*
X185749Y138293D01*
X185744Y138302D01*
X185749Y138307D01*
X185649Y139007D01*
X185644Y139012D01*
X185647Y139016D01*
X185447Y139616D01*
X185442Y139619D01*
X185444Y139622D01*
X185144Y140222D01*
X185140Y140224D01*
X185141Y140227D01*
X184741Y140827D01*
X184734Y140830D01*
X184735Y140835D01*
X184235Y141335D01*
X184223Y141336D01*
X184222Y141344D01*
X183622Y141644D01*
X183617Y141643D01*
X183616Y141647D01*
X183016Y141847D01*
X183011Y141845D01*
X183011Y141846D01*
X183003Y141846D01*
X183000Y141849D01*
X182300Y141849D01*
X182295Y141846D01*
X182289Y141846D01*
X182286Y141847D01*
X181586Y141647D01*
X181578Y141636D01*
X181569Y141638D01*
X181069Y141238D01*
X181065Y141223D01*
X181059Y141219D01*
X181063Y141214D01*
X181062Y141208D01*
X181051Y141200D01*
X181051Y141109D01*
X181045Y141120D01*
X180846Y141618D01*
X180818Y141635D01*
X180814Y141647D01*
X180114Y141847D01*
X180109Y141846D01*
X180103Y141846D01*
X180100Y141849D01*
X179400Y141849D01*
X179382Y141835D01*
X179369Y141838D01*
X178869Y141438D01*
X178865Y141423D01*
X178857Y141417D01*
X178853Y141416D01*
X178653Y140816D01*
X178657Y140805D01*
X178651Y140800D01*
X178651Y140100D01*
X178651Y140099D01*
X178751Y135999D01*
X178754Y135995D01*
X178751Y135993D01*
X178851Y135293D01*
X178870Y135274D01*
X178870Y135261D01*
X179270Y134961D01*
X179292Y134961D01*
X179300Y134951D01*
X180200Y134951D01*
X180211Y134959D01*
G37*
G36*
X128005Y134954D02*
X128005Y134954D01*
X128008Y134951D01*
X128608Y135051D01*
X128612Y135056D01*
X128616Y135053D01*
X129216Y135253D01*
X129245Y135297D01*
X129257Y135276D01*
X129311Y135252D01*
X129317Y135265D01*
X129331Y135262D01*
X130331Y136062D01*
X130333Y136069D01*
X130338Y136068D01*
X130838Y136668D01*
X130838Y136677D01*
X130844Y136678D01*
X131144Y137278D01*
X131142Y137289D01*
X131149Y137293D01*
X131249Y137992D01*
X131349Y138592D01*
X131346Y138597D01*
X131349Y138600D01*
X131349Y140100D01*
X131332Y140123D01*
X131333Y140137D01*
X130333Y141037D01*
X130331Y141037D01*
X130332Y141038D01*
X129732Y141538D01*
X129723Y141538D01*
X129722Y141544D01*
X129122Y141844D01*
X129117Y141843D01*
X129116Y141847D01*
X128516Y142047D01*
X128509Y142045D01*
X128507Y142049D01*
X127807Y142149D01*
X127798Y142144D01*
X127793Y142149D01*
X127093Y142049D01*
X127092Y142048D01*
X127092Y142049D01*
X126492Y141949D01*
X126485Y141941D01*
X126478Y141944D01*
X125878Y141644D01*
X125876Y141640D01*
X125873Y141641D01*
X125273Y141241D01*
X125270Y141234D01*
X125265Y141235D01*
X124765Y140735D01*
X124764Y140723D01*
X124756Y140722D01*
X124456Y140122D01*
X124457Y140117D01*
X124453Y140116D01*
X124253Y139516D01*
X124255Y139509D01*
X124251Y139507D01*
X124151Y138807D01*
X124154Y138802D01*
X124151Y138800D01*
X124151Y138100D01*
X124154Y138096D01*
X124151Y138093D01*
X124251Y137393D01*
X124259Y137385D01*
X124256Y137378D01*
X124556Y136778D01*
X124560Y136776D01*
X124559Y136773D01*
X124959Y136173D01*
X124966Y136170D01*
X124965Y136165D01*
X125365Y135765D01*
X125372Y135764D01*
X125373Y135759D01*
X125973Y135359D01*
X125977Y135359D01*
X125978Y135356D01*
X126578Y135056D01*
X126589Y135058D01*
X126593Y135051D01*
X127293Y134951D01*
X127298Y134954D01*
X127300Y134951D01*
X128000Y134951D01*
X128005Y134954D01*
G37*
%LPC*%
G36*
X187621Y25026D02*
X187621Y25026D01*
X187133Y25417D01*
X186737Y25813D01*
X186244Y26404D01*
X186047Y26995D01*
X185849Y27687D01*
X185849Y28973D01*
X185856Y28997D01*
X185870Y29047D01*
X185912Y29194D01*
X185913Y29194D01*
X185912Y29194D01*
X185955Y29342D01*
X185969Y29391D01*
X186011Y29539D01*
X186047Y29665D01*
X186245Y30258D01*
X186637Y30846D01*
X187127Y31238D01*
X187718Y31534D01*
X188407Y31731D01*
X189097Y31731D01*
X189789Y31632D01*
X190373Y31437D01*
X190861Y30950D01*
X191157Y30457D01*
X191454Y29862D01*
X191652Y29170D01*
X191751Y28473D01*
X191756Y28468D01*
X191753Y28464D01*
X191953Y27864D01*
X191967Y27855D01*
X191965Y27845D01*
X192465Y27345D01*
X192490Y27342D01*
X192495Y27336D01*
X192503Y27336D01*
X192508Y27331D01*
X193108Y27431D01*
X193129Y27453D01*
X193142Y27455D01*
X193442Y27955D01*
X193442Y27960D01*
X193445Y27963D01*
X193441Y27969D01*
X193440Y27973D01*
X193449Y27980D01*
X193449Y28680D01*
X193440Y28693D01*
X193444Y28702D01*
X192849Y29892D01*
X192849Y30360D01*
X193429Y30939D01*
X194002Y31226D01*
X194470Y31039D01*
X194960Y30451D01*
X195254Y29960D01*
X195452Y29270D01*
X195551Y28577D01*
X195551Y27883D01*
X195452Y27195D01*
X195156Y26602D01*
X194861Y26012D01*
X194371Y25620D01*
X193782Y25227D01*
X193097Y25129D01*
X192404Y25129D01*
X191815Y25227D01*
X191227Y25522D01*
X190737Y25914D01*
X190343Y26505D01*
X190046Y27098D01*
X189848Y27791D01*
X189749Y28388D01*
X189744Y28392D01*
X189747Y28396D01*
X189547Y28996D01*
X189533Y29005D01*
X189535Y29015D01*
X189035Y29515D01*
X189002Y29519D01*
X188992Y29529D01*
X188392Y29429D01*
X188377Y29413D01*
X188365Y29415D01*
X187965Y29015D01*
X187962Y28992D01*
X187951Y28986D01*
X187851Y28186D01*
X187861Y28169D01*
X187856Y28158D01*
X188156Y27558D01*
X188164Y27554D01*
X188162Y27548D01*
X188661Y26950D01*
X189051Y26365D01*
X189051Y25895D01*
X188665Y25316D01*
X188090Y24932D01*
X187621Y25026D01*
G37*
%LPD*%
%LPC*%
G36*
X110684Y160449D02*
X110684Y160449D01*
X110095Y160547D01*
X109505Y160843D01*
X108909Y161240D01*
X108419Y161632D01*
X108126Y162218D01*
X107929Y162907D01*
X107929Y164288D01*
X108222Y164873D01*
X108615Y165365D01*
X109104Y165756D01*
X109695Y165953D01*
X111094Y166353D01*
X111095Y166354D01*
X111096Y166353D01*
X111696Y166553D01*
X111703Y166564D01*
X111711Y166562D01*
X112211Y166962D01*
X112218Y166992D01*
X112229Y167000D01*
X112229Y167600D01*
X112213Y167621D01*
X112215Y167635D01*
X111815Y168035D01*
X111792Y168038D01*
X111786Y168049D01*
X110986Y168149D01*
X110967Y168138D01*
X110955Y168143D01*
X109767Y167449D01*
X109300Y167449D01*
X108818Y167931D01*
X108434Y168507D01*
X108622Y169071D01*
X109108Y169460D01*
X109602Y169756D01*
X110294Y170052D01*
X110983Y170151D01*
X111677Y170151D01*
X112367Y170052D01*
X113058Y169756D01*
X113550Y169461D01*
X114039Y168971D01*
X114334Y168381D01*
X114531Y167792D01*
X114531Y167103D01*
X114432Y166415D01*
X114138Y165827D01*
X113745Y165335D01*
X113257Y164945D01*
X112566Y164747D01*
X112562Y164742D01*
X112558Y164744D01*
X111965Y164448D01*
X111273Y164349D01*
X111268Y164344D01*
X111264Y164347D01*
X110664Y164147D01*
X110657Y164136D01*
X110649Y164138D01*
X110149Y163738D01*
X110142Y163708D01*
X110131Y163700D01*
X110131Y163000D01*
X110150Y162975D01*
X110149Y162962D01*
X110649Y162562D01*
X110668Y162561D01*
X110673Y162551D01*
X111373Y162451D01*
X111389Y162460D01*
X111399Y162455D01*
X112099Y162755D01*
X112104Y162763D01*
X112111Y162762D01*
X112611Y163162D01*
X112612Y163162D01*
X113198Y163651D01*
X113667Y163651D01*
X114344Y163264D01*
X114638Y162775D01*
X114662Y162765D01*
X114667Y162753D01*
X114688Y162747D01*
X114637Y162724D01*
X114643Y162709D01*
X114631Y162700D01*
X114631Y162216D01*
X114343Y161832D01*
X113849Y161338D01*
X113254Y160942D01*
X112760Y160646D01*
X112073Y160449D01*
X110684Y160449D01*
G37*
%LPD*%
%LPC*%
G36*
X86524Y33953D02*
X86524Y33953D01*
X86509Y33947D01*
X86500Y33959D01*
X86016Y33959D01*
X85632Y34247D01*
X85138Y34741D01*
X84742Y35336D01*
X84446Y35830D01*
X84249Y36517D01*
X84249Y37906D01*
X84347Y38495D01*
X84643Y39085D01*
X85040Y39681D01*
X85432Y40171D01*
X86018Y40464D01*
X86707Y40661D01*
X88088Y40661D01*
X88673Y40368D01*
X89165Y39975D01*
X89556Y39486D01*
X89753Y38895D01*
X90153Y37496D01*
X90154Y37495D01*
X90153Y37494D01*
X90353Y36894D01*
X90364Y36887D01*
X90362Y36879D01*
X90762Y36379D01*
X90792Y36372D01*
X90800Y36361D01*
X91400Y36361D01*
X91421Y36377D01*
X91435Y36375D01*
X91835Y36775D01*
X91836Y36787D01*
X91840Y36789D01*
X91837Y36793D01*
X91838Y36798D01*
X91849Y36804D01*
X91949Y37604D01*
X91938Y37623D01*
X91943Y37635D01*
X91249Y38823D01*
X91249Y39290D01*
X91731Y39772D01*
X92307Y40156D01*
X92871Y39968D01*
X93260Y39482D01*
X93556Y38988D01*
X93852Y38297D01*
X93951Y37607D01*
X93951Y36913D01*
X93852Y36223D01*
X93556Y35532D01*
X93261Y35041D01*
X92771Y34551D01*
X92181Y34256D01*
X91592Y34059D01*
X90903Y34059D01*
X90215Y34158D01*
X89627Y34452D01*
X89135Y34845D01*
X88745Y35333D01*
X88547Y36024D01*
X88542Y36028D01*
X88544Y36032D01*
X88248Y36625D01*
X88149Y37317D01*
X88144Y37322D01*
X88147Y37326D01*
X87947Y37926D01*
X87936Y37933D01*
X87938Y37941D01*
X87538Y38441D01*
X87508Y38448D01*
X87500Y38459D01*
X86800Y38459D01*
X86775Y38440D01*
X86762Y38441D01*
X86362Y37941D01*
X86361Y37922D01*
X86351Y37917D01*
X86251Y37217D01*
X86260Y37201D01*
X86255Y37191D01*
X86555Y36491D01*
X86563Y36486D01*
X86562Y36479D01*
X86962Y35979D01*
X86962Y35978D01*
X87451Y35392D01*
X87451Y34923D01*
X87064Y34246D01*
X86575Y33952D01*
X86565Y33928D01*
X86553Y33923D01*
X86549Y33910D01*
X86547Y33902D01*
X86524Y33953D01*
G37*
%LPD*%
%LPC*%
G36*
X59933Y24347D02*
X59933Y24347D01*
X59441Y24839D01*
X59146Y25428D01*
X58948Y26120D01*
X58849Y26813D01*
X58849Y27407D01*
X58948Y28099D01*
X59145Y28688D01*
X59540Y29281D01*
X59934Y29773D01*
X60522Y30165D01*
X61111Y30362D01*
X61803Y30461D01*
X62492Y30461D01*
X63078Y30265D01*
X63666Y29873D01*
X64058Y29383D01*
X64354Y28791D01*
X64552Y28197D01*
X64852Y26800D01*
X64861Y26792D01*
X64858Y26785D01*
X65158Y26285D01*
X65180Y26276D01*
X65184Y26263D01*
X65784Y26063D01*
X65793Y26066D01*
X65809Y26066D01*
X65816Y26072D01*
X65825Y26068D01*
X66325Y26368D01*
X66333Y26386D01*
X66345Y26396D01*
X66347Y26396D01*
X66348Y26398D01*
X66362Y26447D01*
X66404Y26595D01*
X66446Y26742D01*
X66460Y26792D01*
X66502Y26939D01*
X66503Y26939D01*
X66502Y26939D01*
X66545Y27087D01*
X66547Y27096D01*
X66540Y27116D01*
X66547Y27126D01*
X66347Y27726D01*
X66339Y27731D01*
X66341Y27737D01*
X65945Y28332D01*
X65755Y28900D01*
X66134Y29374D01*
X66816Y29861D01*
X67280Y29861D01*
X68156Y28984D01*
X68352Y28300D01*
X68451Y27603D01*
X68550Y26910D01*
X68452Y26220D01*
X68412Y26080D01*
X68369Y25932D01*
X68355Y25883D01*
X68313Y25735D01*
X68271Y25587D01*
X68257Y25538D01*
X68254Y25530D01*
X67958Y25035D01*
X67964Y24976D01*
X67971Y24977D01*
X67971Y24970D01*
X67999Y24949D01*
X67969Y24948D01*
X67969Y24944D01*
X67965Y24945D01*
X67569Y24548D01*
X66975Y24153D01*
X66385Y23857D01*
X65799Y23760D01*
X65110Y23858D01*
X64423Y24055D01*
X63933Y24447D01*
X63443Y24937D01*
X63247Y25526D01*
X63244Y25527D01*
X63245Y25529D01*
X62946Y26228D01*
X62748Y26821D01*
X62649Y27517D01*
X62641Y27525D01*
X62644Y27532D01*
X62344Y28132D01*
X62313Y28147D01*
X62307Y28159D01*
X61607Y28259D01*
X61583Y28246D01*
X61570Y28249D01*
X61170Y27949D01*
X61166Y27932D01*
X61155Y27929D01*
X60855Y27229D01*
X60858Y27215D01*
X60854Y27212D01*
X60857Y27208D01*
X60851Y27202D01*
X60951Y26602D01*
X60962Y26592D01*
X60959Y26583D01*
X61359Y25983D01*
X61363Y25981D01*
X61362Y25978D01*
X61857Y25384D01*
X62048Y24907D01*
X62045Y24898D01*
X62003Y24750D01*
X61961Y24602D01*
X61947Y24553D01*
X61905Y24405D01*
X61862Y24257D01*
X61857Y24238D01*
X61278Y23756D01*
X60812Y23663D01*
X59933Y24347D01*
G37*
%LPD*%
%LPC*%
G36*
X161533Y25617D02*
X161533Y25617D01*
X161041Y26109D01*
X160746Y26698D01*
X160548Y27390D01*
X160449Y28083D01*
X160449Y28776D01*
X160548Y29368D01*
X160745Y29958D01*
X161140Y30551D01*
X161534Y31043D01*
X162122Y31435D01*
X162711Y31632D01*
X163403Y31731D01*
X164092Y31731D01*
X164678Y31535D01*
X165266Y31143D01*
X165658Y30653D01*
X165954Y30061D01*
X166152Y29467D01*
X166452Y28070D01*
X166461Y28062D01*
X166458Y28055D01*
X166758Y27555D01*
X166780Y27546D01*
X166784Y27533D01*
X167384Y27333D01*
X167393Y27336D01*
X167411Y27336D01*
X167415Y27339D01*
X167422Y27336D01*
X168022Y27636D01*
X168032Y27656D01*
X168048Y27668D01*
X168045Y27671D01*
X168049Y27673D01*
X168149Y28373D01*
X168141Y28387D01*
X168147Y28396D01*
X167947Y28996D01*
X167939Y29001D01*
X167941Y29007D01*
X167545Y29602D01*
X167355Y30170D01*
X167734Y30644D01*
X168416Y31131D01*
X168880Y31131D01*
X169756Y30254D01*
X169952Y29570D01*
X170051Y28873D01*
X170150Y28180D01*
X170052Y27490D01*
X170012Y27350D01*
X169969Y27202D01*
X169955Y27153D01*
X169913Y27005D01*
X169871Y26857D01*
X169857Y26808D01*
X169854Y26800D01*
X169558Y26305D01*
X169564Y26246D01*
X169571Y26247D01*
X169571Y26240D01*
X169599Y26219D01*
X169569Y26218D01*
X169569Y26214D01*
X169565Y26215D01*
X169169Y25818D01*
X168575Y25423D01*
X167985Y25127D01*
X167399Y25030D01*
X166710Y25128D01*
X166023Y25325D01*
X165533Y25717D01*
X165043Y26207D01*
X164847Y26796D01*
X164844Y26797D01*
X164845Y26799D01*
X164546Y27498D01*
X164348Y28091D01*
X164249Y28787D01*
X164241Y28795D01*
X164244Y28802D01*
X163944Y29402D01*
X163914Y29417D01*
X163908Y29429D01*
X163308Y29529D01*
X163287Y29517D01*
X163275Y29522D01*
X162775Y29222D01*
X162767Y29202D01*
X162755Y29199D01*
X162455Y28499D01*
X162458Y28485D01*
X162454Y28482D01*
X162457Y28478D01*
X162451Y28472D01*
X162551Y27872D01*
X162562Y27862D01*
X162559Y27853D01*
X162959Y27253D01*
X162963Y27251D01*
X162962Y27248D01*
X163457Y26654D01*
X163648Y26177D01*
X163645Y26168D01*
X163603Y26020D01*
X163561Y25872D01*
X163547Y25823D01*
X163505Y25675D01*
X163462Y25527D01*
X163457Y25508D01*
X162878Y25026D01*
X162412Y24933D01*
X161533Y25617D01*
G37*
%LPD*%
%LPC*%
G36*
X169248Y228562D02*
X169248Y228562D01*
X168632Y228826D01*
X168124Y229164D01*
X167403Y230246D01*
X167224Y230960D01*
X167128Y231733D01*
X167033Y232587D01*
X167222Y234098D01*
X167503Y234848D01*
X167778Y235489D01*
X168207Y236004D01*
X168732Y236354D01*
X169350Y236619D01*
X170053Y236707D01*
X170852Y236618D01*
X171468Y236354D01*
X171993Y236004D01*
X172422Y235489D01*
X172688Y234868D01*
X173070Y233343D01*
X173070Y231737D01*
X172697Y230246D01*
X171976Y229164D01*
X171468Y228826D01*
X170852Y228562D01*
X170050Y228473D01*
X169248Y228562D01*
G37*
%LPD*%
%LPC*%
G36*
X189904Y33929D02*
X189904Y33929D01*
X189314Y34028D01*
X188621Y34325D01*
X188027Y34622D01*
X187533Y35017D01*
X187037Y35513D01*
X186642Y36007D01*
X186344Y36602D01*
X186048Y37195D01*
X185949Y37887D01*
X185948Y37888D01*
X185949Y37888D01*
X185849Y38484D01*
X185849Y39177D01*
X185948Y39870D01*
X185952Y39882D01*
X185966Y39931D01*
X186008Y40079D01*
X186050Y40226D01*
X186064Y40276D01*
X186106Y40423D01*
X186107Y40423D01*
X186106Y40423D01*
X186146Y40560D01*
X186442Y41054D01*
X186834Y41642D01*
X187404Y41927D01*
X187976Y41736D01*
X188559Y41250D01*
X188747Y40781D01*
X188455Y40101D01*
X188256Y39702D01*
X188257Y39697D01*
X188253Y39696D01*
X188053Y39096D01*
X188057Y39085D01*
X188051Y39080D01*
X188051Y38380D01*
X188058Y38371D01*
X188053Y38364D01*
X188253Y37764D01*
X188256Y37763D01*
X188255Y37761D01*
X188555Y37061D01*
X188563Y37056D01*
X188562Y37049D01*
X188962Y36549D01*
X188976Y36546D01*
X188978Y36536D01*
X189578Y36236D01*
X189589Y36238D01*
X189593Y36231D01*
X190293Y36131D01*
X190298Y36134D01*
X190300Y36131D01*
X191000Y36131D01*
X191005Y36134D01*
X191008Y36131D01*
X191608Y36231D01*
X191618Y36242D01*
X191627Y36239D01*
X192227Y36639D01*
X192230Y36646D01*
X192235Y36645D01*
X192735Y37145D01*
X192736Y37157D01*
X192744Y37158D01*
X193044Y37758D01*
X193043Y37762D01*
X193046Y37764D01*
X193047Y37764D01*
X193247Y38364D01*
X193243Y38375D01*
X193249Y38380D01*
X193249Y39080D01*
X193243Y39088D01*
X193247Y39094D01*
X193047Y39794D01*
X193042Y39798D01*
X193044Y39802D01*
X192745Y40400D01*
X192553Y40880D01*
X192740Y41348D01*
X193419Y41833D01*
X193990Y41928D01*
X194465Y41643D01*
X194857Y41055D01*
X195154Y40462D01*
X195352Y39770D01*
X195451Y39077D01*
X195451Y38483D01*
X195351Y37788D01*
X195252Y37194D01*
X194956Y36503D01*
X194560Y35909D01*
X193768Y34919D01*
X193178Y34624D01*
X193176Y34620D01*
X193173Y34621D01*
X192578Y34225D01*
X191989Y34028D01*
X191297Y33929D01*
X189904Y33929D01*
G37*
%LPD*%
%LPC*%
G36*
X119387Y160449D02*
X119387Y160449D01*
X118694Y160647D01*
X118000Y160846D01*
X117511Y161139D01*
X117026Y161624D01*
X116931Y162191D01*
X117318Y162867D01*
X117797Y163251D01*
X118169Y163251D01*
X119260Y162755D01*
X119270Y162757D01*
X119273Y162751D01*
X119973Y162651D01*
X119978Y162654D01*
X119980Y162651D01*
X120680Y162651D01*
X120689Y162658D01*
X120696Y162653D01*
X121296Y162853D01*
X121301Y162861D01*
X121307Y162859D01*
X121907Y163259D01*
X121911Y163269D01*
X121918Y163269D01*
X122318Y163769D01*
X122319Y163777D01*
X122324Y163778D01*
X122624Y164378D01*
X122622Y164389D01*
X122624Y164391D01*
X122629Y164393D01*
X122729Y165093D01*
X122724Y165102D01*
X122729Y165107D01*
X122629Y165807D01*
X122624Y165812D01*
X122627Y165816D01*
X122427Y166416D01*
X122419Y166421D01*
X122421Y166427D01*
X122021Y167027D01*
X122011Y167031D01*
X122011Y167038D01*
X121511Y167438D01*
X121503Y167439D01*
X121502Y167444D01*
X120902Y167744D01*
X120891Y167742D01*
X120887Y167749D01*
X120187Y167849D01*
X120182Y167846D01*
X120180Y167849D01*
X119480Y167849D01*
X119467Y167840D01*
X119458Y167844D01*
X118858Y167544D01*
X118856Y167540D01*
X118853Y167541D01*
X118265Y167149D01*
X117797Y167149D01*
X117316Y167534D01*
X116832Y168212D01*
X116926Y168776D01*
X117411Y169261D01*
X117903Y169557D01*
X118495Y169852D01*
X119286Y169951D01*
X119287Y169952D01*
X119288Y169951D01*
X119884Y170051D01*
X120576Y170051D01*
X121169Y169952D01*
X121862Y169754D01*
X122455Y169457D01*
X123051Y169060D01*
X123545Y168665D01*
X123940Y168171D01*
X124337Y167575D01*
X124634Y166981D01*
X124832Y166389D01*
X124931Y165697D01*
X124931Y165003D01*
X124832Y164311D01*
X124633Y163716D01*
X124634Y163714D01*
X124633Y163714D01*
X124624Y163682D01*
X124581Y163534D01*
X124567Y163485D01*
X124525Y163337D01*
X124483Y163189D01*
X124469Y163140D01*
X124435Y163021D01*
X124040Y162429D01*
X123645Y161935D01*
X123151Y161540D01*
X122555Y161143D01*
X121961Y160846D01*
X121365Y160647D01*
X120673Y160449D01*
X119387Y160449D01*
G37*
%LPD*%
%LPC*%
G36*
X88803Y23659D02*
X88803Y23659D01*
X88111Y23758D01*
X87516Y23957D01*
X87514Y23956D01*
X87514Y23957D01*
X86821Y24155D01*
X86229Y24550D01*
X85735Y24945D01*
X85340Y25439D01*
X84943Y26035D01*
X84646Y26629D01*
X84447Y27225D01*
X84249Y27917D01*
X84249Y29203D01*
X84250Y29205D01*
X84292Y29353D01*
X84334Y29500D01*
X84348Y29550D01*
X84390Y29697D01*
X84391Y29697D01*
X84390Y29697D01*
X84433Y29845D01*
X84447Y29894D01*
X84447Y29896D01*
X84489Y30042D01*
X84531Y30190D01*
X84545Y30239D01*
X84587Y30387D01*
X84588Y30387D01*
X84587Y30387D01*
X84630Y30535D01*
X84644Y30584D01*
X84646Y30590D01*
X84939Y31080D01*
X85424Y31564D01*
X85991Y31659D01*
X86667Y31272D01*
X87051Y30793D01*
X87051Y30421D01*
X86555Y29330D01*
X86557Y29320D01*
X86551Y29317D01*
X86451Y28617D01*
X86454Y28612D01*
X86451Y28610D01*
X86451Y27910D01*
X86458Y27901D01*
X86453Y27894D01*
X86653Y27294D01*
X86661Y27289D01*
X86659Y27283D01*
X87059Y26683D01*
X87069Y26679D01*
X87069Y26672D01*
X87569Y26272D01*
X87577Y26271D01*
X87578Y26266D01*
X88178Y25966D01*
X88188Y25968D01*
X88189Y25968D01*
X88193Y25961D01*
X88893Y25861D01*
X88902Y25866D01*
X88907Y25861D01*
X89607Y25961D01*
X89612Y25966D01*
X89616Y25963D01*
X90216Y26163D01*
X90221Y26171D01*
X90227Y26169D01*
X90827Y26569D01*
X90831Y26579D01*
X90838Y26579D01*
X91238Y27079D01*
X91239Y27086D01*
X91240Y27087D01*
X91244Y27088D01*
X91544Y27688D01*
X91542Y27699D01*
X91549Y27703D01*
X91649Y28403D01*
X91646Y28408D01*
X91649Y28410D01*
X91649Y29110D01*
X91640Y29123D01*
X91644Y29132D01*
X91344Y29732D01*
X91340Y29734D01*
X91341Y29737D01*
X90949Y30325D01*
X90949Y30793D01*
X91334Y31274D01*
X92012Y31758D01*
X92576Y31664D01*
X93061Y31180D01*
X93357Y30687D01*
X93652Y30096D01*
X93751Y29304D01*
X93752Y29303D01*
X93751Y29302D01*
X93851Y28706D01*
X93851Y28014D01*
X93752Y27421D01*
X93735Y27360D01*
X93692Y27212D01*
X93678Y27163D01*
X93636Y27015D01*
X93594Y26868D01*
X93580Y26818D01*
X93554Y26728D01*
X93257Y26135D01*
X92860Y25539D01*
X92465Y25045D01*
X91971Y24650D01*
X91375Y24253D01*
X90781Y23956D01*
X90189Y23758D01*
X89497Y23659D01*
X88803Y23659D01*
G37*
%LPD*%
%LPC*%
G36*
X164104Y180769D02*
X164104Y180769D01*
X163513Y180868D01*
X162721Y181165D01*
X162228Y181460D01*
X161742Y181849D01*
X161553Y182418D01*
X161841Y183090D01*
X162423Y183575D01*
X162793Y183667D01*
X163476Y183277D01*
X163478Y183278D01*
X163478Y183276D01*
X163878Y183076D01*
X163889Y183078D01*
X163893Y183071D01*
X164593Y182971D01*
X164598Y182974D01*
X164600Y182971D01*
X165200Y182971D01*
X165208Y182977D01*
X165214Y182973D01*
X165914Y183173D01*
X165920Y183182D01*
X165927Y183179D01*
X166527Y183579D01*
X166531Y183589D01*
X166538Y183589D01*
X166938Y184089D01*
X166939Y184097D01*
X166944Y184098D01*
X167244Y184698D01*
X167242Y184709D01*
X167249Y184712D01*
X167349Y185312D01*
X167346Y185317D01*
X167349Y185320D01*
X167349Y186120D01*
X167342Y186129D01*
X167347Y186136D01*
X167147Y186736D01*
X167139Y186741D01*
X167141Y186747D01*
X166741Y187347D01*
X166731Y187351D01*
X166731Y187358D01*
X166231Y187758D01*
X166223Y187759D01*
X166222Y187764D01*
X165622Y188064D01*
X165611Y188062D01*
X165607Y188069D01*
X164907Y188169D01*
X164902Y188166D01*
X164900Y188169D01*
X164200Y188169D01*
X164191Y188162D01*
X164184Y188167D01*
X163584Y187967D01*
X163579Y187959D01*
X163573Y187961D01*
X162981Y187566D01*
X162513Y187473D01*
X162035Y187855D01*
X161549Y188438D01*
X161549Y189003D01*
X161934Y189483D01*
X162522Y189875D01*
X163115Y190073D01*
X163810Y190272D01*
X164503Y190371D01*
X165097Y190371D01*
X165789Y190272D01*
X166382Y190074D01*
X167079Y189775D01*
X167671Y189479D01*
X168165Y188985D01*
X168169Y188985D01*
X168169Y188982D01*
X168661Y188588D01*
X168956Y187998D01*
X169254Y187402D01*
X169452Y186709D01*
X169551Y186116D01*
X169551Y184727D01*
X169541Y184691D01*
X169498Y184543D01*
X169484Y184494D01*
X169442Y184346D01*
X169400Y184199D01*
X169386Y184149D01*
X169354Y184038D01*
X169056Y183442D01*
X168758Y182847D01*
X168363Y182353D01*
X167867Y181857D01*
X167374Y181463D01*
X166682Y181166D01*
X166084Y180967D01*
X165492Y180769D01*
X164104Y180769D01*
G37*
%LPD*%
G36*
X153604Y134954D02*
X153604Y134954D01*
X153607Y134951D01*
X154307Y135051D01*
X154312Y135056D01*
X154316Y135053D01*
X154916Y135253D01*
X154921Y135261D01*
X154927Y135259D01*
X155527Y135659D01*
X155531Y135669D01*
X155538Y135669D01*
X155938Y136169D01*
X155939Y136173D01*
X155941Y136173D01*
X156341Y136773D01*
X156340Y136782D01*
X156347Y136784D01*
X156547Y137384D01*
X156545Y137391D01*
X156549Y137393D01*
X156749Y138793D01*
X156744Y138802D01*
X156749Y138807D01*
X156649Y139507D01*
X156641Y139515D01*
X156644Y139522D01*
X156044Y140722D01*
X156034Y140727D01*
X156035Y140735D01*
X155635Y141135D01*
X155628Y141136D01*
X155627Y141141D01*
X155027Y141541D01*
X155023Y141541D01*
X155022Y141544D01*
X154422Y141844D01*
X154417Y141843D01*
X154416Y141847D01*
X153816Y142047D01*
X153809Y142045D01*
X153807Y142049D01*
X153107Y142149D01*
X153099Y142144D01*
X153094Y142149D01*
X152294Y142049D01*
X152293Y142048D01*
X152292Y142049D01*
X151692Y141949D01*
X151685Y141941D01*
X151678Y141944D01*
X151078Y141644D01*
X151073Y141634D01*
X151065Y141635D01*
X150565Y141135D01*
X150565Y141131D01*
X150562Y141131D01*
X150162Y140631D01*
X150161Y140618D01*
X150153Y140616D01*
X149953Y140016D01*
X149955Y140009D01*
X149951Y140007D01*
X149851Y139307D01*
X149854Y139302D01*
X149851Y139300D01*
X149851Y138500D01*
X149870Y138475D01*
X149869Y138462D01*
X150369Y138062D01*
X150377Y138061D01*
X150378Y138056D01*
X150978Y137756D01*
X150989Y137758D01*
X150995Y137758D01*
X151000Y137751D01*
X153691Y137751D01*
X154120Y137579D01*
X153771Y137143D01*
X153093Y136949D01*
X152408Y136949D01*
X151816Y137147D01*
X151814Y137146D01*
X151814Y137147D01*
X151114Y137347D01*
X151087Y137337D01*
X151075Y137342D01*
X150575Y137042D01*
X150567Y137022D01*
X150555Y137019D01*
X150255Y136319D01*
X150258Y136306D01*
X150251Y136300D01*
X150251Y135800D01*
X150267Y135779D01*
X150265Y135765D01*
X150565Y135465D01*
X150574Y135464D01*
X150575Y135458D01*
X151075Y135158D01*
X151084Y135159D01*
X151086Y135153D01*
X151786Y134953D01*
X151796Y134956D01*
X151800Y134951D01*
X153600Y134951D01*
X153604Y134954D01*
G37*
%LPC*%
G36*
X143230Y32849D02*
X143230Y32849D01*
X143223Y32847D01*
X143222Y32854D01*
X142622Y33154D01*
X135922Y36454D01*
X135337Y36747D01*
X135049Y37322D01*
X135049Y37998D01*
X135337Y38573D01*
X135922Y38866D01*
X142620Y42165D01*
X143305Y42459D01*
X143776Y42365D01*
X144258Y41882D01*
X144451Y41401D01*
X144451Y40830D01*
X144071Y40451D01*
X143479Y40154D01*
X138479Y37855D01*
X138477Y37850D01*
X138473Y37851D01*
X138173Y37651D01*
X138170Y37644D01*
X138164Y37643D01*
X138166Y37631D01*
X138153Y37595D01*
X138174Y37588D01*
X138178Y37566D01*
X138778Y37266D01*
X138779Y37266D01*
X138780Y37265D01*
X143380Y35165D01*
X143384Y35166D01*
X143384Y35163D01*
X143973Y34967D01*
X144357Y34583D01*
X144547Y34012D01*
X144258Y33338D01*
X143780Y32859D01*
X143300Y32859D01*
X143265Y32833D01*
X143255Y32830D01*
X143243Y32803D01*
X143230Y32849D01*
G37*
%LPD*%
G36*
X142208Y134957D02*
X142208Y134957D01*
X142214Y134953D01*
X142914Y135153D01*
X142933Y135178D01*
X142946Y135182D01*
X143146Y135682D01*
X143142Y135695D01*
X143149Y135700D01*
X143149Y138393D01*
X143161Y138434D01*
X143203Y138582D01*
X143217Y138631D01*
X143259Y138779D01*
X143260Y138779D01*
X143259Y138779D01*
X143302Y138927D01*
X143316Y138976D01*
X143343Y139071D01*
X143817Y139451D01*
X144488Y139451D01*
X145063Y139163D01*
X145351Y138588D01*
X145351Y135900D01*
X145358Y135891D01*
X145353Y135884D01*
X145553Y135284D01*
X145570Y135273D01*
X145570Y135261D01*
X145970Y134961D01*
X145992Y134961D01*
X146000Y134951D01*
X146900Y134951D01*
X146909Y134958D01*
X146916Y134953D01*
X147516Y135153D01*
X147534Y135180D01*
X147547Y135184D01*
X147747Y135784D01*
X147743Y135795D01*
X147749Y135800D01*
X147749Y140600D01*
X147746Y140604D01*
X147749Y140607D01*
X147649Y141307D01*
X147636Y141319D01*
X147639Y141330D01*
X147339Y141730D01*
X147313Y141737D01*
X147306Y141749D01*
X146506Y141849D01*
X146501Y141846D01*
X146496Y141846D01*
X146493Y141849D01*
X145793Y141749D01*
X145775Y141730D01*
X145762Y141731D01*
X145383Y141258D01*
X145122Y141345D01*
X144527Y141741D01*
X144513Y141740D01*
X144508Y141749D01*
X143908Y141849D01*
X143903Y141846D01*
X143896Y141846D01*
X143893Y141849D01*
X143193Y141749D01*
X143188Y141744D01*
X143184Y141747D01*
X142584Y141547D01*
X142579Y141539D01*
X142573Y141541D01*
X141973Y141141D01*
X141970Y141134D01*
X141965Y141135D01*
X141465Y140635D01*
X141464Y140626D01*
X141458Y140625D01*
X141158Y140125D01*
X141158Y140120D01*
X141155Y140119D01*
X140855Y139419D01*
X140857Y139411D01*
X140851Y139408D01*
X140751Y138808D01*
X140753Y138806D01*
X140753Y138805D01*
X140754Y138803D01*
X140751Y138800D01*
X140751Y136000D01*
X140754Y135995D01*
X140751Y135992D01*
X140851Y135392D01*
X140870Y135375D01*
X140869Y135362D01*
X141369Y134962D01*
X141392Y134961D01*
X141400Y134951D01*
X142200Y134951D01*
X142208Y134957D01*
G37*
G36*
X65105Y89234D02*
X65105Y89234D01*
X65108Y89231D01*
X65708Y89331D01*
X65729Y89353D01*
X65742Y89355D01*
X66042Y89855D01*
X66042Y89858D01*
X66040Y89873D01*
X66049Y89880D01*
X66049Y91180D01*
X66043Y91188D01*
X66047Y91194D01*
X65647Y92594D01*
X65642Y92598D01*
X65644Y92602D01*
X65344Y93202D01*
X65341Y93203D01*
X65342Y93205D01*
X65042Y93705D01*
X65041Y93706D01*
X65041Y93707D01*
X64643Y94305D01*
X64344Y94902D01*
X64339Y94905D01*
X64340Y94909D01*
X63543Y96004D01*
X63373Y96431D01*
X66800Y96431D01*
X66815Y96442D01*
X66825Y96438D01*
X67325Y96738D01*
X67337Y96766D01*
X67349Y96773D01*
X67449Y97473D01*
X67446Y97478D01*
X67449Y97480D01*
X67449Y98180D01*
X67435Y98198D01*
X67438Y98211D01*
X67038Y98711D01*
X67013Y98717D01*
X67007Y98729D01*
X66307Y98829D01*
X66302Y98826D01*
X66300Y98829D01*
X61600Y98829D01*
X61596Y98826D01*
X61593Y98829D01*
X60893Y98729D01*
X60875Y98710D01*
X60862Y98711D01*
X60462Y98211D01*
X60461Y98188D01*
X60451Y98180D01*
X60451Y97580D01*
X60454Y97575D01*
X60451Y97572D01*
X60551Y96972D01*
X60555Y96969D01*
X60553Y96966D01*
X60753Y96266D01*
X60758Y96262D01*
X60756Y96258D01*
X61356Y95058D01*
X61358Y95057D01*
X61357Y95055D01*
X62057Y93855D01*
X62060Y93854D01*
X62059Y93853D01*
X62858Y92654D01*
X63254Y91961D01*
X63453Y91266D01*
X63456Y91264D01*
X63454Y91262D01*
X63651Y90771D01*
X63651Y90280D01*
X63654Y90276D01*
X63651Y90273D01*
X63751Y89573D01*
X63776Y89549D01*
X63778Y89536D01*
X64378Y89236D01*
X64394Y89239D01*
X64400Y89231D01*
X65100Y89231D01*
X65105Y89234D01*
G37*
G36*
X74004Y89234D02*
X74004Y89234D01*
X74007Y89231D01*
X74707Y89331D01*
X74729Y89353D01*
X74742Y89355D01*
X75042Y89855D01*
X75042Y89858D01*
X75040Y89873D01*
X75049Y89880D01*
X75049Y90580D01*
X75046Y90585D01*
X75049Y90588D01*
X74949Y91188D01*
X74945Y91191D01*
X74947Y91194D01*
X74547Y92594D01*
X74542Y92598D01*
X74544Y92602D01*
X74244Y93202D01*
X74241Y93203D01*
X74242Y93205D01*
X73943Y93703D01*
X73644Y94302D01*
X73640Y94304D01*
X73641Y94307D01*
X73241Y94907D01*
X73240Y94908D01*
X73240Y94909D01*
X72446Y96000D01*
X72360Y96431D01*
X75700Y96431D01*
X75715Y96442D01*
X75725Y96438D01*
X76225Y96738D01*
X76237Y96766D01*
X76249Y96773D01*
X76349Y97473D01*
X76346Y97478D01*
X76349Y97480D01*
X76349Y98180D01*
X76335Y98198D01*
X76338Y98211D01*
X75938Y98711D01*
X75914Y98717D01*
X75908Y98729D01*
X75308Y98829D01*
X75303Y98826D01*
X75300Y98829D01*
X70600Y98829D01*
X70596Y98826D01*
X70594Y98829D01*
X69794Y98729D01*
X69771Y98707D01*
X69758Y98705D01*
X69458Y98205D01*
X69459Y98192D01*
X69451Y98188D01*
X69351Y97588D01*
X69357Y97578D01*
X69351Y97572D01*
X69451Y96972D01*
X69458Y96966D01*
X69455Y96961D01*
X69755Y96261D01*
X69757Y96259D01*
X69756Y96258D01*
X70356Y95058D01*
X70358Y95057D01*
X70357Y95055D01*
X71757Y92655D01*
X72156Y91958D01*
X72453Y91265D01*
X72552Y90770D01*
X72651Y90272D01*
X72751Y89573D01*
X72773Y89551D01*
X72775Y89538D01*
X73275Y89238D01*
X73293Y89240D01*
X73300Y89231D01*
X74000Y89231D01*
X74004Y89234D01*
G37*
G36*
X147664Y89234D02*
X147664Y89234D01*
X147667Y89231D01*
X148367Y89331D01*
X148389Y89353D01*
X148402Y89355D01*
X148702Y89855D01*
X148702Y89858D01*
X148700Y89873D01*
X148709Y89880D01*
X148709Y90580D01*
X148706Y90585D01*
X148709Y90588D01*
X148609Y91188D01*
X148605Y91191D01*
X148607Y91194D01*
X148207Y92594D01*
X148202Y92598D01*
X148204Y92602D01*
X147904Y93202D01*
X147901Y93203D01*
X147902Y93205D01*
X147603Y93703D01*
X147304Y94302D01*
X147300Y94304D01*
X147301Y94307D01*
X146901Y94907D01*
X146900Y94908D01*
X146900Y94909D01*
X146106Y96000D01*
X146020Y96431D01*
X149360Y96431D01*
X149375Y96442D01*
X149385Y96438D01*
X149885Y96738D01*
X149897Y96766D01*
X149909Y96773D01*
X150009Y97473D01*
X150006Y97478D01*
X150009Y97480D01*
X150009Y98180D01*
X149995Y98198D01*
X149998Y98211D01*
X149598Y98711D01*
X149574Y98717D01*
X149568Y98729D01*
X148968Y98829D01*
X148963Y98826D01*
X148960Y98829D01*
X144260Y98829D01*
X144256Y98826D01*
X144254Y98829D01*
X143454Y98729D01*
X143431Y98707D01*
X143418Y98705D01*
X143118Y98205D01*
X143119Y98192D01*
X143111Y98188D01*
X143011Y97588D01*
X143017Y97578D01*
X143011Y97572D01*
X143111Y96972D01*
X143118Y96966D01*
X143115Y96961D01*
X143415Y96261D01*
X143417Y96259D01*
X143416Y96258D01*
X144016Y95058D01*
X144018Y95057D01*
X144017Y95055D01*
X145417Y92655D01*
X145816Y91958D01*
X146113Y91265D01*
X146212Y90770D01*
X146311Y90272D01*
X146411Y89573D01*
X146433Y89551D01*
X146435Y89538D01*
X146935Y89238D01*
X146953Y89240D01*
X146960Y89231D01*
X147660Y89231D01*
X147664Y89234D01*
G37*
G36*
X157871Y89242D02*
X157871Y89242D01*
X157882Y89236D01*
X158482Y89536D01*
X158488Y89549D01*
X158498Y89548D01*
X158998Y90148D01*
X158999Y90172D01*
X159009Y90180D01*
X159009Y90680D01*
X158995Y90699D01*
X158998Y90712D01*
X158498Y91312D01*
X158496Y91312D01*
X158497Y91313D01*
X157598Y92311D01*
X157225Y92778D01*
X158596Y94246D01*
X158597Y94252D01*
X158601Y94253D01*
X159001Y94853D01*
X158999Y94877D01*
X159005Y94881D01*
X159003Y94883D01*
X159008Y94890D01*
X158908Y95390D01*
X158895Y95401D01*
X158898Y95412D01*
X158398Y96012D01*
X158384Y96015D01*
X158382Y96024D01*
X157782Y96324D01*
X157773Y96322D01*
X157773Y96323D01*
X157747Y96323D01*
X157742Y96326D01*
X157242Y96126D01*
X157234Y96114D01*
X157225Y96115D01*
X155740Y94629D01*
X155280Y94629D01*
X153795Y96115D01*
X153781Y96117D01*
X153778Y96126D01*
X153278Y96326D01*
X153267Y96323D01*
X153247Y96323D01*
X153245Y96321D01*
X153238Y96324D01*
X152638Y96024D01*
X152632Y96011D01*
X152622Y96012D01*
X152122Y95412D01*
X152122Y95403D01*
X152118Y95400D01*
X152121Y95396D01*
X152121Y95393D01*
X152111Y95388D01*
X152011Y94788D01*
X152023Y94765D01*
X152019Y94753D01*
X152419Y94153D01*
X152427Y94150D01*
X152426Y94144D01*
X153889Y92779D01*
X152425Y91315D01*
X152424Y91308D01*
X152419Y91307D01*
X152019Y90707D01*
X152021Y90680D01*
X152012Y90670D01*
X152112Y90170D01*
X152125Y90159D01*
X152122Y90148D01*
X152622Y89548D01*
X152636Y89545D01*
X152638Y89536D01*
X153238Y89236D01*
X153267Y89241D01*
X153278Y89234D01*
X153778Y89434D01*
X153786Y89446D01*
X153795Y89445D01*
X154294Y89944D01*
X155279Y90831D01*
X155740Y90831D01*
X156725Y89845D01*
X156729Y89845D01*
X156728Y89842D01*
X157328Y89342D01*
X157346Y89341D01*
X157350Y89332D01*
X157850Y89232D01*
X157871Y89242D01*
G37*
G36*
X84211Y89242D02*
X84211Y89242D01*
X84222Y89236D01*
X84822Y89536D01*
X84828Y89549D01*
X84838Y89548D01*
X85338Y90148D01*
X85339Y90172D01*
X85349Y90180D01*
X85349Y90680D01*
X85335Y90699D01*
X85338Y90712D01*
X84838Y91312D01*
X84836Y91312D01*
X84837Y91313D01*
X83938Y92311D01*
X83565Y92778D01*
X84936Y94246D01*
X84937Y94252D01*
X84941Y94253D01*
X85341Y94853D01*
X85339Y94877D01*
X85345Y94881D01*
X85343Y94883D01*
X85348Y94890D01*
X85248Y95390D01*
X85235Y95401D01*
X85238Y95412D01*
X84738Y96012D01*
X84724Y96015D01*
X84722Y96024D01*
X84122Y96324D01*
X84113Y96322D01*
X84113Y96323D01*
X84087Y96323D01*
X84082Y96326D01*
X83582Y96126D01*
X83574Y96114D01*
X83565Y96115D01*
X82080Y94629D01*
X81620Y94629D01*
X80135Y96115D01*
X80121Y96117D01*
X80118Y96126D01*
X79618Y96326D01*
X79607Y96323D01*
X79587Y96323D01*
X79585Y96321D01*
X79578Y96324D01*
X78978Y96024D01*
X78972Y96011D01*
X78962Y96012D01*
X78462Y95412D01*
X78462Y95403D01*
X78458Y95400D01*
X78461Y95396D01*
X78461Y95393D01*
X78451Y95388D01*
X78351Y94788D01*
X78363Y94765D01*
X78359Y94753D01*
X78759Y94153D01*
X78767Y94150D01*
X78766Y94144D01*
X80229Y92779D01*
X78765Y91315D01*
X78764Y91308D01*
X78759Y91307D01*
X78359Y90707D01*
X78361Y90680D01*
X78352Y90670D01*
X78452Y90170D01*
X78465Y90159D01*
X78462Y90148D01*
X78962Y89548D01*
X78976Y89545D01*
X78978Y89536D01*
X79578Y89236D01*
X79607Y89241D01*
X79618Y89234D01*
X80118Y89434D01*
X80126Y89446D01*
X80135Y89445D01*
X80634Y89944D01*
X81619Y90831D01*
X82080Y90831D01*
X83065Y89845D01*
X83069Y89845D01*
X83068Y89842D01*
X83668Y89342D01*
X83686Y89341D01*
X83690Y89332D01*
X84190Y89232D01*
X84211Y89242D01*
G37*
G36*
X136905Y134954D02*
X136905Y134954D01*
X136908Y134951D01*
X137508Y135051D01*
X137514Y135058D01*
X137519Y135055D01*
X138219Y135355D01*
X138221Y135357D01*
X138222Y135356D01*
X138822Y135656D01*
X138834Y135680D01*
X138847Y135684D01*
X139047Y136284D01*
X139039Y136307D01*
X139046Y136318D01*
X138846Y136818D01*
X138836Y136824D01*
X138838Y136832D01*
X138338Y137432D01*
X138308Y137438D01*
X138300Y137449D01*
X137700Y137449D01*
X137686Y137438D01*
X137676Y137443D01*
X136980Y137045D01*
X136395Y136850D01*
X135628Y136946D01*
X135477Y137174D01*
X136014Y137353D01*
X136812Y137552D01*
X136814Y137555D01*
X136816Y137553D01*
X137416Y137753D01*
X137419Y137758D01*
X137422Y137756D01*
X138022Y138056D01*
X138029Y138069D01*
X138038Y138069D01*
X138438Y138569D01*
X138439Y138578D01*
X138440Y138579D01*
X138445Y138581D01*
X138745Y139281D01*
X138743Y139289D01*
X138749Y139292D01*
X138849Y139892D01*
X138843Y139902D01*
X138849Y139907D01*
X138749Y140607D01*
X138743Y140613D01*
X138746Y140618D01*
X138546Y141118D01*
X138534Y141126D01*
X138535Y141135D01*
X138135Y141535D01*
X138126Y141536D01*
X138125Y141542D01*
X137625Y141842D01*
X137616Y141841D01*
X137614Y141847D01*
X136914Y142047D01*
X136908Y142045D01*
X136905Y142049D01*
X136005Y142149D01*
X135998Y142144D01*
X135993Y142149D01*
X135293Y142049D01*
X135292Y142048D01*
X135292Y142049D01*
X134692Y141949D01*
X134689Y141945D01*
X134686Y141947D01*
X133986Y141747D01*
X133974Y141730D01*
X133962Y141731D01*
X133562Y141231D01*
X133561Y141222D01*
X133557Y141219D01*
X133561Y141213D01*
X133561Y141202D01*
X133551Y141192D01*
X133651Y140592D01*
X133665Y140579D01*
X133662Y140568D01*
X134162Y139968D01*
X134192Y139962D01*
X134200Y139951D01*
X134700Y139951D01*
X134708Y139957D01*
X134714Y139953D01*
X135410Y140152D01*
X136095Y140250D01*
X136641Y140068D01*
X136559Y139741D01*
X135790Y139548D01*
X135093Y139449D01*
X135088Y139444D01*
X135084Y139447D01*
X134484Y139247D01*
X134479Y139239D01*
X134473Y139241D01*
X133873Y138841D01*
X133869Y138831D01*
X133862Y138831D01*
X133462Y138331D01*
X133461Y138320D01*
X133458Y138317D01*
X133453Y138316D01*
X133253Y137716D01*
X133257Y137705D01*
X133251Y137700D01*
X133251Y137000D01*
X133254Y136996D01*
X133251Y136993D01*
X133351Y136293D01*
X133364Y136280D01*
X133362Y136269D01*
X133762Y135769D01*
X133766Y135768D01*
X133765Y135765D01*
X134265Y135265D01*
X134279Y135263D01*
X134282Y135254D01*
X134782Y135054D01*
X134790Y135057D01*
X134793Y135051D01*
X135493Y134951D01*
X135498Y134954D01*
X135500Y134951D01*
X136900Y134951D01*
X136905Y134954D01*
G37*
G36*
X174604Y134954D02*
X174604Y134954D01*
X174607Y134951D01*
X175307Y135051D01*
X175315Y135059D01*
X175322Y135056D01*
X176522Y135656D01*
X176534Y135680D01*
X176547Y135684D01*
X176747Y136284D01*
X176739Y136307D01*
X176746Y136318D01*
X176546Y136818D01*
X176536Y136824D01*
X176538Y136832D01*
X176038Y137432D01*
X176008Y137438D01*
X176000Y137449D01*
X175400Y137449D01*
X175386Y137438D01*
X175376Y137443D01*
X174680Y137045D01*
X174095Y136850D01*
X173337Y136945D01*
X173262Y137169D01*
X173815Y137353D01*
X174514Y137553D01*
X174515Y137554D01*
X174516Y137553D01*
X175116Y137753D01*
X175119Y137758D01*
X175122Y137756D01*
X175722Y138056D01*
X175729Y138069D01*
X175738Y138069D01*
X176138Y138569D01*
X176139Y138578D01*
X176140Y138579D01*
X176145Y138581D01*
X176445Y139281D01*
X176443Y139289D01*
X176449Y139292D01*
X176549Y139892D01*
X176546Y139897D01*
X176549Y139900D01*
X176549Y140600D01*
X176538Y140615D01*
X176542Y140625D01*
X176242Y141125D01*
X176239Y141127D01*
X176239Y141130D01*
X175939Y141530D01*
X175924Y141534D01*
X175922Y141544D01*
X175322Y141844D01*
X175315Y141843D01*
X175314Y141847D01*
X174614Y142047D01*
X174608Y142045D01*
X174605Y142049D01*
X173705Y142149D01*
X173697Y142144D01*
X173692Y142149D01*
X173092Y142049D01*
X172393Y141949D01*
X172389Y141944D01*
X172388Y141944D01*
X172384Y141947D01*
X171784Y141747D01*
X171775Y141733D01*
X171765Y141735D01*
X171265Y141235D01*
X171264Y141223D01*
X171258Y141219D01*
X171262Y141213D01*
X171261Y141202D01*
X171251Y141192D01*
X171351Y140592D01*
X171365Y140579D01*
X171362Y140568D01*
X171862Y139968D01*
X171892Y139962D01*
X171900Y139951D01*
X172400Y139951D01*
X172408Y139957D01*
X172414Y139953D01*
X173110Y140152D01*
X173797Y140250D01*
X174429Y140069D01*
X174266Y139742D01*
X173490Y139548D01*
X172892Y139449D01*
X172889Y139445D01*
X172886Y139447D01*
X172186Y139247D01*
X172180Y139239D01*
X172173Y139241D01*
X171573Y138841D01*
X171569Y138831D01*
X171562Y138831D01*
X171162Y138331D01*
X171161Y138320D01*
X171153Y138313D01*
X171155Y138310D01*
X171151Y138308D01*
X171051Y137708D01*
X171052Y137707D01*
X171051Y137707D01*
X170951Y137007D01*
X170958Y136994D01*
X170953Y136986D01*
X171153Y136286D01*
X171160Y136281D01*
X171158Y136275D01*
X171458Y135775D01*
X171466Y135771D01*
X171465Y135765D01*
X171965Y135265D01*
X171981Y135263D01*
X171984Y135253D01*
X172584Y135053D01*
X172590Y135055D01*
X172592Y135051D01*
X173192Y134951D01*
X173197Y134954D01*
X173200Y134951D01*
X174600Y134951D01*
X174604Y134954D01*
G37*
%LPC*%
G36*
X43854Y70279D02*
X43854Y70279D01*
X43289Y70373D01*
X43100Y71033D01*
X43196Y71703D01*
X43569Y71983D01*
X44353Y72081D01*
X47550Y72081D01*
X47597Y72117D01*
X47592Y72124D01*
X47599Y72130D01*
X47599Y78921D01*
X47789Y79394D01*
X48362Y79681D01*
X49234Y79681D01*
X49608Y79400D01*
X49801Y78822D01*
X49801Y71333D01*
X49704Y70653D01*
X49427Y70377D01*
X48647Y70279D01*
X43854Y70279D01*
G37*
%LPD*%
G36*
X121607Y135051D02*
X121607Y135051D01*
X121629Y135073D01*
X121642Y135075D01*
X121942Y135575D01*
X121942Y135578D01*
X121940Y135593D01*
X121949Y135600D01*
X121949Y141000D01*
X121942Y141009D01*
X121947Y141016D01*
X121747Y141616D01*
X121720Y141634D01*
X121716Y141647D01*
X121116Y141847D01*
X121111Y141845D01*
X121111Y141846D01*
X121103Y141846D01*
X121100Y141849D01*
X120300Y141849D01*
X120295Y141846D01*
X120294Y141846D01*
X120284Y141838D01*
X120275Y141842D01*
X119775Y141542D01*
X119769Y141528D01*
X119759Y141527D01*
X119586Y141268D01*
X119027Y141641D01*
X119021Y141641D01*
X119019Y141645D01*
X118319Y141945D01*
X118312Y141944D01*
X118297Y141944D01*
X118292Y141949D01*
X117692Y141849D01*
X116993Y141749D01*
X116969Y141725D01*
X116969Y141724D01*
X116956Y141722D01*
X116656Y141122D01*
X116656Y141120D01*
X116660Y141101D01*
X116651Y141092D01*
X116751Y140492D01*
X116755Y140489D01*
X116753Y140486D01*
X116953Y139786D01*
X116972Y139772D01*
X116973Y139759D01*
X117573Y139359D01*
X117604Y139361D01*
X117616Y139353D01*
X118212Y139552D01*
X118792Y139649D01*
X119363Y139363D01*
X119651Y138788D01*
X119651Y135400D01*
X119673Y135370D01*
X119675Y135358D01*
X120175Y135058D01*
X120189Y135059D01*
X120193Y135051D01*
X120893Y134951D01*
X120902Y134956D01*
X120907Y134951D01*
X121607Y135051D01*
G37*
G36*
X63804Y45164D02*
X63804Y45164D01*
X63807Y45161D01*
X64507Y45261D01*
X64515Y45269D01*
X64522Y45266D01*
X65122Y45566D01*
X65125Y45573D01*
X65131Y45572D01*
X65631Y45972D01*
X65633Y45982D01*
X65641Y45983D01*
X66041Y46583D01*
X66040Y46592D01*
X66047Y46594D01*
X66247Y47194D01*
X66243Y47205D01*
X66249Y47210D01*
X66249Y47910D01*
X66242Y47919D01*
X66247Y47926D01*
X66047Y48526D01*
X66039Y48531D01*
X66041Y48537D01*
X65641Y49137D01*
X65631Y49141D01*
X65631Y49148D01*
X65131Y49548D01*
X65123Y49549D01*
X65122Y49554D01*
X64522Y49854D01*
X64517Y49853D01*
X64516Y49857D01*
X63916Y50057D01*
X63901Y50052D01*
X63894Y50059D01*
X63094Y49959D01*
X63089Y49954D01*
X63084Y49957D01*
X62484Y49757D01*
X62481Y49752D01*
X62478Y49754D01*
X61878Y49454D01*
X61871Y49441D01*
X61862Y49441D01*
X61462Y48941D01*
X61461Y48933D01*
X61456Y48932D01*
X61156Y48332D01*
X61157Y48328D01*
X61154Y48326D01*
X61158Y48321D01*
X61151Y48317D01*
X61051Y47617D01*
X61054Y47612D01*
X61051Y47610D01*
X61051Y47010D01*
X61060Y46997D01*
X61056Y46988D01*
X61356Y46388D01*
X61360Y46386D01*
X61359Y46383D01*
X61759Y45783D01*
X61766Y45780D01*
X61765Y45775D01*
X62265Y45275D01*
X62288Y45272D01*
X62294Y45261D01*
X63094Y45161D01*
X63098Y45163D01*
X63100Y45161D01*
X63800Y45161D01*
X63804Y45164D01*
G37*
%LPC*%
G36*
X181514Y180769D02*
X181514Y180769D01*
X181045Y181051D01*
X180949Y181628D01*
X180913Y181661D01*
X180910Y181668D01*
X180893Y181672D01*
X180896Y181674D01*
X180900Y181674D01*
X180909Y181680D01*
X180945Y181699D01*
X180942Y181705D01*
X180947Y181709D01*
X180943Y181715D01*
X180949Y181720D01*
X180949Y189117D01*
X181046Y189793D01*
X181419Y190073D01*
X182295Y190170D01*
X182867Y189979D01*
X183151Y189506D01*
X183151Y181429D01*
X182963Y180961D01*
X182293Y180769D01*
X181514Y180769D01*
G37*
%LPD*%
%LPC*%
G36*
X161304Y44429D02*
X161304Y44429D01*
X160731Y44525D01*
X160449Y44994D01*
X160449Y45772D01*
X160640Y46343D01*
X161113Y46532D01*
X161803Y46631D01*
X168597Y46631D01*
X169281Y46533D01*
X169657Y46251D01*
X169850Y45576D01*
X169753Y44803D01*
X169380Y44429D01*
X161304Y44429D01*
G37*
%LPD*%
G36*
X116526Y46880D02*
X116526Y46880D01*
X116539Y46880D01*
X116839Y47280D01*
X116839Y47288D01*
X116843Y47291D01*
X116839Y47295D01*
X116839Y47302D01*
X116849Y47310D01*
X116849Y48710D01*
X116840Y48723D01*
X116844Y48732D01*
X116544Y49332D01*
X116537Y49335D01*
X116538Y49341D01*
X116138Y49841D01*
X116131Y49843D01*
X116131Y49848D01*
X115631Y50248D01*
X115623Y50249D01*
X115622Y50254D01*
X115022Y50554D01*
X115011Y50552D01*
X115010Y50555D01*
X115009Y50555D01*
X115007Y50559D01*
X114307Y50659D01*
X114298Y50654D01*
X114293Y50659D01*
X113593Y50559D01*
X113585Y50551D01*
X113578Y50554D01*
X112978Y50254D01*
X112975Y50247D01*
X112969Y50248D01*
X112469Y49848D01*
X112468Y49844D01*
X112465Y49845D01*
X111965Y49345D01*
X111963Y49329D01*
X111953Y49326D01*
X111853Y49026D01*
X111857Y49015D01*
X111851Y49010D01*
X111851Y47010D01*
X111887Y46963D01*
X111890Y46965D01*
X111892Y46961D01*
X112492Y46861D01*
X112497Y46864D01*
X112500Y46861D01*
X116500Y46861D01*
X116526Y46880D01*
G37*
G36*
X29197Y72517D02*
X29197Y72517D01*
X29195Y72520D01*
X29199Y72522D01*
X29299Y73122D01*
X29296Y73127D01*
X29299Y73130D01*
X29299Y77130D01*
X29280Y77156D01*
X29280Y77169D01*
X28880Y77469D01*
X28858Y77469D01*
X28850Y77479D01*
X27450Y77479D01*
X27437Y77470D01*
X27428Y77474D01*
X26828Y77174D01*
X26825Y77167D01*
X26819Y77168D01*
X26319Y76768D01*
X26317Y76761D01*
X26312Y76761D01*
X25912Y76261D01*
X25911Y76253D01*
X25906Y76252D01*
X25606Y75652D01*
X25607Y75648D01*
X25604Y75646D01*
X25608Y75641D01*
X25601Y75637D01*
X25501Y74937D01*
X25506Y74928D01*
X25501Y74923D01*
X25601Y74223D01*
X25609Y74215D01*
X25606Y74208D01*
X25906Y73608D01*
X25913Y73605D01*
X25912Y73599D01*
X26312Y73099D01*
X26316Y73098D01*
X26315Y73095D01*
X26815Y72595D01*
X26831Y72593D01*
X26834Y72583D01*
X27134Y72483D01*
X27145Y72487D01*
X27150Y72481D01*
X29150Y72481D01*
X29197Y72517D01*
G37*
G36*
X114737Y109347D02*
X114737Y109347D01*
X114732Y109354D01*
X114739Y109360D01*
X114739Y114060D01*
X114710Y114098D01*
X114708Y114106D01*
X114208Y114306D01*
X114195Y114302D01*
X114190Y114309D01*
X113490Y114309D01*
X113486Y114306D01*
X113483Y114309D01*
X112783Y114209D01*
X112778Y114204D01*
X112774Y114207D01*
X112174Y114007D01*
X112165Y113993D01*
X112155Y113995D01*
X111655Y113495D01*
X111655Y113491D01*
X111652Y113491D01*
X111252Y112991D01*
X111251Y112978D01*
X111243Y112976D01*
X111043Y112376D01*
X111045Y112369D01*
X111041Y112367D01*
X110941Y111667D01*
X110948Y111654D01*
X110943Y111646D01*
X111143Y110946D01*
X111148Y110942D01*
X111146Y110938D01*
X111446Y110338D01*
X111453Y110335D01*
X111452Y110329D01*
X111852Y109829D01*
X111859Y109827D01*
X111859Y109822D01*
X112359Y109422D01*
X112372Y109421D01*
X112374Y109413D01*
X112674Y109313D01*
X112685Y109317D01*
X112690Y109311D01*
X114690Y109311D01*
X114737Y109347D01*
G37*
G36*
X65721Y35077D02*
X65721Y35077D01*
X65735Y35075D01*
X66035Y35375D01*
X66037Y35387D01*
X66043Y35392D01*
X66038Y35399D01*
X66039Y35402D01*
X66049Y35410D01*
X66049Y36810D01*
X66040Y36823D01*
X66044Y36832D01*
X65744Y37432D01*
X65740Y37434D01*
X65741Y37437D01*
X65341Y38037D01*
X65331Y38041D01*
X65331Y38048D01*
X64831Y38448D01*
X64818Y38449D01*
X64816Y38457D01*
X64216Y38657D01*
X64211Y38655D01*
X64210Y38656D01*
X64209Y38656D01*
X64207Y38659D01*
X63507Y38759D01*
X63499Y38755D01*
X63497Y38755D01*
X63493Y38759D01*
X62793Y38659D01*
X62790Y38656D01*
X62788Y38654D01*
X62784Y38657D01*
X62184Y38457D01*
X62175Y38443D01*
X62165Y38445D01*
X61165Y37445D01*
X61164Y37433D01*
X61156Y37432D01*
X61056Y37232D01*
X61059Y37216D01*
X61051Y37210D01*
X61051Y35110D01*
X61087Y35063D01*
X61094Y35068D01*
X61100Y35061D01*
X65700Y35061D01*
X65721Y35077D01*
G37*
G36*
X167321Y36347D02*
X167321Y36347D01*
X167335Y36345D01*
X167635Y36645D01*
X167637Y36657D01*
X167643Y36662D01*
X167638Y36669D01*
X167639Y36672D01*
X167649Y36680D01*
X167649Y38080D01*
X167640Y38093D01*
X167644Y38102D01*
X167344Y38702D01*
X167340Y38704D01*
X167341Y38707D01*
X166941Y39307D01*
X166931Y39311D01*
X166931Y39318D01*
X166431Y39718D01*
X166418Y39719D01*
X166416Y39727D01*
X165816Y39927D01*
X165811Y39925D01*
X165810Y39926D01*
X165809Y39926D01*
X165807Y39929D01*
X165107Y40029D01*
X165099Y40025D01*
X165097Y40025D01*
X165093Y40029D01*
X164393Y39929D01*
X164390Y39926D01*
X164388Y39924D01*
X164384Y39927D01*
X163784Y39727D01*
X163775Y39713D01*
X163765Y39715D01*
X163265Y39215D01*
X163265Y39211D01*
X163262Y39211D01*
X162863Y38713D01*
X162665Y38515D01*
X162662Y38488D01*
X162651Y38480D01*
X162651Y36480D01*
X162687Y36433D01*
X162689Y36434D01*
X162690Y36432D01*
X163190Y36332D01*
X163197Y36335D01*
X163200Y36331D01*
X167300Y36331D01*
X167321Y36347D01*
G37*
%LPC*%
G36*
X154897Y228170D02*
X154897Y228170D01*
X153806Y228443D01*
X153592Y228586D01*
X153182Y228995D01*
X153111Y229210D01*
X153103Y229224D01*
X153100Y229239D01*
X153024Y229352D01*
X153020Y229358D01*
X153019Y229358D01*
X153019Y229359D01*
X152882Y229495D01*
X152830Y229652D01*
X152830Y229890D01*
X152827Y229905D01*
X152829Y229920D01*
X152792Y230052D01*
X152791Y230059D01*
X152790Y230059D01*
X152790Y230060D01*
X152730Y230180D01*
X152730Y230390D01*
X152727Y230405D01*
X152729Y230420D01*
X152705Y230506D01*
X152705Y230514D01*
X152701Y230522D01*
X152692Y230552D01*
X152691Y230559D01*
X152690Y230559D01*
X152690Y230560D01*
X152630Y230680D01*
X152630Y231791D01*
X152646Y231781D01*
X152708Y231737D01*
X152720Y231735D01*
X152728Y231730D01*
X152765Y231726D01*
X152850Y231710D01*
X152960Y231710D01*
X153280Y231550D01*
X153295Y231546D01*
X153308Y231537D01*
X153442Y231511D01*
X153449Y231510D01*
X153450Y231510D01*
X153860Y231510D01*
X153980Y231450D01*
X153995Y231446D01*
X154008Y231437D01*
X154142Y231411D01*
X154149Y231410D01*
X154150Y231410D01*
X154488Y231410D01*
X154730Y231329D01*
X154767Y231326D01*
X154850Y231310D01*
X155188Y231310D01*
X155430Y231229D01*
X155467Y231226D01*
X155550Y231210D01*
X155660Y231210D01*
X155780Y231150D01*
X155795Y231146D01*
X155808Y231137D01*
X155942Y231111D01*
X155949Y231110D01*
X155950Y231110D01*
X156060Y231110D01*
X156925Y230678D01*
X157238Y230365D01*
X157370Y230100D01*
X157370Y229790D01*
X157378Y229753D01*
X157389Y229670D01*
X157439Y229519D01*
X157410Y229460D01*
X157406Y229445D01*
X157397Y229432D01*
X157383Y229360D01*
X157377Y229345D01*
X157377Y229329D01*
X157371Y229298D01*
X157370Y229292D01*
X157370Y229291D01*
X157370Y229290D01*
X157370Y229152D01*
X157289Y228910D01*
X157286Y228873D01*
X157270Y228790D01*
X157270Y228780D01*
X157238Y228715D01*
X157025Y228503D01*
X156965Y228473D01*
X156880Y228430D01*
X156851Y228406D01*
X156781Y228359D01*
X156725Y228303D01*
X156660Y228270D01*
X156550Y228270D01*
X156535Y228267D01*
X156520Y228269D01*
X156388Y228232D01*
X156381Y228231D01*
X156381Y228230D01*
X156380Y228230D01*
X156260Y228170D01*
X154897Y228170D01*
G37*
%LPD*%
G36*
X102791Y162659D02*
X102791Y162659D01*
X102798Y162654D01*
X103298Y162854D01*
X103313Y162878D01*
X103320Y162884D01*
X103318Y162887D01*
X103323Y162895D01*
X103329Y162900D01*
X103329Y167600D01*
X103293Y167647D01*
X103286Y167642D01*
X103280Y167649D01*
X101180Y167649D01*
X101165Y167638D01*
X101155Y167642D01*
X100655Y167342D01*
X100641Y167308D01*
X100631Y167300D01*
X100631Y166600D01*
X100650Y166574D01*
X100650Y166561D01*
X101050Y166261D01*
X101068Y166261D01*
X101074Y166251D01*
X101857Y166153D01*
X102231Y165780D01*
X102231Y165009D01*
X102045Y164545D01*
X100673Y164349D01*
X100651Y164327D01*
X100638Y164325D01*
X100338Y163825D01*
X100340Y163807D01*
X100331Y163800D01*
X100331Y163200D01*
X100345Y163182D01*
X100342Y163169D01*
X100742Y162669D01*
X100772Y162662D01*
X100780Y162651D01*
X102780Y162651D01*
X102791Y162659D01*
G37*
G36*
X91447Y45297D02*
X91447Y45297D01*
X91442Y45304D01*
X91449Y45310D01*
X91449Y47410D01*
X91438Y47425D01*
X91442Y47435D01*
X91142Y47935D01*
X91108Y47949D01*
X91100Y47959D01*
X90400Y47959D01*
X90374Y47940D01*
X90361Y47940D01*
X90061Y47540D01*
X90061Y47522D01*
X90051Y47516D01*
X89953Y46733D01*
X89580Y46359D01*
X88809Y46359D01*
X88345Y46545D01*
X88149Y47917D01*
X88127Y47939D01*
X88125Y47952D01*
X87625Y48252D01*
X87607Y48250D01*
X87600Y48259D01*
X87000Y48259D01*
X86982Y48245D01*
X86969Y48248D01*
X86469Y47848D01*
X86462Y47818D01*
X86451Y47810D01*
X86451Y45810D01*
X86459Y45799D01*
X86454Y45792D01*
X86654Y45292D01*
X86695Y45267D01*
X86700Y45261D01*
X91400Y45261D01*
X91447Y45297D01*
G37*
%LPC*%
G36*
X164372Y91629D02*
X164372Y91629D01*
X163989Y91821D01*
X163603Y92207D01*
X163408Y92791D01*
X163309Y93683D01*
X163309Y94677D01*
X163409Y95474D01*
X163379Y95525D01*
X163373Y95522D01*
X163370Y95528D01*
X163352Y95532D01*
X163358Y95535D01*
X163361Y95535D01*
X163369Y95541D01*
X163404Y95558D01*
X163402Y95563D01*
X163407Y95564D01*
X163604Y96157D01*
X163891Y96539D01*
X164369Y96731D01*
X164844Y96731D01*
X165225Y96445D01*
X165515Y96058D01*
X165711Y95371D01*
X165811Y94380D01*
X165711Y93386D01*
X165612Y92595D01*
X165319Y92009D01*
X165036Y91725D01*
X164555Y91629D01*
X164372Y91629D01*
G37*
%LPD*%
%LPC*%
G36*
X90712Y91629D02*
X90712Y91629D01*
X90329Y91821D01*
X89943Y92207D01*
X89748Y92791D01*
X89649Y93683D01*
X89649Y94677D01*
X89749Y95474D01*
X89719Y95525D01*
X89713Y95522D01*
X89710Y95528D01*
X89692Y95532D01*
X89698Y95535D01*
X89701Y95535D01*
X89709Y95541D01*
X89744Y95558D01*
X89742Y95563D01*
X89747Y95564D01*
X89944Y96157D01*
X90231Y96539D01*
X90709Y96731D01*
X91184Y96731D01*
X91565Y96445D01*
X91855Y96058D01*
X92051Y95371D01*
X92151Y94380D01*
X92051Y93386D01*
X91952Y92595D01*
X91659Y92009D01*
X91376Y91725D01*
X90895Y91629D01*
X90712Y91629D01*
G37*
%LPD*%
G36*
X110915Y138662D02*
X110915Y138662D01*
X110925Y138658D01*
X111425Y138958D01*
X111433Y138977D01*
X111440Y138982D01*
X111437Y138986D01*
X111449Y138993D01*
X111549Y139693D01*
X111544Y139702D01*
X111549Y139707D01*
X111449Y140407D01*
X111427Y140429D01*
X111425Y140442D01*
X110925Y140742D01*
X110907Y140740D01*
X110900Y140749D01*
X107500Y140749D01*
X107496Y140746D01*
X107493Y140749D01*
X106793Y140649D01*
X106764Y140619D01*
X106753Y140616D01*
X106553Y140016D01*
X106557Y140005D01*
X106551Y140000D01*
X106551Y139300D01*
X106558Y139291D01*
X106553Y139284D01*
X106753Y138684D01*
X106797Y138654D01*
X106800Y138651D01*
X110900Y138651D01*
X110915Y138662D01*
G37*
%LPC*%
G36*
X96508Y137349D02*
X96508Y137349D01*
X95939Y137539D01*
X95749Y138108D01*
X95749Y138500D01*
X95732Y138522D01*
X95734Y138536D01*
X95252Y138987D01*
X95769Y138562D01*
X95828Y138560D01*
X95828Y138566D01*
X95835Y138565D01*
X96220Y138951D01*
X96900Y138951D01*
X96909Y138958D01*
X96916Y138953D01*
X97516Y139153D01*
X97535Y139182D01*
X97547Y139186D01*
X97586Y139321D01*
X97600Y139370D01*
X97642Y139518D01*
X97684Y139665D01*
X97698Y139715D01*
X97740Y139862D01*
X97741Y139862D01*
X97740Y139862D01*
X97747Y139886D01*
X97740Y139904D01*
X97747Y139914D01*
X97547Y140614D01*
X97522Y140633D01*
X97518Y140646D01*
X97018Y140846D01*
X97009Y140843D01*
X97006Y140849D01*
X96235Y140945D01*
X96052Y141403D01*
X96062Y141438D01*
X96076Y141488D01*
X96118Y141635D01*
X96119Y141635D01*
X96118Y141635D01*
X96161Y141783D01*
X96175Y141832D01*
X96217Y141980D01*
X96239Y142057D01*
X96804Y142151D01*
X98188Y142151D01*
X98551Y141970D01*
X98551Y137349D01*
X96508Y137349D01*
G37*
%LPD*%
G36*
X104203Y112020D02*
X104203Y112020D01*
X104212Y112016D01*
X104412Y112116D01*
X104422Y112136D01*
X104434Y112145D01*
X104430Y112152D01*
X104431Y112153D01*
X104439Y112160D01*
X104439Y114260D01*
X104403Y114307D01*
X104400Y114305D01*
X104398Y114309D01*
X103798Y114409D01*
X103793Y114406D01*
X103790Y114409D01*
X103090Y114409D01*
X103085Y114406D01*
X103082Y114409D01*
X102482Y114309D01*
X102475Y114301D01*
X102468Y114304D01*
X101868Y114004D01*
X101858Y113984D01*
X101846Y113982D01*
X101546Y113382D01*
X101550Y113362D01*
X101541Y113353D01*
X101641Y112653D01*
X101657Y112638D01*
X101655Y112625D01*
X102155Y112125D01*
X102176Y112122D01*
X102182Y112111D01*
X102782Y112011D01*
X102787Y112014D01*
X102790Y112011D01*
X104190Y112011D01*
X104203Y112020D01*
G37*
%LPC*%
G36*
X128143Y137324D02*
X128143Y137324D01*
X128107Y137340D01*
X128100Y137349D01*
X127608Y137349D01*
X127027Y137543D01*
X126549Y138020D01*
X126549Y138792D01*
X126741Y139368D01*
X127315Y139751D01*
X127888Y139751D01*
X128468Y139461D01*
X128851Y138983D01*
X128851Y138308D01*
X128658Y137729D01*
X128169Y137338D01*
X128158Y137296D01*
X128143Y137324D01*
G37*
%LPD*%
%LPC*%
G36*
X181820Y137349D02*
X181820Y137349D01*
X181343Y137827D01*
X181152Y138401D01*
X181161Y138434D01*
X181203Y138582D01*
X181217Y138631D01*
X181259Y138779D01*
X181260Y138779D01*
X181259Y138779D01*
X181302Y138927D01*
X181316Y138976D01*
X181343Y139071D01*
X181817Y139451D01*
X182488Y139451D01*
X183063Y139163D01*
X183351Y138588D01*
X183351Y137920D01*
X183071Y137641D01*
X182488Y137349D01*
X181820Y137349D01*
G37*
%LPD*%
%LPC*%
G36*
X48608Y137249D02*
X48608Y137249D01*
X48032Y137441D01*
X47652Y138011D01*
X47746Y138576D01*
X48220Y139051D01*
X48991Y139051D01*
X49482Y138854D01*
X49518Y138864D01*
X49530Y138861D01*
X49555Y138880D01*
X49557Y138880D01*
X49556Y138878D01*
X49849Y138292D01*
X49754Y137724D01*
X49280Y137249D01*
X48608Y137249D01*
G37*
%LPD*%
%LPC*%
G36*
X57508Y137249D02*
X57508Y137249D01*
X56935Y137440D01*
X56651Y138008D01*
X56746Y138576D01*
X57220Y139051D01*
X57892Y139051D01*
X58465Y138860D01*
X58749Y138292D01*
X58654Y137721D01*
X58276Y137249D01*
X57508Y137249D01*
G37*
%LPD*%
%LPC*%
G36*
X137084Y91525D02*
X137084Y91525D01*
X136709Y91900D01*
X136709Y92460D01*
X137180Y92931D01*
X137846Y92931D01*
X138319Y92647D01*
X138507Y92084D01*
X138227Y91525D01*
X137561Y91430D01*
X137084Y91525D01*
G37*
%LPD*%
%LPC*%
G36*
X66024Y137245D02*
X66024Y137245D01*
X65649Y137620D01*
X65649Y138183D01*
X66024Y138651D01*
X66700Y138651D01*
X66747Y138687D01*
X66748Y138687D01*
X66753Y138708D01*
X66774Y138663D01*
X66775Y138658D01*
X67255Y138370D01*
X67349Y137804D01*
X67163Y137244D01*
X66501Y137150D01*
X66024Y137245D01*
G37*
%LPD*%
G36*
X124396Y111015D02*
X124396Y111015D01*
X124400Y111012D01*
X124900Y111112D01*
X124928Y111144D01*
X124930Y111145D01*
X124930Y111146D01*
X124939Y111156D01*
X124929Y111166D01*
X124936Y111178D01*
X124436Y112478D01*
X124394Y112503D01*
X124390Y112509D01*
X123990Y112509D01*
X123957Y112484D01*
X123946Y112482D01*
X123346Y111282D01*
X123357Y111224D01*
X123366Y111225D01*
X123368Y111216D01*
X123768Y111016D01*
X123784Y111019D01*
X123790Y111011D01*
X124390Y111011D01*
X124396Y111015D01*
G37*
%LPC*%
G36*
X48053Y141628D02*
X48053Y141628D01*
X48146Y142368D01*
X48705Y142647D01*
X49362Y142460D01*
X49546Y141906D01*
X49270Y141445D01*
X48608Y141351D01*
X48053Y141628D01*
G37*
%LPD*%
%LPC*%
G36*
X57049Y141628D02*
X57049Y141628D01*
X57049Y142370D01*
X57605Y142647D01*
X58266Y142459D01*
X58542Y141906D01*
X58174Y141446D01*
X57510Y141351D01*
X57049Y141628D01*
G37*
%LPD*%
%LPC*%
G36*
X152614Y139049D02*
X152614Y139049D01*
X152164Y139319D01*
X152433Y139856D01*
X152996Y139949D01*
X153573Y139757D01*
X154044Y139287D01*
X153965Y139049D01*
X152614Y139049D01*
G37*
%LPD*%
%LPC*%
G36*
X129237Y135311D02*
X129237Y135311D01*
X129238Y135311D01*
X129238Y135310D01*
X129237Y135311D01*
G37*
%LPD*%
D10*
X58420Y66040D02*
X73660Y66040D01*
X53848Y81788D02*
X53850Y81921D01*
X53856Y82054D01*
X53865Y82186D01*
X53879Y82319D01*
X53896Y82451D01*
X53917Y82582D01*
X53942Y82713D01*
X53971Y82842D01*
X54004Y82971D01*
X54040Y83099D01*
X54080Y83226D01*
X54124Y83352D01*
X54171Y83476D01*
X54222Y83599D01*
X54276Y83720D01*
X54334Y83840D01*
X54396Y83958D01*
X54461Y84074D01*
X54529Y84188D01*
X54600Y84300D01*
X54675Y84410D01*
X54753Y84518D01*
X54834Y84624D01*
X54918Y84727D01*
X55005Y84827D01*
X55094Y84925D01*
X55187Y85021D01*
X55283Y85114D01*
X55381Y85203D01*
X55481Y85290D01*
X55584Y85374D01*
X55690Y85455D01*
X55798Y85533D01*
X55908Y85608D01*
X56020Y85679D01*
X56134Y85747D01*
X56250Y85812D01*
X56368Y85874D01*
X56488Y85932D01*
X56609Y85986D01*
X56732Y86037D01*
X56856Y86084D01*
X56982Y86128D01*
X57109Y86168D01*
X57237Y86204D01*
X57366Y86237D01*
X57495Y86266D01*
X57626Y86291D01*
X57757Y86312D01*
X57889Y86329D01*
X58022Y86343D01*
X58154Y86352D01*
X58287Y86358D01*
X58420Y86360D01*
X73660Y86360D02*
X73793Y86358D01*
X73926Y86352D01*
X74058Y86343D01*
X74191Y86329D01*
X74323Y86312D01*
X74454Y86291D01*
X74585Y86266D01*
X74714Y86237D01*
X74843Y86204D01*
X74971Y86168D01*
X75098Y86128D01*
X75224Y86084D01*
X75348Y86037D01*
X75471Y85986D01*
X75592Y85932D01*
X75712Y85874D01*
X75830Y85812D01*
X75946Y85747D01*
X76060Y85679D01*
X76172Y85608D01*
X76282Y85533D01*
X76390Y85455D01*
X76496Y85374D01*
X76599Y85290D01*
X76699Y85203D01*
X76797Y85114D01*
X76893Y85021D01*
X76986Y84925D01*
X77075Y84827D01*
X77162Y84727D01*
X77246Y84624D01*
X77327Y84518D01*
X77405Y84410D01*
X77480Y84300D01*
X77551Y84188D01*
X77619Y84074D01*
X77684Y83958D01*
X77746Y83840D01*
X77804Y83720D01*
X77858Y83599D01*
X77909Y83476D01*
X77956Y83352D01*
X78000Y83226D01*
X78040Y83099D01*
X78076Y82971D01*
X78109Y82842D01*
X78138Y82713D01*
X78163Y82582D01*
X78184Y82451D01*
X78201Y82319D01*
X78215Y82186D01*
X78224Y82054D01*
X78230Y81921D01*
X78232Y81788D01*
X78232Y70612D02*
X78230Y70479D01*
X78224Y70346D01*
X78215Y70214D01*
X78201Y70081D01*
X78184Y69949D01*
X78163Y69818D01*
X78138Y69687D01*
X78109Y69558D01*
X78076Y69429D01*
X78040Y69301D01*
X78000Y69174D01*
X77956Y69048D01*
X77909Y68924D01*
X77858Y68801D01*
X77804Y68680D01*
X77746Y68560D01*
X77684Y68442D01*
X77619Y68326D01*
X77551Y68212D01*
X77480Y68100D01*
X77405Y67990D01*
X77327Y67882D01*
X77246Y67776D01*
X77162Y67673D01*
X77075Y67573D01*
X76986Y67475D01*
X76893Y67379D01*
X76797Y67286D01*
X76699Y67197D01*
X76599Y67110D01*
X76496Y67026D01*
X76390Y66945D01*
X76282Y66867D01*
X76172Y66792D01*
X76060Y66721D01*
X75946Y66653D01*
X75830Y66588D01*
X75712Y66526D01*
X75592Y66468D01*
X75471Y66414D01*
X75348Y66363D01*
X75224Y66316D01*
X75098Y66272D01*
X74971Y66232D01*
X74843Y66196D01*
X74714Y66163D01*
X74585Y66134D01*
X74454Y66109D01*
X74323Y66088D01*
X74191Y66071D01*
X74058Y66057D01*
X73926Y66048D01*
X73793Y66042D01*
X73660Y66040D01*
X58420Y66040D02*
X58287Y66042D01*
X58154Y66048D01*
X58022Y66057D01*
X57889Y66071D01*
X57757Y66088D01*
X57626Y66109D01*
X57495Y66134D01*
X57366Y66163D01*
X57237Y66196D01*
X57109Y66232D01*
X56982Y66272D01*
X56856Y66316D01*
X56732Y66363D01*
X56609Y66414D01*
X56488Y66468D01*
X56368Y66526D01*
X56250Y66588D01*
X56134Y66653D01*
X56020Y66721D01*
X55908Y66792D01*
X55798Y66867D01*
X55690Y66945D01*
X55584Y67026D01*
X55481Y67110D01*
X55381Y67197D01*
X55283Y67286D01*
X55187Y67379D01*
X55094Y67475D01*
X55005Y67573D01*
X54918Y67673D01*
X54834Y67776D01*
X54753Y67882D01*
X54675Y67990D01*
X54600Y68100D01*
X54529Y68212D01*
X54461Y68326D01*
X54396Y68442D01*
X54334Y68560D01*
X54276Y68680D01*
X54222Y68801D01*
X54171Y68924D01*
X54124Y69048D01*
X54080Y69174D01*
X54040Y69301D01*
X54004Y69429D01*
X53971Y69558D01*
X53942Y69687D01*
X53917Y69818D01*
X53896Y69949D01*
X53879Y70081D01*
X53865Y70214D01*
X53856Y70346D01*
X53850Y70479D01*
X53848Y70612D01*
X53848Y81788D01*
X78232Y81788D02*
X78232Y70612D01*
X73660Y86360D02*
X58420Y86360D01*
X158750Y213360D02*
X184150Y213360D01*
X188722Y197612D02*
X188720Y197479D01*
X188714Y197346D01*
X188705Y197214D01*
X188691Y197081D01*
X188674Y196949D01*
X188653Y196818D01*
X188628Y196687D01*
X188599Y196558D01*
X188566Y196429D01*
X188530Y196301D01*
X188490Y196174D01*
X188446Y196048D01*
X188399Y195924D01*
X188348Y195801D01*
X188294Y195680D01*
X188236Y195560D01*
X188174Y195442D01*
X188109Y195326D01*
X188041Y195212D01*
X187970Y195100D01*
X187895Y194990D01*
X187817Y194882D01*
X187736Y194776D01*
X187652Y194673D01*
X187565Y194573D01*
X187476Y194475D01*
X187383Y194379D01*
X187287Y194286D01*
X187189Y194197D01*
X187089Y194110D01*
X186986Y194026D01*
X186880Y193945D01*
X186772Y193867D01*
X186662Y193792D01*
X186550Y193721D01*
X186436Y193653D01*
X186320Y193588D01*
X186202Y193526D01*
X186082Y193468D01*
X185961Y193414D01*
X185838Y193363D01*
X185714Y193316D01*
X185588Y193272D01*
X185461Y193232D01*
X185333Y193196D01*
X185204Y193163D01*
X185075Y193134D01*
X184944Y193109D01*
X184813Y193088D01*
X184681Y193071D01*
X184548Y193057D01*
X184416Y193048D01*
X184283Y193042D01*
X184150Y193040D01*
X158750Y193040D02*
X158617Y193042D01*
X158484Y193048D01*
X158352Y193057D01*
X158219Y193071D01*
X158087Y193088D01*
X157956Y193109D01*
X157825Y193134D01*
X157696Y193163D01*
X157567Y193196D01*
X157439Y193232D01*
X157312Y193272D01*
X157186Y193316D01*
X157062Y193363D01*
X156939Y193414D01*
X156818Y193468D01*
X156698Y193526D01*
X156580Y193588D01*
X156464Y193653D01*
X156350Y193721D01*
X156238Y193792D01*
X156128Y193867D01*
X156020Y193945D01*
X155914Y194026D01*
X155811Y194110D01*
X155711Y194197D01*
X155613Y194286D01*
X155517Y194379D01*
X155424Y194475D01*
X155335Y194573D01*
X155248Y194673D01*
X155164Y194776D01*
X155083Y194882D01*
X155005Y194990D01*
X154930Y195100D01*
X154859Y195212D01*
X154791Y195326D01*
X154726Y195442D01*
X154664Y195560D01*
X154606Y195680D01*
X154552Y195801D01*
X154501Y195924D01*
X154454Y196048D01*
X154410Y196174D01*
X154370Y196301D01*
X154334Y196429D01*
X154301Y196558D01*
X154272Y196687D01*
X154247Y196818D01*
X154226Y196949D01*
X154209Y197081D01*
X154195Y197214D01*
X154186Y197346D01*
X154180Y197479D01*
X154178Y197612D01*
X154178Y208788D02*
X154180Y208921D01*
X154186Y209054D01*
X154195Y209186D01*
X154209Y209319D01*
X154226Y209451D01*
X154247Y209582D01*
X154272Y209713D01*
X154301Y209842D01*
X154334Y209971D01*
X154370Y210099D01*
X154410Y210226D01*
X154454Y210352D01*
X154501Y210476D01*
X154552Y210599D01*
X154606Y210720D01*
X154664Y210840D01*
X154726Y210958D01*
X154791Y211074D01*
X154859Y211188D01*
X154930Y211300D01*
X155005Y211410D01*
X155083Y211518D01*
X155164Y211624D01*
X155248Y211727D01*
X155335Y211827D01*
X155424Y211925D01*
X155517Y212021D01*
X155613Y212114D01*
X155711Y212203D01*
X155811Y212290D01*
X155914Y212374D01*
X156020Y212455D01*
X156128Y212533D01*
X156238Y212608D01*
X156350Y212679D01*
X156464Y212747D01*
X156580Y212812D01*
X156698Y212874D01*
X156818Y212932D01*
X156939Y212986D01*
X157062Y213037D01*
X157186Y213084D01*
X157312Y213128D01*
X157439Y213168D01*
X157567Y213204D01*
X157696Y213237D01*
X157825Y213266D01*
X157956Y213291D01*
X158087Y213312D01*
X158219Y213329D01*
X158352Y213343D01*
X158484Y213352D01*
X158617Y213358D01*
X158750Y213360D01*
X184150Y213360D02*
X184283Y213358D01*
X184416Y213352D01*
X184548Y213343D01*
X184681Y213329D01*
X184813Y213312D01*
X184944Y213291D01*
X185075Y213266D01*
X185204Y213237D01*
X185333Y213204D01*
X185461Y213168D01*
X185588Y213128D01*
X185714Y213084D01*
X185838Y213037D01*
X185961Y212986D01*
X186082Y212932D01*
X186202Y212874D01*
X186320Y212812D01*
X186436Y212747D01*
X186550Y212679D01*
X186662Y212608D01*
X186772Y212533D01*
X186880Y212455D01*
X186986Y212374D01*
X187089Y212290D01*
X187189Y212203D01*
X187287Y212114D01*
X187383Y212021D01*
X187476Y211925D01*
X187565Y211827D01*
X187652Y211727D01*
X187736Y211624D01*
X187817Y211518D01*
X187895Y211410D01*
X187970Y211300D01*
X188041Y211188D01*
X188109Y211074D01*
X188174Y210958D01*
X188236Y210840D01*
X188294Y210720D01*
X188348Y210599D01*
X188399Y210476D01*
X188446Y210352D01*
X188490Y210226D01*
X188530Y210099D01*
X188566Y209971D01*
X188599Y209842D01*
X188628Y209713D01*
X188653Y209582D01*
X188674Y209451D01*
X188691Y209319D01*
X188705Y209186D01*
X188714Y209054D01*
X188720Y208921D01*
X188722Y208788D01*
X188722Y197612D01*
X154178Y197612D02*
X154178Y208788D01*
X158750Y193040D02*
X184150Y193040D01*
D11*
X127000Y104140D02*
X101600Y104140D01*
X127000Y83820D02*
X127133Y83822D01*
X127266Y83828D01*
X127398Y83837D01*
X127531Y83851D01*
X127663Y83868D01*
X127794Y83889D01*
X127925Y83914D01*
X128054Y83943D01*
X128183Y83976D01*
X128311Y84012D01*
X128438Y84052D01*
X128564Y84096D01*
X128688Y84143D01*
X128811Y84194D01*
X128932Y84248D01*
X129052Y84306D01*
X129170Y84368D01*
X129286Y84433D01*
X129400Y84501D01*
X129512Y84572D01*
X129622Y84647D01*
X129730Y84725D01*
X129836Y84806D01*
X129939Y84890D01*
X130039Y84977D01*
X130137Y85066D01*
X130233Y85159D01*
X130326Y85255D01*
X130415Y85353D01*
X130502Y85453D01*
X130586Y85556D01*
X130667Y85662D01*
X130745Y85770D01*
X130820Y85880D01*
X130891Y85992D01*
X130959Y86106D01*
X131024Y86222D01*
X131086Y86340D01*
X131144Y86460D01*
X131198Y86581D01*
X131249Y86704D01*
X131296Y86828D01*
X131340Y86954D01*
X131380Y87081D01*
X131416Y87209D01*
X131449Y87338D01*
X131478Y87467D01*
X131503Y87598D01*
X131524Y87729D01*
X131541Y87861D01*
X131555Y87994D01*
X131564Y88126D01*
X131570Y88259D01*
X131572Y88392D01*
X101600Y83820D02*
X101467Y83822D01*
X101334Y83828D01*
X101202Y83837D01*
X101069Y83851D01*
X100937Y83868D01*
X100806Y83889D01*
X100675Y83914D01*
X100546Y83943D01*
X100417Y83976D01*
X100289Y84012D01*
X100162Y84052D01*
X100036Y84096D01*
X99912Y84143D01*
X99789Y84194D01*
X99668Y84248D01*
X99548Y84306D01*
X99430Y84368D01*
X99314Y84433D01*
X99200Y84501D01*
X99088Y84572D01*
X98978Y84647D01*
X98870Y84725D01*
X98764Y84806D01*
X98661Y84890D01*
X98561Y84977D01*
X98463Y85066D01*
X98367Y85159D01*
X98274Y85255D01*
X98185Y85353D01*
X98098Y85453D01*
X98014Y85556D01*
X97933Y85662D01*
X97855Y85770D01*
X97780Y85880D01*
X97709Y85992D01*
X97641Y86106D01*
X97576Y86222D01*
X97514Y86340D01*
X97456Y86460D01*
X97402Y86581D01*
X97351Y86704D01*
X97304Y86828D01*
X97260Y86954D01*
X97220Y87081D01*
X97184Y87209D01*
X97151Y87338D01*
X97122Y87467D01*
X97097Y87598D01*
X97076Y87729D01*
X97059Y87861D01*
X97045Y87994D01*
X97036Y88126D01*
X97030Y88259D01*
X97028Y88392D01*
X97028Y99568D02*
X97030Y99701D01*
X97036Y99834D01*
X97045Y99966D01*
X97059Y100099D01*
X97076Y100231D01*
X97097Y100362D01*
X97122Y100493D01*
X97151Y100622D01*
X97184Y100751D01*
X97220Y100879D01*
X97260Y101006D01*
X97304Y101132D01*
X97351Y101256D01*
X97402Y101379D01*
X97456Y101500D01*
X97514Y101620D01*
X97576Y101738D01*
X97641Y101854D01*
X97709Y101968D01*
X97780Y102080D01*
X97855Y102190D01*
X97933Y102298D01*
X98014Y102404D01*
X98098Y102507D01*
X98185Y102607D01*
X98274Y102705D01*
X98367Y102801D01*
X98463Y102894D01*
X98561Y102983D01*
X98661Y103070D01*
X98764Y103154D01*
X98870Y103235D01*
X98978Y103313D01*
X99088Y103388D01*
X99200Y103459D01*
X99314Y103527D01*
X99430Y103592D01*
X99548Y103654D01*
X99668Y103712D01*
X99789Y103766D01*
X99912Y103817D01*
X100036Y103864D01*
X100162Y103908D01*
X100289Y103948D01*
X100417Y103984D01*
X100546Y104017D01*
X100675Y104046D01*
X100806Y104071D01*
X100937Y104092D01*
X101069Y104109D01*
X101202Y104123D01*
X101334Y104132D01*
X101467Y104138D01*
X101600Y104140D01*
X127000Y104140D02*
X127133Y104138D01*
X127266Y104132D01*
X127398Y104123D01*
X127531Y104109D01*
X127663Y104092D01*
X127794Y104071D01*
X127925Y104046D01*
X128054Y104017D01*
X128183Y103984D01*
X128311Y103948D01*
X128438Y103908D01*
X128564Y103864D01*
X128688Y103817D01*
X128811Y103766D01*
X128932Y103712D01*
X129052Y103654D01*
X129170Y103592D01*
X129286Y103527D01*
X129400Y103459D01*
X129512Y103388D01*
X129622Y103313D01*
X129730Y103235D01*
X129836Y103154D01*
X129939Y103070D01*
X130039Y102983D01*
X130137Y102894D01*
X130233Y102801D01*
X130326Y102705D01*
X130415Y102607D01*
X130502Y102507D01*
X130586Y102404D01*
X130667Y102298D01*
X130745Y102190D01*
X130820Y102080D01*
X130891Y101968D01*
X130959Y101854D01*
X131024Y101738D01*
X131086Y101620D01*
X131144Y101500D01*
X131198Y101379D01*
X131249Y101256D01*
X131296Y101132D01*
X131340Y101006D01*
X131380Y100879D01*
X131416Y100751D01*
X131449Y100622D01*
X131478Y100493D01*
X131503Y100362D01*
X131524Y100231D01*
X131541Y100099D01*
X131555Y99966D01*
X131564Y99834D01*
X131570Y99701D01*
X131572Y99568D01*
X131572Y88392D01*
X97028Y88392D02*
X97028Y99568D01*
X101600Y83820D02*
X127000Y83820D01*
D10*
X132080Y154940D02*
X147320Y154940D01*
X127508Y170688D02*
X127510Y170821D01*
X127516Y170954D01*
X127525Y171086D01*
X127539Y171219D01*
X127556Y171351D01*
X127577Y171482D01*
X127602Y171613D01*
X127631Y171742D01*
X127664Y171871D01*
X127700Y171999D01*
X127740Y172126D01*
X127784Y172252D01*
X127831Y172376D01*
X127882Y172499D01*
X127936Y172620D01*
X127994Y172740D01*
X128056Y172858D01*
X128121Y172974D01*
X128189Y173088D01*
X128260Y173200D01*
X128335Y173310D01*
X128413Y173418D01*
X128494Y173524D01*
X128578Y173627D01*
X128665Y173727D01*
X128754Y173825D01*
X128847Y173921D01*
X128943Y174014D01*
X129041Y174103D01*
X129141Y174190D01*
X129244Y174274D01*
X129350Y174355D01*
X129458Y174433D01*
X129568Y174508D01*
X129680Y174579D01*
X129794Y174647D01*
X129910Y174712D01*
X130028Y174774D01*
X130148Y174832D01*
X130269Y174886D01*
X130392Y174937D01*
X130516Y174984D01*
X130642Y175028D01*
X130769Y175068D01*
X130897Y175104D01*
X131026Y175137D01*
X131155Y175166D01*
X131286Y175191D01*
X131417Y175212D01*
X131549Y175229D01*
X131682Y175243D01*
X131814Y175252D01*
X131947Y175258D01*
X132080Y175260D01*
X147320Y175260D02*
X147453Y175258D01*
X147586Y175252D01*
X147718Y175243D01*
X147851Y175229D01*
X147983Y175212D01*
X148114Y175191D01*
X148245Y175166D01*
X148374Y175137D01*
X148503Y175104D01*
X148631Y175068D01*
X148758Y175028D01*
X148884Y174984D01*
X149008Y174937D01*
X149131Y174886D01*
X149252Y174832D01*
X149372Y174774D01*
X149490Y174712D01*
X149606Y174647D01*
X149720Y174579D01*
X149832Y174508D01*
X149942Y174433D01*
X150050Y174355D01*
X150156Y174274D01*
X150259Y174190D01*
X150359Y174103D01*
X150457Y174014D01*
X150553Y173921D01*
X150646Y173825D01*
X150735Y173727D01*
X150822Y173627D01*
X150906Y173524D01*
X150987Y173418D01*
X151065Y173310D01*
X151140Y173200D01*
X151211Y173088D01*
X151279Y172974D01*
X151344Y172858D01*
X151406Y172740D01*
X151464Y172620D01*
X151518Y172499D01*
X151569Y172376D01*
X151616Y172252D01*
X151660Y172126D01*
X151700Y171999D01*
X151736Y171871D01*
X151769Y171742D01*
X151798Y171613D01*
X151823Y171482D01*
X151844Y171351D01*
X151861Y171219D01*
X151875Y171086D01*
X151884Y170954D01*
X151890Y170821D01*
X151892Y170688D01*
X151892Y159512D02*
X151890Y159379D01*
X151884Y159246D01*
X151875Y159114D01*
X151861Y158981D01*
X151844Y158849D01*
X151823Y158718D01*
X151798Y158587D01*
X151769Y158458D01*
X151736Y158329D01*
X151700Y158201D01*
X151660Y158074D01*
X151616Y157948D01*
X151569Y157824D01*
X151518Y157701D01*
X151464Y157580D01*
X151406Y157460D01*
X151344Y157342D01*
X151279Y157226D01*
X151211Y157112D01*
X151140Y157000D01*
X151065Y156890D01*
X150987Y156782D01*
X150906Y156676D01*
X150822Y156573D01*
X150735Y156473D01*
X150646Y156375D01*
X150553Y156279D01*
X150457Y156186D01*
X150359Y156097D01*
X150259Y156010D01*
X150156Y155926D01*
X150050Y155845D01*
X149942Y155767D01*
X149832Y155692D01*
X149720Y155621D01*
X149606Y155553D01*
X149490Y155488D01*
X149372Y155426D01*
X149252Y155368D01*
X149131Y155314D01*
X149008Y155263D01*
X148884Y155216D01*
X148758Y155172D01*
X148631Y155132D01*
X148503Y155096D01*
X148374Y155063D01*
X148245Y155034D01*
X148114Y155009D01*
X147983Y154988D01*
X147851Y154971D01*
X147718Y154957D01*
X147586Y154948D01*
X147453Y154942D01*
X147320Y154940D01*
X132080Y154940D02*
X131947Y154942D01*
X131814Y154948D01*
X131682Y154957D01*
X131549Y154971D01*
X131417Y154988D01*
X131286Y155009D01*
X131155Y155034D01*
X131026Y155063D01*
X130897Y155096D01*
X130769Y155132D01*
X130642Y155172D01*
X130516Y155216D01*
X130392Y155263D01*
X130269Y155314D01*
X130148Y155368D01*
X130028Y155426D01*
X129910Y155488D01*
X129794Y155553D01*
X129680Y155621D01*
X129568Y155692D01*
X129458Y155767D01*
X129350Y155845D01*
X129244Y155926D01*
X129141Y156010D01*
X129041Y156097D01*
X128943Y156186D01*
X128847Y156279D01*
X128754Y156375D01*
X128665Y156473D01*
X128578Y156573D01*
X128494Y156676D01*
X128413Y156782D01*
X128335Y156890D01*
X128260Y157000D01*
X128189Y157112D01*
X128121Y157226D01*
X128056Y157342D01*
X127994Y157460D01*
X127936Y157580D01*
X127882Y157701D01*
X127831Y157824D01*
X127784Y157948D01*
X127740Y158074D01*
X127700Y158201D01*
X127664Y158329D01*
X127631Y158458D01*
X127602Y158587D01*
X127577Y158718D01*
X127556Y158849D01*
X127539Y158981D01*
X127525Y159114D01*
X127516Y159246D01*
X127510Y159379D01*
X127508Y159512D01*
X127508Y170688D01*
X151892Y170688D02*
X151892Y159512D01*
X147320Y175260D02*
X132080Y175260D01*
M02*
