M48
;GenerationSoftware,Autodesk,EAGLE,9.6.2*%
;CreationDate,2022-02-11T16:29:15Z*%
FMAT,2
ICI,OFF
METRIC,TZ,000.000
T4C0.300
T3C0.305
T2C1.016
T1C3.302
%
G90
M71
T1
X2540Y22860
X22860Y22860
X22860Y2540
X2540Y2540
T2
X19050Y1270
X16510Y1270
X13970Y1270
X11430Y1270
X8890Y1270
X6350Y1270
T3
X9779Y11303
X17780Y8890
X14541Y15049
X3810Y14224
X6858Y12319
X10160Y17526
X10795Y13208
X13208Y10414
X21971Y11176
X12319Y11938
X16637Y11557
X18923Y14351
X16256Y14351
X15748Y10795
X15748Y12300
X8509Y6858
X18161Y18923
X16129Y18923
X13208Y13081
X8128Y9144
X11430Y10541
T4
X1016Y6350
M30