G04 EAGLE Gerber RS-274X export*
G75*
%MOMM*%
%FSLAX34Y34*%
%LPD*%
%INBottom Copper*%
%IPPOS*%
%AMOC8*
5,1,8,0,0,1.08239X$1,22.5*%
G01*
%ADD10C,0.203200*%
%ADD11C,0.635000*%
%ADD12C,0.099059*%
%ADD13C,1.879600*%
%ADD14C,0.558800*%
%ADD15C,0.406400*%
%ADD16C,0.554000*%

G36*
X51754Y4071D02*
X51754Y4071D01*
X51804Y4069D01*
X51911Y4091D01*
X52021Y4105D01*
X52067Y4123D01*
X52115Y4133D01*
X52214Y4181D01*
X52316Y4222D01*
X52356Y4251D01*
X52401Y4273D01*
X52485Y4344D01*
X52574Y4408D01*
X52605Y4447D01*
X52643Y4479D01*
X52706Y4569D01*
X52776Y4653D01*
X52798Y4698D01*
X52826Y4739D01*
X52865Y4842D01*
X52912Y4941D01*
X52921Y4990D01*
X52939Y5036D01*
X52951Y5146D01*
X52972Y5253D01*
X52969Y5303D01*
X52974Y5352D01*
X52959Y5461D01*
X52952Y5571D01*
X52937Y5618D01*
X52930Y5667D01*
X52878Y5820D01*
X51053Y10224D01*
X51053Y15176D01*
X52948Y19750D01*
X56450Y23252D01*
X58652Y24164D01*
X58677Y24179D01*
X58705Y24188D01*
X58815Y24257D01*
X58928Y24322D01*
X58949Y24342D01*
X58974Y24358D01*
X59063Y24452D01*
X59156Y24543D01*
X59172Y24568D01*
X59192Y24590D01*
X59255Y24703D01*
X59323Y24814D01*
X59331Y24842D01*
X59346Y24868D01*
X59378Y24994D01*
X59416Y25118D01*
X59418Y25147D01*
X59425Y25176D01*
X59435Y25337D01*
X59435Y39784D01*
X70706Y51055D01*
X101931Y51055D01*
X102029Y51067D01*
X102128Y51070D01*
X102186Y51087D01*
X102246Y51095D01*
X102338Y51131D01*
X102433Y51159D01*
X102485Y51189D01*
X102542Y51212D01*
X102622Y51270D01*
X102707Y51320D01*
X102783Y51386D01*
X102799Y51398D01*
X102807Y51408D01*
X102828Y51426D01*
X109864Y58462D01*
X109924Y58540D01*
X109992Y58612D01*
X110021Y58665D01*
X110058Y58713D01*
X110098Y58804D01*
X110146Y58891D01*
X110161Y58949D01*
X110185Y59005D01*
X110200Y59103D01*
X110225Y59199D01*
X110231Y59299D01*
X110235Y59319D01*
X110233Y59331D01*
X110235Y59359D01*
X110235Y83592D01*
X110218Y83729D01*
X110205Y83868D01*
X110198Y83887D01*
X110195Y83907D01*
X110144Y84036D01*
X110097Y84167D01*
X110086Y84184D01*
X110078Y84203D01*
X109997Y84315D01*
X109919Y84430D01*
X109903Y84444D01*
X109892Y84460D01*
X109784Y84549D01*
X109680Y84641D01*
X109662Y84650D01*
X109647Y84663D01*
X109521Y84722D01*
X109397Y84785D01*
X109377Y84790D01*
X109359Y84799D01*
X109223Y84825D01*
X109087Y84855D01*
X109066Y84854D01*
X109047Y84858D01*
X108908Y84850D01*
X108769Y84845D01*
X108749Y84840D01*
X108729Y84839D01*
X108597Y84796D01*
X108463Y84757D01*
X108446Y84747D01*
X108427Y84741D01*
X108309Y84666D01*
X108189Y84595D01*
X108173Y84581D01*
X99611Y84581D01*
X97535Y86657D01*
X97535Y88646D01*
X97520Y88764D01*
X97513Y88883D01*
X97500Y88921D01*
X97495Y88962D01*
X97452Y89072D01*
X97415Y89185D01*
X97393Y89220D01*
X97378Y89257D01*
X97309Y89353D01*
X97245Y89454D01*
X97215Y89482D01*
X97192Y89515D01*
X97100Y89591D01*
X97013Y89672D01*
X96978Y89692D01*
X96947Y89717D01*
X96839Y89768D01*
X96735Y89826D01*
X96695Y89836D01*
X96659Y89853D01*
X96542Y89875D01*
X96427Y89905D01*
X96367Y89909D01*
X96347Y89913D01*
X96326Y89911D01*
X96266Y89915D01*
X96189Y89915D01*
X96091Y89903D01*
X95992Y89900D01*
X95934Y89883D01*
X95874Y89875D01*
X95782Y89839D01*
X95687Y89811D01*
X95635Y89781D01*
X95578Y89758D01*
X95498Y89700D01*
X95413Y89650D01*
X95337Y89584D01*
X95321Y89572D01*
X95313Y89562D01*
X95292Y89544D01*
X93124Y87375D01*
X86004Y87375D01*
X85906Y87363D01*
X85807Y87360D01*
X85748Y87343D01*
X85688Y87335D01*
X85596Y87299D01*
X85501Y87271D01*
X85449Y87241D01*
X85393Y87218D01*
X85313Y87160D01*
X85227Y87110D01*
X85152Y87044D01*
X85135Y87032D01*
X85127Y87022D01*
X85106Y87003D01*
X84590Y86487D01*
X82442Y85597D01*
X80118Y85597D01*
X78169Y86404D01*
X78102Y86423D01*
X78038Y86450D01*
X77949Y86465D01*
X77863Y86488D01*
X77793Y86489D01*
X77724Y86500D01*
X77635Y86492D01*
X77545Y86493D01*
X77477Y86477D01*
X77407Y86470D01*
X77323Y86440D01*
X77235Y86419D01*
X77174Y86386D01*
X77108Y86363D01*
X77034Y86312D01*
X76954Y86270D01*
X76903Y86223D01*
X76873Y86203D01*
X76925Y86313D01*
X76988Y86437D01*
X76993Y86457D01*
X77001Y86475D01*
X77027Y86611D01*
X77058Y86747D01*
X77057Y86768D01*
X77061Y86787D01*
X77052Y86926D01*
X77048Y87065D01*
X77042Y87085D01*
X77041Y87105D01*
X76998Y87237D01*
X76960Y87371D01*
X76949Y87388D01*
X76943Y87407D01*
X76869Y87525D01*
X76798Y87645D01*
X76779Y87666D01*
X76773Y87676D01*
X76758Y87690D01*
X76692Y87766D01*
X76327Y88130D01*
X75437Y90278D01*
X75437Y92602D01*
X76327Y94750D01*
X77970Y96393D01*
X80118Y97283D01*
X82442Y97283D01*
X84590Y96393D01*
X85106Y95877D01*
X85184Y95816D01*
X85257Y95748D01*
X85310Y95719D01*
X85358Y95682D01*
X85449Y95642D01*
X85535Y95594D01*
X85594Y95579D01*
X85649Y95555D01*
X85747Y95540D01*
X85843Y95515D01*
X85943Y95509D01*
X85964Y95505D01*
X85976Y95507D01*
X86004Y95505D01*
X89231Y95505D01*
X89329Y95517D01*
X89428Y95520D01*
X89486Y95537D01*
X89546Y95545D01*
X89638Y95581D01*
X89733Y95609D01*
X89785Y95639D01*
X89842Y95662D01*
X89922Y95720D01*
X90007Y95770D01*
X90083Y95836D01*
X90099Y95848D01*
X90107Y95858D01*
X90128Y95876D01*
X92296Y98045D01*
X96266Y98045D01*
X96384Y98060D01*
X96503Y98067D01*
X96541Y98080D01*
X96582Y98085D01*
X96692Y98128D01*
X96805Y98165D01*
X96840Y98187D01*
X96877Y98202D01*
X96973Y98271D01*
X97074Y98335D01*
X97102Y98365D01*
X97135Y98388D01*
X97211Y98480D01*
X97292Y98567D01*
X97312Y98602D01*
X97337Y98633D01*
X97388Y98741D01*
X97446Y98845D01*
X97456Y98885D01*
X97473Y98921D01*
X97495Y99038D01*
X97525Y99153D01*
X97529Y99213D01*
X97533Y99233D01*
X97531Y99254D01*
X97535Y99314D01*
X97535Y101303D01*
X99611Y103379D01*
X107188Y103379D01*
X107306Y103394D01*
X107425Y103401D01*
X107463Y103414D01*
X107504Y103419D01*
X107614Y103462D01*
X107727Y103499D01*
X107762Y103521D01*
X107799Y103536D01*
X107895Y103605D01*
X107996Y103669D01*
X108024Y103699D01*
X108057Y103722D01*
X108133Y103814D01*
X108214Y103901D01*
X108234Y103936D01*
X108259Y103967D01*
X108310Y104075D01*
X108368Y104179D01*
X108378Y104219D01*
X108395Y104255D01*
X108417Y104372D01*
X108447Y104487D01*
X108451Y104547D01*
X108455Y104567D01*
X108453Y104588D01*
X108457Y104648D01*
X108457Y106572D01*
X109347Y108720D01*
X110990Y110363D01*
X113138Y111253D01*
X115462Y111253D01*
X117610Y110363D01*
X119253Y108720D01*
X120143Y106572D01*
X120143Y104140D01*
X120158Y104022D01*
X120165Y103903D01*
X120178Y103865D01*
X120183Y103824D01*
X120226Y103714D01*
X120263Y103601D01*
X120285Y103566D01*
X120300Y103529D01*
X120369Y103433D01*
X120433Y103332D01*
X120463Y103304D01*
X120486Y103271D01*
X120578Y103195D01*
X120665Y103114D01*
X120700Y103094D01*
X120731Y103069D01*
X120839Y103018D01*
X120943Y102960D01*
X120983Y102950D01*
X121019Y102933D01*
X121136Y102911D01*
X121251Y102881D01*
X121311Y102877D01*
X121331Y102873D01*
X121352Y102875D01*
X121412Y102871D01*
X123064Y102871D01*
X123064Y98462D01*
X123076Y98364D01*
X123079Y98265D01*
X123096Y98206D01*
X123104Y98146D01*
X123140Y98054D01*
X123167Y97959D01*
X123198Y97907D01*
X123221Y97851D01*
X123279Y97771D01*
X123329Y97685D01*
X123395Y97610D01*
X123407Y97593D01*
X123417Y97585D01*
X123435Y97564D01*
X124198Y96802D01*
X124307Y96717D01*
X124414Y96628D01*
X124433Y96620D01*
X124449Y96607D01*
X124577Y96552D01*
X124702Y96493D01*
X124722Y96489D01*
X124741Y96481D01*
X124879Y96459D01*
X125015Y96433D01*
X125035Y96434D01*
X125055Y96431D01*
X125194Y96444D01*
X125332Y96453D01*
X125351Y96459D01*
X125371Y96461D01*
X125502Y96508D01*
X125634Y96551D01*
X125652Y96562D01*
X125671Y96569D01*
X125785Y96647D01*
X125903Y96721D01*
X125917Y96736D01*
X125934Y96747D01*
X126026Y96851D01*
X126121Y96953D01*
X126131Y96970D01*
X126144Y96986D01*
X126207Y97109D01*
X126275Y97231D01*
X126280Y97251D01*
X126289Y97269D01*
X126319Y97405D01*
X126354Y97539D01*
X126356Y97567D01*
X126359Y97579D01*
X126358Y97600D01*
X126364Y97700D01*
X126364Y102871D01*
X127920Y102871D01*
X128693Y102664D01*
X129385Y102264D01*
X129950Y101699D01*
X130350Y101007D01*
X130557Y100234D01*
X130557Y95630D01*
X125730Y95630D01*
X125612Y95615D01*
X125493Y95608D01*
X125455Y95595D01*
X125414Y95590D01*
X125304Y95547D01*
X125191Y95510D01*
X125156Y95488D01*
X125119Y95473D01*
X125023Y95404D01*
X124922Y95340D01*
X124894Y95310D01*
X124861Y95287D01*
X124785Y95195D01*
X124704Y95108D01*
X124684Y95073D01*
X124659Y95042D01*
X124608Y94934D01*
X124550Y94830D01*
X124540Y94790D01*
X124523Y94754D01*
X124501Y94637D01*
X124471Y94522D01*
X124467Y94462D01*
X124463Y94442D01*
X124465Y94421D01*
X124461Y94361D01*
X124461Y93599D01*
X124476Y93481D01*
X124483Y93362D01*
X124496Y93324D01*
X124501Y93283D01*
X124544Y93173D01*
X124581Y93060D01*
X124603Y93025D01*
X124618Y92988D01*
X124687Y92891D01*
X124751Y92791D01*
X124781Y92763D01*
X124804Y92730D01*
X124896Y92654D01*
X124983Y92573D01*
X125018Y92553D01*
X125049Y92528D01*
X125157Y92477D01*
X125261Y92419D01*
X125301Y92409D01*
X125337Y92392D01*
X125454Y92370D01*
X125569Y92340D01*
X125629Y92336D01*
X125649Y92332D01*
X125670Y92334D01*
X125730Y92330D01*
X130557Y92330D01*
X130557Y87726D01*
X130350Y86953D01*
X129950Y86261D01*
X129385Y85696D01*
X128693Y85296D01*
X127920Y85089D01*
X126364Y85089D01*
X126364Y90260D01*
X126347Y90398D01*
X126334Y90537D01*
X126327Y90556D01*
X126324Y90576D01*
X126273Y90705D01*
X126226Y90836D01*
X126215Y90853D01*
X126207Y90871D01*
X126126Y90984D01*
X126048Y91099D01*
X126032Y91112D01*
X126021Y91129D01*
X125913Y91218D01*
X125809Y91309D01*
X125791Y91319D01*
X125776Y91332D01*
X125650Y91391D01*
X125526Y91454D01*
X125506Y91458D01*
X125488Y91467D01*
X125351Y91493D01*
X125216Y91524D01*
X125195Y91523D01*
X125176Y91527D01*
X125037Y91518D01*
X124898Y91514D01*
X124878Y91508D01*
X124858Y91507D01*
X124726Y91464D01*
X124592Y91426D01*
X124575Y91415D01*
X124556Y91409D01*
X124438Y91335D01*
X124318Y91264D01*
X124297Y91245D01*
X124287Y91239D01*
X124273Y91224D01*
X124198Y91158D01*
X123435Y90396D01*
X123375Y90317D01*
X123307Y90245D01*
X123278Y90192D01*
X123241Y90144D01*
X123201Y90053D01*
X123153Y89967D01*
X123138Y89908D01*
X123114Y89852D01*
X123099Y89755D01*
X123074Y89659D01*
X123068Y89559D01*
X123064Y89538D01*
X123065Y89526D01*
X123064Y89498D01*
X123064Y85089D01*
X121508Y85089D01*
X120735Y85296D01*
X120662Y85338D01*
X120559Y85382D01*
X120459Y85433D01*
X120413Y85443D01*
X120369Y85462D01*
X120258Y85478D01*
X120148Y85503D01*
X120101Y85501D01*
X120054Y85508D01*
X119943Y85496D01*
X119830Y85493D01*
X119785Y85480D01*
X119738Y85475D01*
X119633Y85436D01*
X119525Y85405D01*
X119484Y85381D01*
X119440Y85364D01*
X119348Y85300D01*
X119251Y85243D01*
X119196Y85195D01*
X119179Y85183D01*
X119167Y85169D01*
X119130Y85137D01*
X118736Y84743D01*
X118676Y84665D01*
X118608Y84593D01*
X118579Y84540D01*
X118542Y84492D01*
X118502Y84401D01*
X118454Y84314D01*
X118439Y84256D01*
X118415Y84200D01*
X118400Y84102D01*
X118375Y84006D01*
X118369Y83906D01*
X118365Y83886D01*
X118367Y83874D01*
X118365Y83846D01*
X118365Y62407D01*
X118382Y62270D01*
X118386Y62225D01*
X118387Y62213D01*
X118388Y62212D01*
X118395Y62131D01*
X118402Y62112D01*
X118405Y62092D01*
X118456Y61963D01*
X118503Y61832D01*
X118514Y61815D01*
X118522Y61796D01*
X118603Y61684D01*
X118681Y61569D01*
X118697Y61555D01*
X118708Y61539D01*
X118816Y61450D01*
X118920Y61358D01*
X118938Y61349D01*
X118953Y61336D01*
X119079Y61277D01*
X119203Y61214D01*
X119223Y61209D01*
X119241Y61200D01*
X119377Y61174D01*
X119513Y61144D01*
X119534Y61144D01*
X119553Y61141D01*
X119692Y61149D01*
X119831Y61154D01*
X119851Y61159D01*
X119871Y61160D01*
X120003Y61203D01*
X120137Y61242D01*
X120154Y61252D01*
X120173Y61258D01*
X120291Y61333D01*
X120411Y61403D01*
X120432Y61422D01*
X120442Y61429D01*
X120456Y61444D01*
X120531Y61510D01*
X132724Y73702D01*
X132784Y73780D01*
X132852Y73852D01*
X132881Y73905D01*
X132918Y73953D01*
X132958Y74044D01*
X133006Y74131D01*
X133021Y74189D01*
X133045Y74245D01*
X133060Y74343D01*
X133085Y74439D01*
X133091Y74539D01*
X133095Y74559D01*
X133093Y74571D01*
X133095Y74599D01*
X133095Y104471D01*
X133083Y104569D01*
X133080Y104668D01*
X133063Y104726D01*
X133055Y104786D01*
X133019Y104878D01*
X132991Y104973D01*
X132961Y105025D01*
X132938Y105082D01*
X132880Y105162D01*
X132830Y105247D01*
X132764Y105323D01*
X132752Y105339D01*
X132742Y105347D01*
X132724Y105368D01*
X128015Y110076D01*
X128015Y126086D01*
X128003Y126184D01*
X128000Y126283D01*
X127983Y126342D01*
X127975Y126402D01*
X127939Y126494D01*
X127911Y126589D01*
X127881Y126641D01*
X127858Y126697D01*
X127800Y126777D01*
X127750Y126863D01*
X127684Y126938D01*
X127672Y126955D01*
X127662Y126962D01*
X127644Y126984D01*
X127127Y127500D01*
X126237Y129648D01*
X126237Y131972D01*
X127127Y134120D01*
X127644Y134636D01*
X127704Y134715D01*
X127772Y134787D01*
X127801Y134840D01*
X127838Y134888D01*
X127878Y134979D01*
X127926Y135065D01*
X127941Y135124D01*
X127965Y135180D01*
X127980Y135277D01*
X128005Y135373D01*
X128011Y135473D01*
X128015Y135494D01*
X128013Y135506D01*
X128015Y135534D01*
X128015Y152814D01*
X129663Y154461D01*
X129736Y154556D01*
X129815Y154645D01*
X129833Y154681D01*
X129858Y154713D01*
X129905Y154822D01*
X129959Y154928D01*
X129968Y154967D01*
X129984Y155005D01*
X130003Y155122D01*
X130029Y155238D01*
X130028Y155279D01*
X130034Y155319D01*
X130023Y155437D01*
X130019Y155556D01*
X130008Y155595D01*
X130004Y155635D01*
X129964Y155747D01*
X129931Y155862D01*
X129911Y155896D01*
X129897Y155935D01*
X129830Y156033D01*
X129769Y156136D01*
X129730Y156181D01*
X129718Y156198D01*
X129703Y156211D01*
X129663Y156256D01*
X128142Y157777D01*
X128142Y172423D01*
X130218Y174499D01*
X138768Y174499D01*
X138803Y174464D01*
X138897Y174391D01*
X138986Y174312D01*
X139022Y174294D01*
X139054Y174269D01*
X139163Y174222D01*
X139269Y174168D01*
X139309Y174159D01*
X139346Y174143D01*
X139463Y174124D01*
X139579Y174098D01*
X139620Y174099D01*
X139660Y174093D01*
X139779Y174104D01*
X139897Y174108D01*
X139936Y174119D01*
X139976Y174123D01*
X140088Y174163D01*
X140203Y174196D01*
X140238Y174217D01*
X140276Y174230D01*
X140374Y174297D01*
X140477Y174358D01*
X140522Y174397D01*
X140539Y174409D01*
X140552Y174424D01*
X140598Y174464D01*
X140632Y174499D01*
X149182Y174499D01*
X151258Y172423D01*
X151258Y171450D01*
X151273Y171332D01*
X151280Y171213D01*
X151293Y171175D01*
X151298Y171134D01*
X151341Y171024D01*
X151378Y170911D01*
X151400Y170876D01*
X151415Y170839D01*
X151484Y170743D01*
X151548Y170642D01*
X151578Y170614D01*
X151601Y170581D01*
X151693Y170505D01*
X151780Y170424D01*
X151815Y170404D01*
X151846Y170379D01*
X151954Y170328D01*
X152058Y170270D01*
X152098Y170260D01*
X152134Y170243D01*
X152251Y170221D01*
X152366Y170191D01*
X152426Y170187D01*
X152446Y170183D01*
X152467Y170185D01*
X152527Y170181D01*
X165100Y170181D01*
X165218Y170196D01*
X165337Y170203D01*
X165375Y170216D01*
X165416Y170221D01*
X165526Y170264D01*
X165639Y170301D01*
X165674Y170323D01*
X165711Y170338D01*
X165807Y170407D01*
X165908Y170471D01*
X165936Y170501D01*
X165969Y170524D01*
X166045Y170616D01*
X166126Y170703D01*
X166146Y170738D01*
X166171Y170769D01*
X166222Y170877D01*
X166280Y170981D01*
X166290Y171021D01*
X166307Y171057D01*
X166329Y171174D01*
X166359Y171289D01*
X166363Y171349D01*
X166367Y171369D01*
X166365Y171390D01*
X166369Y171450D01*
X166369Y183110D01*
X166363Y183160D01*
X166365Y183209D01*
X166343Y183317D01*
X166329Y183426D01*
X166311Y183472D01*
X166301Y183521D01*
X166253Y183619D01*
X166212Y183721D01*
X166183Y183762D01*
X166161Y183806D01*
X166090Y183890D01*
X166026Y183979D01*
X165987Y184010D01*
X165955Y184048D01*
X165865Y184111D01*
X165781Y184182D01*
X165736Y184203D01*
X165695Y184231D01*
X165592Y184270D01*
X165493Y184317D01*
X165444Y184326D01*
X165398Y184344D01*
X165288Y184356D01*
X165181Y184377D01*
X165131Y184374D01*
X165082Y184379D01*
X164973Y184364D01*
X164863Y184357D01*
X164816Y184342D01*
X164767Y184335D01*
X164614Y184283D01*
X162452Y183387D01*
X160128Y183387D01*
X157980Y184277D01*
X156337Y185920D01*
X155447Y188068D01*
X155447Y190392D01*
X156351Y192573D01*
X156355Y192579D01*
X156434Y192669D01*
X156452Y192705D01*
X156477Y192737D01*
X156525Y192846D01*
X156579Y192952D01*
X156588Y192991D01*
X156604Y193028D01*
X156622Y193146D01*
X156648Y193262D01*
X156647Y193302D01*
X156653Y193342D01*
X156642Y193461D01*
X156639Y193580D01*
X156627Y193619D01*
X156624Y193659D01*
X156583Y193771D01*
X156550Y193885D01*
X156530Y193920D01*
X156516Y193958D01*
X156449Y194057D01*
X156389Y194159D01*
X156349Y194205D01*
X156337Y194221D01*
X156322Y194235D01*
X156282Y194280D01*
X154685Y195877D01*
X154685Y210523D01*
X156761Y212599D01*
X165311Y212599D01*
X165345Y212564D01*
X165434Y212495D01*
X165466Y212465D01*
X165474Y212461D01*
X165529Y212412D01*
X165565Y212394D01*
X165597Y212369D01*
X165706Y212322D01*
X165812Y212268D01*
X165852Y212259D01*
X165889Y212243D01*
X166006Y212224D01*
X166122Y212198D01*
X166163Y212199D01*
X166203Y212193D01*
X166321Y212204D01*
X166440Y212208D01*
X166479Y212219D01*
X166519Y212223D01*
X166632Y212263D01*
X166746Y212296D01*
X166780Y212316D01*
X166819Y212330D01*
X166917Y212397D01*
X167020Y212458D01*
X167065Y212497D01*
X167082Y212509D01*
X167095Y212524D01*
X167140Y212564D01*
X167175Y212599D01*
X175725Y212599D01*
X175759Y212564D01*
X175848Y212495D01*
X175880Y212465D01*
X175888Y212461D01*
X175943Y212412D01*
X175979Y212394D01*
X176011Y212369D01*
X176120Y212322D01*
X176226Y212268D01*
X176266Y212259D01*
X176303Y212243D01*
X176420Y212224D01*
X176536Y212198D01*
X176577Y212199D01*
X176617Y212193D01*
X176735Y212204D01*
X176854Y212208D01*
X176893Y212219D01*
X176933Y212223D01*
X177046Y212263D01*
X177160Y212296D01*
X177194Y212316D01*
X177233Y212330D01*
X177331Y212397D01*
X177434Y212458D01*
X177479Y212497D01*
X177496Y212509D01*
X177509Y212524D01*
X177554Y212564D01*
X177589Y212599D01*
X186139Y212599D01*
X188215Y210523D01*
X188215Y195877D01*
X186618Y194280D01*
X186545Y194186D01*
X186466Y194097D01*
X186448Y194061D01*
X186423Y194029D01*
X186375Y193920D01*
X186321Y193814D01*
X186312Y193774D01*
X186296Y193737D01*
X186278Y193619D01*
X186252Y193503D01*
X186253Y193463D01*
X186247Y193423D01*
X186258Y193304D01*
X186261Y193186D01*
X186273Y193147D01*
X186276Y193106D01*
X186317Y192994D01*
X186350Y192880D01*
X186370Y192845D01*
X186384Y192807D01*
X186451Y192709D01*
X186511Y192606D01*
X186551Y192561D01*
X186560Y192548D01*
X187453Y190392D01*
X187453Y188068D01*
X186563Y185920D01*
X184920Y184277D01*
X182772Y183387D01*
X180448Y183387D01*
X178286Y184283D01*
X178238Y184296D01*
X178193Y184317D01*
X178085Y184338D01*
X177979Y184367D01*
X177929Y184368D01*
X177880Y184377D01*
X177771Y184370D01*
X177661Y184372D01*
X177613Y184360D01*
X177563Y184357D01*
X177459Y184323D01*
X177352Y184298D01*
X177308Y184274D01*
X177261Y184259D01*
X177168Y184200D01*
X177071Y184149D01*
X177034Y184116D01*
X176992Y184089D01*
X176917Y184009D01*
X176835Y183935D01*
X176808Y183893D01*
X176774Y183857D01*
X176721Y183761D01*
X176661Y183669D01*
X176644Y183622D01*
X176620Y183579D01*
X176593Y183473D01*
X176557Y183369D01*
X176553Y183319D01*
X176541Y183271D01*
X176531Y183110D01*
X176531Y164089D01*
X175757Y162222D01*
X174328Y160793D01*
X172461Y160019D01*
X152527Y160019D01*
X152409Y160004D01*
X152290Y159997D01*
X152252Y159984D01*
X152211Y159979D01*
X152101Y159936D01*
X151988Y159899D01*
X151953Y159877D01*
X151916Y159862D01*
X151820Y159793D01*
X151719Y159729D01*
X151691Y159699D01*
X151658Y159676D01*
X151582Y159584D01*
X151501Y159497D01*
X151481Y159462D01*
X151456Y159431D01*
X151405Y159323D01*
X151347Y159219D01*
X151337Y159179D01*
X151320Y159143D01*
X151298Y159026D01*
X151268Y158911D01*
X151264Y158851D01*
X151260Y158831D01*
X151262Y158810D01*
X151258Y158750D01*
X151258Y157777D01*
X150232Y156752D01*
X150172Y156674D01*
X150104Y156602D01*
X150075Y156549D01*
X150038Y156501D01*
X149998Y156410D01*
X149950Y156323D01*
X149935Y156265D01*
X149911Y156209D01*
X149896Y156111D01*
X149871Y156015D01*
X149865Y155915D01*
X149861Y155895D01*
X149863Y155883D01*
X149861Y155855D01*
X149861Y154838D01*
X149873Y154740D01*
X149876Y154641D01*
X149893Y154582D01*
X149901Y154522D01*
X149937Y154430D01*
X149965Y154335D01*
X149995Y154283D01*
X150018Y154227D01*
X150076Y154147D01*
X150126Y154061D01*
X150192Y153986D01*
X150204Y153969D01*
X150214Y153962D01*
X150232Y153940D01*
X150368Y153805D01*
X151034Y152198D01*
X151038Y152190D01*
X151041Y152181D01*
X151116Y152053D01*
X151191Y151922D01*
X151198Y151915D01*
X151202Y151907D01*
X151309Y151786D01*
X154421Y148674D01*
X155225Y146733D01*
X155294Y146612D01*
X155359Y146489D01*
X155373Y146474D01*
X155383Y146456D01*
X155480Y146356D01*
X155573Y146253D01*
X155590Y146242D01*
X155604Y146228D01*
X155722Y146155D01*
X155839Y146079D01*
X155858Y146072D01*
X155875Y146062D01*
X156008Y146021D01*
X156140Y145976D01*
X156160Y145974D01*
X156179Y145968D01*
X156319Y145961D01*
X156457Y145950D01*
X156477Y145954D01*
X156497Y145953D01*
X156634Y145981D01*
X156770Y146005D01*
X156788Y146013D01*
X156808Y146017D01*
X156934Y146078D01*
X157060Y146135D01*
X157076Y146148D01*
X157094Y146157D01*
X157200Y146247D01*
X157309Y146334D01*
X157321Y146350D01*
X157336Y146363D01*
X157416Y146477D01*
X157500Y146588D01*
X157512Y146613D01*
X157519Y146623D01*
X157526Y146642D01*
X157571Y146733D01*
X157607Y146820D01*
X159250Y148463D01*
X161398Y149353D01*
X163722Y149353D01*
X165870Y148463D01*
X166386Y147946D01*
X166465Y147886D01*
X166537Y147818D01*
X166590Y147789D01*
X166638Y147752D01*
X166729Y147712D01*
X166815Y147664D01*
X166874Y147649D01*
X166930Y147625D01*
X167027Y147610D01*
X167123Y147585D01*
X167223Y147579D01*
X167244Y147575D01*
X167256Y147577D01*
X167284Y147575D01*
X184506Y147575D01*
X184604Y147587D01*
X184703Y147590D01*
X184762Y147607D01*
X184822Y147615D01*
X184914Y147651D01*
X185009Y147679D01*
X185061Y147709D01*
X185117Y147732D01*
X185197Y147790D01*
X185283Y147840D01*
X185358Y147906D01*
X185375Y147918D01*
X185382Y147928D01*
X185404Y147946D01*
X185920Y148463D01*
X188068Y149353D01*
X190392Y149353D01*
X192540Y148463D01*
X194183Y146820D01*
X195073Y144672D01*
X195073Y142348D01*
X194183Y140200D01*
X192540Y138557D01*
X190392Y137667D01*
X188068Y137667D01*
X185920Y138557D01*
X185404Y139074D01*
X185325Y139134D01*
X185253Y139202D01*
X185200Y139231D01*
X185152Y139268D01*
X185061Y139308D01*
X184975Y139356D01*
X184916Y139371D01*
X184860Y139395D01*
X184763Y139410D01*
X184667Y139435D01*
X184567Y139441D01*
X184546Y139445D01*
X184534Y139443D01*
X184506Y139445D01*
X167894Y139445D01*
X167776Y139430D01*
X167657Y139423D01*
X167619Y139410D01*
X167578Y139405D01*
X167468Y139362D01*
X167355Y139325D01*
X167320Y139303D01*
X167283Y139288D01*
X167187Y139219D01*
X167086Y139155D01*
X167058Y139125D01*
X167025Y139102D01*
X166949Y139010D01*
X166868Y138923D01*
X166848Y138888D01*
X166823Y138857D01*
X166772Y138749D01*
X166714Y138645D01*
X166704Y138605D01*
X166687Y138569D01*
X166665Y138452D01*
X166635Y138337D01*
X166631Y138277D01*
X166627Y138257D01*
X166629Y138236D01*
X166625Y138176D01*
X166625Y131749D01*
X166637Y131651D01*
X166640Y131552D01*
X166657Y131494D01*
X166665Y131434D01*
X166701Y131342D01*
X166729Y131247D01*
X166759Y131195D01*
X166782Y131138D01*
X166840Y131058D01*
X166890Y130973D01*
X166956Y130897D01*
X166968Y130881D01*
X166978Y130873D01*
X166996Y130852D01*
X170435Y127414D01*
X170435Y120294D01*
X170447Y120196D01*
X170450Y120097D01*
X170467Y120038D01*
X170475Y119978D01*
X170511Y119886D01*
X170539Y119791D01*
X170569Y119739D01*
X170592Y119683D01*
X170650Y119603D01*
X170700Y119517D01*
X170766Y119442D01*
X170778Y119425D01*
X170788Y119418D01*
X170806Y119396D01*
X171323Y118880D01*
X172213Y116732D01*
X172213Y114408D01*
X171323Y112260D01*
X169680Y110617D01*
X167532Y109727D01*
X165208Y109727D01*
X165078Y109781D01*
X165030Y109794D01*
X164985Y109815D01*
X164877Y109836D01*
X164771Y109865D01*
X164721Y109866D01*
X164672Y109875D01*
X164563Y109868D01*
X164453Y109870D01*
X164405Y109859D01*
X164355Y109855D01*
X164251Y109822D01*
X164144Y109796D01*
X164100Y109773D01*
X164053Y109757D01*
X163960Y109699D01*
X163863Y109647D01*
X163826Y109614D01*
X163784Y109587D01*
X163708Y109507D01*
X163627Y109433D01*
X163600Y109392D01*
X163566Y109356D01*
X163513Y109260D01*
X163453Y109168D01*
X163436Y109121D01*
X163412Y109077D01*
X163385Y108971D01*
X163349Y108867D01*
X163345Y108817D01*
X163333Y108769D01*
X163323Y108609D01*
X163323Y106788D01*
X162433Y104640D01*
X160790Y102997D01*
X158642Y102107D01*
X156464Y102107D01*
X156346Y102092D01*
X156227Y102085D01*
X156189Y102072D01*
X156148Y102067D01*
X156038Y102024D01*
X155925Y101987D01*
X155890Y101965D01*
X155853Y101950D01*
X155757Y101881D01*
X155656Y101817D01*
X155628Y101787D01*
X155595Y101764D01*
X155519Y101672D01*
X155438Y101585D01*
X155418Y101550D01*
X155393Y101519D01*
X155342Y101411D01*
X155284Y101307D01*
X155274Y101267D01*
X155257Y101231D01*
X155235Y101114D01*
X155205Y100999D01*
X155201Y100939D01*
X155197Y100919D01*
X155199Y100898D01*
X155195Y100838D01*
X155195Y82550D01*
X155210Y82432D01*
X155217Y82313D01*
X155230Y82275D01*
X155235Y82234D01*
X155278Y82124D01*
X155315Y82011D01*
X155337Y81976D01*
X155352Y81939D01*
X155421Y81843D01*
X155485Y81742D01*
X155515Y81714D01*
X155538Y81681D01*
X155630Y81605D01*
X155717Y81524D01*
X155752Y81504D01*
X155783Y81479D01*
X155891Y81428D01*
X155995Y81370D01*
X156035Y81360D01*
X156071Y81343D01*
X156188Y81321D01*
X156303Y81291D01*
X156363Y81287D01*
X156383Y81283D01*
X156404Y81285D01*
X156464Y81281D01*
X162470Y81281D01*
X162568Y81293D01*
X162667Y81296D01*
X162725Y81313D01*
X162785Y81321D01*
X162877Y81357D01*
X162972Y81385D01*
X163025Y81415D01*
X163081Y81438D01*
X163161Y81496D01*
X163246Y81546D01*
X163322Y81612D01*
X163338Y81624D01*
X163346Y81634D01*
X163367Y81652D01*
X171906Y90191D01*
X171912Y90199D01*
X171919Y90205D01*
X172009Y90324D01*
X172101Y90443D01*
X172105Y90451D01*
X172110Y90459D01*
X172181Y90603D01*
X172847Y92210D01*
X174490Y93853D01*
X176638Y94743D01*
X178962Y94743D01*
X181110Y93853D01*
X182753Y92210D01*
X183643Y90062D01*
X183643Y87738D01*
X182753Y85590D01*
X181110Y83947D01*
X179503Y83281D01*
X179495Y83277D01*
X179486Y83274D01*
X179358Y83199D01*
X179227Y83124D01*
X179220Y83117D01*
X179212Y83113D01*
X179091Y83006D01*
X169586Y73501D01*
X167978Y71893D01*
X166111Y71119D01*
X152744Y71119D01*
X152646Y71107D01*
X152547Y71104D01*
X152489Y71087D01*
X152429Y71079D01*
X152337Y71043D01*
X152242Y71015D01*
X152189Y70985D01*
X152133Y70962D01*
X152053Y70904D01*
X151968Y70854D01*
X151892Y70788D01*
X151876Y70776D01*
X151868Y70766D01*
X151847Y70748D01*
X145152Y64053D01*
X145092Y63975D01*
X145024Y63903D01*
X144995Y63850D01*
X144958Y63802D01*
X144918Y63711D01*
X144870Y63624D01*
X144855Y63566D01*
X144831Y63510D01*
X144816Y63412D01*
X144791Y63316D01*
X144785Y63216D01*
X144781Y63196D01*
X144783Y63184D01*
X144781Y63156D01*
X144781Y24916D01*
X144784Y24887D01*
X144782Y24857D01*
X144804Y24729D01*
X144821Y24600D01*
X144831Y24573D01*
X144836Y24544D01*
X144890Y24425D01*
X144938Y24305D01*
X144955Y24281D01*
X144967Y24254D01*
X145048Y24152D01*
X145124Y24047D01*
X145147Y24028D01*
X145166Y24005D01*
X145269Y23927D01*
X145369Y23844D01*
X145396Y23832D01*
X145420Y23814D01*
X145564Y23743D01*
X146750Y23252D01*
X150252Y19750D01*
X151227Y17395D01*
X151296Y17275D01*
X151361Y17152D01*
X151375Y17137D01*
X151385Y17119D01*
X151482Y17019D01*
X151575Y16916D01*
X151592Y16905D01*
X151606Y16891D01*
X151725Y16818D01*
X151841Y16742D01*
X151860Y16735D01*
X151877Y16724D01*
X152010Y16683D01*
X152142Y16638D01*
X152162Y16637D01*
X152181Y16631D01*
X152320Y16624D01*
X152459Y16613D01*
X152479Y16617D01*
X152499Y16616D01*
X152635Y16644D01*
X152772Y16668D01*
X152791Y16676D01*
X152810Y16680D01*
X152936Y16741D01*
X153062Y16798D01*
X153078Y16811D01*
X153096Y16820D01*
X153202Y16910D01*
X153310Y16997D01*
X153323Y17013D01*
X153338Y17026D01*
X153418Y17140D01*
X153502Y17251D01*
X153514Y17276D01*
X153521Y17286D01*
X153528Y17305D01*
X153573Y17395D01*
X154548Y19751D01*
X158050Y23252D01*
X162624Y25147D01*
X167576Y25147D01*
X172150Y23252D01*
X175652Y19750D01*
X176627Y17395D01*
X176696Y17275D01*
X176761Y17152D01*
X176775Y17137D01*
X176785Y17119D01*
X176882Y17019D01*
X176975Y16916D01*
X176992Y16905D01*
X177006Y16891D01*
X177124Y16818D01*
X177241Y16742D01*
X177260Y16735D01*
X177277Y16724D01*
X177410Y16684D01*
X177542Y16638D01*
X177562Y16637D01*
X177581Y16631D01*
X177720Y16624D01*
X177859Y16613D01*
X177879Y16617D01*
X177899Y16616D01*
X178035Y16644D01*
X178172Y16668D01*
X178191Y16676D01*
X178210Y16680D01*
X178335Y16741D01*
X178462Y16798D01*
X178478Y16811D01*
X178496Y16820D01*
X178602Y16910D01*
X178710Y16997D01*
X178723Y17013D01*
X178738Y17026D01*
X178818Y17140D01*
X178902Y17251D01*
X178914Y17276D01*
X178921Y17286D01*
X178928Y17305D01*
X178973Y17395D01*
X179948Y19750D01*
X183450Y23252D01*
X188024Y25147D01*
X192976Y25147D01*
X197550Y23252D01*
X201052Y19750D01*
X202947Y15176D01*
X202947Y10224D01*
X201122Y5820D01*
X201109Y5772D01*
X201088Y5727D01*
X201067Y5619D01*
X201038Y5513D01*
X201038Y5463D01*
X201028Y5414D01*
X201035Y5305D01*
X201033Y5195D01*
X201045Y5147D01*
X201048Y5097D01*
X201082Y4993D01*
X201107Y4886D01*
X201131Y4842D01*
X201146Y4795D01*
X201205Y4702D01*
X201256Y4605D01*
X201290Y4568D01*
X201316Y4526D01*
X201396Y4451D01*
X201470Y4369D01*
X201512Y4342D01*
X201548Y4308D01*
X201644Y4255D01*
X201736Y4195D01*
X201783Y4178D01*
X201826Y4154D01*
X201933Y4127D01*
X202037Y4091D01*
X202086Y4087D01*
X202134Y4075D01*
X202295Y4065D01*
X215369Y4065D01*
X215405Y4069D01*
X215440Y4067D01*
X215562Y4089D01*
X215685Y4105D01*
X215718Y4118D01*
X215753Y4124D01*
X215865Y4176D01*
X215981Y4222D01*
X216009Y4242D01*
X216041Y4257D01*
X216138Y4336D01*
X216238Y4408D01*
X216261Y4436D01*
X216288Y4458D01*
X216361Y4558D01*
X216441Y4653D01*
X216456Y4685D01*
X216477Y4714D01*
X216523Y4829D01*
X216576Y4941D01*
X216583Y4976D01*
X216596Y5009D01*
X216613Y5132D01*
X216636Y5253D01*
X216634Y5289D01*
X216639Y5324D01*
X216624Y5447D01*
X216616Y5571D01*
X216605Y5605D01*
X216601Y5640D01*
X216556Y5756D01*
X216518Y5873D01*
X216499Y5903D01*
X216487Y5936D01*
X216414Y6037D01*
X216348Y6142D01*
X216322Y6166D01*
X216302Y6195D01*
X216185Y6306D01*
X211015Y10644D01*
X207029Y17549D01*
X205645Y25400D01*
X207029Y33251D01*
X211015Y40155D01*
X217122Y45280D01*
X224614Y48007D01*
X232586Y48007D01*
X240078Y45280D01*
X246185Y40156D01*
X247567Y37762D01*
X247655Y37646D01*
X247740Y37528D01*
X247751Y37519D01*
X247759Y37509D01*
X247873Y37418D01*
X247985Y37325D01*
X247998Y37319D01*
X248008Y37311D01*
X248142Y37251D01*
X248273Y37190D01*
X248286Y37187D01*
X248299Y37182D01*
X248443Y37157D01*
X248586Y37130D01*
X248599Y37131D01*
X248612Y37128D01*
X248758Y37141D01*
X248903Y37150D01*
X248916Y37154D01*
X248929Y37155D01*
X249067Y37203D01*
X249205Y37248D01*
X249217Y37255D01*
X249230Y37259D01*
X249351Y37340D01*
X249474Y37418D01*
X249483Y37428D01*
X249495Y37435D01*
X249592Y37543D01*
X249692Y37649D01*
X249699Y37661D01*
X249708Y37671D01*
X249775Y37801D01*
X249846Y37928D01*
X249849Y37941D01*
X249855Y37953D01*
X249889Y38095D01*
X249925Y38236D01*
X249926Y38254D01*
X249928Y38263D01*
X249928Y38280D01*
X249935Y38397D01*
X249935Y215603D01*
X249917Y215748D01*
X249902Y215893D01*
X249897Y215906D01*
X249895Y215919D01*
X249842Y216054D01*
X249791Y216191D01*
X249783Y216202D01*
X249778Y216215D01*
X249693Y216332D01*
X249610Y216452D01*
X249599Y216461D01*
X249592Y216472D01*
X249480Y216565D01*
X249369Y216660D01*
X249357Y216666D01*
X249347Y216675D01*
X249215Y216737D01*
X249084Y216802D01*
X249071Y216805D01*
X249059Y216810D01*
X248917Y216838D01*
X248773Y216868D01*
X248760Y216868D01*
X248747Y216870D01*
X248602Y216861D01*
X248456Y216855D01*
X248442Y216851D01*
X248429Y216850D01*
X248291Y216806D01*
X248151Y216763D01*
X248139Y216756D01*
X248127Y216752D01*
X248004Y216675D01*
X247879Y216599D01*
X247869Y216589D01*
X247858Y216582D01*
X247758Y216476D01*
X247656Y216372D01*
X247646Y216357D01*
X247640Y216351D01*
X247632Y216336D01*
X247567Y216238D01*
X246185Y213845D01*
X240078Y208720D01*
X232586Y205993D01*
X224614Y205993D01*
X217122Y208720D01*
X211015Y213844D01*
X207029Y220749D01*
X205645Y228600D01*
X207029Y236451D01*
X211015Y243355D01*
X216185Y247694D01*
X216209Y247720D01*
X216238Y247740D01*
X216317Y247836D01*
X216401Y247927D01*
X216418Y247958D01*
X216441Y247985D01*
X216494Y248098D01*
X216553Y248207D01*
X216561Y248241D01*
X216576Y248273D01*
X216599Y248395D01*
X216630Y248515D01*
X216629Y248551D01*
X216636Y248586D01*
X216628Y248709D01*
X216627Y248833D01*
X216618Y248868D01*
X216616Y248903D01*
X216578Y249021D01*
X216546Y249141D01*
X216529Y249172D01*
X216518Y249205D01*
X216452Y249310D01*
X216391Y249419D01*
X216367Y249444D01*
X216348Y249474D01*
X216258Y249559D01*
X216172Y249649D01*
X216142Y249668D01*
X216116Y249692D01*
X216008Y249752D01*
X215903Y249818D01*
X215869Y249829D01*
X215838Y249846D01*
X215718Y249877D01*
X215600Y249914D01*
X215564Y249916D01*
X215530Y249925D01*
X215369Y249935D01*
X38631Y249935D01*
X38595Y249931D01*
X38560Y249933D01*
X38438Y249911D01*
X38315Y249895D01*
X38282Y249882D01*
X38247Y249876D01*
X38135Y249824D01*
X38019Y249778D01*
X37991Y249758D01*
X37959Y249743D01*
X37862Y249664D01*
X37762Y249592D01*
X37739Y249564D01*
X37712Y249542D01*
X37639Y249442D01*
X37559Y249347D01*
X37544Y249315D01*
X37523Y249286D01*
X37477Y249171D01*
X37424Y249059D01*
X37417Y249024D01*
X37404Y248991D01*
X37387Y248868D01*
X37364Y248747D01*
X37366Y248711D01*
X37361Y248676D01*
X37376Y248553D01*
X37384Y248429D01*
X37395Y248395D01*
X37399Y248360D01*
X37444Y248244D01*
X37482Y248127D01*
X37501Y248097D01*
X37513Y248064D01*
X37586Y247963D01*
X37652Y247858D01*
X37678Y247834D01*
X37698Y247805D01*
X37815Y247694D01*
X42985Y243356D01*
X46971Y236451D01*
X48355Y228600D01*
X46971Y220749D01*
X42985Y213845D01*
X36878Y208720D01*
X29386Y205993D01*
X23039Y205993D01*
X22940Y205981D01*
X22841Y205978D01*
X22783Y205961D01*
X22723Y205953D01*
X22631Y205917D01*
X22536Y205889D01*
X22484Y205859D01*
X22427Y205836D01*
X22347Y205778D01*
X22262Y205728D01*
X22187Y205662D01*
X22170Y205650D01*
X22162Y205640D01*
X22141Y205622D01*
X21554Y205035D01*
X21554Y205034D01*
X21002Y204482D01*
X20929Y204388D01*
X20850Y204299D01*
X20832Y204263D01*
X20807Y204231D01*
X20760Y204122D01*
X20705Y204016D01*
X20697Y203976D01*
X20681Y203939D01*
X20662Y203821D01*
X20636Y203705D01*
X20637Y203665D01*
X20631Y203625D01*
X20642Y203507D01*
X20645Y203387D01*
X20657Y203349D01*
X20661Y203308D01*
X20701Y203197D01*
X20734Y203082D01*
X20754Y203047D01*
X20768Y203009D01*
X20835Y202911D01*
X20895Y202808D01*
X20935Y202763D01*
X20947Y202746D01*
X20962Y202732D01*
X21002Y202687D01*
X23378Y200311D01*
X23378Y197278D01*
X23378Y196871D01*
X23378Y196419D01*
X23378Y196418D01*
X23378Y193385D01*
X20625Y190632D01*
X20415Y190422D01*
X20369Y190363D01*
X20316Y190310D01*
X20272Y190238D01*
X20220Y190170D01*
X20190Y190102D01*
X20152Y190038D01*
X20127Y189957D01*
X20093Y189879D01*
X20082Y189805D01*
X20060Y189733D01*
X20057Y189648D01*
X20044Y189564D01*
X20050Y189490D01*
X20047Y189416D01*
X20065Y189332D01*
X20073Y189248D01*
X20098Y189178D01*
X20114Y189105D01*
X20145Y189032D01*
X18986Y185555D01*
X18984Y185546D01*
X18981Y185538D01*
X18954Y185392D01*
X18924Y185243D01*
X18925Y185234D01*
X18923Y185226D01*
X18933Y185076D01*
X18942Y184926D01*
X18944Y184917D01*
X18945Y184908D01*
X18986Y184753D01*
X20143Y181283D01*
X18637Y178271D01*
X15442Y177206D01*
X7157Y181349D01*
X7148Y181352D01*
X7140Y181357D01*
X6991Y181418D01*
X5735Y181836D01*
X5731Y181837D01*
X5727Y181839D01*
X5577Y181868D01*
X5423Y181898D01*
X5419Y181898D01*
X5414Y181899D01*
X5262Y181889D01*
X5106Y181881D01*
X5101Y181879D01*
X5097Y181879D01*
X4952Y181832D01*
X4803Y181785D01*
X4799Y181782D01*
X4795Y181781D01*
X4663Y181698D01*
X4533Y181617D01*
X4530Y181613D01*
X4526Y181611D01*
X4418Y181497D01*
X4313Y181387D01*
X4311Y181383D01*
X4308Y181379D01*
X4233Y181243D01*
X4158Y181109D01*
X4157Y181105D01*
X4154Y181101D01*
X4116Y180952D01*
X4076Y180802D01*
X4076Y180797D01*
X4075Y180793D01*
X4065Y180632D01*
X4065Y38397D01*
X4083Y38252D01*
X4098Y38107D01*
X4103Y38094D01*
X4105Y38081D01*
X4158Y37946D01*
X4209Y37809D01*
X4217Y37798D01*
X4222Y37785D01*
X4307Y37668D01*
X4390Y37548D01*
X4401Y37539D01*
X4408Y37528D01*
X4521Y37435D01*
X4631Y37340D01*
X4643Y37334D01*
X4653Y37325D01*
X4785Y37263D01*
X4916Y37198D01*
X4929Y37195D01*
X4941Y37190D01*
X5083Y37162D01*
X5227Y37132D01*
X5240Y37132D01*
X5253Y37130D01*
X5398Y37139D01*
X5544Y37145D01*
X5558Y37149D01*
X5571Y37150D01*
X5709Y37194D01*
X5849Y37237D01*
X5861Y37244D01*
X5873Y37248D01*
X5996Y37325D01*
X6121Y37401D01*
X6131Y37411D01*
X6142Y37418D01*
X6242Y37524D01*
X6344Y37628D01*
X6354Y37643D01*
X6360Y37649D01*
X6368Y37664D01*
X6433Y37762D01*
X7815Y40155D01*
X13922Y45280D01*
X21414Y48007D01*
X29386Y48007D01*
X36878Y45280D01*
X42985Y40156D01*
X46971Y33251D01*
X48355Y25400D01*
X46971Y17549D01*
X42985Y10645D01*
X37815Y6306D01*
X37791Y6280D01*
X37762Y6260D01*
X37683Y6164D01*
X37599Y6073D01*
X37582Y6042D01*
X37559Y6015D01*
X37506Y5902D01*
X37447Y5793D01*
X37439Y5759D01*
X37424Y5727D01*
X37401Y5605D01*
X37370Y5485D01*
X37371Y5449D01*
X37364Y5414D01*
X37372Y5291D01*
X37373Y5167D01*
X37382Y5132D01*
X37384Y5097D01*
X37422Y4979D01*
X37454Y4859D01*
X37471Y4828D01*
X37482Y4795D01*
X37548Y4690D01*
X37609Y4581D01*
X37633Y4556D01*
X37652Y4526D01*
X37742Y4441D01*
X37828Y4351D01*
X37858Y4332D01*
X37884Y4308D01*
X37992Y4248D01*
X38097Y4182D01*
X38131Y4171D01*
X38162Y4154D01*
X38282Y4123D01*
X38400Y4086D01*
X38436Y4084D01*
X38470Y4075D01*
X38631Y4065D01*
X51705Y4065D01*
X51754Y4071D01*
G37*
%LPC*%
G36*
X83928Y62737D02*
X83928Y62737D01*
X81780Y63627D01*
X80137Y65270D01*
X79247Y67418D01*
X79247Y67463D01*
X79230Y67600D01*
X79217Y67739D01*
X79210Y67758D01*
X79207Y67778D01*
X79156Y67907D01*
X79109Y68038D01*
X79098Y68055D01*
X79090Y68074D01*
X79009Y68186D01*
X78931Y68301D01*
X78915Y68315D01*
X78904Y68331D01*
X78796Y68420D01*
X78692Y68512D01*
X78674Y68521D01*
X78659Y68534D01*
X78533Y68593D01*
X78409Y68656D01*
X78389Y68661D01*
X78371Y68670D01*
X78234Y68696D01*
X78099Y68726D01*
X78078Y68725D01*
X78059Y68729D01*
X77920Y68721D01*
X77781Y68716D01*
X77761Y68711D01*
X77741Y68710D01*
X77609Y68667D01*
X77475Y68628D01*
X77458Y68618D01*
X77439Y68612D01*
X77321Y68537D01*
X77201Y68466D01*
X77180Y68448D01*
X77170Y68441D01*
X77156Y68426D01*
X77081Y68360D01*
X75522Y66801D01*
X66972Y66801D01*
X66938Y66836D01*
X66843Y66909D01*
X66754Y66988D01*
X66718Y67006D01*
X66686Y67031D01*
X66577Y67078D01*
X66471Y67132D01*
X66431Y67141D01*
X66394Y67157D01*
X66277Y67176D01*
X66161Y67202D01*
X66120Y67201D01*
X66080Y67207D01*
X65962Y67196D01*
X65843Y67192D01*
X65804Y67181D01*
X65764Y67177D01*
X65651Y67137D01*
X65537Y67104D01*
X65503Y67084D01*
X65464Y67070D01*
X65366Y67003D01*
X65263Y66942D01*
X65218Y66903D01*
X65201Y66891D01*
X65188Y66876D01*
X65143Y66836D01*
X65108Y66801D01*
X56558Y66801D01*
X54482Y68877D01*
X54482Y83523D01*
X55380Y84421D01*
X55441Y84499D01*
X55509Y84571D01*
X55538Y84624D01*
X55575Y84672D01*
X55615Y84763D01*
X55663Y84850D01*
X55678Y84908D01*
X55702Y84964D01*
X55717Y85062D01*
X55742Y85158D01*
X55748Y85258D01*
X55752Y85278D01*
X55750Y85290D01*
X55752Y85318D01*
X55752Y103754D01*
X56526Y105621D01*
X68242Y117337D01*
X70109Y118111D01*
X94536Y118111D01*
X94545Y118112D01*
X94554Y118111D01*
X94703Y118132D01*
X94851Y118151D01*
X94860Y118154D01*
X94869Y118155D01*
X95021Y118207D01*
X96628Y118873D01*
X98952Y118873D01*
X101100Y117983D01*
X102743Y116340D01*
X103633Y114192D01*
X103633Y111868D01*
X102743Y109720D01*
X101100Y108077D01*
X98952Y107187D01*
X96628Y107187D01*
X95021Y107853D01*
X95012Y107855D01*
X95004Y107860D01*
X94859Y107897D01*
X94715Y107937D01*
X94705Y107937D01*
X94696Y107939D01*
X94536Y107949D01*
X73750Y107949D01*
X73652Y107937D01*
X73553Y107934D01*
X73495Y107917D01*
X73435Y107909D01*
X73343Y107873D01*
X73248Y107845D01*
X73195Y107815D01*
X73139Y107792D01*
X73059Y107734D01*
X72974Y107684D01*
X72898Y107618D01*
X72882Y107606D01*
X72874Y107596D01*
X72853Y107578D01*
X66285Y101010D01*
X66225Y100932D01*
X66157Y100860D01*
X66128Y100807D01*
X66091Y100759D01*
X66051Y100668D01*
X66003Y100581D01*
X65988Y100523D01*
X65964Y100467D01*
X65949Y100369D01*
X65924Y100273D01*
X65918Y100173D01*
X65914Y100153D01*
X65916Y100141D01*
X65914Y100113D01*
X65914Y86868D01*
X65929Y86750D01*
X65936Y86631D01*
X65949Y86593D01*
X65954Y86552D01*
X65997Y86442D01*
X66034Y86329D01*
X66056Y86294D01*
X66071Y86257D01*
X66140Y86161D01*
X66204Y86060D01*
X66234Y86032D01*
X66257Y85999D01*
X66349Y85923D01*
X66436Y85842D01*
X66471Y85822D01*
X66502Y85797D01*
X66610Y85746D01*
X66714Y85688D01*
X66754Y85678D01*
X66790Y85661D01*
X66907Y85639D01*
X67022Y85609D01*
X67082Y85605D01*
X67102Y85601D01*
X67123Y85603D01*
X67183Y85599D01*
X75794Y85599D01*
X75932Y85616D01*
X76071Y85629D01*
X76090Y85636D01*
X76110Y85639D01*
X76239Y85690D01*
X76370Y85737D01*
X76387Y85748D01*
X76405Y85756D01*
X76518Y85837D01*
X76611Y85901D01*
X76594Y85866D01*
X76544Y85791D01*
X76522Y85725D01*
X76490Y85663D01*
X76470Y85575D01*
X76441Y85490D01*
X76436Y85420D01*
X76420Y85352D01*
X76423Y85263D01*
X76416Y85173D01*
X76428Y85104D01*
X76430Y85034D01*
X76455Y84948D01*
X76470Y84860D01*
X76499Y84796D01*
X76518Y84729D01*
X76564Y84652D01*
X76601Y84570D01*
X76644Y84515D01*
X76680Y84455D01*
X76786Y84334D01*
X77598Y83523D01*
X77598Y81534D01*
X77613Y81416D01*
X77620Y81297D01*
X77633Y81259D01*
X77638Y81218D01*
X77681Y81108D01*
X77718Y80995D01*
X77740Y80960D01*
X77755Y80923D01*
X77824Y80827D01*
X77888Y80726D01*
X77918Y80698D01*
X77941Y80665D01*
X78033Y80589D01*
X78120Y80508D01*
X78155Y80488D01*
X78186Y80463D01*
X78294Y80412D01*
X78398Y80354D01*
X78438Y80344D01*
X78474Y80327D01*
X78591Y80305D01*
X78706Y80275D01*
X78766Y80271D01*
X78786Y80267D01*
X78807Y80269D01*
X78867Y80265D01*
X79154Y80265D01*
X84624Y74794D01*
X84702Y74734D01*
X84774Y74666D01*
X84827Y74637D01*
X84875Y74600D01*
X84966Y74560D01*
X85053Y74512D01*
X85111Y74497D01*
X85167Y74473D01*
X85265Y74458D01*
X85361Y74433D01*
X85461Y74427D01*
X85481Y74423D01*
X85493Y74425D01*
X85521Y74423D01*
X86252Y74423D01*
X88400Y73533D01*
X90043Y71890D01*
X90933Y69742D01*
X90933Y67418D01*
X90043Y65270D01*
X88400Y63627D01*
X86252Y62737D01*
X83928Y62737D01*
G37*
%LPD*%
G36*
X115688Y12716D02*
X115688Y12716D01*
X115807Y12723D01*
X115845Y12736D01*
X115885Y12741D01*
X115996Y12785D01*
X116109Y12821D01*
X116144Y12843D01*
X116181Y12858D01*
X116277Y12928D01*
X116378Y12991D01*
X116406Y13021D01*
X116439Y13045D01*
X116514Y13136D01*
X116596Y13223D01*
X116616Y13258D01*
X116641Y13290D01*
X116692Y13397D01*
X116750Y13502D01*
X116760Y13541D01*
X116777Y13577D01*
X116799Y13694D01*
X116829Y13809D01*
X116833Y13870D01*
X116837Y13890D01*
X116835Y13910D01*
X116839Y13970D01*
X116839Y24385D01*
X117096Y24345D01*
X118883Y23764D01*
X120557Y22911D01*
X122078Y21806D01*
X123406Y20478D01*
X124511Y18957D01*
X125364Y17283D01*
X125515Y16818D01*
X125528Y16791D01*
X125535Y16762D01*
X125595Y16648D01*
X125650Y16530D01*
X125669Y16507D01*
X125683Y16481D01*
X125770Y16385D01*
X125853Y16285D01*
X125877Y16268D01*
X125897Y16246D01*
X126006Y16174D01*
X126110Y16098D01*
X126138Y16087D01*
X126163Y16071D01*
X126286Y16029D01*
X126406Y15981D01*
X126436Y15977D01*
X126464Y15968D01*
X126593Y15957D01*
X126721Y15941D01*
X126751Y15945D01*
X126781Y15942D01*
X126909Y15965D01*
X127037Y15981D01*
X127065Y15992D01*
X127094Y15997D01*
X127212Y16050D01*
X127333Y16098D01*
X127357Y16115D01*
X127384Y16127D01*
X127485Y16208D01*
X127590Y16284D01*
X127609Y16307D01*
X127633Y16326D01*
X127711Y16430D01*
X127793Y16529D01*
X127806Y16556D01*
X127824Y16580D01*
X127895Y16725D01*
X129148Y19750D01*
X132650Y23252D01*
X133836Y23743D01*
X133861Y23758D01*
X133889Y23767D01*
X133999Y23836D01*
X134112Y23901D01*
X134133Y23921D01*
X134158Y23937D01*
X134247Y24032D01*
X134340Y24122D01*
X134356Y24147D01*
X134376Y24169D01*
X134439Y24283D01*
X134507Y24393D01*
X134515Y24421D01*
X134530Y24447D01*
X134562Y24573D01*
X134600Y24697D01*
X134602Y24727D01*
X134609Y24755D01*
X134619Y24916D01*
X134619Y61037D01*
X134602Y61174D01*
X134589Y61313D01*
X134582Y61332D01*
X134579Y61352D01*
X134528Y61481D01*
X134481Y61612D01*
X134470Y61629D01*
X134462Y61648D01*
X134381Y61760D01*
X134303Y61875D01*
X134287Y61889D01*
X134276Y61905D01*
X134168Y61994D01*
X134064Y62086D01*
X134046Y62095D01*
X134031Y62108D01*
X133905Y62167D01*
X133781Y62230D01*
X133761Y62235D01*
X133743Y62244D01*
X133607Y62270D01*
X133471Y62300D01*
X133450Y62300D01*
X133431Y62303D01*
X133292Y62295D01*
X133153Y62290D01*
X133133Y62285D01*
X133113Y62284D01*
X132981Y62241D01*
X132847Y62202D01*
X132830Y62192D01*
X132811Y62186D01*
X132693Y62111D01*
X132573Y62041D01*
X132552Y62022D01*
X132542Y62015D01*
X132528Y62001D01*
X132453Y61934D01*
X107306Y36788D01*
X104554Y34035D01*
X96189Y34035D01*
X96091Y34023D01*
X95992Y34020D01*
X95934Y34003D01*
X95874Y33995D01*
X95782Y33959D01*
X95687Y33931D01*
X95635Y33901D01*
X95578Y33878D01*
X95498Y33820D01*
X95413Y33770D01*
X95337Y33704D01*
X95321Y33692D01*
X95313Y33682D01*
X95292Y33664D01*
X93336Y31708D01*
X93276Y31630D01*
X93208Y31558D01*
X93179Y31505D01*
X93142Y31457D01*
X93102Y31366D01*
X93054Y31279D01*
X93039Y31221D01*
X93015Y31165D01*
X93000Y31067D01*
X92975Y30971D01*
X92969Y30871D01*
X92965Y30851D01*
X92967Y30839D01*
X92965Y30811D01*
X92965Y25337D01*
X92968Y25307D01*
X92966Y25278D01*
X92988Y25150D01*
X93005Y25021D01*
X93015Y24994D01*
X93020Y24965D01*
X93074Y24846D01*
X93122Y24725D01*
X93139Y24702D01*
X93151Y24675D01*
X93232Y24573D01*
X93308Y24468D01*
X93331Y24449D01*
X93350Y24426D01*
X93453Y24348D01*
X93553Y24265D01*
X93580Y24253D01*
X93604Y24235D01*
X93748Y24164D01*
X95950Y23252D01*
X99452Y19750D01*
X100705Y16725D01*
X100720Y16699D01*
X100729Y16670D01*
X100799Y16561D01*
X100863Y16448D01*
X100884Y16427D01*
X100900Y16402D01*
X100994Y16313D01*
X101084Y16220D01*
X101110Y16204D01*
X101131Y16184D01*
X101245Y16121D01*
X101355Y16054D01*
X101384Y16045D01*
X101410Y16031D01*
X101535Y15998D01*
X101659Y15960D01*
X101689Y15959D01*
X101718Y15951D01*
X101848Y15951D01*
X101977Y15945D01*
X102006Y15951D01*
X102036Y15951D01*
X102161Y15983D01*
X102288Y16009D01*
X102315Y16022D01*
X102344Y16030D01*
X102457Y16092D01*
X102574Y16149D01*
X102597Y16168D01*
X102623Y16183D01*
X102717Y16271D01*
X102816Y16355D01*
X102833Y16380D01*
X102855Y16400D01*
X102924Y16509D01*
X102999Y16615D01*
X103010Y16643D01*
X103026Y16669D01*
X103085Y16818D01*
X103236Y17283D01*
X104089Y18957D01*
X105194Y20478D01*
X106522Y21806D01*
X108043Y22911D01*
X109717Y23764D01*
X111504Y24345D01*
X111761Y24385D01*
X111761Y13970D01*
X111776Y13852D01*
X111783Y13733D01*
X111796Y13695D01*
X111801Y13655D01*
X111844Y13544D01*
X111881Y13431D01*
X111903Y13397D01*
X111918Y13359D01*
X111988Y13263D01*
X112051Y13162D01*
X112081Y13134D01*
X112104Y13102D01*
X112196Y13026D01*
X112283Y12944D01*
X112318Y12925D01*
X112349Y12899D01*
X112457Y12848D01*
X112561Y12791D01*
X112601Y12780D01*
X112637Y12763D01*
X112754Y12741D01*
X112869Y12711D01*
X112930Y12707D01*
X112950Y12703D01*
X112970Y12705D01*
X113030Y12701D01*
X115570Y12701D01*
X115688Y12716D01*
G37*
G36*
X178517Y201879D02*
X178517Y201879D01*
X178540Y201883D01*
X178547Y201898D01*
X178556Y201904D01*
X178554Y201914D01*
X178561Y201930D01*
X178561Y204470D01*
X178549Y204489D01*
X178546Y204511D01*
X178530Y204518D01*
X178524Y204527D01*
X178514Y204526D01*
X178499Y204533D01*
X164402Y204533D01*
X164383Y204521D01*
X164360Y204517D01*
X164353Y204502D01*
X164344Y204496D01*
X164346Y204486D01*
X164339Y204470D01*
X164339Y201930D01*
X164351Y201911D01*
X164354Y201889D01*
X164370Y201882D01*
X164376Y201873D01*
X164386Y201874D01*
X164402Y201867D01*
X178499Y201867D01*
X178517Y201879D01*
G37*
G36*
X121367Y92659D02*
X121367Y92659D01*
X121390Y92663D01*
X121397Y92678D01*
X121406Y92684D01*
X121404Y92694D01*
X121411Y92710D01*
X121411Y95250D01*
X121399Y95269D01*
X121396Y95291D01*
X121380Y95298D01*
X121374Y95307D01*
X121364Y95306D01*
X121349Y95313D01*
X112395Y95313D01*
X112376Y95301D01*
X112354Y95297D01*
X112347Y95282D01*
X112338Y95276D01*
X112339Y95266D01*
X112332Y95250D01*
X112332Y92710D01*
X112344Y92691D01*
X112348Y92669D01*
X112363Y92662D01*
X112369Y92653D01*
X112379Y92654D01*
X112395Y92647D01*
X121349Y92647D01*
X121367Y92659D01*
G37*
G36*
X146704Y163779D02*
X146704Y163779D01*
X146726Y163783D01*
X146733Y163798D01*
X146742Y163804D01*
X146741Y163814D01*
X146748Y163830D01*
X146748Y166370D01*
X146736Y166389D01*
X146732Y166411D01*
X146717Y166418D01*
X146711Y166427D01*
X146701Y166426D01*
X146685Y166433D01*
X137859Y166433D01*
X137840Y166421D01*
X137817Y166417D01*
X137810Y166402D01*
X137801Y166396D01*
X137803Y166386D01*
X137796Y166370D01*
X137796Y163830D01*
X137808Y163811D01*
X137811Y163789D01*
X137827Y163782D01*
X137833Y163773D01*
X137843Y163774D01*
X137859Y163767D01*
X146685Y163767D01*
X146704Y163779D01*
G37*
G36*
X73044Y74879D02*
X73044Y74879D01*
X73066Y74883D01*
X73073Y74898D01*
X73082Y74904D01*
X73081Y74914D01*
X73088Y74930D01*
X73088Y77470D01*
X73076Y77489D01*
X73072Y77511D01*
X73057Y77518D01*
X73051Y77527D01*
X73041Y77526D01*
X73025Y77533D01*
X64199Y77533D01*
X64180Y77521D01*
X64157Y77517D01*
X64150Y77502D01*
X64141Y77496D01*
X64143Y77486D01*
X64136Y77470D01*
X64136Y74930D01*
X64148Y74911D01*
X64151Y74889D01*
X64167Y74882D01*
X64173Y74873D01*
X64183Y74874D01*
X64199Y74867D01*
X73025Y74867D01*
X73044Y74879D01*
G37*
D10*
X15754Y181595D02*
X8636Y185154D01*
X15754Y188713D01*
X17534Y193289D02*
X10416Y193289D01*
X17534Y193289D02*
X19313Y195068D01*
X19313Y198628D01*
X17534Y200407D01*
X10416Y200407D01*
X8636Y198628D01*
X8636Y195068D01*
X10416Y193289D01*
X17534Y200407D01*
X15754Y204983D02*
X19313Y208542D01*
X8636Y208542D01*
X8636Y204983D02*
X8636Y212101D01*
D11*
X7620Y246380D03*
X245110Y8890D03*
D12*
X74054Y82055D02*
X68440Y82055D01*
X74054Y82055D02*
X74054Y70345D01*
X68440Y70345D01*
X68440Y82055D01*
X68440Y71286D02*
X74054Y71286D01*
X74054Y72227D02*
X68440Y72227D01*
X68440Y73168D02*
X74054Y73168D01*
X74054Y74109D02*
X68440Y74109D01*
X68440Y75050D02*
X74054Y75050D01*
X74054Y75991D02*
X68440Y75991D01*
X68440Y76932D02*
X74054Y76932D01*
X74054Y77873D02*
X68440Y77873D01*
X68440Y78814D02*
X74054Y78814D01*
X74054Y79755D02*
X68440Y79755D01*
X68440Y80696D02*
X74054Y80696D01*
X74054Y81637D02*
X68440Y81637D01*
X63640Y82055D02*
X58026Y82055D01*
X63640Y82055D02*
X63640Y70345D01*
X58026Y70345D01*
X58026Y82055D01*
X58026Y71286D02*
X63640Y71286D01*
X63640Y72227D02*
X58026Y72227D01*
X58026Y73168D02*
X63640Y73168D01*
X63640Y74109D02*
X58026Y74109D01*
X58026Y75050D02*
X63640Y75050D01*
X63640Y75991D02*
X58026Y75991D01*
X58026Y76932D02*
X63640Y76932D01*
X63640Y77873D02*
X58026Y77873D01*
X58026Y78814D02*
X63640Y78814D01*
X63640Y79755D02*
X58026Y79755D01*
X58026Y80696D02*
X63640Y80696D01*
X63640Y81637D02*
X58026Y81637D01*
X158229Y197345D02*
X163843Y197345D01*
X158229Y197345D02*
X158229Y209055D01*
X163843Y209055D01*
X163843Y197345D01*
X163843Y198286D02*
X158229Y198286D01*
X158229Y199227D02*
X163843Y199227D01*
X163843Y200168D02*
X158229Y200168D01*
X158229Y201109D02*
X163843Y201109D01*
X163843Y202050D02*
X158229Y202050D01*
X158229Y202991D02*
X163843Y202991D01*
X163843Y203932D02*
X158229Y203932D01*
X158229Y204873D02*
X163843Y204873D01*
X163843Y205814D02*
X158229Y205814D01*
X158229Y206755D02*
X163843Y206755D01*
X163843Y207696D02*
X158229Y207696D01*
X158229Y208637D02*
X163843Y208637D01*
X168643Y197345D02*
X174257Y197345D01*
X168643Y197345D02*
X168643Y209055D01*
X174257Y209055D01*
X174257Y197345D01*
X174257Y198286D02*
X168643Y198286D01*
X168643Y199227D02*
X174257Y199227D01*
X174257Y200168D02*
X168643Y200168D01*
X168643Y201109D02*
X174257Y201109D01*
X174257Y202050D02*
X168643Y202050D01*
X168643Y202991D02*
X174257Y202991D01*
X174257Y203932D02*
X168643Y203932D01*
X168643Y204873D02*
X174257Y204873D01*
X174257Y205814D02*
X168643Y205814D01*
X168643Y206755D02*
X174257Y206755D01*
X174257Y207696D02*
X168643Y207696D01*
X168643Y208637D02*
X174257Y208637D01*
X179057Y197345D02*
X184671Y197345D01*
X179057Y197345D02*
X179057Y209055D01*
X184671Y209055D01*
X184671Y197345D01*
X184671Y198286D02*
X179057Y198286D01*
X179057Y199227D02*
X184671Y199227D01*
X184671Y200168D02*
X179057Y200168D01*
X179057Y201109D02*
X184671Y201109D01*
X184671Y202050D02*
X179057Y202050D01*
X179057Y202991D02*
X184671Y202991D01*
X184671Y203932D02*
X179057Y203932D01*
X179057Y204873D02*
X184671Y204873D01*
X184671Y205814D02*
X179057Y205814D01*
X179057Y206755D02*
X184671Y206755D01*
X184671Y207696D02*
X179057Y207696D01*
X179057Y208637D02*
X184671Y208637D01*
X106693Y88125D02*
X101079Y88125D01*
X101079Y99835D01*
X106693Y99835D01*
X106693Y88125D01*
X106693Y89066D02*
X101079Y89066D01*
X101079Y90007D02*
X106693Y90007D01*
X106693Y90948D02*
X101079Y90948D01*
X101079Y91889D02*
X106693Y91889D01*
X106693Y92830D02*
X101079Y92830D01*
X101079Y93771D02*
X106693Y93771D01*
X106693Y94712D02*
X101079Y94712D01*
X101079Y95653D02*
X106693Y95653D01*
X106693Y96594D02*
X101079Y96594D01*
X101079Y97535D02*
X106693Y97535D01*
X106693Y98476D02*
X101079Y98476D01*
X101079Y99417D02*
X106693Y99417D01*
X111493Y88125D02*
X117107Y88125D01*
X111493Y88125D02*
X111493Y99835D01*
X117107Y99835D01*
X117107Y88125D01*
X117107Y89066D02*
X111493Y89066D01*
X111493Y90007D02*
X117107Y90007D01*
X117107Y90948D02*
X111493Y90948D01*
X111493Y91889D02*
X117107Y91889D01*
X117107Y92830D02*
X111493Y92830D01*
X111493Y93771D02*
X117107Y93771D01*
X117107Y94712D02*
X111493Y94712D01*
X111493Y95653D02*
X117107Y95653D01*
X117107Y96594D02*
X111493Y96594D01*
X111493Y97535D02*
X117107Y97535D01*
X117107Y98476D02*
X111493Y98476D01*
X111493Y99417D02*
X117107Y99417D01*
X121907Y88125D02*
X127521Y88125D01*
X121907Y88125D02*
X121907Y99835D01*
X127521Y99835D01*
X127521Y88125D01*
X127521Y89066D02*
X121907Y89066D01*
X121907Y90007D02*
X127521Y90007D01*
X127521Y90948D02*
X121907Y90948D01*
X121907Y91889D02*
X127521Y91889D01*
X127521Y92830D02*
X121907Y92830D01*
X121907Y93771D02*
X127521Y93771D01*
X127521Y94712D02*
X121907Y94712D01*
X121907Y95653D02*
X127521Y95653D01*
X127521Y96594D02*
X121907Y96594D01*
X121907Y97535D02*
X127521Y97535D01*
X127521Y98476D02*
X121907Y98476D01*
X121907Y99417D02*
X127521Y99417D01*
D13*
X190500Y12700D03*
X165100Y12700D03*
X139700Y12700D03*
X114300Y12700D03*
X88900Y12700D03*
X63500Y12700D03*
D12*
X142100Y170955D02*
X147714Y170955D01*
X147714Y159245D01*
X142100Y159245D01*
X142100Y170955D01*
X142100Y160186D02*
X147714Y160186D01*
X147714Y161127D02*
X142100Y161127D01*
X142100Y162068D02*
X147714Y162068D01*
X147714Y163009D02*
X142100Y163009D01*
X142100Y163950D02*
X147714Y163950D01*
X147714Y164891D02*
X142100Y164891D01*
X142100Y165832D02*
X147714Y165832D01*
X147714Y166773D02*
X142100Y166773D01*
X142100Y167714D02*
X147714Y167714D01*
X147714Y168655D02*
X142100Y168655D01*
X142100Y169596D02*
X147714Y169596D01*
X147714Y170537D02*
X142100Y170537D01*
X137300Y170955D02*
X131686Y170955D01*
X137300Y170955D02*
X137300Y159245D01*
X131686Y159245D01*
X131686Y170955D01*
X131686Y160186D02*
X137300Y160186D01*
X137300Y161127D02*
X131686Y161127D01*
X131686Y162068D02*
X137300Y162068D01*
X137300Y163009D02*
X131686Y163009D01*
X131686Y163950D02*
X137300Y163950D01*
X137300Y164891D02*
X131686Y164891D01*
X131686Y165832D02*
X137300Y165832D01*
X137300Y166773D02*
X131686Y166773D01*
X131686Y167714D02*
X137300Y167714D01*
X137300Y168655D02*
X131686Y168655D01*
X131686Y169596D02*
X137300Y169596D01*
X137300Y170537D02*
X131686Y170537D01*
D14*
X97790Y113030D03*
D15*
X165100Y76200D02*
X177800Y88900D01*
D14*
X177800Y88900D03*
D15*
X171450Y165100D02*
X171450Y203200D01*
X165100Y76200D02*
X150114Y76200D01*
X139700Y65786D02*
X139700Y12700D01*
X139700Y65786D02*
X150114Y76200D01*
X144907Y165100D02*
X171450Y165100D01*
X144907Y165100D02*
X144780Y165100D01*
X150114Y145796D02*
X150114Y76200D01*
X150114Y145796D02*
X145415Y150495D01*
X144780Y151130D01*
X144780Y165100D01*
X60833Y102743D02*
X60833Y76200D01*
X60833Y102743D02*
X71120Y113030D01*
X97790Y113030D01*
D14*
X145415Y150495D03*
D16*
X10160Y63500D03*
D14*
X38100Y142240D03*
X68580Y123190D03*
X101600Y175260D03*
X107950Y132080D03*
X132080Y104140D03*
X219710Y111760D03*
X123190Y119380D03*
X166370Y115570D03*
D10*
X166370Y125730D02*
X162560Y129540D01*
X162560Y143510D01*
X166370Y125730D02*
X166370Y115570D01*
X162560Y143510D02*
X189230Y143510D01*
D14*
X189230Y143510D03*
X162560Y143510D03*
X157480Y107950D03*
D10*
X157480Y123000D01*
D14*
X157480Y123000D03*
X85090Y68580D03*
D10*
X77470Y76200D01*
X71247Y76200D01*
D14*
X181610Y189230D03*
D10*
X181610Y202946D01*
X181864Y203200D01*
D14*
X161290Y189230D03*
D10*
X161036Y189484D01*
X161036Y203200D01*
D14*
X114300Y105410D03*
D10*
X114300Y93980D01*
X114300Y57150D01*
X104140Y46990D01*
X72390Y46990D01*
X63500Y38100D01*
X63500Y12700D01*
D14*
X132080Y130810D03*
D10*
X132080Y151130D01*
X134493Y153543D02*
X134493Y165100D01*
X134493Y153543D02*
X132080Y151130D01*
X132080Y130810D02*
X132080Y111760D01*
X137160Y106680D01*
X137160Y72390D01*
X102870Y38100D01*
X93980Y38100D01*
X88900Y33020D01*
X88900Y12700D01*
X91440Y91440D02*
X81280Y91440D01*
X91440Y91440D02*
X93980Y93980D01*
X103886Y93980D01*
D14*
X81280Y91440D03*
M02*
