G04 EAGLE Gerber RS-274X export*
G75*
%MOMM*%
%FSLAX34Y34*%
%LPD*%
%INSoldermask Top*%
%IPPOS*%
%AMOC8*
5,1,8,0,0,1.08239X$1,22.5*%
G01*
%ADD10C,3.429000*%
%ADD11C,0.762000*%
%ADD12C,0.225588*%
%ADD13C,0.225369*%
%ADD14C,0.225400*%
%ADD15C,0.428259*%
%ADD16C,0.226609*%
%ADD17C,2.006600*%
%ADD18C,1.127000*%
%ADD19C,1.270000*%
%ADD20C,1.627000*%


D10*
X25400Y228600D03*
X228600Y228600D03*
D11*
X245110Y8890D03*
X7620Y246380D03*
D12*
X4543Y160507D02*
X4543Y149493D01*
X4543Y160507D02*
X23557Y160507D01*
X23557Y149493D01*
X4543Y149493D01*
X4543Y151636D02*
X23557Y151636D01*
X23557Y153779D02*
X4543Y153779D01*
X4543Y155922D02*
X23557Y155922D01*
X23557Y158065D02*
X4543Y158065D01*
X4543Y160208D02*
X23557Y160208D01*
X4543Y104507D02*
X4543Y93493D01*
X4543Y104507D02*
X23557Y104507D01*
X23557Y93493D01*
X4543Y93493D01*
X4543Y95636D02*
X23557Y95636D01*
X23557Y97779D02*
X4543Y97779D01*
X4543Y99922D02*
X23557Y99922D01*
X23557Y102065D02*
X4543Y102065D01*
X4543Y104208D02*
X23557Y104208D01*
D13*
X44542Y139492D02*
X44542Y144508D01*
X57058Y144508D01*
X57058Y139492D01*
X44542Y139492D01*
X44542Y141633D02*
X57058Y141633D01*
X57058Y143774D02*
X44542Y143774D01*
X44542Y134508D02*
X44542Y129492D01*
X44542Y134508D02*
X57058Y134508D01*
X57058Y129492D01*
X44542Y129492D01*
X44542Y131633D02*
X57058Y131633D01*
X57058Y133774D02*
X44542Y133774D01*
X44542Y124508D02*
X44542Y119492D01*
X44542Y124508D02*
X57058Y124508D01*
X57058Y119492D01*
X44542Y119492D01*
X44542Y121633D02*
X57058Y121633D01*
X57058Y123774D02*
X44542Y123774D01*
X44542Y114508D02*
X44542Y109492D01*
X44542Y114508D02*
X57058Y114508D01*
X57058Y109492D01*
X44542Y109492D01*
X44542Y111633D02*
X57058Y111633D01*
X57058Y113774D02*
X44542Y113774D01*
D12*
X249457Y104507D02*
X249457Y93493D01*
X230443Y93493D01*
X230443Y104507D01*
X249457Y104507D01*
X249457Y95636D02*
X230443Y95636D01*
X230443Y97779D02*
X249457Y97779D01*
X249457Y99922D02*
X230443Y99922D01*
X230443Y102065D02*
X249457Y102065D01*
X249457Y104208D02*
X230443Y104208D01*
X249457Y149493D02*
X249457Y160507D01*
X249457Y149493D02*
X230443Y149493D01*
X230443Y160507D01*
X249457Y160507D01*
X249457Y151636D02*
X230443Y151636D01*
X230443Y153779D02*
X249457Y153779D01*
X249457Y155922D02*
X230443Y155922D01*
X230443Y158065D02*
X249457Y158065D01*
X249457Y160208D02*
X230443Y160208D01*
D13*
X209458Y114508D02*
X209458Y109492D01*
X196942Y109492D01*
X196942Y114508D01*
X209458Y114508D01*
X209458Y111633D02*
X196942Y111633D01*
X196942Y113774D02*
X209458Y113774D01*
X209458Y119492D02*
X209458Y124508D01*
X209458Y119492D02*
X196942Y119492D01*
X196942Y124508D01*
X209458Y124508D01*
X209458Y121633D02*
X196942Y121633D01*
X196942Y123774D02*
X209458Y123774D01*
X209458Y129492D02*
X209458Y134508D01*
X209458Y129492D02*
X196942Y129492D01*
X196942Y134508D01*
X209458Y134508D01*
X209458Y131633D02*
X196942Y131633D01*
X196942Y133774D02*
X209458Y133774D01*
X209458Y139492D02*
X209458Y144508D01*
X209458Y139492D02*
X196942Y139492D01*
X196942Y144508D01*
X209458Y144508D01*
X209458Y141633D02*
X196942Y141633D01*
X196942Y143774D02*
X209458Y143774D01*
D14*
X62548Y64072D02*
X52532Y64072D01*
X52532Y73088D01*
X62548Y73088D01*
X62548Y64072D01*
X62548Y66213D02*
X52532Y66213D01*
X52532Y68354D02*
X62548Y68354D01*
X62548Y70495D02*
X52532Y70495D01*
X52532Y72636D02*
X62548Y72636D01*
X69532Y64072D02*
X79548Y64072D01*
X69532Y64072D02*
X69532Y73088D01*
X79548Y73088D01*
X79548Y64072D01*
X79548Y66213D02*
X69532Y66213D01*
X69532Y68354D02*
X79548Y68354D01*
X79548Y70495D02*
X69532Y70495D01*
X69532Y72636D02*
X79548Y72636D01*
D15*
X27744Y72074D02*
X27744Y65086D01*
X20756Y65086D01*
X20756Y72074D01*
X27744Y72074D01*
X27744Y69155D02*
X20756Y69155D01*
X45284Y72074D02*
X45284Y65086D01*
X38296Y65086D01*
X38296Y72074D01*
X45284Y72074D01*
X45284Y69155D02*
X38296Y69155D01*
D14*
X184848Y156672D02*
X184848Y166688D01*
X184848Y156672D02*
X175832Y156672D01*
X175832Y166688D01*
X184848Y166688D01*
X184848Y158813D02*
X175832Y158813D01*
X175832Y160954D02*
X184848Y160954D01*
X184848Y163095D02*
X175832Y163095D01*
X175832Y165236D02*
X184848Y165236D01*
X184848Y173672D02*
X184848Y183688D01*
X184848Y173672D02*
X175832Y173672D01*
X175832Y183688D01*
X184848Y183688D01*
X184848Y175813D02*
X175832Y175813D01*
X175832Y177954D02*
X184848Y177954D01*
X184848Y180095D02*
X175832Y180095D01*
X175832Y182236D02*
X184848Y182236D01*
X167068Y166688D02*
X167068Y156672D01*
X158052Y156672D01*
X158052Y166688D01*
X167068Y166688D01*
X167068Y158813D02*
X158052Y158813D01*
X158052Y160954D02*
X167068Y160954D01*
X167068Y163095D02*
X158052Y163095D01*
X158052Y165236D02*
X167068Y165236D01*
X167068Y173672D02*
X167068Y183688D01*
X167068Y173672D02*
X158052Y173672D01*
X158052Y183688D01*
X167068Y183688D01*
X167068Y175813D02*
X158052Y175813D01*
X158052Y177954D02*
X167068Y177954D01*
X167068Y180095D02*
X158052Y180095D01*
X158052Y182236D02*
X167068Y182236D01*
D10*
X228600Y25400D03*
X25400Y25400D03*
D16*
X137498Y137498D02*
X140502Y137498D01*
X137498Y137498D02*
X137498Y140502D01*
X140502Y140502D01*
X140502Y137498D01*
X140502Y139651D02*
X137498Y139651D01*
X137498Y129498D02*
X140502Y129498D01*
X137498Y129498D02*
X137498Y132502D01*
X140502Y132502D01*
X140502Y129498D01*
X140502Y131651D02*
X137498Y131651D01*
X137498Y121498D02*
X140502Y121498D01*
X137498Y121498D02*
X137498Y124502D01*
X140502Y124502D01*
X140502Y121498D01*
X140502Y123651D02*
X137498Y123651D01*
X137498Y113498D02*
X140502Y113498D01*
X137498Y113498D02*
X137498Y116502D01*
X140502Y116502D01*
X140502Y113498D01*
X140502Y115651D02*
X137498Y115651D01*
X116502Y113498D02*
X113498Y113498D01*
X113498Y116502D01*
X116502Y116502D01*
X116502Y113498D01*
X116502Y115651D02*
X113498Y115651D01*
X113498Y121498D02*
X116502Y121498D01*
X113498Y121498D02*
X113498Y124502D01*
X116502Y124502D01*
X116502Y121498D01*
X116502Y123651D02*
X113498Y123651D01*
X113498Y129498D02*
X116502Y129498D01*
X113498Y129498D02*
X113498Y132502D01*
X116502Y132502D01*
X116502Y129498D01*
X116502Y131651D02*
X113498Y131651D01*
X113498Y137498D02*
X116502Y137498D01*
X113498Y137498D02*
X113498Y140502D01*
X116502Y140502D01*
X116502Y137498D01*
X116502Y139651D02*
X113498Y139651D01*
D14*
X102408Y127698D02*
X92392Y127698D01*
X102408Y127698D02*
X102408Y118682D01*
X92392Y118682D01*
X92392Y127698D01*
X92392Y120823D02*
X102408Y120823D01*
X102408Y122964D02*
X92392Y122964D01*
X92392Y125105D02*
X102408Y125105D01*
X102408Y127246D02*
X92392Y127246D01*
X85408Y127698D02*
X75392Y127698D01*
X85408Y127698D02*
X85408Y118682D01*
X75392Y118682D01*
X75392Y127698D01*
X75392Y120823D02*
X85408Y120823D01*
X85408Y122964D02*
X75392Y122964D01*
X75392Y125105D02*
X85408Y125105D01*
X85408Y127246D02*
X75392Y127246D01*
X106108Y139282D02*
X106108Y149298D01*
X106108Y139282D02*
X97092Y139282D01*
X97092Y149298D01*
X106108Y149298D01*
X106108Y141423D02*
X97092Y141423D01*
X97092Y143564D02*
X106108Y143564D01*
X106108Y145705D02*
X97092Y145705D01*
X97092Y147846D02*
X106108Y147846D01*
X106108Y156282D02*
X106108Y166298D01*
X106108Y156282D02*
X97092Y156282D01*
X97092Y166298D01*
X106108Y166298D01*
X106108Y158423D02*
X97092Y158423D01*
X97092Y160564D02*
X106108Y160564D01*
X106108Y162705D02*
X97092Y162705D01*
X97092Y164846D02*
X106108Y164846D01*
D17*
X190500Y12700D03*
X165100Y12700D03*
X139700Y12700D03*
X114300Y12700D03*
X88900Y12700D03*
X63500Y12700D03*
D14*
X75392Y97092D02*
X85408Y97092D01*
X75392Y97092D02*
X75392Y106108D01*
X85408Y106108D01*
X85408Y97092D01*
X85408Y99233D02*
X75392Y99233D01*
X75392Y101374D02*
X85408Y101374D01*
X85408Y103515D02*
X75392Y103515D01*
X75392Y105656D02*
X85408Y105656D01*
X92392Y97092D02*
X102408Y97092D01*
X92392Y97092D02*
X92392Y106108D01*
X102408Y106108D01*
X102408Y97092D01*
X102408Y99233D02*
X92392Y99233D01*
X92392Y101374D02*
X102408Y101374D01*
X102408Y103515D02*
X92392Y103515D01*
X92392Y105656D02*
X102408Y105656D01*
D10*
X284480Y228600D03*
X487680Y228600D03*
D11*
X504190Y8890D03*
X266700Y246380D03*
D12*
X263623Y160507D02*
X263623Y149493D01*
X263623Y160507D02*
X282637Y160507D01*
X282637Y149493D01*
X263623Y149493D01*
X263623Y151636D02*
X282637Y151636D01*
X282637Y153779D02*
X263623Y153779D01*
X263623Y155922D02*
X282637Y155922D01*
X282637Y158065D02*
X263623Y158065D01*
X263623Y160208D02*
X282637Y160208D01*
X263623Y104507D02*
X263623Y93493D01*
X263623Y104507D02*
X282637Y104507D01*
X282637Y93493D01*
X263623Y93493D01*
X263623Y95636D02*
X282637Y95636D01*
X282637Y97779D02*
X263623Y97779D01*
X263623Y99922D02*
X282637Y99922D01*
X282637Y102065D02*
X263623Y102065D01*
X263623Y104208D02*
X282637Y104208D01*
D13*
X303622Y139492D02*
X303622Y144508D01*
X316138Y144508D01*
X316138Y139492D01*
X303622Y139492D01*
X303622Y141633D02*
X316138Y141633D01*
X316138Y143774D02*
X303622Y143774D01*
X303622Y134508D02*
X303622Y129492D01*
X303622Y134508D02*
X316138Y134508D01*
X316138Y129492D01*
X303622Y129492D01*
X303622Y131633D02*
X316138Y131633D01*
X316138Y133774D02*
X303622Y133774D01*
X303622Y124508D02*
X303622Y119492D01*
X303622Y124508D02*
X316138Y124508D01*
X316138Y119492D01*
X303622Y119492D01*
X303622Y121633D02*
X316138Y121633D01*
X316138Y123774D02*
X303622Y123774D01*
X303622Y114508D02*
X303622Y109492D01*
X303622Y114508D02*
X316138Y114508D01*
X316138Y109492D01*
X303622Y109492D01*
X303622Y111633D02*
X316138Y111633D01*
X316138Y113774D02*
X303622Y113774D01*
D12*
X508537Y104507D02*
X508537Y93493D01*
X489523Y93493D01*
X489523Y104507D01*
X508537Y104507D01*
X508537Y95636D02*
X489523Y95636D01*
X489523Y97779D02*
X508537Y97779D01*
X508537Y99922D02*
X489523Y99922D01*
X489523Y102065D02*
X508537Y102065D01*
X508537Y104208D02*
X489523Y104208D01*
X508537Y149493D02*
X508537Y160507D01*
X508537Y149493D02*
X489523Y149493D01*
X489523Y160507D01*
X508537Y160507D01*
X508537Y151636D02*
X489523Y151636D01*
X489523Y153779D02*
X508537Y153779D01*
X508537Y155922D02*
X489523Y155922D01*
X489523Y158065D02*
X508537Y158065D01*
X508537Y160208D02*
X489523Y160208D01*
D13*
X468538Y114508D02*
X468538Y109492D01*
X456022Y109492D01*
X456022Y114508D01*
X468538Y114508D01*
X468538Y111633D02*
X456022Y111633D01*
X456022Y113774D02*
X468538Y113774D01*
X468538Y119492D02*
X468538Y124508D01*
X468538Y119492D02*
X456022Y119492D01*
X456022Y124508D01*
X468538Y124508D01*
X468538Y121633D02*
X456022Y121633D01*
X456022Y123774D02*
X468538Y123774D01*
X468538Y129492D02*
X468538Y134508D01*
X468538Y129492D02*
X456022Y129492D01*
X456022Y134508D01*
X468538Y134508D01*
X468538Y131633D02*
X456022Y131633D01*
X456022Y133774D02*
X468538Y133774D01*
X468538Y139492D02*
X468538Y144508D01*
X468538Y139492D02*
X456022Y139492D01*
X456022Y144508D01*
X468538Y144508D01*
X468538Y141633D02*
X456022Y141633D01*
X456022Y143774D02*
X468538Y143774D01*
D14*
X321628Y64072D02*
X311612Y64072D01*
X311612Y73088D01*
X321628Y73088D01*
X321628Y64072D01*
X321628Y66213D02*
X311612Y66213D01*
X311612Y68354D02*
X321628Y68354D01*
X321628Y70495D02*
X311612Y70495D01*
X311612Y72636D02*
X321628Y72636D01*
X328612Y64072D02*
X338628Y64072D01*
X328612Y64072D02*
X328612Y73088D01*
X338628Y73088D01*
X338628Y64072D01*
X338628Y66213D02*
X328612Y66213D01*
X328612Y68354D02*
X338628Y68354D01*
X338628Y70495D02*
X328612Y70495D01*
X328612Y72636D02*
X338628Y72636D01*
D15*
X286824Y72074D02*
X286824Y65086D01*
X279836Y65086D01*
X279836Y72074D01*
X286824Y72074D01*
X286824Y69155D02*
X279836Y69155D01*
X304364Y72074D02*
X304364Y65086D01*
X297376Y65086D01*
X297376Y72074D01*
X304364Y72074D01*
X304364Y69155D02*
X297376Y69155D01*
D14*
X443928Y156672D02*
X443928Y166688D01*
X443928Y156672D02*
X434912Y156672D01*
X434912Y166688D01*
X443928Y166688D01*
X443928Y158813D02*
X434912Y158813D01*
X434912Y160954D02*
X443928Y160954D01*
X443928Y163095D02*
X434912Y163095D01*
X434912Y165236D02*
X443928Y165236D01*
X443928Y173672D02*
X443928Y183688D01*
X443928Y173672D02*
X434912Y173672D01*
X434912Y183688D01*
X443928Y183688D01*
X443928Y175813D02*
X434912Y175813D01*
X434912Y177954D02*
X443928Y177954D01*
X443928Y180095D02*
X434912Y180095D01*
X434912Y182236D02*
X443928Y182236D01*
X426148Y166688D02*
X426148Y156672D01*
X417132Y156672D01*
X417132Y166688D01*
X426148Y166688D01*
X426148Y158813D02*
X417132Y158813D01*
X417132Y160954D02*
X426148Y160954D01*
X426148Y163095D02*
X417132Y163095D01*
X417132Y165236D02*
X426148Y165236D01*
X426148Y173672D02*
X426148Y183688D01*
X426148Y173672D02*
X417132Y173672D01*
X417132Y183688D01*
X426148Y183688D01*
X426148Y175813D02*
X417132Y175813D01*
X417132Y177954D02*
X426148Y177954D01*
X426148Y180095D02*
X417132Y180095D01*
X417132Y182236D02*
X426148Y182236D01*
D10*
X487680Y25400D03*
X284480Y25400D03*
D16*
X396578Y137498D02*
X399582Y137498D01*
X396578Y137498D02*
X396578Y140502D01*
X399582Y140502D01*
X399582Y137498D01*
X399582Y139651D02*
X396578Y139651D01*
X396578Y129498D02*
X399582Y129498D01*
X396578Y129498D02*
X396578Y132502D01*
X399582Y132502D01*
X399582Y129498D01*
X399582Y131651D02*
X396578Y131651D01*
X396578Y121498D02*
X399582Y121498D01*
X396578Y121498D02*
X396578Y124502D01*
X399582Y124502D01*
X399582Y121498D01*
X399582Y123651D02*
X396578Y123651D01*
X396578Y113498D02*
X399582Y113498D01*
X396578Y113498D02*
X396578Y116502D01*
X399582Y116502D01*
X399582Y113498D01*
X399582Y115651D02*
X396578Y115651D01*
X375582Y113498D02*
X372578Y113498D01*
X372578Y116502D01*
X375582Y116502D01*
X375582Y113498D01*
X375582Y115651D02*
X372578Y115651D01*
X372578Y121498D02*
X375582Y121498D01*
X372578Y121498D02*
X372578Y124502D01*
X375582Y124502D01*
X375582Y121498D01*
X375582Y123651D02*
X372578Y123651D01*
X372578Y129498D02*
X375582Y129498D01*
X372578Y129498D02*
X372578Y132502D01*
X375582Y132502D01*
X375582Y129498D01*
X375582Y131651D02*
X372578Y131651D01*
X372578Y137498D02*
X375582Y137498D01*
X372578Y137498D02*
X372578Y140502D01*
X375582Y140502D01*
X375582Y137498D01*
X375582Y139651D02*
X372578Y139651D01*
D14*
X361488Y127698D02*
X351472Y127698D01*
X361488Y127698D02*
X361488Y118682D01*
X351472Y118682D01*
X351472Y127698D01*
X351472Y120823D02*
X361488Y120823D01*
X361488Y122964D02*
X351472Y122964D01*
X351472Y125105D02*
X361488Y125105D01*
X361488Y127246D02*
X351472Y127246D01*
X344488Y127698D02*
X334472Y127698D01*
X344488Y127698D02*
X344488Y118682D01*
X334472Y118682D01*
X334472Y127698D01*
X334472Y120823D02*
X344488Y120823D01*
X344488Y122964D02*
X334472Y122964D01*
X334472Y125105D02*
X344488Y125105D01*
X344488Y127246D02*
X334472Y127246D01*
X365188Y139282D02*
X365188Y149298D01*
X365188Y139282D02*
X356172Y139282D01*
X356172Y149298D01*
X365188Y149298D01*
X365188Y141423D02*
X356172Y141423D01*
X356172Y143564D02*
X365188Y143564D01*
X365188Y145705D02*
X356172Y145705D01*
X356172Y147846D02*
X365188Y147846D01*
X365188Y156282D02*
X365188Y166298D01*
X365188Y156282D02*
X356172Y156282D01*
X356172Y166298D01*
X365188Y166298D01*
X365188Y158423D02*
X356172Y158423D01*
X356172Y160564D02*
X365188Y160564D01*
X365188Y162705D02*
X356172Y162705D01*
X356172Y164846D02*
X365188Y164846D01*
D17*
X449580Y12700D03*
X424180Y12700D03*
X398780Y12700D03*
X373380Y12700D03*
X347980Y12700D03*
X322580Y12700D03*
D14*
X334472Y97092D02*
X344488Y97092D01*
X334472Y97092D02*
X334472Y106108D01*
X344488Y106108D01*
X344488Y97092D01*
X344488Y99233D02*
X334472Y99233D01*
X334472Y101374D02*
X344488Y101374D01*
X344488Y103515D02*
X334472Y103515D01*
X334472Y105656D02*
X344488Y105656D01*
X351472Y97092D02*
X361488Y97092D01*
X351472Y97092D02*
X351472Y106108D01*
X361488Y106108D01*
X361488Y97092D01*
X361488Y99233D02*
X351472Y99233D01*
X351472Y101374D02*
X361488Y101374D01*
X361488Y103515D02*
X351472Y103515D01*
X351472Y105656D02*
X361488Y105656D01*
D10*
X543560Y228600D03*
X746760Y228600D03*
D11*
X763270Y8890D03*
X525780Y246380D03*
D12*
X522703Y160507D02*
X522703Y149493D01*
X522703Y160507D02*
X541717Y160507D01*
X541717Y149493D01*
X522703Y149493D01*
X522703Y151636D02*
X541717Y151636D01*
X541717Y153779D02*
X522703Y153779D01*
X522703Y155922D02*
X541717Y155922D01*
X541717Y158065D02*
X522703Y158065D01*
X522703Y160208D02*
X541717Y160208D01*
X522703Y104507D02*
X522703Y93493D01*
X522703Y104507D02*
X541717Y104507D01*
X541717Y93493D01*
X522703Y93493D01*
X522703Y95636D02*
X541717Y95636D01*
X541717Y97779D02*
X522703Y97779D01*
X522703Y99922D02*
X541717Y99922D01*
X541717Y102065D02*
X522703Y102065D01*
X522703Y104208D02*
X541717Y104208D01*
D13*
X562702Y139492D02*
X562702Y144508D01*
X575218Y144508D01*
X575218Y139492D01*
X562702Y139492D01*
X562702Y141633D02*
X575218Y141633D01*
X575218Y143774D02*
X562702Y143774D01*
X562702Y134508D02*
X562702Y129492D01*
X562702Y134508D02*
X575218Y134508D01*
X575218Y129492D01*
X562702Y129492D01*
X562702Y131633D02*
X575218Y131633D01*
X575218Y133774D02*
X562702Y133774D01*
X562702Y124508D02*
X562702Y119492D01*
X562702Y124508D02*
X575218Y124508D01*
X575218Y119492D01*
X562702Y119492D01*
X562702Y121633D02*
X575218Y121633D01*
X575218Y123774D02*
X562702Y123774D01*
X562702Y114508D02*
X562702Y109492D01*
X562702Y114508D02*
X575218Y114508D01*
X575218Y109492D01*
X562702Y109492D01*
X562702Y111633D02*
X575218Y111633D01*
X575218Y113774D02*
X562702Y113774D01*
D12*
X767617Y104507D02*
X767617Y93493D01*
X748603Y93493D01*
X748603Y104507D01*
X767617Y104507D01*
X767617Y95636D02*
X748603Y95636D01*
X748603Y97779D02*
X767617Y97779D01*
X767617Y99922D02*
X748603Y99922D01*
X748603Y102065D02*
X767617Y102065D01*
X767617Y104208D02*
X748603Y104208D01*
X767617Y149493D02*
X767617Y160507D01*
X767617Y149493D02*
X748603Y149493D01*
X748603Y160507D01*
X767617Y160507D01*
X767617Y151636D02*
X748603Y151636D01*
X748603Y153779D02*
X767617Y153779D01*
X767617Y155922D02*
X748603Y155922D01*
X748603Y158065D02*
X767617Y158065D01*
X767617Y160208D02*
X748603Y160208D01*
D13*
X727618Y114508D02*
X727618Y109492D01*
X715102Y109492D01*
X715102Y114508D01*
X727618Y114508D01*
X727618Y111633D02*
X715102Y111633D01*
X715102Y113774D02*
X727618Y113774D01*
X727618Y119492D02*
X727618Y124508D01*
X727618Y119492D02*
X715102Y119492D01*
X715102Y124508D01*
X727618Y124508D01*
X727618Y121633D02*
X715102Y121633D01*
X715102Y123774D02*
X727618Y123774D01*
X727618Y129492D02*
X727618Y134508D01*
X727618Y129492D02*
X715102Y129492D01*
X715102Y134508D01*
X727618Y134508D01*
X727618Y131633D02*
X715102Y131633D01*
X715102Y133774D02*
X727618Y133774D01*
X727618Y139492D02*
X727618Y144508D01*
X727618Y139492D02*
X715102Y139492D01*
X715102Y144508D01*
X727618Y144508D01*
X727618Y141633D02*
X715102Y141633D01*
X715102Y143774D02*
X727618Y143774D01*
D14*
X580708Y64072D02*
X570692Y64072D01*
X570692Y73088D01*
X580708Y73088D01*
X580708Y64072D01*
X580708Y66213D02*
X570692Y66213D01*
X570692Y68354D02*
X580708Y68354D01*
X580708Y70495D02*
X570692Y70495D01*
X570692Y72636D02*
X580708Y72636D01*
X587692Y64072D02*
X597708Y64072D01*
X587692Y64072D02*
X587692Y73088D01*
X597708Y73088D01*
X597708Y64072D01*
X597708Y66213D02*
X587692Y66213D01*
X587692Y68354D02*
X597708Y68354D01*
X597708Y70495D02*
X587692Y70495D01*
X587692Y72636D02*
X597708Y72636D01*
D15*
X545904Y72074D02*
X545904Y65086D01*
X538916Y65086D01*
X538916Y72074D01*
X545904Y72074D01*
X545904Y69155D02*
X538916Y69155D01*
X563444Y72074D02*
X563444Y65086D01*
X556456Y65086D01*
X556456Y72074D01*
X563444Y72074D01*
X563444Y69155D02*
X556456Y69155D01*
D14*
X703008Y156672D02*
X703008Y166688D01*
X703008Y156672D02*
X693992Y156672D01*
X693992Y166688D01*
X703008Y166688D01*
X703008Y158813D02*
X693992Y158813D01*
X693992Y160954D02*
X703008Y160954D01*
X703008Y163095D02*
X693992Y163095D01*
X693992Y165236D02*
X703008Y165236D01*
X703008Y173672D02*
X703008Y183688D01*
X703008Y173672D02*
X693992Y173672D01*
X693992Y183688D01*
X703008Y183688D01*
X703008Y175813D02*
X693992Y175813D01*
X693992Y177954D02*
X703008Y177954D01*
X703008Y180095D02*
X693992Y180095D01*
X693992Y182236D02*
X703008Y182236D01*
X685228Y166688D02*
X685228Y156672D01*
X676212Y156672D01*
X676212Y166688D01*
X685228Y166688D01*
X685228Y158813D02*
X676212Y158813D01*
X676212Y160954D02*
X685228Y160954D01*
X685228Y163095D02*
X676212Y163095D01*
X676212Y165236D02*
X685228Y165236D01*
X685228Y173672D02*
X685228Y183688D01*
X685228Y173672D02*
X676212Y173672D01*
X676212Y183688D01*
X685228Y183688D01*
X685228Y175813D02*
X676212Y175813D01*
X676212Y177954D02*
X685228Y177954D01*
X685228Y180095D02*
X676212Y180095D01*
X676212Y182236D02*
X685228Y182236D01*
D10*
X746760Y25400D03*
X543560Y25400D03*
D16*
X655658Y137498D02*
X658662Y137498D01*
X655658Y137498D02*
X655658Y140502D01*
X658662Y140502D01*
X658662Y137498D01*
X658662Y139651D02*
X655658Y139651D01*
X655658Y129498D02*
X658662Y129498D01*
X655658Y129498D02*
X655658Y132502D01*
X658662Y132502D01*
X658662Y129498D01*
X658662Y131651D02*
X655658Y131651D01*
X655658Y121498D02*
X658662Y121498D01*
X655658Y121498D02*
X655658Y124502D01*
X658662Y124502D01*
X658662Y121498D01*
X658662Y123651D02*
X655658Y123651D01*
X655658Y113498D02*
X658662Y113498D01*
X655658Y113498D02*
X655658Y116502D01*
X658662Y116502D01*
X658662Y113498D01*
X658662Y115651D02*
X655658Y115651D01*
X634662Y113498D02*
X631658Y113498D01*
X631658Y116502D01*
X634662Y116502D01*
X634662Y113498D01*
X634662Y115651D02*
X631658Y115651D01*
X631658Y121498D02*
X634662Y121498D01*
X631658Y121498D02*
X631658Y124502D01*
X634662Y124502D01*
X634662Y121498D01*
X634662Y123651D02*
X631658Y123651D01*
X631658Y129498D02*
X634662Y129498D01*
X631658Y129498D02*
X631658Y132502D01*
X634662Y132502D01*
X634662Y129498D01*
X634662Y131651D02*
X631658Y131651D01*
X631658Y137498D02*
X634662Y137498D01*
X631658Y137498D02*
X631658Y140502D01*
X634662Y140502D01*
X634662Y137498D01*
X634662Y139651D02*
X631658Y139651D01*
D14*
X620568Y127698D02*
X610552Y127698D01*
X620568Y127698D02*
X620568Y118682D01*
X610552Y118682D01*
X610552Y127698D01*
X610552Y120823D02*
X620568Y120823D01*
X620568Y122964D02*
X610552Y122964D01*
X610552Y125105D02*
X620568Y125105D01*
X620568Y127246D02*
X610552Y127246D01*
X603568Y127698D02*
X593552Y127698D01*
X603568Y127698D02*
X603568Y118682D01*
X593552Y118682D01*
X593552Y127698D01*
X593552Y120823D02*
X603568Y120823D01*
X603568Y122964D02*
X593552Y122964D01*
X593552Y125105D02*
X603568Y125105D01*
X603568Y127246D02*
X593552Y127246D01*
X624268Y139282D02*
X624268Y149298D01*
X624268Y139282D02*
X615252Y139282D01*
X615252Y149298D01*
X624268Y149298D01*
X624268Y141423D02*
X615252Y141423D01*
X615252Y143564D02*
X624268Y143564D01*
X624268Y145705D02*
X615252Y145705D01*
X615252Y147846D02*
X624268Y147846D01*
X624268Y156282D02*
X624268Y166298D01*
X624268Y156282D02*
X615252Y156282D01*
X615252Y166298D01*
X624268Y166298D01*
X624268Y158423D02*
X615252Y158423D01*
X615252Y160564D02*
X624268Y160564D01*
X624268Y162705D02*
X615252Y162705D01*
X615252Y164846D02*
X624268Y164846D01*
D17*
X708660Y12700D03*
X683260Y12700D03*
X657860Y12700D03*
X632460Y12700D03*
X607060Y12700D03*
X581660Y12700D03*
D14*
X593552Y97092D02*
X603568Y97092D01*
X593552Y97092D02*
X593552Y106108D01*
X603568Y106108D01*
X603568Y97092D01*
X603568Y99233D02*
X593552Y99233D01*
X593552Y101374D02*
X603568Y101374D01*
X603568Y103515D02*
X593552Y103515D01*
X593552Y105656D02*
X603568Y105656D01*
X610552Y97092D02*
X620568Y97092D01*
X610552Y97092D02*
X610552Y106108D01*
X620568Y106108D01*
X620568Y97092D01*
X620568Y99233D02*
X610552Y99233D01*
X610552Y101374D02*
X620568Y101374D01*
X620568Y103515D02*
X610552Y103515D01*
X610552Y105656D02*
X620568Y105656D01*
D10*
X802640Y228600D03*
X1005840Y228600D03*
D11*
X1022350Y8890D03*
X784860Y246380D03*
D12*
X781783Y160507D02*
X781783Y149493D01*
X781783Y160507D02*
X800797Y160507D01*
X800797Y149493D01*
X781783Y149493D01*
X781783Y151636D02*
X800797Y151636D01*
X800797Y153779D02*
X781783Y153779D01*
X781783Y155922D02*
X800797Y155922D01*
X800797Y158065D02*
X781783Y158065D01*
X781783Y160208D02*
X800797Y160208D01*
X781783Y104507D02*
X781783Y93493D01*
X781783Y104507D02*
X800797Y104507D01*
X800797Y93493D01*
X781783Y93493D01*
X781783Y95636D02*
X800797Y95636D01*
X800797Y97779D02*
X781783Y97779D01*
X781783Y99922D02*
X800797Y99922D01*
X800797Y102065D02*
X781783Y102065D01*
X781783Y104208D02*
X800797Y104208D01*
D13*
X821782Y139492D02*
X821782Y144508D01*
X834298Y144508D01*
X834298Y139492D01*
X821782Y139492D01*
X821782Y141633D02*
X834298Y141633D01*
X834298Y143774D02*
X821782Y143774D01*
X821782Y134508D02*
X821782Y129492D01*
X821782Y134508D02*
X834298Y134508D01*
X834298Y129492D01*
X821782Y129492D01*
X821782Y131633D02*
X834298Y131633D01*
X834298Y133774D02*
X821782Y133774D01*
X821782Y124508D02*
X821782Y119492D01*
X821782Y124508D02*
X834298Y124508D01*
X834298Y119492D01*
X821782Y119492D01*
X821782Y121633D02*
X834298Y121633D01*
X834298Y123774D02*
X821782Y123774D01*
X821782Y114508D02*
X821782Y109492D01*
X821782Y114508D02*
X834298Y114508D01*
X834298Y109492D01*
X821782Y109492D01*
X821782Y111633D02*
X834298Y111633D01*
X834298Y113774D02*
X821782Y113774D01*
D12*
X1026697Y104507D02*
X1026697Y93493D01*
X1007683Y93493D01*
X1007683Y104507D01*
X1026697Y104507D01*
X1026697Y95636D02*
X1007683Y95636D01*
X1007683Y97779D02*
X1026697Y97779D01*
X1026697Y99922D02*
X1007683Y99922D01*
X1007683Y102065D02*
X1026697Y102065D01*
X1026697Y104208D02*
X1007683Y104208D01*
X1026697Y149493D02*
X1026697Y160507D01*
X1026697Y149493D02*
X1007683Y149493D01*
X1007683Y160507D01*
X1026697Y160507D01*
X1026697Y151636D02*
X1007683Y151636D01*
X1007683Y153779D02*
X1026697Y153779D01*
X1026697Y155922D02*
X1007683Y155922D01*
X1007683Y158065D02*
X1026697Y158065D01*
X1026697Y160208D02*
X1007683Y160208D01*
D13*
X986698Y114508D02*
X986698Y109492D01*
X974182Y109492D01*
X974182Y114508D01*
X986698Y114508D01*
X986698Y111633D02*
X974182Y111633D01*
X974182Y113774D02*
X986698Y113774D01*
X986698Y119492D02*
X986698Y124508D01*
X986698Y119492D02*
X974182Y119492D01*
X974182Y124508D01*
X986698Y124508D01*
X986698Y121633D02*
X974182Y121633D01*
X974182Y123774D02*
X986698Y123774D01*
X986698Y129492D02*
X986698Y134508D01*
X986698Y129492D02*
X974182Y129492D01*
X974182Y134508D01*
X986698Y134508D01*
X986698Y131633D02*
X974182Y131633D01*
X974182Y133774D02*
X986698Y133774D01*
X986698Y139492D02*
X986698Y144508D01*
X986698Y139492D02*
X974182Y139492D01*
X974182Y144508D01*
X986698Y144508D01*
X986698Y141633D02*
X974182Y141633D01*
X974182Y143774D02*
X986698Y143774D01*
D14*
X839788Y64072D02*
X829772Y64072D01*
X829772Y73088D01*
X839788Y73088D01*
X839788Y64072D01*
X839788Y66213D02*
X829772Y66213D01*
X829772Y68354D02*
X839788Y68354D01*
X839788Y70495D02*
X829772Y70495D01*
X829772Y72636D02*
X839788Y72636D01*
X846772Y64072D02*
X856788Y64072D01*
X846772Y64072D02*
X846772Y73088D01*
X856788Y73088D01*
X856788Y64072D01*
X856788Y66213D02*
X846772Y66213D01*
X846772Y68354D02*
X856788Y68354D01*
X856788Y70495D02*
X846772Y70495D01*
X846772Y72636D02*
X856788Y72636D01*
D15*
X804984Y72074D02*
X804984Y65086D01*
X797996Y65086D01*
X797996Y72074D01*
X804984Y72074D01*
X804984Y69155D02*
X797996Y69155D01*
X822524Y72074D02*
X822524Y65086D01*
X815536Y65086D01*
X815536Y72074D01*
X822524Y72074D01*
X822524Y69155D02*
X815536Y69155D01*
D14*
X962088Y156672D02*
X962088Y166688D01*
X962088Y156672D02*
X953072Y156672D01*
X953072Y166688D01*
X962088Y166688D01*
X962088Y158813D02*
X953072Y158813D01*
X953072Y160954D02*
X962088Y160954D01*
X962088Y163095D02*
X953072Y163095D01*
X953072Y165236D02*
X962088Y165236D01*
X962088Y173672D02*
X962088Y183688D01*
X962088Y173672D02*
X953072Y173672D01*
X953072Y183688D01*
X962088Y183688D01*
X962088Y175813D02*
X953072Y175813D01*
X953072Y177954D02*
X962088Y177954D01*
X962088Y180095D02*
X953072Y180095D01*
X953072Y182236D02*
X962088Y182236D01*
X944308Y166688D02*
X944308Y156672D01*
X935292Y156672D01*
X935292Y166688D01*
X944308Y166688D01*
X944308Y158813D02*
X935292Y158813D01*
X935292Y160954D02*
X944308Y160954D01*
X944308Y163095D02*
X935292Y163095D01*
X935292Y165236D02*
X944308Y165236D01*
X944308Y173672D02*
X944308Y183688D01*
X944308Y173672D02*
X935292Y173672D01*
X935292Y183688D01*
X944308Y183688D01*
X944308Y175813D02*
X935292Y175813D01*
X935292Y177954D02*
X944308Y177954D01*
X944308Y180095D02*
X935292Y180095D01*
X935292Y182236D02*
X944308Y182236D01*
D10*
X1005840Y25400D03*
X802640Y25400D03*
D16*
X914738Y137498D02*
X917742Y137498D01*
X914738Y137498D02*
X914738Y140502D01*
X917742Y140502D01*
X917742Y137498D01*
X917742Y139651D02*
X914738Y139651D01*
X914738Y129498D02*
X917742Y129498D01*
X914738Y129498D02*
X914738Y132502D01*
X917742Y132502D01*
X917742Y129498D01*
X917742Y131651D02*
X914738Y131651D01*
X914738Y121498D02*
X917742Y121498D01*
X914738Y121498D02*
X914738Y124502D01*
X917742Y124502D01*
X917742Y121498D01*
X917742Y123651D02*
X914738Y123651D01*
X914738Y113498D02*
X917742Y113498D01*
X914738Y113498D02*
X914738Y116502D01*
X917742Y116502D01*
X917742Y113498D01*
X917742Y115651D02*
X914738Y115651D01*
X893742Y113498D02*
X890738Y113498D01*
X890738Y116502D01*
X893742Y116502D01*
X893742Y113498D01*
X893742Y115651D02*
X890738Y115651D01*
X890738Y121498D02*
X893742Y121498D01*
X890738Y121498D02*
X890738Y124502D01*
X893742Y124502D01*
X893742Y121498D01*
X893742Y123651D02*
X890738Y123651D01*
X890738Y129498D02*
X893742Y129498D01*
X890738Y129498D02*
X890738Y132502D01*
X893742Y132502D01*
X893742Y129498D01*
X893742Y131651D02*
X890738Y131651D01*
X890738Y137498D02*
X893742Y137498D01*
X890738Y137498D02*
X890738Y140502D01*
X893742Y140502D01*
X893742Y137498D01*
X893742Y139651D02*
X890738Y139651D01*
D14*
X879648Y127698D02*
X869632Y127698D01*
X879648Y127698D02*
X879648Y118682D01*
X869632Y118682D01*
X869632Y127698D01*
X869632Y120823D02*
X879648Y120823D01*
X879648Y122964D02*
X869632Y122964D01*
X869632Y125105D02*
X879648Y125105D01*
X879648Y127246D02*
X869632Y127246D01*
X862648Y127698D02*
X852632Y127698D01*
X862648Y127698D02*
X862648Y118682D01*
X852632Y118682D01*
X852632Y127698D01*
X852632Y120823D02*
X862648Y120823D01*
X862648Y122964D02*
X852632Y122964D01*
X852632Y125105D02*
X862648Y125105D01*
X862648Y127246D02*
X852632Y127246D01*
X883348Y139282D02*
X883348Y149298D01*
X883348Y139282D02*
X874332Y139282D01*
X874332Y149298D01*
X883348Y149298D01*
X883348Y141423D02*
X874332Y141423D01*
X874332Y143564D02*
X883348Y143564D01*
X883348Y145705D02*
X874332Y145705D01*
X874332Y147846D02*
X883348Y147846D01*
X883348Y156282D02*
X883348Y166298D01*
X883348Y156282D02*
X874332Y156282D01*
X874332Y166298D01*
X883348Y166298D01*
X883348Y158423D02*
X874332Y158423D01*
X874332Y160564D02*
X883348Y160564D01*
X883348Y162705D02*
X874332Y162705D01*
X874332Y164846D02*
X883348Y164846D01*
D17*
X967740Y12700D03*
X942340Y12700D03*
X916940Y12700D03*
X891540Y12700D03*
X866140Y12700D03*
X840740Y12700D03*
D14*
X852632Y97092D02*
X862648Y97092D01*
X852632Y97092D02*
X852632Y106108D01*
X862648Y106108D01*
X862648Y97092D01*
X862648Y99233D02*
X852632Y99233D01*
X852632Y101374D02*
X862648Y101374D01*
X862648Y103515D02*
X852632Y103515D01*
X852632Y105656D02*
X862648Y105656D01*
X869632Y97092D02*
X879648Y97092D01*
X869632Y97092D02*
X869632Y106108D01*
X879648Y106108D01*
X879648Y97092D01*
X879648Y99233D02*
X869632Y99233D01*
X869632Y101374D02*
X879648Y101374D01*
X879648Y103515D02*
X869632Y103515D01*
X869632Y105656D02*
X879648Y105656D01*
D10*
X1061720Y228600D03*
X1264920Y228600D03*
D11*
X1281430Y8890D03*
X1043940Y246380D03*
D12*
X1040863Y160507D02*
X1040863Y149493D01*
X1040863Y160507D02*
X1059877Y160507D01*
X1059877Y149493D01*
X1040863Y149493D01*
X1040863Y151636D02*
X1059877Y151636D01*
X1059877Y153779D02*
X1040863Y153779D01*
X1040863Y155922D02*
X1059877Y155922D01*
X1059877Y158065D02*
X1040863Y158065D01*
X1040863Y160208D02*
X1059877Y160208D01*
X1040863Y104507D02*
X1040863Y93493D01*
X1040863Y104507D02*
X1059877Y104507D01*
X1059877Y93493D01*
X1040863Y93493D01*
X1040863Y95636D02*
X1059877Y95636D01*
X1059877Y97779D02*
X1040863Y97779D01*
X1040863Y99922D02*
X1059877Y99922D01*
X1059877Y102065D02*
X1040863Y102065D01*
X1040863Y104208D02*
X1059877Y104208D01*
D13*
X1080862Y139492D02*
X1080862Y144508D01*
X1093378Y144508D01*
X1093378Y139492D01*
X1080862Y139492D01*
X1080862Y141633D02*
X1093378Y141633D01*
X1093378Y143774D02*
X1080862Y143774D01*
X1080862Y134508D02*
X1080862Y129492D01*
X1080862Y134508D02*
X1093378Y134508D01*
X1093378Y129492D01*
X1080862Y129492D01*
X1080862Y131633D02*
X1093378Y131633D01*
X1093378Y133774D02*
X1080862Y133774D01*
X1080862Y124508D02*
X1080862Y119492D01*
X1080862Y124508D02*
X1093378Y124508D01*
X1093378Y119492D01*
X1080862Y119492D01*
X1080862Y121633D02*
X1093378Y121633D01*
X1093378Y123774D02*
X1080862Y123774D01*
X1080862Y114508D02*
X1080862Y109492D01*
X1080862Y114508D02*
X1093378Y114508D01*
X1093378Y109492D01*
X1080862Y109492D01*
X1080862Y111633D02*
X1093378Y111633D01*
X1093378Y113774D02*
X1080862Y113774D01*
D12*
X1285777Y104507D02*
X1285777Y93493D01*
X1266763Y93493D01*
X1266763Y104507D01*
X1285777Y104507D01*
X1285777Y95636D02*
X1266763Y95636D01*
X1266763Y97779D02*
X1285777Y97779D01*
X1285777Y99922D02*
X1266763Y99922D01*
X1266763Y102065D02*
X1285777Y102065D01*
X1285777Y104208D02*
X1266763Y104208D01*
X1285777Y149493D02*
X1285777Y160507D01*
X1285777Y149493D02*
X1266763Y149493D01*
X1266763Y160507D01*
X1285777Y160507D01*
X1285777Y151636D02*
X1266763Y151636D01*
X1266763Y153779D02*
X1285777Y153779D01*
X1285777Y155922D02*
X1266763Y155922D01*
X1266763Y158065D02*
X1285777Y158065D01*
X1285777Y160208D02*
X1266763Y160208D01*
D13*
X1245778Y114508D02*
X1245778Y109492D01*
X1233262Y109492D01*
X1233262Y114508D01*
X1245778Y114508D01*
X1245778Y111633D02*
X1233262Y111633D01*
X1233262Y113774D02*
X1245778Y113774D01*
X1245778Y119492D02*
X1245778Y124508D01*
X1245778Y119492D02*
X1233262Y119492D01*
X1233262Y124508D01*
X1245778Y124508D01*
X1245778Y121633D02*
X1233262Y121633D01*
X1233262Y123774D02*
X1245778Y123774D01*
X1245778Y129492D02*
X1245778Y134508D01*
X1245778Y129492D02*
X1233262Y129492D01*
X1233262Y134508D01*
X1245778Y134508D01*
X1245778Y131633D02*
X1233262Y131633D01*
X1233262Y133774D02*
X1245778Y133774D01*
X1245778Y139492D02*
X1245778Y144508D01*
X1245778Y139492D02*
X1233262Y139492D01*
X1233262Y144508D01*
X1245778Y144508D01*
X1245778Y141633D02*
X1233262Y141633D01*
X1233262Y143774D02*
X1245778Y143774D01*
D14*
X1098868Y64072D02*
X1088852Y64072D01*
X1088852Y73088D01*
X1098868Y73088D01*
X1098868Y64072D01*
X1098868Y66213D02*
X1088852Y66213D01*
X1088852Y68354D02*
X1098868Y68354D01*
X1098868Y70495D02*
X1088852Y70495D01*
X1088852Y72636D02*
X1098868Y72636D01*
X1105852Y64072D02*
X1115868Y64072D01*
X1105852Y64072D02*
X1105852Y73088D01*
X1115868Y73088D01*
X1115868Y64072D01*
X1115868Y66213D02*
X1105852Y66213D01*
X1105852Y68354D02*
X1115868Y68354D01*
X1115868Y70495D02*
X1105852Y70495D01*
X1105852Y72636D02*
X1115868Y72636D01*
D15*
X1064064Y72074D02*
X1064064Y65086D01*
X1057076Y65086D01*
X1057076Y72074D01*
X1064064Y72074D01*
X1064064Y69155D02*
X1057076Y69155D01*
X1081604Y72074D02*
X1081604Y65086D01*
X1074616Y65086D01*
X1074616Y72074D01*
X1081604Y72074D01*
X1081604Y69155D02*
X1074616Y69155D01*
D14*
X1221168Y156672D02*
X1221168Y166688D01*
X1221168Y156672D02*
X1212152Y156672D01*
X1212152Y166688D01*
X1221168Y166688D01*
X1221168Y158813D02*
X1212152Y158813D01*
X1212152Y160954D02*
X1221168Y160954D01*
X1221168Y163095D02*
X1212152Y163095D01*
X1212152Y165236D02*
X1221168Y165236D01*
X1221168Y173672D02*
X1221168Y183688D01*
X1221168Y173672D02*
X1212152Y173672D01*
X1212152Y183688D01*
X1221168Y183688D01*
X1221168Y175813D02*
X1212152Y175813D01*
X1212152Y177954D02*
X1221168Y177954D01*
X1221168Y180095D02*
X1212152Y180095D01*
X1212152Y182236D02*
X1221168Y182236D01*
X1203388Y166688D02*
X1203388Y156672D01*
X1194372Y156672D01*
X1194372Y166688D01*
X1203388Y166688D01*
X1203388Y158813D02*
X1194372Y158813D01*
X1194372Y160954D02*
X1203388Y160954D01*
X1203388Y163095D02*
X1194372Y163095D01*
X1194372Y165236D02*
X1203388Y165236D01*
X1203388Y173672D02*
X1203388Y183688D01*
X1203388Y173672D02*
X1194372Y173672D01*
X1194372Y183688D01*
X1203388Y183688D01*
X1203388Y175813D02*
X1194372Y175813D01*
X1194372Y177954D02*
X1203388Y177954D01*
X1203388Y180095D02*
X1194372Y180095D01*
X1194372Y182236D02*
X1203388Y182236D01*
D10*
X1264920Y25400D03*
X1061720Y25400D03*
D16*
X1173818Y137498D02*
X1176822Y137498D01*
X1173818Y137498D02*
X1173818Y140502D01*
X1176822Y140502D01*
X1176822Y137498D01*
X1176822Y139651D02*
X1173818Y139651D01*
X1173818Y129498D02*
X1176822Y129498D01*
X1173818Y129498D02*
X1173818Y132502D01*
X1176822Y132502D01*
X1176822Y129498D01*
X1176822Y131651D02*
X1173818Y131651D01*
X1173818Y121498D02*
X1176822Y121498D01*
X1173818Y121498D02*
X1173818Y124502D01*
X1176822Y124502D01*
X1176822Y121498D01*
X1176822Y123651D02*
X1173818Y123651D01*
X1173818Y113498D02*
X1176822Y113498D01*
X1173818Y113498D02*
X1173818Y116502D01*
X1176822Y116502D01*
X1176822Y113498D01*
X1176822Y115651D02*
X1173818Y115651D01*
X1152822Y113498D02*
X1149818Y113498D01*
X1149818Y116502D01*
X1152822Y116502D01*
X1152822Y113498D01*
X1152822Y115651D02*
X1149818Y115651D01*
X1149818Y121498D02*
X1152822Y121498D01*
X1149818Y121498D02*
X1149818Y124502D01*
X1152822Y124502D01*
X1152822Y121498D01*
X1152822Y123651D02*
X1149818Y123651D01*
X1149818Y129498D02*
X1152822Y129498D01*
X1149818Y129498D02*
X1149818Y132502D01*
X1152822Y132502D01*
X1152822Y129498D01*
X1152822Y131651D02*
X1149818Y131651D01*
X1149818Y137498D02*
X1152822Y137498D01*
X1149818Y137498D02*
X1149818Y140502D01*
X1152822Y140502D01*
X1152822Y137498D01*
X1152822Y139651D02*
X1149818Y139651D01*
D14*
X1138728Y127698D02*
X1128712Y127698D01*
X1138728Y127698D02*
X1138728Y118682D01*
X1128712Y118682D01*
X1128712Y127698D01*
X1128712Y120823D02*
X1138728Y120823D01*
X1138728Y122964D02*
X1128712Y122964D01*
X1128712Y125105D02*
X1138728Y125105D01*
X1138728Y127246D02*
X1128712Y127246D01*
X1121728Y127698D02*
X1111712Y127698D01*
X1121728Y127698D02*
X1121728Y118682D01*
X1111712Y118682D01*
X1111712Y127698D01*
X1111712Y120823D02*
X1121728Y120823D01*
X1121728Y122964D02*
X1111712Y122964D01*
X1111712Y125105D02*
X1121728Y125105D01*
X1121728Y127246D02*
X1111712Y127246D01*
X1142428Y139282D02*
X1142428Y149298D01*
X1142428Y139282D02*
X1133412Y139282D01*
X1133412Y149298D01*
X1142428Y149298D01*
X1142428Y141423D02*
X1133412Y141423D01*
X1133412Y143564D02*
X1142428Y143564D01*
X1142428Y145705D02*
X1133412Y145705D01*
X1133412Y147846D02*
X1142428Y147846D01*
X1142428Y156282D02*
X1142428Y166298D01*
X1142428Y156282D02*
X1133412Y156282D01*
X1133412Y166298D01*
X1142428Y166298D01*
X1142428Y158423D02*
X1133412Y158423D01*
X1133412Y160564D02*
X1142428Y160564D01*
X1142428Y162705D02*
X1133412Y162705D01*
X1133412Y164846D02*
X1142428Y164846D01*
D17*
X1226820Y12700D03*
X1201420Y12700D03*
X1176020Y12700D03*
X1150620Y12700D03*
X1125220Y12700D03*
X1099820Y12700D03*
D14*
X1111712Y97092D02*
X1121728Y97092D01*
X1111712Y97092D02*
X1111712Y106108D01*
X1121728Y106108D01*
X1121728Y97092D01*
X1121728Y99233D02*
X1111712Y99233D01*
X1111712Y101374D02*
X1121728Y101374D01*
X1121728Y103515D02*
X1111712Y103515D01*
X1111712Y105656D02*
X1121728Y105656D01*
X1128712Y97092D02*
X1138728Y97092D01*
X1128712Y97092D02*
X1128712Y106108D01*
X1138728Y106108D01*
X1138728Y97092D01*
X1138728Y99233D02*
X1128712Y99233D01*
X1128712Y101374D02*
X1138728Y101374D01*
X1138728Y103515D02*
X1128712Y103515D01*
X1128712Y105656D02*
X1138728Y105656D01*
D10*
X1320800Y228600D03*
X1524000Y228600D03*
D11*
X1540510Y8890D03*
X1303020Y246380D03*
D12*
X1299943Y160507D02*
X1299943Y149493D01*
X1299943Y160507D02*
X1318957Y160507D01*
X1318957Y149493D01*
X1299943Y149493D01*
X1299943Y151636D02*
X1318957Y151636D01*
X1318957Y153779D02*
X1299943Y153779D01*
X1299943Y155922D02*
X1318957Y155922D01*
X1318957Y158065D02*
X1299943Y158065D01*
X1299943Y160208D02*
X1318957Y160208D01*
X1299943Y104507D02*
X1299943Y93493D01*
X1299943Y104507D02*
X1318957Y104507D01*
X1318957Y93493D01*
X1299943Y93493D01*
X1299943Y95636D02*
X1318957Y95636D01*
X1318957Y97779D02*
X1299943Y97779D01*
X1299943Y99922D02*
X1318957Y99922D01*
X1318957Y102065D02*
X1299943Y102065D01*
X1299943Y104208D02*
X1318957Y104208D01*
D13*
X1339942Y139492D02*
X1339942Y144508D01*
X1352458Y144508D01*
X1352458Y139492D01*
X1339942Y139492D01*
X1339942Y141633D02*
X1352458Y141633D01*
X1352458Y143774D02*
X1339942Y143774D01*
X1339942Y134508D02*
X1339942Y129492D01*
X1339942Y134508D02*
X1352458Y134508D01*
X1352458Y129492D01*
X1339942Y129492D01*
X1339942Y131633D02*
X1352458Y131633D01*
X1352458Y133774D02*
X1339942Y133774D01*
X1339942Y124508D02*
X1339942Y119492D01*
X1339942Y124508D02*
X1352458Y124508D01*
X1352458Y119492D01*
X1339942Y119492D01*
X1339942Y121633D02*
X1352458Y121633D01*
X1352458Y123774D02*
X1339942Y123774D01*
X1339942Y114508D02*
X1339942Y109492D01*
X1339942Y114508D02*
X1352458Y114508D01*
X1352458Y109492D01*
X1339942Y109492D01*
X1339942Y111633D02*
X1352458Y111633D01*
X1352458Y113774D02*
X1339942Y113774D01*
D12*
X1544857Y104507D02*
X1544857Y93493D01*
X1525843Y93493D01*
X1525843Y104507D01*
X1544857Y104507D01*
X1544857Y95636D02*
X1525843Y95636D01*
X1525843Y97779D02*
X1544857Y97779D01*
X1544857Y99922D02*
X1525843Y99922D01*
X1525843Y102065D02*
X1544857Y102065D01*
X1544857Y104208D02*
X1525843Y104208D01*
X1544857Y149493D02*
X1544857Y160507D01*
X1544857Y149493D02*
X1525843Y149493D01*
X1525843Y160507D01*
X1544857Y160507D01*
X1544857Y151636D02*
X1525843Y151636D01*
X1525843Y153779D02*
X1544857Y153779D01*
X1544857Y155922D02*
X1525843Y155922D01*
X1525843Y158065D02*
X1544857Y158065D01*
X1544857Y160208D02*
X1525843Y160208D01*
D13*
X1504858Y114508D02*
X1504858Y109492D01*
X1492342Y109492D01*
X1492342Y114508D01*
X1504858Y114508D01*
X1504858Y111633D02*
X1492342Y111633D01*
X1492342Y113774D02*
X1504858Y113774D01*
X1504858Y119492D02*
X1504858Y124508D01*
X1504858Y119492D02*
X1492342Y119492D01*
X1492342Y124508D01*
X1504858Y124508D01*
X1504858Y121633D02*
X1492342Y121633D01*
X1492342Y123774D02*
X1504858Y123774D01*
X1504858Y129492D02*
X1504858Y134508D01*
X1504858Y129492D02*
X1492342Y129492D01*
X1492342Y134508D01*
X1504858Y134508D01*
X1504858Y131633D02*
X1492342Y131633D01*
X1492342Y133774D02*
X1504858Y133774D01*
X1504858Y139492D02*
X1504858Y144508D01*
X1504858Y139492D02*
X1492342Y139492D01*
X1492342Y144508D01*
X1504858Y144508D01*
X1504858Y141633D02*
X1492342Y141633D01*
X1492342Y143774D02*
X1504858Y143774D01*
D14*
X1357948Y64072D02*
X1347932Y64072D01*
X1347932Y73088D01*
X1357948Y73088D01*
X1357948Y64072D01*
X1357948Y66213D02*
X1347932Y66213D01*
X1347932Y68354D02*
X1357948Y68354D01*
X1357948Y70495D02*
X1347932Y70495D01*
X1347932Y72636D02*
X1357948Y72636D01*
X1364932Y64072D02*
X1374948Y64072D01*
X1364932Y64072D02*
X1364932Y73088D01*
X1374948Y73088D01*
X1374948Y64072D01*
X1374948Y66213D02*
X1364932Y66213D01*
X1364932Y68354D02*
X1374948Y68354D01*
X1374948Y70495D02*
X1364932Y70495D01*
X1364932Y72636D02*
X1374948Y72636D01*
D15*
X1323144Y72074D02*
X1323144Y65086D01*
X1316156Y65086D01*
X1316156Y72074D01*
X1323144Y72074D01*
X1323144Y69155D02*
X1316156Y69155D01*
X1340684Y72074D02*
X1340684Y65086D01*
X1333696Y65086D01*
X1333696Y72074D01*
X1340684Y72074D01*
X1340684Y69155D02*
X1333696Y69155D01*
D14*
X1480248Y156672D02*
X1480248Y166688D01*
X1480248Y156672D02*
X1471232Y156672D01*
X1471232Y166688D01*
X1480248Y166688D01*
X1480248Y158813D02*
X1471232Y158813D01*
X1471232Y160954D02*
X1480248Y160954D01*
X1480248Y163095D02*
X1471232Y163095D01*
X1471232Y165236D02*
X1480248Y165236D01*
X1480248Y173672D02*
X1480248Y183688D01*
X1480248Y173672D02*
X1471232Y173672D01*
X1471232Y183688D01*
X1480248Y183688D01*
X1480248Y175813D02*
X1471232Y175813D01*
X1471232Y177954D02*
X1480248Y177954D01*
X1480248Y180095D02*
X1471232Y180095D01*
X1471232Y182236D02*
X1480248Y182236D01*
X1462468Y166688D02*
X1462468Y156672D01*
X1453452Y156672D01*
X1453452Y166688D01*
X1462468Y166688D01*
X1462468Y158813D02*
X1453452Y158813D01*
X1453452Y160954D02*
X1462468Y160954D01*
X1462468Y163095D02*
X1453452Y163095D01*
X1453452Y165236D02*
X1462468Y165236D01*
X1462468Y173672D02*
X1462468Y183688D01*
X1462468Y173672D02*
X1453452Y173672D01*
X1453452Y183688D01*
X1462468Y183688D01*
X1462468Y175813D02*
X1453452Y175813D01*
X1453452Y177954D02*
X1462468Y177954D01*
X1462468Y180095D02*
X1453452Y180095D01*
X1453452Y182236D02*
X1462468Y182236D01*
D10*
X1524000Y25400D03*
X1320800Y25400D03*
D16*
X1432898Y137498D02*
X1435902Y137498D01*
X1432898Y137498D02*
X1432898Y140502D01*
X1435902Y140502D01*
X1435902Y137498D01*
X1435902Y139651D02*
X1432898Y139651D01*
X1432898Y129498D02*
X1435902Y129498D01*
X1432898Y129498D02*
X1432898Y132502D01*
X1435902Y132502D01*
X1435902Y129498D01*
X1435902Y131651D02*
X1432898Y131651D01*
X1432898Y121498D02*
X1435902Y121498D01*
X1432898Y121498D02*
X1432898Y124502D01*
X1435902Y124502D01*
X1435902Y121498D01*
X1435902Y123651D02*
X1432898Y123651D01*
X1432898Y113498D02*
X1435902Y113498D01*
X1432898Y113498D02*
X1432898Y116502D01*
X1435902Y116502D01*
X1435902Y113498D01*
X1435902Y115651D02*
X1432898Y115651D01*
X1411902Y113498D02*
X1408898Y113498D01*
X1408898Y116502D01*
X1411902Y116502D01*
X1411902Y113498D01*
X1411902Y115651D02*
X1408898Y115651D01*
X1408898Y121498D02*
X1411902Y121498D01*
X1408898Y121498D02*
X1408898Y124502D01*
X1411902Y124502D01*
X1411902Y121498D01*
X1411902Y123651D02*
X1408898Y123651D01*
X1408898Y129498D02*
X1411902Y129498D01*
X1408898Y129498D02*
X1408898Y132502D01*
X1411902Y132502D01*
X1411902Y129498D01*
X1411902Y131651D02*
X1408898Y131651D01*
X1408898Y137498D02*
X1411902Y137498D01*
X1408898Y137498D02*
X1408898Y140502D01*
X1411902Y140502D01*
X1411902Y137498D01*
X1411902Y139651D02*
X1408898Y139651D01*
D14*
X1397808Y127698D02*
X1387792Y127698D01*
X1397808Y127698D02*
X1397808Y118682D01*
X1387792Y118682D01*
X1387792Y127698D01*
X1387792Y120823D02*
X1397808Y120823D01*
X1397808Y122964D02*
X1387792Y122964D01*
X1387792Y125105D02*
X1397808Y125105D01*
X1397808Y127246D02*
X1387792Y127246D01*
X1380808Y127698D02*
X1370792Y127698D01*
X1380808Y127698D02*
X1380808Y118682D01*
X1370792Y118682D01*
X1370792Y127698D01*
X1370792Y120823D02*
X1380808Y120823D01*
X1380808Y122964D02*
X1370792Y122964D01*
X1370792Y125105D02*
X1380808Y125105D01*
X1380808Y127246D02*
X1370792Y127246D01*
X1401508Y139282D02*
X1401508Y149298D01*
X1401508Y139282D02*
X1392492Y139282D01*
X1392492Y149298D01*
X1401508Y149298D01*
X1401508Y141423D02*
X1392492Y141423D01*
X1392492Y143564D02*
X1401508Y143564D01*
X1401508Y145705D02*
X1392492Y145705D01*
X1392492Y147846D02*
X1401508Y147846D01*
X1401508Y156282D02*
X1401508Y166298D01*
X1401508Y156282D02*
X1392492Y156282D01*
X1392492Y166298D01*
X1401508Y166298D01*
X1401508Y158423D02*
X1392492Y158423D01*
X1392492Y160564D02*
X1401508Y160564D01*
X1401508Y162705D02*
X1392492Y162705D01*
X1392492Y164846D02*
X1401508Y164846D01*
D17*
X1485900Y12700D03*
X1460500Y12700D03*
X1435100Y12700D03*
X1409700Y12700D03*
X1384300Y12700D03*
X1358900Y12700D03*
D14*
X1370792Y97092D02*
X1380808Y97092D01*
X1370792Y97092D02*
X1370792Y106108D01*
X1380808Y106108D01*
X1380808Y97092D01*
X1380808Y99233D02*
X1370792Y99233D01*
X1370792Y101374D02*
X1380808Y101374D01*
X1380808Y103515D02*
X1370792Y103515D01*
X1370792Y105656D02*
X1380808Y105656D01*
X1387792Y97092D02*
X1397808Y97092D01*
X1387792Y97092D02*
X1387792Y106108D01*
X1397808Y106108D01*
X1397808Y97092D01*
X1397808Y99233D02*
X1387792Y99233D01*
X1387792Y101374D02*
X1397808Y101374D01*
X1397808Y103515D02*
X1387792Y103515D01*
X1387792Y105656D02*
X1397808Y105656D01*
D10*
X25400Y487680D03*
X228600Y487680D03*
D11*
X245110Y267970D03*
X7620Y505460D03*
D12*
X4543Y419587D02*
X4543Y408573D01*
X4543Y419587D02*
X23557Y419587D01*
X23557Y408573D01*
X4543Y408573D01*
X4543Y410716D02*
X23557Y410716D01*
X23557Y412859D02*
X4543Y412859D01*
X4543Y415002D02*
X23557Y415002D01*
X23557Y417145D02*
X4543Y417145D01*
X4543Y419288D02*
X23557Y419288D01*
X4543Y363587D02*
X4543Y352573D01*
X4543Y363587D02*
X23557Y363587D01*
X23557Y352573D01*
X4543Y352573D01*
X4543Y354716D02*
X23557Y354716D01*
X23557Y356859D02*
X4543Y356859D01*
X4543Y359002D02*
X23557Y359002D01*
X23557Y361145D02*
X4543Y361145D01*
X4543Y363288D02*
X23557Y363288D01*
D13*
X44542Y398572D02*
X44542Y403588D01*
X57058Y403588D01*
X57058Y398572D01*
X44542Y398572D01*
X44542Y400713D02*
X57058Y400713D01*
X57058Y402854D02*
X44542Y402854D01*
X44542Y393588D02*
X44542Y388572D01*
X44542Y393588D02*
X57058Y393588D01*
X57058Y388572D01*
X44542Y388572D01*
X44542Y390713D02*
X57058Y390713D01*
X57058Y392854D02*
X44542Y392854D01*
X44542Y383588D02*
X44542Y378572D01*
X44542Y383588D02*
X57058Y383588D01*
X57058Y378572D01*
X44542Y378572D01*
X44542Y380713D02*
X57058Y380713D01*
X57058Y382854D02*
X44542Y382854D01*
X44542Y373588D02*
X44542Y368572D01*
X44542Y373588D02*
X57058Y373588D01*
X57058Y368572D01*
X44542Y368572D01*
X44542Y370713D02*
X57058Y370713D01*
X57058Y372854D02*
X44542Y372854D01*
D12*
X249457Y363587D02*
X249457Y352573D01*
X230443Y352573D01*
X230443Y363587D01*
X249457Y363587D01*
X249457Y354716D02*
X230443Y354716D01*
X230443Y356859D02*
X249457Y356859D01*
X249457Y359002D02*
X230443Y359002D01*
X230443Y361145D02*
X249457Y361145D01*
X249457Y363288D02*
X230443Y363288D01*
X249457Y408573D02*
X249457Y419587D01*
X249457Y408573D02*
X230443Y408573D01*
X230443Y419587D01*
X249457Y419587D01*
X249457Y410716D02*
X230443Y410716D01*
X230443Y412859D02*
X249457Y412859D01*
X249457Y415002D02*
X230443Y415002D01*
X230443Y417145D02*
X249457Y417145D01*
X249457Y419288D02*
X230443Y419288D01*
D13*
X209458Y373588D02*
X209458Y368572D01*
X196942Y368572D01*
X196942Y373588D01*
X209458Y373588D01*
X209458Y370713D02*
X196942Y370713D01*
X196942Y372854D02*
X209458Y372854D01*
X209458Y378572D02*
X209458Y383588D01*
X209458Y378572D02*
X196942Y378572D01*
X196942Y383588D01*
X209458Y383588D01*
X209458Y380713D02*
X196942Y380713D01*
X196942Y382854D02*
X209458Y382854D01*
X209458Y388572D02*
X209458Y393588D01*
X209458Y388572D02*
X196942Y388572D01*
X196942Y393588D01*
X209458Y393588D01*
X209458Y390713D02*
X196942Y390713D01*
X196942Y392854D02*
X209458Y392854D01*
X209458Y398572D02*
X209458Y403588D01*
X209458Y398572D02*
X196942Y398572D01*
X196942Y403588D01*
X209458Y403588D01*
X209458Y400713D02*
X196942Y400713D01*
X196942Y402854D02*
X209458Y402854D01*
D14*
X62548Y323152D02*
X52532Y323152D01*
X52532Y332168D01*
X62548Y332168D01*
X62548Y323152D01*
X62548Y325293D02*
X52532Y325293D01*
X52532Y327434D02*
X62548Y327434D01*
X62548Y329575D02*
X52532Y329575D01*
X52532Y331716D02*
X62548Y331716D01*
X69532Y323152D02*
X79548Y323152D01*
X69532Y323152D02*
X69532Y332168D01*
X79548Y332168D01*
X79548Y323152D01*
X79548Y325293D02*
X69532Y325293D01*
X69532Y327434D02*
X79548Y327434D01*
X79548Y329575D02*
X69532Y329575D01*
X69532Y331716D02*
X79548Y331716D01*
D15*
X27744Y331154D02*
X27744Y324166D01*
X20756Y324166D01*
X20756Y331154D01*
X27744Y331154D01*
X27744Y328235D02*
X20756Y328235D01*
X45284Y331154D02*
X45284Y324166D01*
X38296Y324166D01*
X38296Y331154D01*
X45284Y331154D01*
X45284Y328235D02*
X38296Y328235D01*
D14*
X184848Y415752D02*
X184848Y425768D01*
X184848Y415752D02*
X175832Y415752D01*
X175832Y425768D01*
X184848Y425768D01*
X184848Y417893D02*
X175832Y417893D01*
X175832Y420034D02*
X184848Y420034D01*
X184848Y422175D02*
X175832Y422175D01*
X175832Y424316D02*
X184848Y424316D01*
X184848Y432752D02*
X184848Y442768D01*
X184848Y432752D02*
X175832Y432752D01*
X175832Y442768D01*
X184848Y442768D01*
X184848Y434893D02*
X175832Y434893D01*
X175832Y437034D02*
X184848Y437034D01*
X184848Y439175D02*
X175832Y439175D01*
X175832Y441316D02*
X184848Y441316D01*
X167068Y425768D02*
X167068Y415752D01*
X158052Y415752D01*
X158052Y425768D01*
X167068Y425768D01*
X167068Y417893D02*
X158052Y417893D01*
X158052Y420034D02*
X167068Y420034D01*
X167068Y422175D02*
X158052Y422175D01*
X158052Y424316D02*
X167068Y424316D01*
X167068Y432752D02*
X167068Y442768D01*
X167068Y432752D02*
X158052Y432752D01*
X158052Y442768D01*
X167068Y442768D01*
X167068Y434893D02*
X158052Y434893D01*
X158052Y437034D02*
X167068Y437034D01*
X167068Y439175D02*
X158052Y439175D01*
X158052Y441316D02*
X167068Y441316D01*
D10*
X228600Y284480D03*
X25400Y284480D03*
D16*
X137498Y396578D02*
X140502Y396578D01*
X137498Y396578D02*
X137498Y399582D01*
X140502Y399582D01*
X140502Y396578D01*
X140502Y398731D02*
X137498Y398731D01*
X137498Y388578D02*
X140502Y388578D01*
X137498Y388578D02*
X137498Y391582D01*
X140502Y391582D01*
X140502Y388578D01*
X140502Y390731D02*
X137498Y390731D01*
X137498Y380578D02*
X140502Y380578D01*
X137498Y380578D02*
X137498Y383582D01*
X140502Y383582D01*
X140502Y380578D01*
X140502Y382731D02*
X137498Y382731D01*
X137498Y372578D02*
X140502Y372578D01*
X137498Y372578D02*
X137498Y375582D01*
X140502Y375582D01*
X140502Y372578D01*
X140502Y374731D02*
X137498Y374731D01*
X116502Y372578D02*
X113498Y372578D01*
X113498Y375582D01*
X116502Y375582D01*
X116502Y372578D01*
X116502Y374731D02*
X113498Y374731D01*
X113498Y380578D02*
X116502Y380578D01*
X113498Y380578D02*
X113498Y383582D01*
X116502Y383582D01*
X116502Y380578D01*
X116502Y382731D02*
X113498Y382731D01*
X113498Y388578D02*
X116502Y388578D01*
X113498Y388578D02*
X113498Y391582D01*
X116502Y391582D01*
X116502Y388578D01*
X116502Y390731D02*
X113498Y390731D01*
X113498Y396578D02*
X116502Y396578D01*
X113498Y396578D02*
X113498Y399582D01*
X116502Y399582D01*
X116502Y396578D01*
X116502Y398731D02*
X113498Y398731D01*
D14*
X102408Y386778D02*
X92392Y386778D01*
X102408Y386778D02*
X102408Y377762D01*
X92392Y377762D01*
X92392Y386778D01*
X92392Y379903D02*
X102408Y379903D01*
X102408Y382044D02*
X92392Y382044D01*
X92392Y384185D02*
X102408Y384185D01*
X102408Y386326D02*
X92392Y386326D01*
X85408Y386778D02*
X75392Y386778D01*
X85408Y386778D02*
X85408Y377762D01*
X75392Y377762D01*
X75392Y386778D01*
X75392Y379903D02*
X85408Y379903D01*
X85408Y382044D02*
X75392Y382044D01*
X75392Y384185D02*
X85408Y384185D01*
X85408Y386326D02*
X75392Y386326D01*
X106108Y398362D02*
X106108Y408378D01*
X106108Y398362D02*
X97092Y398362D01*
X97092Y408378D01*
X106108Y408378D01*
X106108Y400503D02*
X97092Y400503D01*
X97092Y402644D02*
X106108Y402644D01*
X106108Y404785D02*
X97092Y404785D01*
X97092Y406926D02*
X106108Y406926D01*
X106108Y415362D02*
X106108Y425378D01*
X106108Y415362D02*
X97092Y415362D01*
X97092Y425378D01*
X106108Y425378D01*
X106108Y417503D02*
X97092Y417503D01*
X97092Y419644D02*
X106108Y419644D01*
X106108Y421785D02*
X97092Y421785D01*
X97092Y423926D02*
X106108Y423926D01*
D17*
X190500Y271780D03*
X165100Y271780D03*
X139700Y271780D03*
X114300Y271780D03*
X88900Y271780D03*
X63500Y271780D03*
D14*
X75392Y356172D02*
X85408Y356172D01*
X75392Y356172D02*
X75392Y365188D01*
X85408Y365188D01*
X85408Y356172D01*
X85408Y358313D02*
X75392Y358313D01*
X75392Y360454D02*
X85408Y360454D01*
X85408Y362595D02*
X75392Y362595D01*
X75392Y364736D02*
X85408Y364736D01*
X92392Y356172D02*
X102408Y356172D01*
X92392Y356172D02*
X92392Y365188D01*
X102408Y365188D01*
X102408Y356172D01*
X102408Y358313D02*
X92392Y358313D01*
X92392Y360454D02*
X102408Y360454D01*
X102408Y362595D02*
X92392Y362595D01*
X92392Y364736D02*
X102408Y364736D01*
D10*
X284480Y487680D03*
X487680Y487680D03*
D11*
X504190Y267970D03*
X266700Y505460D03*
D12*
X263623Y419587D02*
X263623Y408573D01*
X263623Y419587D02*
X282637Y419587D01*
X282637Y408573D01*
X263623Y408573D01*
X263623Y410716D02*
X282637Y410716D01*
X282637Y412859D02*
X263623Y412859D01*
X263623Y415002D02*
X282637Y415002D01*
X282637Y417145D02*
X263623Y417145D01*
X263623Y419288D02*
X282637Y419288D01*
X263623Y363587D02*
X263623Y352573D01*
X263623Y363587D02*
X282637Y363587D01*
X282637Y352573D01*
X263623Y352573D01*
X263623Y354716D02*
X282637Y354716D01*
X282637Y356859D02*
X263623Y356859D01*
X263623Y359002D02*
X282637Y359002D01*
X282637Y361145D02*
X263623Y361145D01*
X263623Y363288D02*
X282637Y363288D01*
D13*
X303622Y398572D02*
X303622Y403588D01*
X316138Y403588D01*
X316138Y398572D01*
X303622Y398572D01*
X303622Y400713D02*
X316138Y400713D01*
X316138Y402854D02*
X303622Y402854D01*
X303622Y393588D02*
X303622Y388572D01*
X303622Y393588D02*
X316138Y393588D01*
X316138Y388572D01*
X303622Y388572D01*
X303622Y390713D02*
X316138Y390713D01*
X316138Y392854D02*
X303622Y392854D01*
X303622Y383588D02*
X303622Y378572D01*
X303622Y383588D02*
X316138Y383588D01*
X316138Y378572D01*
X303622Y378572D01*
X303622Y380713D02*
X316138Y380713D01*
X316138Y382854D02*
X303622Y382854D01*
X303622Y373588D02*
X303622Y368572D01*
X303622Y373588D02*
X316138Y373588D01*
X316138Y368572D01*
X303622Y368572D01*
X303622Y370713D02*
X316138Y370713D01*
X316138Y372854D02*
X303622Y372854D01*
D12*
X508537Y363587D02*
X508537Y352573D01*
X489523Y352573D01*
X489523Y363587D01*
X508537Y363587D01*
X508537Y354716D02*
X489523Y354716D01*
X489523Y356859D02*
X508537Y356859D01*
X508537Y359002D02*
X489523Y359002D01*
X489523Y361145D02*
X508537Y361145D01*
X508537Y363288D02*
X489523Y363288D01*
X508537Y408573D02*
X508537Y419587D01*
X508537Y408573D02*
X489523Y408573D01*
X489523Y419587D01*
X508537Y419587D01*
X508537Y410716D02*
X489523Y410716D01*
X489523Y412859D02*
X508537Y412859D01*
X508537Y415002D02*
X489523Y415002D01*
X489523Y417145D02*
X508537Y417145D01*
X508537Y419288D02*
X489523Y419288D01*
D13*
X468538Y373588D02*
X468538Y368572D01*
X456022Y368572D01*
X456022Y373588D01*
X468538Y373588D01*
X468538Y370713D02*
X456022Y370713D01*
X456022Y372854D02*
X468538Y372854D01*
X468538Y378572D02*
X468538Y383588D01*
X468538Y378572D02*
X456022Y378572D01*
X456022Y383588D01*
X468538Y383588D01*
X468538Y380713D02*
X456022Y380713D01*
X456022Y382854D02*
X468538Y382854D01*
X468538Y388572D02*
X468538Y393588D01*
X468538Y388572D02*
X456022Y388572D01*
X456022Y393588D01*
X468538Y393588D01*
X468538Y390713D02*
X456022Y390713D01*
X456022Y392854D02*
X468538Y392854D01*
X468538Y398572D02*
X468538Y403588D01*
X468538Y398572D02*
X456022Y398572D01*
X456022Y403588D01*
X468538Y403588D01*
X468538Y400713D02*
X456022Y400713D01*
X456022Y402854D02*
X468538Y402854D01*
D14*
X321628Y323152D02*
X311612Y323152D01*
X311612Y332168D01*
X321628Y332168D01*
X321628Y323152D01*
X321628Y325293D02*
X311612Y325293D01*
X311612Y327434D02*
X321628Y327434D01*
X321628Y329575D02*
X311612Y329575D01*
X311612Y331716D02*
X321628Y331716D01*
X328612Y323152D02*
X338628Y323152D01*
X328612Y323152D02*
X328612Y332168D01*
X338628Y332168D01*
X338628Y323152D01*
X338628Y325293D02*
X328612Y325293D01*
X328612Y327434D02*
X338628Y327434D01*
X338628Y329575D02*
X328612Y329575D01*
X328612Y331716D02*
X338628Y331716D01*
D15*
X286824Y331154D02*
X286824Y324166D01*
X279836Y324166D01*
X279836Y331154D01*
X286824Y331154D01*
X286824Y328235D02*
X279836Y328235D01*
X304364Y331154D02*
X304364Y324166D01*
X297376Y324166D01*
X297376Y331154D01*
X304364Y331154D01*
X304364Y328235D02*
X297376Y328235D01*
D14*
X443928Y415752D02*
X443928Y425768D01*
X443928Y415752D02*
X434912Y415752D01*
X434912Y425768D01*
X443928Y425768D01*
X443928Y417893D02*
X434912Y417893D01*
X434912Y420034D02*
X443928Y420034D01*
X443928Y422175D02*
X434912Y422175D01*
X434912Y424316D02*
X443928Y424316D01*
X443928Y432752D02*
X443928Y442768D01*
X443928Y432752D02*
X434912Y432752D01*
X434912Y442768D01*
X443928Y442768D01*
X443928Y434893D02*
X434912Y434893D01*
X434912Y437034D02*
X443928Y437034D01*
X443928Y439175D02*
X434912Y439175D01*
X434912Y441316D02*
X443928Y441316D01*
X426148Y425768D02*
X426148Y415752D01*
X417132Y415752D01*
X417132Y425768D01*
X426148Y425768D01*
X426148Y417893D02*
X417132Y417893D01*
X417132Y420034D02*
X426148Y420034D01*
X426148Y422175D02*
X417132Y422175D01*
X417132Y424316D02*
X426148Y424316D01*
X426148Y432752D02*
X426148Y442768D01*
X426148Y432752D02*
X417132Y432752D01*
X417132Y442768D01*
X426148Y442768D01*
X426148Y434893D02*
X417132Y434893D01*
X417132Y437034D02*
X426148Y437034D01*
X426148Y439175D02*
X417132Y439175D01*
X417132Y441316D02*
X426148Y441316D01*
D10*
X487680Y284480D03*
X284480Y284480D03*
D16*
X396578Y396578D02*
X399582Y396578D01*
X396578Y396578D02*
X396578Y399582D01*
X399582Y399582D01*
X399582Y396578D01*
X399582Y398731D02*
X396578Y398731D01*
X396578Y388578D02*
X399582Y388578D01*
X396578Y388578D02*
X396578Y391582D01*
X399582Y391582D01*
X399582Y388578D01*
X399582Y390731D02*
X396578Y390731D01*
X396578Y380578D02*
X399582Y380578D01*
X396578Y380578D02*
X396578Y383582D01*
X399582Y383582D01*
X399582Y380578D01*
X399582Y382731D02*
X396578Y382731D01*
X396578Y372578D02*
X399582Y372578D01*
X396578Y372578D02*
X396578Y375582D01*
X399582Y375582D01*
X399582Y372578D01*
X399582Y374731D02*
X396578Y374731D01*
X375582Y372578D02*
X372578Y372578D01*
X372578Y375582D01*
X375582Y375582D01*
X375582Y372578D01*
X375582Y374731D02*
X372578Y374731D01*
X372578Y380578D02*
X375582Y380578D01*
X372578Y380578D02*
X372578Y383582D01*
X375582Y383582D01*
X375582Y380578D01*
X375582Y382731D02*
X372578Y382731D01*
X372578Y388578D02*
X375582Y388578D01*
X372578Y388578D02*
X372578Y391582D01*
X375582Y391582D01*
X375582Y388578D01*
X375582Y390731D02*
X372578Y390731D01*
X372578Y396578D02*
X375582Y396578D01*
X372578Y396578D02*
X372578Y399582D01*
X375582Y399582D01*
X375582Y396578D01*
X375582Y398731D02*
X372578Y398731D01*
D14*
X361488Y386778D02*
X351472Y386778D01*
X361488Y386778D02*
X361488Y377762D01*
X351472Y377762D01*
X351472Y386778D01*
X351472Y379903D02*
X361488Y379903D01*
X361488Y382044D02*
X351472Y382044D01*
X351472Y384185D02*
X361488Y384185D01*
X361488Y386326D02*
X351472Y386326D01*
X344488Y386778D02*
X334472Y386778D01*
X344488Y386778D02*
X344488Y377762D01*
X334472Y377762D01*
X334472Y386778D01*
X334472Y379903D02*
X344488Y379903D01*
X344488Y382044D02*
X334472Y382044D01*
X334472Y384185D02*
X344488Y384185D01*
X344488Y386326D02*
X334472Y386326D01*
X365188Y398362D02*
X365188Y408378D01*
X365188Y398362D02*
X356172Y398362D01*
X356172Y408378D01*
X365188Y408378D01*
X365188Y400503D02*
X356172Y400503D01*
X356172Y402644D02*
X365188Y402644D01*
X365188Y404785D02*
X356172Y404785D01*
X356172Y406926D02*
X365188Y406926D01*
X365188Y415362D02*
X365188Y425378D01*
X365188Y415362D02*
X356172Y415362D01*
X356172Y425378D01*
X365188Y425378D01*
X365188Y417503D02*
X356172Y417503D01*
X356172Y419644D02*
X365188Y419644D01*
X365188Y421785D02*
X356172Y421785D01*
X356172Y423926D02*
X365188Y423926D01*
D17*
X449580Y271780D03*
X424180Y271780D03*
X398780Y271780D03*
X373380Y271780D03*
X347980Y271780D03*
X322580Y271780D03*
D14*
X334472Y356172D02*
X344488Y356172D01*
X334472Y356172D02*
X334472Y365188D01*
X344488Y365188D01*
X344488Y356172D01*
X344488Y358313D02*
X334472Y358313D01*
X334472Y360454D02*
X344488Y360454D01*
X344488Y362595D02*
X334472Y362595D01*
X334472Y364736D02*
X344488Y364736D01*
X351472Y356172D02*
X361488Y356172D01*
X351472Y356172D02*
X351472Y365188D01*
X361488Y365188D01*
X361488Y356172D01*
X361488Y358313D02*
X351472Y358313D01*
X351472Y360454D02*
X361488Y360454D01*
X361488Y362595D02*
X351472Y362595D01*
X351472Y364736D02*
X361488Y364736D01*
D10*
X543560Y487680D03*
X746760Y487680D03*
D11*
X763270Y267970D03*
X525780Y505460D03*
D12*
X522703Y419587D02*
X522703Y408573D01*
X522703Y419587D02*
X541717Y419587D01*
X541717Y408573D01*
X522703Y408573D01*
X522703Y410716D02*
X541717Y410716D01*
X541717Y412859D02*
X522703Y412859D01*
X522703Y415002D02*
X541717Y415002D01*
X541717Y417145D02*
X522703Y417145D01*
X522703Y419288D02*
X541717Y419288D01*
X522703Y363587D02*
X522703Y352573D01*
X522703Y363587D02*
X541717Y363587D01*
X541717Y352573D01*
X522703Y352573D01*
X522703Y354716D02*
X541717Y354716D01*
X541717Y356859D02*
X522703Y356859D01*
X522703Y359002D02*
X541717Y359002D01*
X541717Y361145D02*
X522703Y361145D01*
X522703Y363288D02*
X541717Y363288D01*
D13*
X562702Y398572D02*
X562702Y403588D01*
X575218Y403588D01*
X575218Y398572D01*
X562702Y398572D01*
X562702Y400713D02*
X575218Y400713D01*
X575218Y402854D02*
X562702Y402854D01*
X562702Y393588D02*
X562702Y388572D01*
X562702Y393588D02*
X575218Y393588D01*
X575218Y388572D01*
X562702Y388572D01*
X562702Y390713D02*
X575218Y390713D01*
X575218Y392854D02*
X562702Y392854D01*
X562702Y383588D02*
X562702Y378572D01*
X562702Y383588D02*
X575218Y383588D01*
X575218Y378572D01*
X562702Y378572D01*
X562702Y380713D02*
X575218Y380713D01*
X575218Y382854D02*
X562702Y382854D01*
X562702Y373588D02*
X562702Y368572D01*
X562702Y373588D02*
X575218Y373588D01*
X575218Y368572D01*
X562702Y368572D01*
X562702Y370713D02*
X575218Y370713D01*
X575218Y372854D02*
X562702Y372854D01*
D12*
X767617Y363587D02*
X767617Y352573D01*
X748603Y352573D01*
X748603Y363587D01*
X767617Y363587D01*
X767617Y354716D02*
X748603Y354716D01*
X748603Y356859D02*
X767617Y356859D01*
X767617Y359002D02*
X748603Y359002D01*
X748603Y361145D02*
X767617Y361145D01*
X767617Y363288D02*
X748603Y363288D01*
X767617Y408573D02*
X767617Y419587D01*
X767617Y408573D02*
X748603Y408573D01*
X748603Y419587D01*
X767617Y419587D01*
X767617Y410716D02*
X748603Y410716D01*
X748603Y412859D02*
X767617Y412859D01*
X767617Y415002D02*
X748603Y415002D01*
X748603Y417145D02*
X767617Y417145D01*
X767617Y419288D02*
X748603Y419288D01*
D13*
X727618Y373588D02*
X727618Y368572D01*
X715102Y368572D01*
X715102Y373588D01*
X727618Y373588D01*
X727618Y370713D02*
X715102Y370713D01*
X715102Y372854D02*
X727618Y372854D01*
X727618Y378572D02*
X727618Y383588D01*
X727618Y378572D02*
X715102Y378572D01*
X715102Y383588D01*
X727618Y383588D01*
X727618Y380713D02*
X715102Y380713D01*
X715102Y382854D02*
X727618Y382854D01*
X727618Y388572D02*
X727618Y393588D01*
X727618Y388572D02*
X715102Y388572D01*
X715102Y393588D01*
X727618Y393588D01*
X727618Y390713D02*
X715102Y390713D01*
X715102Y392854D02*
X727618Y392854D01*
X727618Y398572D02*
X727618Y403588D01*
X727618Y398572D02*
X715102Y398572D01*
X715102Y403588D01*
X727618Y403588D01*
X727618Y400713D02*
X715102Y400713D01*
X715102Y402854D02*
X727618Y402854D01*
D14*
X580708Y323152D02*
X570692Y323152D01*
X570692Y332168D01*
X580708Y332168D01*
X580708Y323152D01*
X580708Y325293D02*
X570692Y325293D01*
X570692Y327434D02*
X580708Y327434D01*
X580708Y329575D02*
X570692Y329575D01*
X570692Y331716D02*
X580708Y331716D01*
X587692Y323152D02*
X597708Y323152D01*
X587692Y323152D02*
X587692Y332168D01*
X597708Y332168D01*
X597708Y323152D01*
X597708Y325293D02*
X587692Y325293D01*
X587692Y327434D02*
X597708Y327434D01*
X597708Y329575D02*
X587692Y329575D01*
X587692Y331716D02*
X597708Y331716D01*
D15*
X545904Y331154D02*
X545904Y324166D01*
X538916Y324166D01*
X538916Y331154D01*
X545904Y331154D01*
X545904Y328235D02*
X538916Y328235D01*
X563444Y331154D02*
X563444Y324166D01*
X556456Y324166D01*
X556456Y331154D01*
X563444Y331154D01*
X563444Y328235D02*
X556456Y328235D01*
D14*
X703008Y415752D02*
X703008Y425768D01*
X703008Y415752D02*
X693992Y415752D01*
X693992Y425768D01*
X703008Y425768D01*
X703008Y417893D02*
X693992Y417893D01*
X693992Y420034D02*
X703008Y420034D01*
X703008Y422175D02*
X693992Y422175D01*
X693992Y424316D02*
X703008Y424316D01*
X703008Y432752D02*
X703008Y442768D01*
X703008Y432752D02*
X693992Y432752D01*
X693992Y442768D01*
X703008Y442768D01*
X703008Y434893D02*
X693992Y434893D01*
X693992Y437034D02*
X703008Y437034D01*
X703008Y439175D02*
X693992Y439175D01*
X693992Y441316D02*
X703008Y441316D01*
X685228Y425768D02*
X685228Y415752D01*
X676212Y415752D01*
X676212Y425768D01*
X685228Y425768D01*
X685228Y417893D02*
X676212Y417893D01*
X676212Y420034D02*
X685228Y420034D01*
X685228Y422175D02*
X676212Y422175D01*
X676212Y424316D02*
X685228Y424316D01*
X685228Y432752D02*
X685228Y442768D01*
X685228Y432752D02*
X676212Y432752D01*
X676212Y442768D01*
X685228Y442768D01*
X685228Y434893D02*
X676212Y434893D01*
X676212Y437034D02*
X685228Y437034D01*
X685228Y439175D02*
X676212Y439175D01*
X676212Y441316D02*
X685228Y441316D01*
D10*
X746760Y284480D03*
X543560Y284480D03*
D16*
X655658Y396578D02*
X658662Y396578D01*
X655658Y396578D02*
X655658Y399582D01*
X658662Y399582D01*
X658662Y396578D01*
X658662Y398731D02*
X655658Y398731D01*
X655658Y388578D02*
X658662Y388578D01*
X655658Y388578D02*
X655658Y391582D01*
X658662Y391582D01*
X658662Y388578D01*
X658662Y390731D02*
X655658Y390731D01*
X655658Y380578D02*
X658662Y380578D01*
X655658Y380578D02*
X655658Y383582D01*
X658662Y383582D01*
X658662Y380578D01*
X658662Y382731D02*
X655658Y382731D01*
X655658Y372578D02*
X658662Y372578D01*
X655658Y372578D02*
X655658Y375582D01*
X658662Y375582D01*
X658662Y372578D01*
X658662Y374731D02*
X655658Y374731D01*
X634662Y372578D02*
X631658Y372578D01*
X631658Y375582D01*
X634662Y375582D01*
X634662Y372578D01*
X634662Y374731D02*
X631658Y374731D01*
X631658Y380578D02*
X634662Y380578D01*
X631658Y380578D02*
X631658Y383582D01*
X634662Y383582D01*
X634662Y380578D01*
X634662Y382731D02*
X631658Y382731D01*
X631658Y388578D02*
X634662Y388578D01*
X631658Y388578D02*
X631658Y391582D01*
X634662Y391582D01*
X634662Y388578D01*
X634662Y390731D02*
X631658Y390731D01*
X631658Y396578D02*
X634662Y396578D01*
X631658Y396578D02*
X631658Y399582D01*
X634662Y399582D01*
X634662Y396578D01*
X634662Y398731D02*
X631658Y398731D01*
D14*
X620568Y386778D02*
X610552Y386778D01*
X620568Y386778D02*
X620568Y377762D01*
X610552Y377762D01*
X610552Y386778D01*
X610552Y379903D02*
X620568Y379903D01*
X620568Y382044D02*
X610552Y382044D01*
X610552Y384185D02*
X620568Y384185D01*
X620568Y386326D02*
X610552Y386326D01*
X603568Y386778D02*
X593552Y386778D01*
X603568Y386778D02*
X603568Y377762D01*
X593552Y377762D01*
X593552Y386778D01*
X593552Y379903D02*
X603568Y379903D01*
X603568Y382044D02*
X593552Y382044D01*
X593552Y384185D02*
X603568Y384185D01*
X603568Y386326D02*
X593552Y386326D01*
X624268Y398362D02*
X624268Y408378D01*
X624268Y398362D02*
X615252Y398362D01*
X615252Y408378D01*
X624268Y408378D01*
X624268Y400503D02*
X615252Y400503D01*
X615252Y402644D02*
X624268Y402644D01*
X624268Y404785D02*
X615252Y404785D01*
X615252Y406926D02*
X624268Y406926D01*
X624268Y415362D02*
X624268Y425378D01*
X624268Y415362D02*
X615252Y415362D01*
X615252Y425378D01*
X624268Y425378D01*
X624268Y417503D02*
X615252Y417503D01*
X615252Y419644D02*
X624268Y419644D01*
X624268Y421785D02*
X615252Y421785D01*
X615252Y423926D02*
X624268Y423926D01*
D17*
X708660Y271780D03*
X683260Y271780D03*
X657860Y271780D03*
X632460Y271780D03*
X607060Y271780D03*
X581660Y271780D03*
D14*
X593552Y356172D02*
X603568Y356172D01*
X593552Y356172D02*
X593552Y365188D01*
X603568Y365188D01*
X603568Y356172D01*
X603568Y358313D02*
X593552Y358313D01*
X593552Y360454D02*
X603568Y360454D01*
X603568Y362595D02*
X593552Y362595D01*
X593552Y364736D02*
X603568Y364736D01*
X610552Y356172D02*
X620568Y356172D01*
X610552Y356172D02*
X610552Y365188D01*
X620568Y365188D01*
X620568Y356172D01*
X620568Y358313D02*
X610552Y358313D01*
X610552Y360454D02*
X620568Y360454D01*
X620568Y362595D02*
X610552Y362595D01*
X610552Y364736D02*
X620568Y364736D01*
D10*
X802640Y487680D03*
X1005840Y487680D03*
D11*
X1022350Y267970D03*
X784860Y505460D03*
D12*
X781783Y419587D02*
X781783Y408573D01*
X781783Y419587D02*
X800797Y419587D01*
X800797Y408573D01*
X781783Y408573D01*
X781783Y410716D02*
X800797Y410716D01*
X800797Y412859D02*
X781783Y412859D01*
X781783Y415002D02*
X800797Y415002D01*
X800797Y417145D02*
X781783Y417145D01*
X781783Y419288D02*
X800797Y419288D01*
X781783Y363587D02*
X781783Y352573D01*
X781783Y363587D02*
X800797Y363587D01*
X800797Y352573D01*
X781783Y352573D01*
X781783Y354716D02*
X800797Y354716D01*
X800797Y356859D02*
X781783Y356859D01*
X781783Y359002D02*
X800797Y359002D01*
X800797Y361145D02*
X781783Y361145D01*
X781783Y363288D02*
X800797Y363288D01*
D13*
X821782Y398572D02*
X821782Y403588D01*
X834298Y403588D01*
X834298Y398572D01*
X821782Y398572D01*
X821782Y400713D02*
X834298Y400713D01*
X834298Y402854D02*
X821782Y402854D01*
X821782Y393588D02*
X821782Y388572D01*
X821782Y393588D02*
X834298Y393588D01*
X834298Y388572D01*
X821782Y388572D01*
X821782Y390713D02*
X834298Y390713D01*
X834298Y392854D02*
X821782Y392854D01*
X821782Y383588D02*
X821782Y378572D01*
X821782Y383588D02*
X834298Y383588D01*
X834298Y378572D01*
X821782Y378572D01*
X821782Y380713D02*
X834298Y380713D01*
X834298Y382854D02*
X821782Y382854D01*
X821782Y373588D02*
X821782Y368572D01*
X821782Y373588D02*
X834298Y373588D01*
X834298Y368572D01*
X821782Y368572D01*
X821782Y370713D02*
X834298Y370713D01*
X834298Y372854D02*
X821782Y372854D01*
D12*
X1026697Y363587D02*
X1026697Y352573D01*
X1007683Y352573D01*
X1007683Y363587D01*
X1026697Y363587D01*
X1026697Y354716D02*
X1007683Y354716D01*
X1007683Y356859D02*
X1026697Y356859D01*
X1026697Y359002D02*
X1007683Y359002D01*
X1007683Y361145D02*
X1026697Y361145D01*
X1026697Y363288D02*
X1007683Y363288D01*
X1026697Y408573D02*
X1026697Y419587D01*
X1026697Y408573D02*
X1007683Y408573D01*
X1007683Y419587D01*
X1026697Y419587D01*
X1026697Y410716D02*
X1007683Y410716D01*
X1007683Y412859D02*
X1026697Y412859D01*
X1026697Y415002D02*
X1007683Y415002D01*
X1007683Y417145D02*
X1026697Y417145D01*
X1026697Y419288D02*
X1007683Y419288D01*
D13*
X986698Y373588D02*
X986698Y368572D01*
X974182Y368572D01*
X974182Y373588D01*
X986698Y373588D01*
X986698Y370713D02*
X974182Y370713D01*
X974182Y372854D02*
X986698Y372854D01*
X986698Y378572D02*
X986698Y383588D01*
X986698Y378572D02*
X974182Y378572D01*
X974182Y383588D01*
X986698Y383588D01*
X986698Y380713D02*
X974182Y380713D01*
X974182Y382854D02*
X986698Y382854D01*
X986698Y388572D02*
X986698Y393588D01*
X986698Y388572D02*
X974182Y388572D01*
X974182Y393588D01*
X986698Y393588D01*
X986698Y390713D02*
X974182Y390713D01*
X974182Y392854D02*
X986698Y392854D01*
X986698Y398572D02*
X986698Y403588D01*
X986698Y398572D02*
X974182Y398572D01*
X974182Y403588D01*
X986698Y403588D01*
X986698Y400713D02*
X974182Y400713D01*
X974182Y402854D02*
X986698Y402854D01*
D14*
X839788Y323152D02*
X829772Y323152D01*
X829772Y332168D01*
X839788Y332168D01*
X839788Y323152D01*
X839788Y325293D02*
X829772Y325293D01*
X829772Y327434D02*
X839788Y327434D01*
X839788Y329575D02*
X829772Y329575D01*
X829772Y331716D02*
X839788Y331716D01*
X846772Y323152D02*
X856788Y323152D01*
X846772Y323152D02*
X846772Y332168D01*
X856788Y332168D01*
X856788Y323152D01*
X856788Y325293D02*
X846772Y325293D01*
X846772Y327434D02*
X856788Y327434D01*
X856788Y329575D02*
X846772Y329575D01*
X846772Y331716D02*
X856788Y331716D01*
D15*
X804984Y331154D02*
X804984Y324166D01*
X797996Y324166D01*
X797996Y331154D01*
X804984Y331154D01*
X804984Y328235D02*
X797996Y328235D01*
X822524Y331154D02*
X822524Y324166D01*
X815536Y324166D01*
X815536Y331154D01*
X822524Y331154D01*
X822524Y328235D02*
X815536Y328235D01*
D14*
X962088Y415752D02*
X962088Y425768D01*
X962088Y415752D02*
X953072Y415752D01*
X953072Y425768D01*
X962088Y425768D01*
X962088Y417893D02*
X953072Y417893D01*
X953072Y420034D02*
X962088Y420034D01*
X962088Y422175D02*
X953072Y422175D01*
X953072Y424316D02*
X962088Y424316D01*
X962088Y432752D02*
X962088Y442768D01*
X962088Y432752D02*
X953072Y432752D01*
X953072Y442768D01*
X962088Y442768D01*
X962088Y434893D02*
X953072Y434893D01*
X953072Y437034D02*
X962088Y437034D01*
X962088Y439175D02*
X953072Y439175D01*
X953072Y441316D02*
X962088Y441316D01*
X944308Y425768D02*
X944308Y415752D01*
X935292Y415752D01*
X935292Y425768D01*
X944308Y425768D01*
X944308Y417893D02*
X935292Y417893D01*
X935292Y420034D02*
X944308Y420034D01*
X944308Y422175D02*
X935292Y422175D01*
X935292Y424316D02*
X944308Y424316D01*
X944308Y432752D02*
X944308Y442768D01*
X944308Y432752D02*
X935292Y432752D01*
X935292Y442768D01*
X944308Y442768D01*
X944308Y434893D02*
X935292Y434893D01*
X935292Y437034D02*
X944308Y437034D01*
X944308Y439175D02*
X935292Y439175D01*
X935292Y441316D02*
X944308Y441316D01*
D10*
X1005840Y284480D03*
X802640Y284480D03*
D16*
X914738Y396578D02*
X917742Y396578D01*
X914738Y396578D02*
X914738Y399582D01*
X917742Y399582D01*
X917742Y396578D01*
X917742Y398731D02*
X914738Y398731D01*
X914738Y388578D02*
X917742Y388578D01*
X914738Y388578D02*
X914738Y391582D01*
X917742Y391582D01*
X917742Y388578D01*
X917742Y390731D02*
X914738Y390731D01*
X914738Y380578D02*
X917742Y380578D01*
X914738Y380578D02*
X914738Y383582D01*
X917742Y383582D01*
X917742Y380578D01*
X917742Y382731D02*
X914738Y382731D01*
X914738Y372578D02*
X917742Y372578D01*
X914738Y372578D02*
X914738Y375582D01*
X917742Y375582D01*
X917742Y372578D01*
X917742Y374731D02*
X914738Y374731D01*
X893742Y372578D02*
X890738Y372578D01*
X890738Y375582D01*
X893742Y375582D01*
X893742Y372578D01*
X893742Y374731D02*
X890738Y374731D01*
X890738Y380578D02*
X893742Y380578D01*
X890738Y380578D02*
X890738Y383582D01*
X893742Y383582D01*
X893742Y380578D01*
X893742Y382731D02*
X890738Y382731D01*
X890738Y388578D02*
X893742Y388578D01*
X890738Y388578D02*
X890738Y391582D01*
X893742Y391582D01*
X893742Y388578D01*
X893742Y390731D02*
X890738Y390731D01*
X890738Y396578D02*
X893742Y396578D01*
X890738Y396578D02*
X890738Y399582D01*
X893742Y399582D01*
X893742Y396578D01*
X893742Y398731D02*
X890738Y398731D01*
D14*
X879648Y386778D02*
X869632Y386778D01*
X879648Y386778D02*
X879648Y377762D01*
X869632Y377762D01*
X869632Y386778D01*
X869632Y379903D02*
X879648Y379903D01*
X879648Y382044D02*
X869632Y382044D01*
X869632Y384185D02*
X879648Y384185D01*
X879648Y386326D02*
X869632Y386326D01*
X862648Y386778D02*
X852632Y386778D01*
X862648Y386778D02*
X862648Y377762D01*
X852632Y377762D01*
X852632Y386778D01*
X852632Y379903D02*
X862648Y379903D01*
X862648Y382044D02*
X852632Y382044D01*
X852632Y384185D02*
X862648Y384185D01*
X862648Y386326D02*
X852632Y386326D01*
X883348Y398362D02*
X883348Y408378D01*
X883348Y398362D02*
X874332Y398362D01*
X874332Y408378D01*
X883348Y408378D01*
X883348Y400503D02*
X874332Y400503D01*
X874332Y402644D02*
X883348Y402644D01*
X883348Y404785D02*
X874332Y404785D01*
X874332Y406926D02*
X883348Y406926D01*
X883348Y415362D02*
X883348Y425378D01*
X883348Y415362D02*
X874332Y415362D01*
X874332Y425378D01*
X883348Y425378D01*
X883348Y417503D02*
X874332Y417503D01*
X874332Y419644D02*
X883348Y419644D01*
X883348Y421785D02*
X874332Y421785D01*
X874332Y423926D02*
X883348Y423926D01*
D17*
X967740Y271780D03*
X942340Y271780D03*
X916940Y271780D03*
X891540Y271780D03*
X866140Y271780D03*
X840740Y271780D03*
D14*
X852632Y356172D02*
X862648Y356172D01*
X852632Y356172D02*
X852632Y365188D01*
X862648Y365188D01*
X862648Y356172D01*
X862648Y358313D02*
X852632Y358313D01*
X852632Y360454D02*
X862648Y360454D01*
X862648Y362595D02*
X852632Y362595D01*
X852632Y364736D02*
X862648Y364736D01*
X869632Y356172D02*
X879648Y356172D01*
X869632Y356172D02*
X869632Y365188D01*
X879648Y365188D01*
X879648Y356172D01*
X879648Y358313D02*
X869632Y358313D01*
X869632Y360454D02*
X879648Y360454D01*
X879648Y362595D02*
X869632Y362595D01*
X869632Y364736D02*
X879648Y364736D01*
D10*
X1061720Y487680D03*
X1264920Y487680D03*
D11*
X1281430Y267970D03*
X1043940Y505460D03*
D12*
X1040863Y419587D02*
X1040863Y408573D01*
X1040863Y419587D02*
X1059877Y419587D01*
X1059877Y408573D01*
X1040863Y408573D01*
X1040863Y410716D02*
X1059877Y410716D01*
X1059877Y412859D02*
X1040863Y412859D01*
X1040863Y415002D02*
X1059877Y415002D01*
X1059877Y417145D02*
X1040863Y417145D01*
X1040863Y419288D02*
X1059877Y419288D01*
X1040863Y363587D02*
X1040863Y352573D01*
X1040863Y363587D02*
X1059877Y363587D01*
X1059877Y352573D01*
X1040863Y352573D01*
X1040863Y354716D02*
X1059877Y354716D01*
X1059877Y356859D02*
X1040863Y356859D01*
X1040863Y359002D02*
X1059877Y359002D01*
X1059877Y361145D02*
X1040863Y361145D01*
X1040863Y363288D02*
X1059877Y363288D01*
D13*
X1080862Y398572D02*
X1080862Y403588D01*
X1093378Y403588D01*
X1093378Y398572D01*
X1080862Y398572D01*
X1080862Y400713D02*
X1093378Y400713D01*
X1093378Y402854D02*
X1080862Y402854D01*
X1080862Y393588D02*
X1080862Y388572D01*
X1080862Y393588D02*
X1093378Y393588D01*
X1093378Y388572D01*
X1080862Y388572D01*
X1080862Y390713D02*
X1093378Y390713D01*
X1093378Y392854D02*
X1080862Y392854D01*
X1080862Y383588D02*
X1080862Y378572D01*
X1080862Y383588D02*
X1093378Y383588D01*
X1093378Y378572D01*
X1080862Y378572D01*
X1080862Y380713D02*
X1093378Y380713D01*
X1093378Y382854D02*
X1080862Y382854D01*
X1080862Y373588D02*
X1080862Y368572D01*
X1080862Y373588D02*
X1093378Y373588D01*
X1093378Y368572D01*
X1080862Y368572D01*
X1080862Y370713D02*
X1093378Y370713D01*
X1093378Y372854D02*
X1080862Y372854D01*
D12*
X1285777Y363587D02*
X1285777Y352573D01*
X1266763Y352573D01*
X1266763Y363587D01*
X1285777Y363587D01*
X1285777Y354716D02*
X1266763Y354716D01*
X1266763Y356859D02*
X1285777Y356859D01*
X1285777Y359002D02*
X1266763Y359002D01*
X1266763Y361145D02*
X1285777Y361145D01*
X1285777Y363288D02*
X1266763Y363288D01*
X1285777Y408573D02*
X1285777Y419587D01*
X1285777Y408573D02*
X1266763Y408573D01*
X1266763Y419587D01*
X1285777Y419587D01*
X1285777Y410716D02*
X1266763Y410716D01*
X1266763Y412859D02*
X1285777Y412859D01*
X1285777Y415002D02*
X1266763Y415002D01*
X1266763Y417145D02*
X1285777Y417145D01*
X1285777Y419288D02*
X1266763Y419288D01*
D13*
X1245778Y373588D02*
X1245778Y368572D01*
X1233262Y368572D01*
X1233262Y373588D01*
X1245778Y373588D01*
X1245778Y370713D02*
X1233262Y370713D01*
X1233262Y372854D02*
X1245778Y372854D01*
X1245778Y378572D02*
X1245778Y383588D01*
X1245778Y378572D02*
X1233262Y378572D01*
X1233262Y383588D01*
X1245778Y383588D01*
X1245778Y380713D02*
X1233262Y380713D01*
X1233262Y382854D02*
X1245778Y382854D01*
X1245778Y388572D02*
X1245778Y393588D01*
X1245778Y388572D02*
X1233262Y388572D01*
X1233262Y393588D01*
X1245778Y393588D01*
X1245778Y390713D02*
X1233262Y390713D01*
X1233262Y392854D02*
X1245778Y392854D01*
X1245778Y398572D02*
X1245778Y403588D01*
X1245778Y398572D02*
X1233262Y398572D01*
X1233262Y403588D01*
X1245778Y403588D01*
X1245778Y400713D02*
X1233262Y400713D01*
X1233262Y402854D02*
X1245778Y402854D01*
D14*
X1098868Y323152D02*
X1088852Y323152D01*
X1088852Y332168D01*
X1098868Y332168D01*
X1098868Y323152D01*
X1098868Y325293D02*
X1088852Y325293D01*
X1088852Y327434D02*
X1098868Y327434D01*
X1098868Y329575D02*
X1088852Y329575D01*
X1088852Y331716D02*
X1098868Y331716D01*
X1105852Y323152D02*
X1115868Y323152D01*
X1105852Y323152D02*
X1105852Y332168D01*
X1115868Y332168D01*
X1115868Y323152D01*
X1115868Y325293D02*
X1105852Y325293D01*
X1105852Y327434D02*
X1115868Y327434D01*
X1115868Y329575D02*
X1105852Y329575D01*
X1105852Y331716D02*
X1115868Y331716D01*
D15*
X1064064Y331154D02*
X1064064Y324166D01*
X1057076Y324166D01*
X1057076Y331154D01*
X1064064Y331154D01*
X1064064Y328235D02*
X1057076Y328235D01*
X1081604Y331154D02*
X1081604Y324166D01*
X1074616Y324166D01*
X1074616Y331154D01*
X1081604Y331154D01*
X1081604Y328235D02*
X1074616Y328235D01*
D14*
X1221168Y415752D02*
X1221168Y425768D01*
X1221168Y415752D02*
X1212152Y415752D01*
X1212152Y425768D01*
X1221168Y425768D01*
X1221168Y417893D02*
X1212152Y417893D01*
X1212152Y420034D02*
X1221168Y420034D01*
X1221168Y422175D02*
X1212152Y422175D01*
X1212152Y424316D02*
X1221168Y424316D01*
X1221168Y432752D02*
X1221168Y442768D01*
X1221168Y432752D02*
X1212152Y432752D01*
X1212152Y442768D01*
X1221168Y442768D01*
X1221168Y434893D02*
X1212152Y434893D01*
X1212152Y437034D02*
X1221168Y437034D01*
X1221168Y439175D02*
X1212152Y439175D01*
X1212152Y441316D02*
X1221168Y441316D01*
X1203388Y425768D02*
X1203388Y415752D01*
X1194372Y415752D01*
X1194372Y425768D01*
X1203388Y425768D01*
X1203388Y417893D02*
X1194372Y417893D01*
X1194372Y420034D02*
X1203388Y420034D01*
X1203388Y422175D02*
X1194372Y422175D01*
X1194372Y424316D02*
X1203388Y424316D01*
X1203388Y432752D02*
X1203388Y442768D01*
X1203388Y432752D02*
X1194372Y432752D01*
X1194372Y442768D01*
X1203388Y442768D01*
X1203388Y434893D02*
X1194372Y434893D01*
X1194372Y437034D02*
X1203388Y437034D01*
X1203388Y439175D02*
X1194372Y439175D01*
X1194372Y441316D02*
X1203388Y441316D01*
D10*
X1264920Y284480D03*
X1061720Y284480D03*
D16*
X1173818Y396578D02*
X1176822Y396578D01*
X1173818Y396578D02*
X1173818Y399582D01*
X1176822Y399582D01*
X1176822Y396578D01*
X1176822Y398731D02*
X1173818Y398731D01*
X1173818Y388578D02*
X1176822Y388578D01*
X1173818Y388578D02*
X1173818Y391582D01*
X1176822Y391582D01*
X1176822Y388578D01*
X1176822Y390731D02*
X1173818Y390731D01*
X1173818Y380578D02*
X1176822Y380578D01*
X1173818Y380578D02*
X1173818Y383582D01*
X1176822Y383582D01*
X1176822Y380578D01*
X1176822Y382731D02*
X1173818Y382731D01*
X1173818Y372578D02*
X1176822Y372578D01*
X1173818Y372578D02*
X1173818Y375582D01*
X1176822Y375582D01*
X1176822Y372578D01*
X1176822Y374731D02*
X1173818Y374731D01*
X1152822Y372578D02*
X1149818Y372578D01*
X1149818Y375582D01*
X1152822Y375582D01*
X1152822Y372578D01*
X1152822Y374731D02*
X1149818Y374731D01*
X1149818Y380578D02*
X1152822Y380578D01*
X1149818Y380578D02*
X1149818Y383582D01*
X1152822Y383582D01*
X1152822Y380578D01*
X1152822Y382731D02*
X1149818Y382731D01*
X1149818Y388578D02*
X1152822Y388578D01*
X1149818Y388578D02*
X1149818Y391582D01*
X1152822Y391582D01*
X1152822Y388578D01*
X1152822Y390731D02*
X1149818Y390731D01*
X1149818Y396578D02*
X1152822Y396578D01*
X1149818Y396578D02*
X1149818Y399582D01*
X1152822Y399582D01*
X1152822Y396578D01*
X1152822Y398731D02*
X1149818Y398731D01*
D14*
X1138728Y386778D02*
X1128712Y386778D01*
X1138728Y386778D02*
X1138728Y377762D01*
X1128712Y377762D01*
X1128712Y386778D01*
X1128712Y379903D02*
X1138728Y379903D01*
X1138728Y382044D02*
X1128712Y382044D01*
X1128712Y384185D02*
X1138728Y384185D01*
X1138728Y386326D02*
X1128712Y386326D01*
X1121728Y386778D02*
X1111712Y386778D01*
X1121728Y386778D02*
X1121728Y377762D01*
X1111712Y377762D01*
X1111712Y386778D01*
X1111712Y379903D02*
X1121728Y379903D01*
X1121728Y382044D02*
X1111712Y382044D01*
X1111712Y384185D02*
X1121728Y384185D01*
X1121728Y386326D02*
X1111712Y386326D01*
X1142428Y398362D02*
X1142428Y408378D01*
X1142428Y398362D02*
X1133412Y398362D01*
X1133412Y408378D01*
X1142428Y408378D01*
X1142428Y400503D02*
X1133412Y400503D01*
X1133412Y402644D02*
X1142428Y402644D01*
X1142428Y404785D02*
X1133412Y404785D01*
X1133412Y406926D02*
X1142428Y406926D01*
X1142428Y415362D02*
X1142428Y425378D01*
X1142428Y415362D02*
X1133412Y415362D01*
X1133412Y425378D01*
X1142428Y425378D01*
X1142428Y417503D02*
X1133412Y417503D01*
X1133412Y419644D02*
X1142428Y419644D01*
X1142428Y421785D02*
X1133412Y421785D01*
X1133412Y423926D02*
X1142428Y423926D01*
D17*
X1226820Y271780D03*
X1201420Y271780D03*
X1176020Y271780D03*
X1150620Y271780D03*
X1125220Y271780D03*
X1099820Y271780D03*
D14*
X1111712Y356172D02*
X1121728Y356172D01*
X1111712Y356172D02*
X1111712Y365188D01*
X1121728Y365188D01*
X1121728Y356172D01*
X1121728Y358313D02*
X1111712Y358313D01*
X1111712Y360454D02*
X1121728Y360454D01*
X1121728Y362595D02*
X1111712Y362595D01*
X1111712Y364736D02*
X1121728Y364736D01*
X1128712Y356172D02*
X1138728Y356172D01*
X1128712Y356172D02*
X1128712Y365188D01*
X1138728Y365188D01*
X1138728Y356172D01*
X1138728Y358313D02*
X1128712Y358313D01*
X1128712Y360454D02*
X1138728Y360454D01*
X1138728Y362595D02*
X1128712Y362595D01*
X1128712Y364736D02*
X1138728Y364736D01*
D10*
X1320800Y487680D03*
X1524000Y487680D03*
D11*
X1540510Y267970D03*
X1303020Y505460D03*
D12*
X1299943Y419587D02*
X1299943Y408573D01*
X1299943Y419587D02*
X1318957Y419587D01*
X1318957Y408573D01*
X1299943Y408573D01*
X1299943Y410716D02*
X1318957Y410716D01*
X1318957Y412859D02*
X1299943Y412859D01*
X1299943Y415002D02*
X1318957Y415002D01*
X1318957Y417145D02*
X1299943Y417145D01*
X1299943Y419288D02*
X1318957Y419288D01*
X1299943Y363587D02*
X1299943Y352573D01*
X1299943Y363587D02*
X1318957Y363587D01*
X1318957Y352573D01*
X1299943Y352573D01*
X1299943Y354716D02*
X1318957Y354716D01*
X1318957Y356859D02*
X1299943Y356859D01*
X1299943Y359002D02*
X1318957Y359002D01*
X1318957Y361145D02*
X1299943Y361145D01*
X1299943Y363288D02*
X1318957Y363288D01*
D13*
X1339942Y398572D02*
X1339942Y403588D01*
X1352458Y403588D01*
X1352458Y398572D01*
X1339942Y398572D01*
X1339942Y400713D02*
X1352458Y400713D01*
X1352458Y402854D02*
X1339942Y402854D01*
X1339942Y393588D02*
X1339942Y388572D01*
X1339942Y393588D02*
X1352458Y393588D01*
X1352458Y388572D01*
X1339942Y388572D01*
X1339942Y390713D02*
X1352458Y390713D01*
X1352458Y392854D02*
X1339942Y392854D01*
X1339942Y383588D02*
X1339942Y378572D01*
X1339942Y383588D02*
X1352458Y383588D01*
X1352458Y378572D01*
X1339942Y378572D01*
X1339942Y380713D02*
X1352458Y380713D01*
X1352458Y382854D02*
X1339942Y382854D01*
X1339942Y373588D02*
X1339942Y368572D01*
X1339942Y373588D02*
X1352458Y373588D01*
X1352458Y368572D01*
X1339942Y368572D01*
X1339942Y370713D02*
X1352458Y370713D01*
X1352458Y372854D02*
X1339942Y372854D01*
D12*
X1544857Y363587D02*
X1544857Y352573D01*
X1525843Y352573D01*
X1525843Y363587D01*
X1544857Y363587D01*
X1544857Y354716D02*
X1525843Y354716D01*
X1525843Y356859D02*
X1544857Y356859D01*
X1544857Y359002D02*
X1525843Y359002D01*
X1525843Y361145D02*
X1544857Y361145D01*
X1544857Y363288D02*
X1525843Y363288D01*
X1544857Y408573D02*
X1544857Y419587D01*
X1544857Y408573D02*
X1525843Y408573D01*
X1525843Y419587D01*
X1544857Y419587D01*
X1544857Y410716D02*
X1525843Y410716D01*
X1525843Y412859D02*
X1544857Y412859D01*
X1544857Y415002D02*
X1525843Y415002D01*
X1525843Y417145D02*
X1544857Y417145D01*
X1544857Y419288D02*
X1525843Y419288D01*
D13*
X1504858Y373588D02*
X1504858Y368572D01*
X1492342Y368572D01*
X1492342Y373588D01*
X1504858Y373588D01*
X1504858Y370713D02*
X1492342Y370713D01*
X1492342Y372854D02*
X1504858Y372854D01*
X1504858Y378572D02*
X1504858Y383588D01*
X1504858Y378572D02*
X1492342Y378572D01*
X1492342Y383588D01*
X1504858Y383588D01*
X1504858Y380713D02*
X1492342Y380713D01*
X1492342Y382854D02*
X1504858Y382854D01*
X1504858Y388572D02*
X1504858Y393588D01*
X1504858Y388572D02*
X1492342Y388572D01*
X1492342Y393588D01*
X1504858Y393588D01*
X1504858Y390713D02*
X1492342Y390713D01*
X1492342Y392854D02*
X1504858Y392854D01*
X1504858Y398572D02*
X1504858Y403588D01*
X1504858Y398572D02*
X1492342Y398572D01*
X1492342Y403588D01*
X1504858Y403588D01*
X1504858Y400713D02*
X1492342Y400713D01*
X1492342Y402854D02*
X1504858Y402854D01*
D14*
X1357948Y323152D02*
X1347932Y323152D01*
X1347932Y332168D01*
X1357948Y332168D01*
X1357948Y323152D01*
X1357948Y325293D02*
X1347932Y325293D01*
X1347932Y327434D02*
X1357948Y327434D01*
X1357948Y329575D02*
X1347932Y329575D01*
X1347932Y331716D02*
X1357948Y331716D01*
X1364932Y323152D02*
X1374948Y323152D01*
X1364932Y323152D02*
X1364932Y332168D01*
X1374948Y332168D01*
X1374948Y323152D01*
X1374948Y325293D02*
X1364932Y325293D01*
X1364932Y327434D02*
X1374948Y327434D01*
X1374948Y329575D02*
X1364932Y329575D01*
X1364932Y331716D02*
X1374948Y331716D01*
D15*
X1323144Y331154D02*
X1323144Y324166D01*
X1316156Y324166D01*
X1316156Y331154D01*
X1323144Y331154D01*
X1323144Y328235D02*
X1316156Y328235D01*
X1340684Y331154D02*
X1340684Y324166D01*
X1333696Y324166D01*
X1333696Y331154D01*
X1340684Y331154D01*
X1340684Y328235D02*
X1333696Y328235D01*
D14*
X1480248Y415752D02*
X1480248Y425768D01*
X1480248Y415752D02*
X1471232Y415752D01*
X1471232Y425768D01*
X1480248Y425768D01*
X1480248Y417893D02*
X1471232Y417893D01*
X1471232Y420034D02*
X1480248Y420034D01*
X1480248Y422175D02*
X1471232Y422175D01*
X1471232Y424316D02*
X1480248Y424316D01*
X1480248Y432752D02*
X1480248Y442768D01*
X1480248Y432752D02*
X1471232Y432752D01*
X1471232Y442768D01*
X1480248Y442768D01*
X1480248Y434893D02*
X1471232Y434893D01*
X1471232Y437034D02*
X1480248Y437034D01*
X1480248Y439175D02*
X1471232Y439175D01*
X1471232Y441316D02*
X1480248Y441316D01*
X1462468Y425768D02*
X1462468Y415752D01*
X1453452Y415752D01*
X1453452Y425768D01*
X1462468Y425768D01*
X1462468Y417893D02*
X1453452Y417893D01*
X1453452Y420034D02*
X1462468Y420034D01*
X1462468Y422175D02*
X1453452Y422175D01*
X1453452Y424316D02*
X1462468Y424316D01*
X1462468Y432752D02*
X1462468Y442768D01*
X1462468Y432752D02*
X1453452Y432752D01*
X1453452Y442768D01*
X1462468Y442768D01*
X1462468Y434893D02*
X1453452Y434893D01*
X1453452Y437034D02*
X1462468Y437034D01*
X1462468Y439175D02*
X1453452Y439175D01*
X1453452Y441316D02*
X1462468Y441316D01*
D10*
X1524000Y284480D03*
X1320800Y284480D03*
D16*
X1432898Y396578D02*
X1435902Y396578D01*
X1432898Y396578D02*
X1432898Y399582D01*
X1435902Y399582D01*
X1435902Y396578D01*
X1435902Y398731D02*
X1432898Y398731D01*
X1432898Y388578D02*
X1435902Y388578D01*
X1432898Y388578D02*
X1432898Y391582D01*
X1435902Y391582D01*
X1435902Y388578D01*
X1435902Y390731D02*
X1432898Y390731D01*
X1432898Y380578D02*
X1435902Y380578D01*
X1432898Y380578D02*
X1432898Y383582D01*
X1435902Y383582D01*
X1435902Y380578D01*
X1435902Y382731D02*
X1432898Y382731D01*
X1432898Y372578D02*
X1435902Y372578D01*
X1432898Y372578D02*
X1432898Y375582D01*
X1435902Y375582D01*
X1435902Y372578D01*
X1435902Y374731D02*
X1432898Y374731D01*
X1411902Y372578D02*
X1408898Y372578D01*
X1408898Y375582D01*
X1411902Y375582D01*
X1411902Y372578D01*
X1411902Y374731D02*
X1408898Y374731D01*
X1408898Y380578D02*
X1411902Y380578D01*
X1408898Y380578D02*
X1408898Y383582D01*
X1411902Y383582D01*
X1411902Y380578D01*
X1411902Y382731D02*
X1408898Y382731D01*
X1408898Y388578D02*
X1411902Y388578D01*
X1408898Y388578D02*
X1408898Y391582D01*
X1411902Y391582D01*
X1411902Y388578D01*
X1411902Y390731D02*
X1408898Y390731D01*
X1408898Y396578D02*
X1411902Y396578D01*
X1408898Y396578D02*
X1408898Y399582D01*
X1411902Y399582D01*
X1411902Y396578D01*
X1411902Y398731D02*
X1408898Y398731D01*
D14*
X1397808Y386778D02*
X1387792Y386778D01*
X1397808Y386778D02*
X1397808Y377762D01*
X1387792Y377762D01*
X1387792Y386778D01*
X1387792Y379903D02*
X1397808Y379903D01*
X1397808Y382044D02*
X1387792Y382044D01*
X1387792Y384185D02*
X1397808Y384185D01*
X1397808Y386326D02*
X1387792Y386326D01*
X1380808Y386778D02*
X1370792Y386778D01*
X1380808Y386778D02*
X1380808Y377762D01*
X1370792Y377762D01*
X1370792Y386778D01*
X1370792Y379903D02*
X1380808Y379903D01*
X1380808Y382044D02*
X1370792Y382044D01*
X1370792Y384185D02*
X1380808Y384185D01*
X1380808Y386326D02*
X1370792Y386326D01*
X1401508Y398362D02*
X1401508Y408378D01*
X1401508Y398362D02*
X1392492Y398362D01*
X1392492Y408378D01*
X1401508Y408378D01*
X1401508Y400503D02*
X1392492Y400503D01*
X1392492Y402644D02*
X1401508Y402644D01*
X1401508Y404785D02*
X1392492Y404785D01*
X1392492Y406926D02*
X1401508Y406926D01*
X1401508Y415362D02*
X1401508Y425378D01*
X1401508Y415362D02*
X1392492Y415362D01*
X1392492Y425378D01*
X1401508Y425378D01*
X1401508Y417503D02*
X1392492Y417503D01*
X1392492Y419644D02*
X1401508Y419644D01*
X1401508Y421785D02*
X1392492Y421785D01*
X1392492Y423926D02*
X1401508Y423926D01*
D17*
X1485900Y271780D03*
X1460500Y271780D03*
X1435100Y271780D03*
X1409700Y271780D03*
X1384300Y271780D03*
X1358900Y271780D03*
D14*
X1370792Y356172D02*
X1380808Y356172D01*
X1370792Y356172D02*
X1370792Y365188D01*
X1380808Y365188D01*
X1380808Y356172D01*
X1380808Y358313D02*
X1370792Y358313D01*
X1370792Y360454D02*
X1380808Y360454D01*
X1380808Y362595D02*
X1370792Y362595D01*
X1370792Y364736D02*
X1380808Y364736D01*
X1387792Y356172D02*
X1397808Y356172D01*
X1387792Y356172D02*
X1387792Y365188D01*
X1397808Y365188D01*
X1397808Y356172D01*
X1397808Y358313D02*
X1387792Y358313D01*
X1387792Y360454D02*
X1397808Y360454D01*
X1397808Y362595D02*
X1387792Y362595D01*
X1387792Y364736D02*
X1397808Y364736D01*
D10*
X25400Y746760D03*
X228600Y746760D03*
D11*
X245110Y527050D03*
X7620Y764540D03*
D12*
X4543Y678667D02*
X4543Y667653D01*
X4543Y678667D02*
X23557Y678667D01*
X23557Y667653D01*
X4543Y667653D01*
X4543Y669796D02*
X23557Y669796D01*
X23557Y671939D02*
X4543Y671939D01*
X4543Y674082D02*
X23557Y674082D01*
X23557Y676225D02*
X4543Y676225D01*
X4543Y678368D02*
X23557Y678368D01*
X4543Y622667D02*
X4543Y611653D01*
X4543Y622667D02*
X23557Y622667D01*
X23557Y611653D01*
X4543Y611653D01*
X4543Y613796D02*
X23557Y613796D01*
X23557Y615939D02*
X4543Y615939D01*
X4543Y618082D02*
X23557Y618082D01*
X23557Y620225D02*
X4543Y620225D01*
X4543Y622368D02*
X23557Y622368D01*
D13*
X44542Y657652D02*
X44542Y662668D01*
X57058Y662668D01*
X57058Y657652D01*
X44542Y657652D01*
X44542Y659793D02*
X57058Y659793D01*
X57058Y661934D02*
X44542Y661934D01*
X44542Y652668D02*
X44542Y647652D01*
X44542Y652668D02*
X57058Y652668D01*
X57058Y647652D01*
X44542Y647652D01*
X44542Y649793D02*
X57058Y649793D01*
X57058Y651934D02*
X44542Y651934D01*
X44542Y642668D02*
X44542Y637652D01*
X44542Y642668D02*
X57058Y642668D01*
X57058Y637652D01*
X44542Y637652D01*
X44542Y639793D02*
X57058Y639793D01*
X57058Y641934D02*
X44542Y641934D01*
X44542Y632668D02*
X44542Y627652D01*
X44542Y632668D02*
X57058Y632668D01*
X57058Y627652D01*
X44542Y627652D01*
X44542Y629793D02*
X57058Y629793D01*
X57058Y631934D02*
X44542Y631934D01*
D12*
X249457Y622667D02*
X249457Y611653D01*
X230443Y611653D01*
X230443Y622667D01*
X249457Y622667D01*
X249457Y613796D02*
X230443Y613796D01*
X230443Y615939D02*
X249457Y615939D01*
X249457Y618082D02*
X230443Y618082D01*
X230443Y620225D02*
X249457Y620225D01*
X249457Y622368D02*
X230443Y622368D01*
X249457Y667653D02*
X249457Y678667D01*
X249457Y667653D02*
X230443Y667653D01*
X230443Y678667D01*
X249457Y678667D01*
X249457Y669796D02*
X230443Y669796D01*
X230443Y671939D02*
X249457Y671939D01*
X249457Y674082D02*
X230443Y674082D01*
X230443Y676225D02*
X249457Y676225D01*
X249457Y678368D02*
X230443Y678368D01*
D13*
X209458Y632668D02*
X209458Y627652D01*
X196942Y627652D01*
X196942Y632668D01*
X209458Y632668D01*
X209458Y629793D02*
X196942Y629793D01*
X196942Y631934D02*
X209458Y631934D01*
X209458Y637652D02*
X209458Y642668D01*
X209458Y637652D02*
X196942Y637652D01*
X196942Y642668D01*
X209458Y642668D01*
X209458Y639793D02*
X196942Y639793D01*
X196942Y641934D02*
X209458Y641934D01*
X209458Y647652D02*
X209458Y652668D01*
X209458Y647652D02*
X196942Y647652D01*
X196942Y652668D01*
X209458Y652668D01*
X209458Y649793D02*
X196942Y649793D01*
X196942Y651934D02*
X209458Y651934D01*
X209458Y657652D02*
X209458Y662668D01*
X209458Y657652D02*
X196942Y657652D01*
X196942Y662668D01*
X209458Y662668D01*
X209458Y659793D02*
X196942Y659793D01*
X196942Y661934D02*
X209458Y661934D01*
D14*
X62548Y582232D02*
X52532Y582232D01*
X52532Y591248D01*
X62548Y591248D01*
X62548Y582232D01*
X62548Y584373D02*
X52532Y584373D01*
X52532Y586514D02*
X62548Y586514D01*
X62548Y588655D02*
X52532Y588655D01*
X52532Y590796D02*
X62548Y590796D01*
X69532Y582232D02*
X79548Y582232D01*
X69532Y582232D02*
X69532Y591248D01*
X79548Y591248D01*
X79548Y582232D01*
X79548Y584373D02*
X69532Y584373D01*
X69532Y586514D02*
X79548Y586514D01*
X79548Y588655D02*
X69532Y588655D01*
X69532Y590796D02*
X79548Y590796D01*
D15*
X27744Y590234D02*
X27744Y583246D01*
X20756Y583246D01*
X20756Y590234D01*
X27744Y590234D01*
X27744Y587315D02*
X20756Y587315D01*
X45284Y590234D02*
X45284Y583246D01*
X38296Y583246D01*
X38296Y590234D01*
X45284Y590234D01*
X45284Y587315D02*
X38296Y587315D01*
D14*
X184848Y674832D02*
X184848Y684848D01*
X184848Y674832D02*
X175832Y674832D01*
X175832Y684848D01*
X184848Y684848D01*
X184848Y676973D02*
X175832Y676973D01*
X175832Y679114D02*
X184848Y679114D01*
X184848Y681255D02*
X175832Y681255D01*
X175832Y683396D02*
X184848Y683396D01*
X184848Y691832D02*
X184848Y701848D01*
X184848Y691832D02*
X175832Y691832D01*
X175832Y701848D01*
X184848Y701848D01*
X184848Y693973D02*
X175832Y693973D01*
X175832Y696114D02*
X184848Y696114D01*
X184848Y698255D02*
X175832Y698255D01*
X175832Y700396D02*
X184848Y700396D01*
X167068Y684848D02*
X167068Y674832D01*
X158052Y674832D01*
X158052Y684848D01*
X167068Y684848D01*
X167068Y676973D02*
X158052Y676973D01*
X158052Y679114D02*
X167068Y679114D01*
X167068Y681255D02*
X158052Y681255D01*
X158052Y683396D02*
X167068Y683396D01*
X167068Y691832D02*
X167068Y701848D01*
X167068Y691832D02*
X158052Y691832D01*
X158052Y701848D01*
X167068Y701848D01*
X167068Y693973D02*
X158052Y693973D01*
X158052Y696114D02*
X167068Y696114D01*
X167068Y698255D02*
X158052Y698255D01*
X158052Y700396D02*
X167068Y700396D01*
D10*
X228600Y543560D03*
X25400Y543560D03*
D16*
X137498Y655658D02*
X140502Y655658D01*
X137498Y655658D02*
X137498Y658662D01*
X140502Y658662D01*
X140502Y655658D01*
X140502Y657811D02*
X137498Y657811D01*
X137498Y647658D02*
X140502Y647658D01*
X137498Y647658D02*
X137498Y650662D01*
X140502Y650662D01*
X140502Y647658D01*
X140502Y649811D02*
X137498Y649811D01*
X137498Y639658D02*
X140502Y639658D01*
X137498Y639658D02*
X137498Y642662D01*
X140502Y642662D01*
X140502Y639658D01*
X140502Y641811D02*
X137498Y641811D01*
X137498Y631658D02*
X140502Y631658D01*
X137498Y631658D02*
X137498Y634662D01*
X140502Y634662D01*
X140502Y631658D01*
X140502Y633811D02*
X137498Y633811D01*
X116502Y631658D02*
X113498Y631658D01*
X113498Y634662D01*
X116502Y634662D01*
X116502Y631658D01*
X116502Y633811D02*
X113498Y633811D01*
X113498Y639658D02*
X116502Y639658D01*
X113498Y639658D02*
X113498Y642662D01*
X116502Y642662D01*
X116502Y639658D01*
X116502Y641811D02*
X113498Y641811D01*
X113498Y647658D02*
X116502Y647658D01*
X113498Y647658D02*
X113498Y650662D01*
X116502Y650662D01*
X116502Y647658D01*
X116502Y649811D02*
X113498Y649811D01*
X113498Y655658D02*
X116502Y655658D01*
X113498Y655658D02*
X113498Y658662D01*
X116502Y658662D01*
X116502Y655658D01*
X116502Y657811D02*
X113498Y657811D01*
D14*
X102408Y645858D02*
X92392Y645858D01*
X102408Y645858D02*
X102408Y636842D01*
X92392Y636842D01*
X92392Y645858D01*
X92392Y638983D02*
X102408Y638983D01*
X102408Y641124D02*
X92392Y641124D01*
X92392Y643265D02*
X102408Y643265D01*
X102408Y645406D02*
X92392Y645406D01*
X85408Y645858D02*
X75392Y645858D01*
X85408Y645858D02*
X85408Y636842D01*
X75392Y636842D01*
X75392Y645858D01*
X75392Y638983D02*
X85408Y638983D01*
X85408Y641124D02*
X75392Y641124D01*
X75392Y643265D02*
X85408Y643265D01*
X85408Y645406D02*
X75392Y645406D01*
X106108Y657442D02*
X106108Y667458D01*
X106108Y657442D02*
X97092Y657442D01*
X97092Y667458D01*
X106108Y667458D01*
X106108Y659583D02*
X97092Y659583D01*
X97092Y661724D02*
X106108Y661724D01*
X106108Y663865D02*
X97092Y663865D01*
X97092Y666006D02*
X106108Y666006D01*
X106108Y674442D02*
X106108Y684458D01*
X106108Y674442D02*
X97092Y674442D01*
X97092Y684458D01*
X106108Y684458D01*
X106108Y676583D02*
X97092Y676583D01*
X97092Y678724D02*
X106108Y678724D01*
X106108Y680865D02*
X97092Y680865D01*
X97092Y683006D02*
X106108Y683006D01*
D17*
X190500Y530860D03*
X165100Y530860D03*
X139700Y530860D03*
X114300Y530860D03*
X88900Y530860D03*
X63500Y530860D03*
D14*
X75392Y615252D02*
X85408Y615252D01*
X75392Y615252D02*
X75392Y624268D01*
X85408Y624268D01*
X85408Y615252D01*
X85408Y617393D02*
X75392Y617393D01*
X75392Y619534D02*
X85408Y619534D01*
X85408Y621675D02*
X75392Y621675D01*
X75392Y623816D02*
X85408Y623816D01*
X92392Y615252D02*
X102408Y615252D01*
X92392Y615252D02*
X92392Y624268D01*
X102408Y624268D01*
X102408Y615252D01*
X102408Y617393D02*
X92392Y617393D01*
X92392Y619534D02*
X102408Y619534D01*
X102408Y621675D02*
X92392Y621675D01*
X92392Y623816D02*
X102408Y623816D01*
D10*
X284480Y746760D03*
X487680Y746760D03*
D11*
X504190Y527050D03*
X266700Y764540D03*
D12*
X263623Y678667D02*
X263623Y667653D01*
X263623Y678667D02*
X282637Y678667D01*
X282637Y667653D01*
X263623Y667653D01*
X263623Y669796D02*
X282637Y669796D01*
X282637Y671939D02*
X263623Y671939D01*
X263623Y674082D02*
X282637Y674082D01*
X282637Y676225D02*
X263623Y676225D01*
X263623Y678368D02*
X282637Y678368D01*
X263623Y622667D02*
X263623Y611653D01*
X263623Y622667D02*
X282637Y622667D01*
X282637Y611653D01*
X263623Y611653D01*
X263623Y613796D02*
X282637Y613796D01*
X282637Y615939D02*
X263623Y615939D01*
X263623Y618082D02*
X282637Y618082D01*
X282637Y620225D02*
X263623Y620225D01*
X263623Y622368D02*
X282637Y622368D01*
D13*
X303622Y657652D02*
X303622Y662668D01*
X316138Y662668D01*
X316138Y657652D01*
X303622Y657652D01*
X303622Y659793D02*
X316138Y659793D01*
X316138Y661934D02*
X303622Y661934D01*
X303622Y652668D02*
X303622Y647652D01*
X303622Y652668D02*
X316138Y652668D01*
X316138Y647652D01*
X303622Y647652D01*
X303622Y649793D02*
X316138Y649793D01*
X316138Y651934D02*
X303622Y651934D01*
X303622Y642668D02*
X303622Y637652D01*
X303622Y642668D02*
X316138Y642668D01*
X316138Y637652D01*
X303622Y637652D01*
X303622Y639793D02*
X316138Y639793D01*
X316138Y641934D02*
X303622Y641934D01*
X303622Y632668D02*
X303622Y627652D01*
X303622Y632668D02*
X316138Y632668D01*
X316138Y627652D01*
X303622Y627652D01*
X303622Y629793D02*
X316138Y629793D01*
X316138Y631934D02*
X303622Y631934D01*
D12*
X508537Y622667D02*
X508537Y611653D01*
X489523Y611653D01*
X489523Y622667D01*
X508537Y622667D01*
X508537Y613796D02*
X489523Y613796D01*
X489523Y615939D02*
X508537Y615939D01*
X508537Y618082D02*
X489523Y618082D01*
X489523Y620225D02*
X508537Y620225D01*
X508537Y622368D02*
X489523Y622368D01*
X508537Y667653D02*
X508537Y678667D01*
X508537Y667653D02*
X489523Y667653D01*
X489523Y678667D01*
X508537Y678667D01*
X508537Y669796D02*
X489523Y669796D01*
X489523Y671939D02*
X508537Y671939D01*
X508537Y674082D02*
X489523Y674082D01*
X489523Y676225D02*
X508537Y676225D01*
X508537Y678368D02*
X489523Y678368D01*
D13*
X468538Y632668D02*
X468538Y627652D01*
X456022Y627652D01*
X456022Y632668D01*
X468538Y632668D01*
X468538Y629793D02*
X456022Y629793D01*
X456022Y631934D02*
X468538Y631934D01*
X468538Y637652D02*
X468538Y642668D01*
X468538Y637652D02*
X456022Y637652D01*
X456022Y642668D01*
X468538Y642668D01*
X468538Y639793D02*
X456022Y639793D01*
X456022Y641934D02*
X468538Y641934D01*
X468538Y647652D02*
X468538Y652668D01*
X468538Y647652D02*
X456022Y647652D01*
X456022Y652668D01*
X468538Y652668D01*
X468538Y649793D02*
X456022Y649793D01*
X456022Y651934D02*
X468538Y651934D01*
X468538Y657652D02*
X468538Y662668D01*
X468538Y657652D02*
X456022Y657652D01*
X456022Y662668D01*
X468538Y662668D01*
X468538Y659793D02*
X456022Y659793D01*
X456022Y661934D02*
X468538Y661934D01*
D14*
X321628Y582232D02*
X311612Y582232D01*
X311612Y591248D01*
X321628Y591248D01*
X321628Y582232D01*
X321628Y584373D02*
X311612Y584373D01*
X311612Y586514D02*
X321628Y586514D01*
X321628Y588655D02*
X311612Y588655D01*
X311612Y590796D02*
X321628Y590796D01*
X328612Y582232D02*
X338628Y582232D01*
X328612Y582232D02*
X328612Y591248D01*
X338628Y591248D01*
X338628Y582232D01*
X338628Y584373D02*
X328612Y584373D01*
X328612Y586514D02*
X338628Y586514D01*
X338628Y588655D02*
X328612Y588655D01*
X328612Y590796D02*
X338628Y590796D01*
D15*
X286824Y590234D02*
X286824Y583246D01*
X279836Y583246D01*
X279836Y590234D01*
X286824Y590234D01*
X286824Y587315D02*
X279836Y587315D01*
X304364Y590234D02*
X304364Y583246D01*
X297376Y583246D01*
X297376Y590234D01*
X304364Y590234D01*
X304364Y587315D02*
X297376Y587315D01*
D14*
X443928Y674832D02*
X443928Y684848D01*
X443928Y674832D02*
X434912Y674832D01*
X434912Y684848D01*
X443928Y684848D01*
X443928Y676973D02*
X434912Y676973D01*
X434912Y679114D02*
X443928Y679114D01*
X443928Y681255D02*
X434912Y681255D01*
X434912Y683396D02*
X443928Y683396D01*
X443928Y691832D02*
X443928Y701848D01*
X443928Y691832D02*
X434912Y691832D01*
X434912Y701848D01*
X443928Y701848D01*
X443928Y693973D02*
X434912Y693973D01*
X434912Y696114D02*
X443928Y696114D01*
X443928Y698255D02*
X434912Y698255D01*
X434912Y700396D02*
X443928Y700396D01*
X426148Y684848D02*
X426148Y674832D01*
X417132Y674832D01*
X417132Y684848D01*
X426148Y684848D01*
X426148Y676973D02*
X417132Y676973D01*
X417132Y679114D02*
X426148Y679114D01*
X426148Y681255D02*
X417132Y681255D01*
X417132Y683396D02*
X426148Y683396D01*
X426148Y691832D02*
X426148Y701848D01*
X426148Y691832D02*
X417132Y691832D01*
X417132Y701848D01*
X426148Y701848D01*
X426148Y693973D02*
X417132Y693973D01*
X417132Y696114D02*
X426148Y696114D01*
X426148Y698255D02*
X417132Y698255D01*
X417132Y700396D02*
X426148Y700396D01*
D10*
X487680Y543560D03*
X284480Y543560D03*
D16*
X396578Y655658D02*
X399582Y655658D01*
X396578Y655658D02*
X396578Y658662D01*
X399582Y658662D01*
X399582Y655658D01*
X399582Y657811D02*
X396578Y657811D01*
X396578Y647658D02*
X399582Y647658D01*
X396578Y647658D02*
X396578Y650662D01*
X399582Y650662D01*
X399582Y647658D01*
X399582Y649811D02*
X396578Y649811D01*
X396578Y639658D02*
X399582Y639658D01*
X396578Y639658D02*
X396578Y642662D01*
X399582Y642662D01*
X399582Y639658D01*
X399582Y641811D02*
X396578Y641811D01*
X396578Y631658D02*
X399582Y631658D01*
X396578Y631658D02*
X396578Y634662D01*
X399582Y634662D01*
X399582Y631658D01*
X399582Y633811D02*
X396578Y633811D01*
X375582Y631658D02*
X372578Y631658D01*
X372578Y634662D01*
X375582Y634662D01*
X375582Y631658D01*
X375582Y633811D02*
X372578Y633811D01*
X372578Y639658D02*
X375582Y639658D01*
X372578Y639658D02*
X372578Y642662D01*
X375582Y642662D01*
X375582Y639658D01*
X375582Y641811D02*
X372578Y641811D01*
X372578Y647658D02*
X375582Y647658D01*
X372578Y647658D02*
X372578Y650662D01*
X375582Y650662D01*
X375582Y647658D01*
X375582Y649811D02*
X372578Y649811D01*
X372578Y655658D02*
X375582Y655658D01*
X372578Y655658D02*
X372578Y658662D01*
X375582Y658662D01*
X375582Y655658D01*
X375582Y657811D02*
X372578Y657811D01*
D14*
X361488Y645858D02*
X351472Y645858D01*
X361488Y645858D02*
X361488Y636842D01*
X351472Y636842D01*
X351472Y645858D01*
X351472Y638983D02*
X361488Y638983D01*
X361488Y641124D02*
X351472Y641124D01*
X351472Y643265D02*
X361488Y643265D01*
X361488Y645406D02*
X351472Y645406D01*
X344488Y645858D02*
X334472Y645858D01*
X344488Y645858D02*
X344488Y636842D01*
X334472Y636842D01*
X334472Y645858D01*
X334472Y638983D02*
X344488Y638983D01*
X344488Y641124D02*
X334472Y641124D01*
X334472Y643265D02*
X344488Y643265D01*
X344488Y645406D02*
X334472Y645406D01*
X365188Y657442D02*
X365188Y667458D01*
X365188Y657442D02*
X356172Y657442D01*
X356172Y667458D01*
X365188Y667458D01*
X365188Y659583D02*
X356172Y659583D01*
X356172Y661724D02*
X365188Y661724D01*
X365188Y663865D02*
X356172Y663865D01*
X356172Y666006D02*
X365188Y666006D01*
X365188Y674442D02*
X365188Y684458D01*
X365188Y674442D02*
X356172Y674442D01*
X356172Y684458D01*
X365188Y684458D01*
X365188Y676583D02*
X356172Y676583D01*
X356172Y678724D02*
X365188Y678724D01*
X365188Y680865D02*
X356172Y680865D01*
X356172Y683006D02*
X365188Y683006D01*
D17*
X449580Y530860D03*
X424180Y530860D03*
X398780Y530860D03*
X373380Y530860D03*
X347980Y530860D03*
X322580Y530860D03*
D14*
X334472Y615252D02*
X344488Y615252D01*
X334472Y615252D02*
X334472Y624268D01*
X344488Y624268D01*
X344488Y615252D01*
X344488Y617393D02*
X334472Y617393D01*
X334472Y619534D02*
X344488Y619534D01*
X344488Y621675D02*
X334472Y621675D01*
X334472Y623816D02*
X344488Y623816D01*
X351472Y615252D02*
X361488Y615252D01*
X351472Y615252D02*
X351472Y624268D01*
X361488Y624268D01*
X361488Y615252D01*
X361488Y617393D02*
X351472Y617393D01*
X351472Y619534D02*
X361488Y619534D01*
X361488Y621675D02*
X351472Y621675D01*
X351472Y623816D02*
X361488Y623816D01*
D10*
X543560Y746760D03*
X746760Y746760D03*
D11*
X763270Y527050D03*
X525780Y764540D03*
D12*
X522703Y678667D02*
X522703Y667653D01*
X522703Y678667D02*
X541717Y678667D01*
X541717Y667653D01*
X522703Y667653D01*
X522703Y669796D02*
X541717Y669796D01*
X541717Y671939D02*
X522703Y671939D01*
X522703Y674082D02*
X541717Y674082D01*
X541717Y676225D02*
X522703Y676225D01*
X522703Y678368D02*
X541717Y678368D01*
X522703Y622667D02*
X522703Y611653D01*
X522703Y622667D02*
X541717Y622667D01*
X541717Y611653D01*
X522703Y611653D01*
X522703Y613796D02*
X541717Y613796D01*
X541717Y615939D02*
X522703Y615939D01*
X522703Y618082D02*
X541717Y618082D01*
X541717Y620225D02*
X522703Y620225D01*
X522703Y622368D02*
X541717Y622368D01*
D13*
X562702Y657652D02*
X562702Y662668D01*
X575218Y662668D01*
X575218Y657652D01*
X562702Y657652D01*
X562702Y659793D02*
X575218Y659793D01*
X575218Y661934D02*
X562702Y661934D01*
X562702Y652668D02*
X562702Y647652D01*
X562702Y652668D02*
X575218Y652668D01*
X575218Y647652D01*
X562702Y647652D01*
X562702Y649793D02*
X575218Y649793D01*
X575218Y651934D02*
X562702Y651934D01*
X562702Y642668D02*
X562702Y637652D01*
X562702Y642668D02*
X575218Y642668D01*
X575218Y637652D01*
X562702Y637652D01*
X562702Y639793D02*
X575218Y639793D01*
X575218Y641934D02*
X562702Y641934D01*
X562702Y632668D02*
X562702Y627652D01*
X562702Y632668D02*
X575218Y632668D01*
X575218Y627652D01*
X562702Y627652D01*
X562702Y629793D02*
X575218Y629793D01*
X575218Y631934D02*
X562702Y631934D01*
D12*
X767617Y622667D02*
X767617Y611653D01*
X748603Y611653D01*
X748603Y622667D01*
X767617Y622667D01*
X767617Y613796D02*
X748603Y613796D01*
X748603Y615939D02*
X767617Y615939D01*
X767617Y618082D02*
X748603Y618082D01*
X748603Y620225D02*
X767617Y620225D01*
X767617Y622368D02*
X748603Y622368D01*
X767617Y667653D02*
X767617Y678667D01*
X767617Y667653D02*
X748603Y667653D01*
X748603Y678667D01*
X767617Y678667D01*
X767617Y669796D02*
X748603Y669796D01*
X748603Y671939D02*
X767617Y671939D01*
X767617Y674082D02*
X748603Y674082D01*
X748603Y676225D02*
X767617Y676225D01*
X767617Y678368D02*
X748603Y678368D01*
D13*
X727618Y632668D02*
X727618Y627652D01*
X715102Y627652D01*
X715102Y632668D01*
X727618Y632668D01*
X727618Y629793D02*
X715102Y629793D01*
X715102Y631934D02*
X727618Y631934D01*
X727618Y637652D02*
X727618Y642668D01*
X727618Y637652D02*
X715102Y637652D01*
X715102Y642668D01*
X727618Y642668D01*
X727618Y639793D02*
X715102Y639793D01*
X715102Y641934D02*
X727618Y641934D01*
X727618Y647652D02*
X727618Y652668D01*
X727618Y647652D02*
X715102Y647652D01*
X715102Y652668D01*
X727618Y652668D01*
X727618Y649793D02*
X715102Y649793D01*
X715102Y651934D02*
X727618Y651934D01*
X727618Y657652D02*
X727618Y662668D01*
X727618Y657652D02*
X715102Y657652D01*
X715102Y662668D01*
X727618Y662668D01*
X727618Y659793D02*
X715102Y659793D01*
X715102Y661934D02*
X727618Y661934D01*
D14*
X580708Y582232D02*
X570692Y582232D01*
X570692Y591248D01*
X580708Y591248D01*
X580708Y582232D01*
X580708Y584373D02*
X570692Y584373D01*
X570692Y586514D02*
X580708Y586514D01*
X580708Y588655D02*
X570692Y588655D01*
X570692Y590796D02*
X580708Y590796D01*
X587692Y582232D02*
X597708Y582232D01*
X587692Y582232D02*
X587692Y591248D01*
X597708Y591248D01*
X597708Y582232D01*
X597708Y584373D02*
X587692Y584373D01*
X587692Y586514D02*
X597708Y586514D01*
X597708Y588655D02*
X587692Y588655D01*
X587692Y590796D02*
X597708Y590796D01*
D15*
X545904Y590234D02*
X545904Y583246D01*
X538916Y583246D01*
X538916Y590234D01*
X545904Y590234D01*
X545904Y587315D02*
X538916Y587315D01*
X563444Y590234D02*
X563444Y583246D01*
X556456Y583246D01*
X556456Y590234D01*
X563444Y590234D01*
X563444Y587315D02*
X556456Y587315D01*
D14*
X703008Y674832D02*
X703008Y684848D01*
X703008Y674832D02*
X693992Y674832D01*
X693992Y684848D01*
X703008Y684848D01*
X703008Y676973D02*
X693992Y676973D01*
X693992Y679114D02*
X703008Y679114D01*
X703008Y681255D02*
X693992Y681255D01*
X693992Y683396D02*
X703008Y683396D01*
X703008Y691832D02*
X703008Y701848D01*
X703008Y691832D02*
X693992Y691832D01*
X693992Y701848D01*
X703008Y701848D01*
X703008Y693973D02*
X693992Y693973D01*
X693992Y696114D02*
X703008Y696114D01*
X703008Y698255D02*
X693992Y698255D01*
X693992Y700396D02*
X703008Y700396D01*
X685228Y684848D02*
X685228Y674832D01*
X676212Y674832D01*
X676212Y684848D01*
X685228Y684848D01*
X685228Y676973D02*
X676212Y676973D01*
X676212Y679114D02*
X685228Y679114D01*
X685228Y681255D02*
X676212Y681255D01*
X676212Y683396D02*
X685228Y683396D01*
X685228Y691832D02*
X685228Y701848D01*
X685228Y691832D02*
X676212Y691832D01*
X676212Y701848D01*
X685228Y701848D01*
X685228Y693973D02*
X676212Y693973D01*
X676212Y696114D02*
X685228Y696114D01*
X685228Y698255D02*
X676212Y698255D01*
X676212Y700396D02*
X685228Y700396D01*
D10*
X746760Y543560D03*
X543560Y543560D03*
D16*
X655658Y655658D02*
X658662Y655658D01*
X655658Y655658D02*
X655658Y658662D01*
X658662Y658662D01*
X658662Y655658D01*
X658662Y657811D02*
X655658Y657811D01*
X655658Y647658D02*
X658662Y647658D01*
X655658Y647658D02*
X655658Y650662D01*
X658662Y650662D01*
X658662Y647658D01*
X658662Y649811D02*
X655658Y649811D01*
X655658Y639658D02*
X658662Y639658D01*
X655658Y639658D02*
X655658Y642662D01*
X658662Y642662D01*
X658662Y639658D01*
X658662Y641811D02*
X655658Y641811D01*
X655658Y631658D02*
X658662Y631658D01*
X655658Y631658D02*
X655658Y634662D01*
X658662Y634662D01*
X658662Y631658D01*
X658662Y633811D02*
X655658Y633811D01*
X634662Y631658D02*
X631658Y631658D01*
X631658Y634662D01*
X634662Y634662D01*
X634662Y631658D01*
X634662Y633811D02*
X631658Y633811D01*
X631658Y639658D02*
X634662Y639658D01*
X631658Y639658D02*
X631658Y642662D01*
X634662Y642662D01*
X634662Y639658D01*
X634662Y641811D02*
X631658Y641811D01*
X631658Y647658D02*
X634662Y647658D01*
X631658Y647658D02*
X631658Y650662D01*
X634662Y650662D01*
X634662Y647658D01*
X634662Y649811D02*
X631658Y649811D01*
X631658Y655658D02*
X634662Y655658D01*
X631658Y655658D02*
X631658Y658662D01*
X634662Y658662D01*
X634662Y655658D01*
X634662Y657811D02*
X631658Y657811D01*
D14*
X620568Y645858D02*
X610552Y645858D01*
X620568Y645858D02*
X620568Y636842D01*
X610552Y636842D01*
X610552Y645858D01*
X610552Y638983D02*
X620568Y638983D01*
X620568Y641124D02*
X610552Y641124D01*
X610552Y643265D02*
X620568Y643265D01*
X620568Y645406D02*
X610552Y645406D01*
X603568Y645858D02*
X593552Y645858D01*
X603568Y645858D02*
X603568Y636842D01*
X593552Y636842D01*
X593552Y645858D01*
X593552Y638983D02*
X603568Y638983D01*
X603568Y641124D02*
X593552Y641124D01*
X593552Y643265D02*
X603568Y643265D01*
X603568Y645406D02*
X593552Y645406D01*
X624268Y657442D02*
X624268Y667458D01*
X624268Y657442D02*
X615252Y657442D01*
X615252Y667458D01*
X624268Y667458D01*
X624268Y659583D02*
X615252Y659583D01*
X615252Y661724D02*
X624268Y661724D01*
X624268Y663865D02*
X615252Y663865D01*
X615252Y666006D02*
X624268Y666006D01*
X624268Y674442D02*
X624268Y684458D01*
X624268Y674442D02*
X615252Y674442D01*
X615252Y684458D01*
X624268Y684458D01*
X624268Y676583D02*
X615252Y676583D01*
X615252Y678724D02*
X624268Y678724D01*
X624268Y680865D02*
X615252Y680865D01*
X615252Y683006D02*
X624268Y683006D01*
D17*
X708660Y530860D03*
X683260Y530860D03*
X657860Y530860D03*
X632460Y530860D03*
X607060Y530860D03*
X581660Y530860D03*
D14*
X593552Y615252D02*
X603568Y615252D01*
X593552Y615252D02*
X593552Y624268D01*
X603568Y624268D01*
X603568Y615252D01*
X603568Y617393D02*
X593552Y617393D01*
X593552Y619534D02*
X603568Y619534D01*
X603568Y621675D02*
X593552Y621675D01*
X593552Y623816D02*
X603568Y623816D01*
X610552Y615252D02*
X620568Y615252D01*
X610552Y615252D02*
X610552Y624268D01*
X620568Y624268D01*
X620568Y615252D01*
X620568Y617393D02*
X610552Y617393D01*
X610552Y619534D02*
X620568Y619534D01*
X620568Y621675D02*
X610552Y621675D01*
X610552Y623816D02*
X620568Y623816D01*
D10*
X802640Y746760D03*
X1005840Y746760D03*
D11*
X1022350Y527050D03*
X784860Y764540D03*
D12*
X781783Y678667D02*
X781783Y667653D01*
X781783Y678667D02*
X800797Y678667D01*
X800797Y667653D01*
X781783Y667653D01*
X781783Y669796D02*
X800797Y669796D01*
X800797Y671939D02*
X781783Y671939D01*
X781783Y674082D02*
X800797Y674082D01*
X800797Y676225D02*
X781783Y676225D01*
X781783Y678368D02*
X800797Y678368D01*
X781783Y622667D02*
X781783Y611653D01*
X781783Y622667D02*
X800797Y622667D01*
X800797Y611653D01*
X781783Y611653D01*
X781783Y613796D02*
X800797Y613796D01*
X800797Y615939D02*
X781783Y615939D01*
X781783Y618082D02*
X800797Y618082D01*
X800797Y620225D02*
X781783Y620225D01*
X781783Y622368D02*
X800797Y622368D01*
D13*
X821782Y657652D02*
X821782Y662668D01*
X834298Y662668D01*
X834298Y657652D01*
X821782Y657652D01*
X821782Y659793D02*
X834298Y659793D01*
X834298Y661934D02*
X821782Y661934D01*
X821782Y652668D02*
X821782Y647652D01*
X821782Y652668D02*
X834298Y652668D01*
X834298Y647652D01*
X821782Y647652D01*
X821782Y649793D02*
X834298Y649793D01*
X834298Y651934D02*
X821782Y651934D01*
X821782Y642668D02*
X821782Y637652D01*
X821782Y642668D02*
X834298Y642668D01*
X834298Y637652D01*
X821782Y637652D01*
X821782Y639793D02*
X834298Y639793D01*
X834298Y641934D02*
X821782Y641934D01*
X821782Y632668D02*
X821782Y627652D01*
X821782Y632668D02*
X834298Y632668D01*
X834298Y627652D01*
X821782Y627652D01*
X821782Y629793D02*
X834298Y629793D01*
X834298Y631934D02*
X821782Y631934D01*
D12*
X1026697Y622667D02*
X1026697Y611653D01*
X1007683Y611653D01*
X1007683Y622667D01*
X1026697Y622667D01*
X1026697Y613796D02*
X1007683Y613796D01*
X1007683Y615939D02*
X1026697Y615939D01*
X1026697Y618082D02*
X1007683Y618082D01*
X1007683Y620225D02*
X1026697Y620225D01*
X1026697Y622368D02*
X1007683Y622368D01*
X1026697Y667653D02*
X1026697Y678667D01*
X1026697Y667653D02*
X1007683Y667653D01*
X1007683Y678667D01*
X1026697Y678667D01*
X1026697Y669796D02*
X1007683Y669796D01*
X1007683Y671939D02*
X1026697Y671939D01*
X1026697Y674082D02*
X1007683Y674082D01*
X1007683Y676225D02*
X1026697Y676225D01*
X1026697Y678368D02*
X1007683Y678368D01*
D13*
X986698Y632668D02*
X986698Y627652D01*
X974182Y627652D01*
X974182Y632668D01*
X986698Y632668D01*
X986698Y629793D02*
X974182Y629793D01*
X974182Y631934D02*
X986698Y631934D01*
X986698Y637652D02*
X986698Y642668D01*
X986698Y637652D02*
X974182Y637652D01*
X974182Y642668D01*
X986698Y642668D01*
X986698Y639793D02*
X974182Y639793D01*
X974182Y641934D02*
X986698Y641934D01*
X986698Y647652D02*
X986698Y652668D01*
X986698Y647652D02*
X974182Y647652D01*
X974182Y652668D01*
X986698Y652668D01*
X986698Y649793D02*
X974182Y649793D01*
X974182Y651934D02*
X986698Y651934D01*
X986698Y657652D02*
X986698Y662668D01*
X986698Y657652D02*
X974182Y657652D01*
X974182Y662668D01*
X986698Y662668D01*
X986698Y659793D02*
X974182Y659793D01*
X974182Y661934D02*
X986698Y661934D01*
D14*
X839788Y582232D02*
X829772Y582232D01*
X829772Y591248D01*
X839788Y591248D01*
X839788Y582232D01*
X839788Y584373D02*
X829772Y584373D01*
X829772Y586514D02*
X839788Y586514D01*
X839788Y588655D02*
X829772Y588655D01*
X829772Y590796D02*
X839788Y590796D01*
X846772Y582232D02*
X856788Y582232D01*
X846772Y582232D02*
X846772Y591248D01*
X856788Y591248D01*
X856788Y582232D01*
X856788Y584373D02*
X846772Y584373D01*
X846772Y586514D02*
X856788Y586514D01*
X856788Y588655D02*
X846772Y588655D01*
X846772Y590796D02*
X856788Y590796D01*
D15*
X804984Y590234D02*
X804984Y583246D01*
X797996Y583246D01*
X797996Y590234D01*
X804984Y590234D01*
X804984Y587315D02*
X797996Y587315D01*
X822524Y590234D02*
X822524Y583246D01*
X815536Y583246D01*
X815536Y590234D01*
X822524Y590234D01*
X822524Y587315D02*
X815536Y587315D01*
D14*
X962088Y674832D02*
X962088Y684848D01*
X962088Y674832D02*
X953072Y674832D01*
X953072Y684848D01*
X962088Y684848D01*
X962088Y676973D02*
X953072Y676973D01*
X953072Y679114D02*
X962088Y679114D01*
X962088Y681255D02*
X953072Y681255D01*
X953072Y683396D02*
X962088Y683396D01*
X962088Y691832D02*
X962088Y701848D01*
X962088Y691832D02*
X953072Y691832D01*
X953072Y701848D01*
X962088Y701848D01*
X962088Y693973D02*
X953072Y693973D01*
X953072Y696114D02*
X962088Y696114D01*
X962088Y698255D02*
X953072Y698255D01*
X953072Y700396D02*
X962088Y700396D01*
X944308Y684848D02*
X944308Y674832D01*
X935292Y674832D01*
X935292Y684848D01*
X944308Y684848D01*
X944308Y676973D02*
X935292Y676973D01*
X935292Y679114D02*
X944308Y679114D01*
X944308Y681255D02*
X935292Y681255D01*
X935292Y683396D02*
X944308Y683396D01*
X944308Y691832D02*
X944308Y701848D01*
X944308Y691832D02*
X935292Y691832D01*
X935292Y701848D01*
X944308Y701848D01*
X944308Y693973D02*
X935292Y693973D01*
X935292Y696114D02*
X944308Y696114D01*
X944308Y698255D02*
X935292Y698255D01*
X935292Y700396D02*
X944308Y700396D01*
D10*
X1005840Y543560D03*
X802640Y543560D03*
D16*
X914738Y655658D02*
X917742Y655658D01*
X914738Y655658D02*
X914738Y658662D01*
X917742Y658662D01*
X917742Y655658D01*
X917742Y657811D02*
X914738Y657811D01*
X914738Y647658D02*
X917742Y647658D01*
X914738Y647658D02*
X914738Y650662D01*
X917742Y650662D01*
X917742Y647658D01*
X917742Y649811D02*
X914738Y649811D01*
X914738Y639658D02*
X917742Y639658D01*
X914738Y639658D02*
X914738Y642662D01*
X917742Y642662D01*
X917742Y639658D01*
X917742Y641811D02*
X914738Y641811D01*
X914738Y631658D02*
X917742Y631658D01*
X914738Y631658D02*
X914738Y634662D01*
X917742Y634662D01*
X917742Y631658D01*
X917742Y633811D02*
X914738Y633811D01*
X893742Y631658D02*
X890738Y631658D01*
X890738Y634662D01*
X893742Y634662D01*
X893742Y631658D01*
X893742Y633811D02*
X890738Y633811D01*
X890738Y639658D02*
X893742Y639658D01*
X890738Y639658D02*
X890738Y642662D01*
X893742Y642662D01*
X893742Y639658D01*
X893742Y641811D02*
X890738Y641811D01*
X890738Y647658D02*
X893742Y647658D01*
X890738Y647658D02*
X890738Y650662D01*
X893742Y650662D01*
X893742Y647658D01*
X893742Y649811D02*
X890738Y649811D01*
X890738Y655658D02*
X893742Y655658D01*
X890738Y655658D02*
X890738Y658662D01*
X893742Y658662D01*
X893742Y655658D01*
X893742Y657811D02*
X890738Y657811D01*
D14*
X879648Y645858D02*
X869632Y645858D01*
X879648Y645858D02*
X879648Y636842D01*
X869632Y636842D01*
X869632Y645858D01*
X869632Y638983D02*
X879648Y638983D01*
X879648Y641124D02*
X869632Y641124D01*
X869632Y643265D02*
X879648Y643265D01*
X879648Y645406D02*
X869632Y645406D01*
X862648Y645858D02*
X852632Y645858D01*
X862648Y645858D02*
X862648Y636842D01*
X852632Y636842D01*
X852632Y645858D01*
X852632Y638983D02*
X862648Y638983D01*
X862648Y641124D02*
X852632Y641124D01*
X852632Y643265D02*
X862648Y643265D01*
X862648Y645406D02*
X852632Y645406D01*
X883348Y657442D02*
X883348Y667458D01*
X883348Y657442D02*
X874332Y657442D01*
X874332Y667458D01*
X883348Y667458D01*
X883348Y659583D02*
X874332Y659583D01*
X874332Y661724D02*
X883348Y661724D01*
X883348Y663865D02*
X874332Y663865D01*
X874332Y666006D02*
X883348Y666006D01*
X883348Y674442D02*
X883348Y684458D01*
X883348Y674442D02*
X874332Y674442D01*
X874332Y684458D01*
X883348Y684458D01*
X883348Y676583D02*
X874332Y676583D01*
X874332Y678724D02*
X883348Y678724D01*
X883348Y680865D02*
X874332Y680865D01*
X874332Y683006D02*
X883348Y683006D01*
D17*
X967740Y530860D03*
X942340Y530860D03*
X916940Y530860D03*
X891540Y530860D03*
X866140Y530860D03*
X840740Y530860D03*
D14*
X852632Y615252D02*
X862648Y615252D01*
X852632Y615252D02*
X852632Y624268D01*
X862648Y624268D01*
X862648Y615252D01*
X862648Y617393D02*
X852632Y617393D01*
X852632Y619534D02*
X862648Y619534D01*
X862648Y621675D02*
X852632Y621675D01*
X852632Y623816D02*
X862648Y623816D01*
X869632Y615252D02*
X879648Y615252D01*
X869632Y615252D02*
X869632Y624268D01*
X879648Y624268D01*
X879648Y615252D01*
X879648Y617393D02*
X869632Y617393D01*
X869632Y619534D02*
X879648Y619534D01*
X879648Y621675D02*
X869632Y621675D01*
X869632Y623816D02*
X879648Y623816D01*
D10*
X1061720Y746760D03*
X1264920Y746760D03*
D11*
X1281430Y527050D03*
X1043940Y764540D03*
D12*
X1040863Y678667D02*
X1040863Y667653D01*
X1040863Y678667D02*
X1059877Y678667D01*
X1059877Y667653D01*
X1040863Y667653D01*
X1040863Y669796D02*
X1059877Y669796D01*
X1059877Y671939D02*
X1040863Y671939D01*
X1040863Y674082D02*
X1059877Y674082D01*
X1059877Y676225D02*
X1040863Y676225D01*
X1040863Y678368D02*
X1059877Y678368D01*
X1040863Y622667D02*
X1040863Y611653D01*
X1040863Y622667D02*
X1059877Y622667D01*
X1059877Y611653D01*
X1040863Y611653D01*
X1040863Y613796D02*
X1059877Y613796D01*
X1059877Y615939D02*
X1040863Y615939D01*
X1040863Y618082D02*
X1059877Y618082D01*
X1059877Y620225D02*
X1040863Y620225D01*
X1040863Y622368D02*
X1059877Y622368D01*
D13*
X1080862Y657652D02*
X1080862Y662668D01*
X1093378Y662668D01*
X1093378Y657652D01*
X1080862Y657652D01*
X1080862Y659793D02*
X1093378Y659793D01*
X1093378Y661934D02*
X1080862Y661934D01*
X1080862Y652668D02*
X1080862Y647652D01*
X1080862Y652668D02*
X1093378Y652668D01*
X1093378Y647652D01*
X1080862Y647652D01*
X1080862Y649793D02*
X1093378Y649793D01*
X1093378Y651934D02*
X1080862Y651934D01*
X1080862Y642668D02*
X1080862Y637652D01*
X1080862Y642668D02*
X1093378Y642668D01*
X1093378Y637652D01*
X1080862Y637652D01*
X1080862Y639793D02*
X1093378Y639793D01*
X1093378Y641934D02*
X1080862Y641934D01*
X1080862Y632668D02*
X1080862Y627652D01*
X1080862Y632668D02*
X1093378Y632668D01*
X1093378Y627652D01*
X1080862Y627652D01*
X1080862Y629793D02*
X1093378Y629793D01*
X1093378Y631934D02*
X1080862Y631934D01*
D12*
X1285777Y622667D02*
X1285777Y611653D01*
X1266763Y611653D01*
X1266763Y622667D01*
X1285777Y622667D01*
X1285777Y613796D02*
X1266763Y613796D01*
X1266763Y615939D02*
X1285777Y615939D01*
X1285777Y618082D02*
X1266763Y618082D01*
X1266763Y620225D02*
X1285777Y620225D01*
X1285777Y622368D02*
X1266763Y622368D01*
X1285777Y667653D02*
X1285777Y678667D01*
X1285777Y667653D02*
X1266763Y667653D01*
X1266763Y678667D01*
X1285777Y678667D01*
X1285777Y669796D02*
X1266763Y669796D01*
X1266763Y671939D02*
X1285777Y671939D01*
X1285777Y674082D02*
X1266763Y674082D01*
X1266763Y676225D02*
X1285777Y676225D01*
X1285777Y678368D02*
X1266763Y678368D01*
D13*
X1245778Y632668D02*
X1245778Y627652D01*
X1233262Y627652D01*
X1233262Y632668D01*
X1245778Y632668D01*
X1245778Y629793D02*
X1233262Y629793D01*
X1233262Y631934D02*
X1245778Y631934D01*
X1245778Y637652D02*
X1245778Y642668D01*
X1245778Y637652D02*
X1233262Y637652D01*
X1233262Y642668D01*
X1245778Y642668D01*
X1245778Y639793D02*
X1233262Y639793D01*
X1233262Y641934D02*
X1245778Y641934D01*
X1245778Y647652D02*
X1245778Y652668D01*
X1245778Y647652D02*
X1233262Y647652D01*
X1233262Y652668D01*
X1245778Y652668D01*
X1245778Y649793D02*
X1233262Y649793D01*
X1233262Y651934D02*
X1245778Y651934D01*
X1245778Y657652D02*
X1245778Y662668D01*
X1245778Y657652D02*
X1233262Y657652D01*
X1233262Y662668D01*
X1245778Y662668D01*
X1245778Y659793D02*
X1233262Y659793D01*
X1233262Y661934D02*
X1245778Y661934D01*
D14*
X1098868Y582232D02*
X1088852Y582232D01*
X1088852Y591248D01*
X1098868Y591248D01*
X1098868Y582232D01*
X1098868Y584373D02*
X1088852Y584373D01*
X1088852Y586514D02*
X1098868Y586514D01*
X1098868Y588655D02*
X1088852Y588655D01*
X1088852Y590796D02*
X1098868Y590796D01*
X1105852Y582232D02*
X1115868Y582232D01*
X1105852Y582232D02*
X1105852Y591248D01*
X1115868Y591248D01*
X1115868Y582232D01*
X1115868Y584373D02*
X1105852Y584373D01*
X1105852Y586514D02*
X1115868Y586514D01*
X1115868Y588655D02*
X1105852Y588655D01*
X1105852Y590796D02*
X1115868Y590796D01*
D15*
X1064064Y590234D02*
X1064064Y583246D01*
X1057076Y583246D01*
X1057076Y590234D01*
X1064064Y590234D01*
X1064064Y587315D02*
X1057076Y587315D01*
X1081604Y590234D02*
X1081604Y583246D01*
X1074616Y583246D01*
X1074616Y590234D01*
X1081604Y590234D01*
X1081604Y587315D02*
X1074616Y587315D01*
D14*
X1221168Y674832D02*
X1221168Y684848D01*
X1221168Y674832D02*
X1212152Y674832D01*
X1212152Y684848D01*
X1221168Y684848D01*
X1221168Y676973D02*
X1212152Y676973D01*
X1212152Y679114D02*
X1221168Y679114D01*
X1221168Y681255D02*
X1212152Y681255D01*
X1212152Y683396D02*
X1221168Y683396D01*
X1221168Y691832D02*
X1221168Y701848D01*
X1221168Y691832D02*
X1212152Y691832D01*
X1212152Y701848D01*
X1221168Y701848D01*
X1221168Y693973D02*
X1212152Y693973D01*
X1212152Y696114D02*
X1221168Y696114D01*
X1221168Y698255D02*
X1212152Y698255D01*
X1212152Y700396D02*
X1221168Y700396D01*
X1203388Y684848D02*
X1203388Y674832D01*
X1194372Y674832D01*
X1194372Y684848D01*
X1203388Y684848D01*
X1203388Y676973D02*
X1194372Y676973D01*
X1194372Y679114D02*
X1203388Y679114D01*
X1203388Y681255D02*
X1194372Y681255D01*
X1194372Y683396D02*
X1203388Y683396D01*
X1203388Y691832D02*
X1203388Y701848D01*
X1203388Y691832D02*
X1194372Y691832D01*
X1194372Y701848D01*
X1203388Y701848D01*
X1203388Y693973D02*
X1194372Y693973D01*
X1194372Y696114D02*
X1203388Y696114D01*
X1203388Y698255D02*
X1194372Y698255D01*
X1194372Y700396D02*
X1203388Y700396D01*
D10*
X1264920Y543560D03*
X1061720Y543560D03*
D16*
X1173818Y655658D02*
X1176822Y655658D01*
X1173818Y655658D02*
X1173818Y658662D01*
X1176822Y658662D01*
X1176822Y655658D01*
X1176822Y657811D02*
X1173818Y657811D01*
X1173818Y647658D02*
X1176822Y647658D01*
X1173818Y647658D02*
X1173818Y650662D01*
X1176822Y650662D01*
X1176822Y647658D01*
X1176822Y649811D02*
X1173818Y649811D01*
X1173818Y639658D02*
X1176822Y639658D01*
X1173818Y639658D02*
X1173818Y642662D01*
X1176822Y642662D01*
X1176822Y639658D01*
X1176822Y641811D02*
X1173818Y641811D01*
X1173818Y631658D02*
X1176822Y631658D01*
X1173818Y631658D02*
X1173818Y634662D01*
X1176822Y634662D01*
X1176822Y631658D01*
X1176822Y633811D02*
X1173818Y633811D01*
X1152822Y631658D02*
X1149818Y631658D01*
X1149818Y634662D01*
X1152822Y634662D01*
X1152822Y631658D01*
X1152822Y633811D02*
X1149818Y633811D01*
X1149818Y639658D02*
X1152822Y639658D01*
X1149818Y639658D02*
X1149818Y642662D01*
X1152822Y642662D01*
X1152822Y639658D01*
X1152822Y641811D02*
X1149818Y641811D01*
X1149818Y647658D02*
X1152822Y647658D01*
X1149818Y647658D02*
X1149818Y650662D01*
X1152822Y650662D01*
X1152822Y647658D01*
X1152822Y649811D02*
X1149818Y649811D01*
X1149818Y655658D02*
X1152822Y655658D01*
X1149818Y655658D02*
X1149818Y658662D01*
X1152822Y658662D01*
X1152822Y655658D01*
X1152822Y657811D02*
X1149818Y657811D01*
D14*
X1138728Y645858D02*
X1128712Y645858D01*
X1138728Y645858D02*
X1138728Y636842D01*
X1128712Y636842D01*
X1128712Y645858D01*
X1128712Y638983D02*
X1138728Y638983D01*
X1138728Y641124D02*
X1128712Y641124D01*
X1128712Y643265D02*
X1138728Y643265D01*
X1138728Y645406D02*
X1128712Y645406D01*
X1121728Y645858D02*
X1111712Y645858D01*
X1121728Y645858D02*
X1121728Y636842D01*
X1111712Y636842D01*
X1111712Y645858D01*
X1111712Y638983D02*
X1121728Y638983D01*
X1121728Y641124D02*
X1111712Y641124D01*
X1111712Y643265D02*
X1121728Y643265D01*
X1121728Y645406D02*
X1111712Y645406D01*
X1142428Y657442D02*
X1142428Y667458D01*
X1142428Y657442D02*
X1133412Y657442D01*
X1133412Y667458D01*
X1142428Y667458D01*
X1142428Y659583D02*
X1133412Y659583D01*
X1133412Y661724D02*
X1142428Y661724D01*
X1142428Y663865D02*
X1133412Y663865D01*
X1133412Y666006D02*
X1142428Y666006D01*
X1142428Y674442D02*
X1142428Y684458D01*
X1142428Y674442D02*
X1133412Y674442D01*
X1133412Y684458D01*
X1142428Y684458D01*
X1142428Y676583D02*
X1133412Y676583D01*
X1133412Y678724D02*
X1142428Y678724D01*
X1142428Y680865D02*
X1133412Y680865D01*
X1133412Y683006D02*
X1142428Y683006D01*
D17*
X1226820Y530860D03*
X1201420Y530860D03*
X1176020Y530860D03*
X1150620Y530860D03*
X1125220Y530860D03*
X1099820Y530860D03*
D14*
X1111712Y615252D02*
X1121728Y615252D01*
X1111712Y615252D02*
X1111712Y624268D01*
X1121728Y624268D01*
X1121728Y615252D01*
X1121728Y617393D02*
X1111712Y617393D01*
X1111712Y619534D02*
X1121728Y619534D01*
X1121728Y621675D02*
X1111712Y621675D01*
X1111712Y623816D02*
X1121728Y623816D01*
X1128712Y615252D02*
X1138728Y615252D01*
X1128712Y615252D02*
X1128712Y624268D01*
X1138728Y624268D01*
X1138728Y615252D01*
X1138728Y617393D02*
X1128712Y617393D01*
X1128712Y619534D02*
X1138728Y619534D01*
X1138728Y621675D02*
X1128712Y621675D01*
X1128712Y623816D02*
X1138728Y623816D01*
D10*
X1320800Y746760D03*
X1524000Y746760D03*
D11*
X1540510Y527050D03*
X1303020Y764540D03*
D12*
X1299943Y678667D02*
X1299943Y667653D01*
X1299943Y678667D02*
X1318957Y678667D01*
X1318957Y667653D01*
X1299943Y667653D01*
X1299943Y669796D02*
X1318957Y669796D01*
X1318957Y671939D02*
X1299943Y671939D01*
X1299943Y674082D02*
X1318957Y674082D01*
X1318957Y676225D02*
X1299943Y676225D01*
X1299943Y678368D02*
X1318957Y678368D01*
X1299943Y622667D02*
X1299943Y611653D01*
X1299943Y622667D02*
X1318957Y622667D01*
X1318957Y611653D01*
X1299943Y611653D01*
X1299943Y613796D02*
X1318957Y613796D01*
X1318957Y615939D02*
X1299943Y615939D01*
X1299943Y618082D02*
X1318957Y618082D01*
X1318957Y620225D02*
X1299943Y620225D01*
X1299943Y622368D02*
X1318957Y622368D01*
D13*
X1339942Y657652D02*
X1339942Y662668D01*
X1352458Y662668D01*
X1352458Y657652D01*
X1339942Y657652D01*
X1339942Y659793D02*
X1352458Y659793D01*
X1352458Y661934D02*
X1339942Y661934D01*
X1339942Y652668D02*
X1339942Y647652D01*
X1339942Y652668D02*
X1352458Y652668D01*
X1352458Y647652D01*
X1339942Y647652D01*
X1339942Y649793D02*
X1352458Y649793D01*
X1352458Y651934D02*
X1339942Y651934D01*
X1339942Y642668D02*
X1339942Y637652D01*
X1339942Y642668D02*
X1352458Y642668D01*
X1352458Y637652D01*
X1339942Y637652D01*
X1339942Y639793D02*
X1352458Y639793D01*
X1352458Y641934D02*
X1339942Y641934D01*
X1339942Y632668D02*
X1339942Y627652D01*
X1339942Y632668D02*
X1352458Y632668D01*
X1352458Y627652D01*
X1339942Y627652D01*
X1339942Y629793D02*
X1352458Y629793D01*
X1352458Y631934D02*
X1339942Y631934D01*
D12*
X1544857Y622667D02*
X1544857Y611653D01*
X1525843Y611653D01*
X1525843Y622667D01*
X1544857Y622667D01*
X1544857Y613796D02*
X1525843Y613796D01*
X1525843Y615939D02*
X1544857Y615939D01*
X1544857Y618082D02*
X1525843Y618082D01*
X1525843Y620225D02*
X1544857Y620225D01*
X1544857Y622368D02*
X1525843Y622368D01*
X1544857Y667653D02*
X1544857Y678667D01*
X1544857Y667653D02*
X1525843Y667653D01*
X1525843Y678667D01*
X1544857Y678667D01*
X1544857Y669796D02*
X1525843Y669796D01*
X1525843Y671939D02*
X1544857Y671939D01*
X1544857Y674082D02*
X1525843Y674082D01*
X1525843Y676225D02*
X1544857Y676225D01*
X1544857Y678368D02*
X1525843Y678368D01*
D13*
X1504858Y632668D02*
X1504858Y627652D01*
X1492342Y627652D01*
X1492342Y632668D01*
X1504858Y632668D01*
X1504858Y629793D02*
X1492342Y629793D01*
X1492342Y631934D02*
X1504858Y631934D01*
X1504858Y637652D02*
X1504858Y642668D01*
X1504858Y637652D02*
X1492342Y637652D01*
X1492342Y642668D01*
X1504858Y642668D01*
X1504858Y639793D02*
X1492342Y639793D01*
X1492342Y641934D02*
X1504858Y641934D01*
X1504858Y647652D02*
X1504858Y652668D01*
X1504858Y647652D02*
X1492342Y647652D01*
X1492342Y652668D01*
X1504858Y652668D01*
X1504858Y649793D02*
X1492342Y649793D01*
X1492342Y651934D02*
X1504858Y651934D01*
X1504858Y657652D02*
X1504858Y662668D01*
X1504858Y657652D02*
X1492342Y657652D01*
X1492342Y662668D01*
X1504858Y662668D01*
X1504858Y659793D02*
X1492342Y659793D01*
X1492342Y661934D02*
X1504858Y661934D01*
D14*
X1357948Y582232D02*
X1347932Y582232D01*
X1347932Y591248D01*
X1357948Y591248D01*
X1357948Y582232D01*
X1357948Y584373D02*
X1347932Y584373D01*
X1347932Y586514D02*
X1357948Y586514D01*
X1357948Y588655D02*
X1347932Y588655D01*
X1347932Y590796D02*
X1357948Y590796D01*
X1364932Y582232D02*
X1374948Y582232D01*
X1364932Y582232D02*
X1364932Y591248D01*
X1374948Y591248D01*
X1374948Y582232D01*
X1374948Y584373D02*
X1364932Y584373D01*
X1364932Y586514D02*
X1374948Y586514D01*
X1374948Y588655D02*
X1364932Y588655D01*
X1364932Y590796D02*
X1374948Y590796D01*
D15*
X1323144Y590234D02*
X1323144Y583246D01*
X1316156Y583246D01*
X1316156Y590234D01*
X1323144Y590234D01*
X1323144Y587315D02*
X1316156Y587315D01*
X1340684Y590234D02*
X1340684Y583246D01*
X1333696Y583246D01*
X1333696Y590234D01*
X1340684Y590234D01*
X1340684Y587315D02*
X1333696Y587315D01*
D14*
X1480248Y674832D02*
X1480248Y684848D01*
X1480248Y674832D02*
X1471232Y674832D01*
X1471232Y684848D01*
X1480248Y684848D01*
X1480248Y676973D02*
X1471232Y676973D01*
X1471232Y679114D02*
X1480248Y679114D01*
X1480248Y681255D02*
X1471232Y681255D01*
X1471232Y683396D02*
X1480248Y683396D01*
X1480248Y691832D02*
X1480248Y701848D01*
X1480248Y691832D02*
X1471232Y691832D01*
X1471232Y701848D01*
X1480248Y701848D01*
X1480248Y693973D02*
X1471232Y693973D01*
X1471232Y696114D02*
X1480248Y696114D01*
X1480248Y698255D02*
X1471232Y698255D01*
X1471232Y700396D02*
X1480248Y700396D01*
X1462468Y684848D02*
X1462468Y674832D01*
X1453452Y674832D01*
X1453452Y684848D01*
X1462468Y684848D01*
X1462468Y676973D02*
X1453452Y676973D01*
X1453452Y679114D02*
X1462468Y679114D01*
X1462468Y681255D02*
X1453452Y681255D01*
X1453452Y683396D02*
X1462468Y683396D01*
X1462468Y691832D02*
X1462468Y701848D01*
X1462468Y691832D02*
X1453452Y691832D01*
X1453452Y701848D01*
X1462468Y701848D01*
X1462468Y693973D02*
X1453452Y693973D01*
X1453452Y696114D02*
X1462468Y696114D01*
X1462468Y698255D02*
X1453452Y698255D01*
X1453452Y700396D02*
X1462468Y700396D01*
D10*
X1524000Y543560D03*
X1320800Y543560D03*
D16*
X1432898Y655658D02*
X1435902Y655658D01*
X1432898Y655658D02*
X1432898Y658662D01*
X1435902Y658662D01*
X1435902Y655658D01*
X1435902Y657811D02*
X1432898Y657811D01*
X1432898Y647658D02*
X1435902Y647658D01*
X1432898Y647658D02*
X1432898Y650662D01*
X1435902Y650662D01*
X1435902Y647658D01*
X1435902Y649811D02*
X1432898Y649811D01*
X1432898Y639658D02*
X1435902Y639658D01*
X1432898Y639658D02*
X1432898Y642662D01*
X1435902Y642662D01*
X1435902Y639658D01*
X1435902Y641811D02*
X1432898Y641811D01*
X1432898Y631658D02*
X1435902Y631658D01*
X1432898Y631658D02*
X1432898Y634662D01*
X1435902Y634662D01*
X1435902Y631658D01*
X1435902Y633811D02*
X1432898Y633811D01*
X1411902Y631658D02*
X1408898Y631658D01*
X1408898Y634662D01*
X1411902Y634662D01*
X1411902Y631658D01*
X1411902Y633811D02*
X1408898Y633811D01*
X1408898Y639658D02*
X1411902Y639658D01*
X1408898Y639658D02*
X1408898Y642662D01*
X1411902Y642662D01*
X1411902Y639658D01*
X1411902Y641811D02*
X1408898Y641811D01*
X1408898Y647658D02*
X1411902Y647658D01*
X1408898Y647658D02*
X1408898Y650662D01*
X1411902Y650662D01*
X1411902Y647658D01*
X1411902Y649811D02*
X1408898Y649811D01*
X1408898Y655658D02*
X1411902Y655658D01*
X1408898Y655658D02*
X1408898Y658662D01*
X1411902Y658662D01*
X1411902Y655658D01*
X1411902Y657811D02*
X1408898Y657811D01*
D14*
X1397808Y645858D02*
X1387792Y645858D01*
X1397808Y645858D02*
X1397808Y636842D01*
X1387792Y636842D01*
X1387792Y645858D01*
X1387792Y638983D02*
X1397808Y638983D01*
X1397808Y641124D02*
X1387792Y641124D01*
X1387792Y643265D02*
X1397808Y643265D01*
X1397808Y645406D02*
X1387792Y645406D01*
X1380808Y645858D02*
X1370792Y645858D01*
X1380808Y645858D02*
X1380808Y636842D01*
X1370792Y636842D01*
X1370792Y645858D01*
X1370792Y638983D02*
X1380808Y638983D01*
X1380808Y641124D02*
X1370792Y641124D01*
X1370792Y643265D02*
X1380808Y643265D01*
X1380808Y645406D02*
X1370792Y645406D01*
X1401508Y657442D02*
X1401508Y667458D01*
X1401508Y657442D02*
X1392492Y657442D01*
X1392492Y667458D01*
X1401508Y667458D01*
X1401508Y659583D02*
X1392492Y659583D01*
X1392492Y661724D02*
X1401508Y661724D01*
X1401508Y663865D02*
X1392492Y663865D01*
X1392492Y666006D02*
X1401508Y666006D01*
X1401508Y674442D02*
X1401508Y684458D01*
X1401508Y674442D02*
X1392492Y674442D01*
X1392492Y684458D01*
X1401508Y684458D01*
X1401508Y676583D02*
X1392492Y676583D01*
X1392492Y678724D02*
X1401508Y678724D01*
X1401508Y680865D02*
X1392492Y680865D01*
X1392492Y683006D02*
X1401508Y683006D01*
D17*
X1485900Y530860D03*
X1460500Y530860D03*
X1435100Y530860D03*
X1409700Y530860D03*
X1384300Y530860D03*
X1358900Y530860D03*
D14*
X1370792Y615252D02*
X1380808Y615252D01*
X1370792Y615252D02*
X1370792Y624268D01*
X1380808Y624268D01*
X1380808Y615252D01*
X1380808Y617393D02*
X1370792Y617393D01*
X1370792Y619534D02*
X1380808Y619534D01*
X1380808Y621675D02*
X1370792Y621675D01*
X1370792Y623816D02*
X1380808Y623816D01*
X1387792Y615252D02*
X1397808Y615252D01*
X1387792Y615252D02*
X1387792Y624268D01*
X1397808Y624268D01*
X1397808Y615252D01*
X1397808Y617393D02*
X1387792Y617393D01*
X1387792Y619534D02*
X1397808Y619534D01*
X1397808Y621675D02*
X1387792Y621675D01*
X1387792Y623816D02*
X1397808Y623816D01*
D10*
X25400Y1005840D03*
X228600Y1005840D03*
D11*
X245110Y786130D03*
X7620Y1023620D03*
D12*
X4543Y937747D02*
X4543Y926733D01*
X4543Y937747D02*
X23557Y937747D01*
X23557Y926733D01*
X4543Y926733D01*
X4543Y928876D02*
X23557Y928876D01*
X23557Y931019D02*
X4543Y931019D01*
X4543Y933162D02*
X23557Y933162D01*
X23557Y935305D02*
X4543Y935305D01*
X4543Y937448D02*
X23557Y937448D01*
X4543Y881747D02*
X4543Y870733D01*
X4543Y881747D02*
X23557Y881747D01*
X23557Y870733D01*
X4543Y870733D01*
X4543Y872876D02*
X23557Y872876D01*
X23557Y875019D02*
X4543Y875019D01*
X4543Y877162D02*
X23557Y877162D01*
X23557Y879305D02*
X4543Y879305D01*
X4543Y881448D02*
X23557Y881448D01*
D13*
X44542Y916732D02*
X44542Y921748D01*
X57058Y921748D01*
X57058Y916732D01*
X44542Y916732D01*
X44542Y918873D02*
X57058Y918873D01*
X57058Y921014D02*
X44542Y921014D01*
X44542Y911748D02*
X44542Y906732D01*
X44542Y911748D02*
X57058Y911748D01*
X57058Y906732D01*
X44542Y906732D01*
X44542Y908873D02*
X57058Y908873D01*
X57058Y911014D02*
X44542Y911014D01*
X44542Y901748D02*
X44542Y896732D01*
X44542Y901748D02*
X57058Y901748D01*
X57058Y896732D01*
X44542Y896732D01*
X44542Y898873D02*
X57058Y898873D01*
X57058Y901014D02*
X44542Y901014D01*
X44542Y891748D02*
X44542Y886732D01*
X44542Y891748D02*
X57058Y891748D01*
X57058Y886732D01*
X44542Y886732D01*
X44542Y888873D02*
X57058Y888873D01*
X57058Y891014D02*
X44542Y891014D01*
D12*
X249457Y881747D02*
X249457Y870733D01*
X230443Y870733D01*
X230443Y881747D01*
X249457Y881747D01*
X249457Y872876D02*
X230443Y872876D01*
X230443Y875019D02*
X249457Y875019D01*
X249457Y877162D02*
X230443Y877162D01*
X230443Y879305D02*
X249457Y879305D01*
X249457Y881448D02*
X230443Y881448D01*
X249457Y926733D02*
X249457Y937747D01*
X249457Y926733D02*
X230443Y926733D01*
X230443Y937747D01*
X249457Y937747D01*
X249457Y928876D02*
X230443Y928876D01*
X230443Y931019D02*
X249457Y931019D01*
X249457Y933162D02*
X230443Y933162D01*
X230443Y935305D02*
X249457Y935305D01*
X249457Y937448D02*
X230443Y937448D01*
D13*
X209458Y891748D02*
X209458Y886732D01*
X196942Y886732D01*
X196942Y891748D01*
X209458Y891748D01*
X209458Y888873D02*
X196942Y888873D01*
X196942Y891014D02*
X209458Y891014D01*
X209458Y896732D02*
X209458Y901748D01*
X209458Y896732D02*
X196942Y896732D01*
X196942Y901748D01*
X209458Y901748D01*
X209458Y898873D02*
X196942Y898873D01*
X196942Y901014D02*
X209458Y901014D01*
X209458Y906732D02*
X209458Y911748D01*
X209458Y906732D02*
X196942Y906732D01*
X196942Y911748D01*
X209458Y911748D01*
X209458Y908873D02*
X196942Y908873D01*
X196942Y911014D02*
X209458Y911014D01*
X209458Y916732D02*
X209458Y921748D01*
X209458Y916732D02*
X196942Y916732D01*
X196942Y921748D01*
X209458Y921748D01*
X209458Y918873D02*
X196942Y918873D01*
X196942Y921014D02*
X209458Y921014D01*
D14*
X62548Y841312D02*
X52532Y841312D01*
X52532Y850328D01*
X62548Y850328D01*
X62548Y841312D01*
X62548Y843453D02*
X52532Y843453D01*
X52532Y845594D02*
X62548Y845594D01*
X62548Y847735D02*
X52532Y847735D01*
X52532Y849876D02*
X62548Y849876D01*
X69532Y841312D02*
X79548Y841312D01*
X69532Y841312D02*
X69532Y850328D01*
X79548Y850328D01*
X79548Y841312D01*
X79548Y843453D02*
X69532Y843453D01*
X69532Y845594D02*
X79548Y845594D01*
X79548Y847735D02*
X69532Y847735D01*
X69532Y849876D02*
X79548Y849876D01*
D15*
X27744Y849314D02*
X27744Y842326D01*
X20756Y842326D01*
X20756Y849314D01*
X27744Y849314D01*
X27744Y846395D02*
X20756Y846395D01*
X45284Y849314D02*
X45284Y842326D01*
X38296Y842326D01*
X38296Y849314D01*
X45284Y849314D01*
X45284Y846395D02*
X38296Y846395D01*
D14*
X184848Y933912D02*
X184848Y943928D01*
X184848Y933912D02*
X175832Y933912D01*
X175832Y943928D01*
X184848Y943928D01*
X184848Y936053D02*
X175832Y936053D01*
X175832Y938194D02*
X184848Y938194D01*
X184848Y940335D02*
X175832Y940335D01*
X175832Y942476D02*
X184848Y942476D01*
X184848Y950912D02*
X184848Y960928D01*
X184848Y950912D02*
X175832Y950912D01*
X175832Y960928D01*
X184848Y960928D01*
X184848Y953053D02*
X175832Y953053D01*
X175832Y955194D02*
X184848Y955194D01*
X184848Y957335D02*
X175832Y957335D01*
X175832Y959476D02*
X184848Y959476D01*
X167068Y943928D02*
X167068Y933912D01*
X158052Y933912D01*
X158052Y943928D01*
X167068Y943928D01*
X167068Y936053D02*
X158052Y936053D01*
X158052Y938194D02*
X167068Y938194D01*
X167068Y940335D02*
X158052Y940335D01*
X158052Y942476D02*
X167068Y942476D01*
X167068Y950912D02*
X167068Y960928D01*
X167068Y950912D02*
X158052Y950912D01*
X158052Y960928D01*
X167068Y960928D01*
X167068Y953053D02*
X158052Y953053D01*
X158052Y955194D02*
X167068Y955194D01*
X167068Y957335D02*
X158052Y957335D01*
X158052Y959476D02*
X167068Y959476D01*
D10*
X228600Y802640D03*
X25400Y802640D03*
D16*
X137498Y914738D02*
X140502Y914738D01*
X137498Y914738D02*
X137498Y917742D01*
X140502Y917742D01*
X140502Y914738D01*
X140502Y916891D02*
X137498Y916891D01*
X137498Y906738D02*
X140502Y906738D01*
X137498Y906738D02*
X137498Y909742D01*
X140502Y909742D01*
X140502Y906738D01*
X140502Y908891D02*
X137498Y908891D01*
X137498Y898738D02*
X140502Y898738D01*
X137498Y898738D02*
X137498Y901742D01*
X140502Y901742D01*
X140502Y898738D01*
X140502Y900891D02*
X137498Y900891D01*
X137498Y890738D02*
X140502Y890738D01*
X137498Y890738D02*
X137498Y893742D01*
X140502Y893742D01*
X140502Y890738D01*
X140502Y892891D02*
X137498Y892891D01*
X116502Y890738D02*
X113498Y890738D01*
X113498Y893742D01*
X116502Y893742D01*
X116502Y890738D01*
X116502Y892891D02*
X113498Y892891D01*
X113498Y898738D02*
X116502Y898738D01*
X113498Y898738D02*
X113498Y901742D01*
X116502Y901742D01*
X116502Y898738D01*
X116502Y900891D02*
X113498Y900891D01*
X113498Y906738D02*
X116502Y906738D01*
X113498Y906738D02*
X113498Y909742D01*
X116502Y909742D01*
X116502Y906738D01*
X116502Y908891D02*
X113498Y908891D01*
X113498Y914738D02*
X116502Y914738D01*
X113498Y914738D02*
X113498Y917742D01*
X116502Y917742D01*
X116502Y914738D01*
X116502Y916891D02*
X113498Y916891D01*
D14*
X102408Y904938D02*
X92392Y904938D01*
X102408Y904938D02*
X102408Y895922D01*
X92392Y895922D01*
X92392Y904938D01*
X92392Y898063D02*
X102408Y898063D01*
X102408Y900204D02*
X92392Y900204D01*
X92392Y902345D02*
X102408Y902345D01*
X102408Y904486D02*
X92392Y904486D01*
X85408Y904938D02*
X75392Y904938D01*
X85408Y904938D02*
X85408Y895922D01*
X75392Y895922D01*
X75392Y904938D01*
X75392Y898063D02*
X85408Y898063D01*
X85408Y900204D02*
X75392Y900204D01*
X75392Y902345D02*
X85408Y902345D01*
X85408Y904486D02*
X75392Y904486D01*
X106108Y916522D02*
X106108Y926538D01*
X106108Y916522D02*
X97092Y916522D01*
X97092Y926538D01*
X106108Y926538D01*
X106108Y918663D02*
X97092Y918663D01*
X97092Y920804D02*
X106108Y920804D01*
X106108Y922945D02*
X97092Y922945D01*
X97092Y925086D02*
X106108Y925086D01*
X106108Y933522D02*
X106108Y943538D01*
X106108Y933522D02*
X97092Y933522D01*
X97092Y943538D01*
X106108Y943538D01*
X106108Y935663D02*
X97092Y935663D01*
X97092Y937804D02*
X106108Y937804D01*
X106108Y939945D02*
X97092Y939945D01*
X97092Y942086D02*
X106108Y942086D01*
D17*
X190500Y789940D03*
X165100Y789940D03*
X139700Y789940D03*
X114300Y789940D03*
X88900Y789940D03*
X63500Y789940D03*
D14*
X75392Y874332D02*
X85408Y874332D01*
X75392Y874332D02*
X75392Y883348D01*
X85408Y883348D01*
X85408Y874332D01*
X85408Y876473D02*
X75392Y876473D01*
X75392Y878614D02*
X85408Y878614D01*
X85408Y880755D02*
X75392Y880755D01*
X75392Y882896D02*
X85408Y882896D01*
X92392Y874332D02*
X102408Y874332D01*
X92392Y874332D02*
X92392Y883348D01*
X102408Y883348D01*
X102408Y874332D01*
X102408Y876473D02*
X92392Y876473D01*
X92392Y878614D02*
X102408Y878614D01*
X102408Y880755D02*
X92392Y880755D01*
X92392Y882896D02*
X102408Y882896D01*
D10*
X284480Y1005840D03*
X487680Y1005840D03*
D11*
X504190Y786130D03*
X266700Y1023620D03*
D12*
X263623Y937747D02*
X263623Y926733D01*
X263623Y937747D02*
X282637Y937747D01*
X282637Y926733D01*
X263623Y926733D01*
X263623Y928876D02*
X282637Y928876D01*
X282637Y931019D02*
X263623Y931019D01*
X263623Y933162D02*
X282637Y933162D01*
X282637Y935305D02*
X263623Y935305D01*
X263623Y937448D02*
X282637Y937448D01*
X263623Y881747D02*
X263623Y870733D01*
X263623Y881747D02*
X282637Y881747D01*
X282637Y870733D01*
X263623Y870733D01*
X263623Y872876D02*
X282637Y872876D01*
X282637Y875019D02*
X263623Y875019D01*
X263623Y877162D02*
X282637Y877162D01*
X282637Y879305D02*
X263623Y879305D01*
X263623Y881448D02*
X282637Y881448D01*
D13*
X303622Y916732D02*
X303622Y921748D01*
X316138Y921748D01*
X316138Y916732D01*
X303622Y916732D01*
X303622Y918873D02*
X316138Y918873D01*
X316138Y921014D02*
X303622Y921014D01*
X303622Y911748D02*
X303622Y906732D01*
X303622Y911748D02*
X316138Y911748D01*
X316138Y906732D01*
X303622Y906732D01*
X303622Y908873D02*
X316138Y908873D01*
X316138Y911014D02*
X303622Y911014D01*
X303622Y901748D02*
X303622Y896732D01*
X303622Y901748D02*
X316138Y901748D01*
X316138Y896732D01*
X303622Y896732D01*
X303622Y898873D02*
X316138Y898873D01*
X316138Y901014D02*
X303622Y901014D01*
X303622Y891748D02*
X303622Y886732D01*
X303622Y891748D02*
X316138Y891748D01*
X316138Y886732D01*
X303622Y886732D01*
X303622Y888873D02*
X316138Y888873D01*
X316138Y891014D02*
X303622Y891014D01*
D12*
X508537Y881747D02*
X508537Y870733D01*
X489523Y870733D01*
X489523Y881747D01*
X508537Y881747D01*
X508537Y872876D02*
X489523Y872876D01*
X489523Y875019D02*
X508537Y875019D01*
X508537Y877162D02*
X489523Y877162D01*
X489523Y879305D02*
X508537Y879305D01*
X508537Y881448D02*
X489523Y881448D01*
X508537Y926733D02*
X508537Y937747D01*
X508537Y926733D02*
X489523Y926733D01*
X489523Y937747D01*
X508537Y937747D01*
X508537Y928876D02*
X489523Y928876D01*
X489523Y931019D02*
X508537Y931019D01*
X508537Y933162D02*
X489523Y933162D01*
X489523Y935305D02*
X508537Y935305D01*
X508537Y937448D02*
X489523Y937448D01*
D13*
X468538Y891748D02*
X468538Y886732D01*
X456022Y886732D01*
X456022Y891748D01*
X468538Y891748D01*
X468538Y888873D02*
X456022Y888873D01*
X456022Y891014D02*
X468538Y891014D01*
X468538Y896732D02*
X468538Y901748D01*
X468538Y896732D02*
X456022Y896732D01*
X456022Y901748D01*
X468538Y901748D01*
X468538Y898873D02*
X456022Y898873D01*
X456022Y901014D02*
X468538Y901014D01*
X468538Y906732D02*
X468538Y911748D01*
X468538Y906732D02*
X456022Y906732D01*
X456022Y911748D01*
X468538Y911748D01*
X468538Y908873D02*
X456022Y908873D01*
X456022Y911014D02*
X468538Y911014D01*
X468538Y916732D02*
X468538Y921748D01*
X468538Y916732D02*
X456022Y916732D01*
X456022Y921748D01*
X468538Y921748D01*
X468538Y918873D02*
X456022Y918873D01*
X456022Y921014D02*
X468538Y921014D01*
D14*
X321628Y841312D02*
X311612Y841312D01*
X311612Y850328D01*
X321628Y850328D01*
X321628Y841312D01*
X321628Y843453D02*
X311612Y843453D01*
X311612Y845594D02*
X321628Y845594D01*
X321628Y847735D02*
X311612Y847735D01*
X311612Y849876D02*
X321628Y849876D01*
X328612Y841312D02*
X338628Y841312D01*
X328612Y841312D02*
X328612Y850328D01*
X338628Y850328D01*
X338628Y841312D01*
X338628Y843453D02*
X328612Y843453D01*
X328612Y845594D02*
X338628Y845594D01*
X338628Y847735D02*
X328612Y847735D01*
X328612Y849876D02*
X338628Y849876D01*
D15*
X286824Y849314D02*
X286824Y842326D01*
X279836Y842326D01*
X279836Y849314D01*
X286824Y849314D01*
X286824Y846395D02*
X279836Y846395D01*
X304364Y849314D02*
X304364Y842326D01*
X297376Y842326D01*
X297376Y849314D01*
X304364Y849314D01*
X304364Y846395D02*
X297376Y846395D01*
D14*
X443928Y933912D02*
X443928Y943928D01*
X443928Y933912D02*
X434912Y933912D01*
X434912Y943928D01*
X443928Y943928D01*
X443928Y936053D02*
X434912Y936053D01*
X434912Y938194D02*
X443928Y938194D01*
X443928Y940335D02*
X434912Y940335D01*
X434912Y942476D02*
X443928Y942476D01*
X443928Y950912D02*
X443928Y960928D01*
X443928Y950912D02*
X434912Y950912D01*
X434912Y960928D01*
X443928Y960928D01*
X443928Y953053D02*
X434912Y953053D01*
X434912Y955194D02*
X443928Y955194D01*
X443928Y957335D02*
X434912Y957335D01*
X434912Y959476D02*
X443928Y959476D01*
X426148Y943928D02*
X426148Y933912D01*
X417132Y933912D01*
X417132Y943928D01*
X426148Y943928D01*
X426148Y936053D02*
X417132Y936053D01*
X417132Y938194D02*
X426148Y938194D01*
X426148Y940335D02*
X417132Y940335D01*
X417132Y942476D02*
X426148Y942476D01*
X426148Y950912D02*
X426148Y960928D01*
X426148Y950912D02*
X417132Y950912D01*
X417132Y960928D01*
X426148Y960928D01*
X426148Y953053D02*
X417132Y953053D01*
X417132Y955194D02*
X426148Y955194D01*
X426148Y957335D02*
X417132Y957335D01*
X417132Y959476D02*
X426148Y959476D01*
D10*
X487680Y802640D03*
X284480Y802640D03*
D16*
X396578Y914738D02*
X399582Y914738D01*
X396578Y914738D02*
X396578Y917742D01*
X399582Y917742D01*
X399582Y914738D01*
X399582Y916891D02*
X396578Y916891D01*
X396578Y906738D02*
X399582Y906738D01*
X396578Y906738D02*
X396578Y909742D01*
X399582Y909742D01*
X399582Y906738D01*
X399582Y908891D02*
X396578Y908891D01*
X396578Y898738D02*
X399582Y898738D01*
X396578Y898738D02*
X396578Y901742D01*
X399582Y901742D01*
X399582Y898738D01*
X399582Y900891D02*
X396578Y900891D01*
X396578Y890738D02*
X399582Y890738D01*
X396578Y890738D02*
X396578Y893742D01*
X399582Y893742D01*
X399582Y890738D01*
X399582Y892891D02*
X396578Y892891D01*
X375582Y890738D02*
X372578Y890738D01*
X372578Y893742D01*
X375582Y893742D01*
X375582Y890738D01*
X375582Y892891D02*
X372578Y892891D01*
X372578Y898738D02*
X375582Y898738D01*
X372578Y898738D02*
X372578Y901742D01*
X375582Y901742D01*
X375582Y898738D01*
X375582Y900891D02*
X372578Y900891D01*
X372578Y906738D02*
X375582Y906738D01*
X372578Y906738D02*
X372578Y909742D01*
X375582Y909742D01*
X375582Y906738D01*
X375582Y908891D02*
X372578Y908891D01*
X372578Y914738D02*
X375582Y914738D01*
X372578Y914738D02*
X372578Y917742D01*
X375582Y917742D01*
X375582Y914738D01*
X375582Y916891D02*
X372578Y916891D01*
D14*
X361488Y904938D02*
X351472Y904938D01*
X361488Y904938D02*
X361488Y895922D01*
X351472Y895922D01*
X351472Y904938D01*
X351472Y898063D02*
X361488Y898063D01*
X361488Y900204D02*
X351472Y900204D01*
X351472Y902345D02*
X361488Y902345D01*
X361488Y904486D02*
X351472Y904486D01*
X344488Y904938D02*
X334472Y904938D01*
X344488Y904938D02*
X344488Y895922D01*
X334472Y895922D01*
X334472Y904938D01*
X334472Y898063D02*
X344488Y898063D01*
X344488Y900204D02*
X334472Y900204D01*
X334472Y902345D02*
X344488Y902345D01*
X344488Y904486D02*
X334472Y904486D01*
X365188Y916522D02*
X365188Y926538D01*
X365188Y916522D02*
X356172Y916522D01*
X356172Y926538D01*
X365188Y926538D01*
X365188Y918663D02*
X356172Y918663D01*
X356172Y920804D02*
X365188Y920804D01*
X365188Y922945D02*
X356172Y922945D01*
X356172Y925086D02*
X365188Y925086D01*
X365188Y933522D02*
X365188Y943538D01*
X365188Y933522D02*
X356172Y933522D01*
X356172Y943538D01*
X365188Y943538D01*
X365188Y935663D02*
X356172Y935663D01*
X356172Y937804D02*
X365188Y937804D01*
X365188Y939945D02*
X356172Y939945D01*
X356172Y942086D02*
X365188Y942086D01*
D17*
X449580Y789940D03*
X424180Y789940D03*
X398780Y789940D03*
X373380Y789940D03*
X347980Y789940D03*
X322580Y789940D03*
D14*
X334472Y874332D02*
X344488Y874332D01*
X334472Y874332D02*
X334472Y883348D01*
X344488Y883348D01*
X344488Y874332D01*
X344488Y876473D02*
X334472Y876473D01*
X334472Y878614D02*
X344488Y878614D01*
X344488Y880755D02*
X334472Y880755D01*
X334472Y882896D02*
X344488Y882896D01*
X351472Y874332D02*
X361488Y874332D01*
X351472Y874332D02*
X351472Y883348D01*
X361488Y883348D01*
X361488Y874332D01*
X361488Y876473D02*
X351472Y876473D01*
X351472Y878614D02*
X361488Y878614D01*
X361488Y880755D02*
X351472Y880755D01*
X351472Y882896D02*
X361488Y882896D01*
D10*
X543560Y1005840D03*
X746760Y1005840D03*
D11*
X763270Y786130D03*
X525780Y1023620D03*
D12*
X522703Y937747D02*
X522703Y926733D01*
X522703Y937747D02*
X541717Y937747D01*
X541717Y926733D01*
X522703Y926733D01*
X522703Y928876D02*
X541717Y928876D01*
X541717Y931019D02*
X522703Y931019D01*
X522703Y933162D02*
X541717Y933162D01*
X541717Y935305D02*
X522703Y935305D01*
X522703Y937448D02*
X541717Y937448D01*
X522703Y881747D02*
X522703Y870733D01*
X522703Y881747D02*
X541717Y881747D01*
X541717Y870733D01*
X522703Y870733D01*
X522703Y872876D02*
X541717Y872876D01*
X541717Y875019D02*
X522703Y875019D01*
X522703Y877162D02*
X541717Y877162D01*
X541717Y879305D02*
X522703Y879305D01*
X522703Y881448D02*
X541717Y881448D01*
D13*
X562702Y916732D02*
X562702Y921748D01*
X575218Y921748D01*
X575218Y916732D01*
X562702Y916732D01*
X562702Y918873D02*
X575218Y918873D01*
X575218Y921014D02*
X562702Y921014D01*
X562702Y911748D02*
X562702Y906732D01*
X562702Y911748D02*
X575218Y911748D01*
X575218Y906732D01*
X562702Y906732D01*
X562702Y908873D02*
X575218Y908873D01*
X575218Y911014D02*
X562702Y911014D01*
X562702Y901748D02*
X562702Y896732D01*
X562702Y901748D02*
X575218Y901748D01*
X575218Y896732D01*
X562702Y896732D01*
X562702Y898873D02*
X575218Y898873D01*
X575218Y901014D02*
X562702Y901014D01*
X562702Y891748D02*
X562702Y886732D01*
X562702Y891748D02*
X575218Y891748D01*
X575218Y886732D01*
X562702Y886732D01*
X562702Y888873D02*
X575218Y888873D01*
X575218Y891014D02*
X562702Y891014D01*
D12*
X767617Y881747D02*
X767617Y870733D01*
X748603Y870733D01*
X748603Y881747D01*
X767617Y881747D01*
X767617Y872876D02*
X748603Y872876D01*
X748603Y875019D02*
X767617Y875019D01*
X767617Y877162D02*
X748603Y877162D01*
X748603Y879305D02*
X767617Y879305D01*
X767617Y881448D02*
X748603Y881448D01*
X767617Y926733D02*
X767617Y937747D01*
X767617Y926733D02*
X748603Y926733D01*
X748603Y937747D01*
X767617Y937747D01*
X767617Y928876D02*
X748603Y928876D01*
X748603Y931019D02*
X767617Y931019D01*
X767617Y933162D02*
X748603Y933162D01*
X748603Y935305D02*
X767617Y935305D01*
X767617Y937448D02*
X748603Y937448D01*
D13*
X727618Y891748D02*
X727618Y886732D01*
X715102Y886732D01*
X715102Y891748D01*
X727618Y891748D01*
X727618Y888873D02*
X715102Y888873D01*
X715102Y891014D02*
X727618Y891014D01*
X727618Y896732D02*
X727618Y901748D01*
X727618Y896732D02*
X715102Y896732D01*
X715102Y901748D01*
X727618Y901748D01*
X727618Y898873D02*
X715102Y898873D01*
X715102Y901014D02*
X727618Y901014D01*
X727618Y906732D02*
X727618Y911748D01*
X727618Y906732D02*
X715102Y906732D01*
X715102Y911748D01*
X727618Y911748D01*
X727618Y908873D02*
X715102Y908873D01*
X715102Y911014D02*
X727618Y911014D01*
X727618Y916732D02*
X727618Y921748D01*
X727618Y916732D02*
X715102Y916732D01*
X715102Y921748D01*
X727618Y921748D01*
X727618Y918873D02*
X715102Y918873D01*
X715102Y921014D02*
X727618Y921014D01*
D14*
X580708Y841312D02*
X570692Y841312D01*
X570692Y850328D01*
X580708Y850328D01*
X580708Y841312D01*
X580708Y843453D02*
X570692Y843453D01*
X570692Y845594D02*
X580708Y845594D01*
X580708Y847735D02*
X570692Y847735D01*
X570692Y849876D02*
X580708Y849876D01*
X587692Y841312D02*
X597708Y841312D01*
X587692Y841312D02*
X587692Y850328D01*
X597708Y850328D01*
X597708Y841312D01*
X597708Y843453D02*
X587692Y843453D01*
X587692Y845594D02*
X597708Y845594D01*
X597708Y847735D02*
X587692Y847735D01*
X587692Y849876D02*
X597708Y849876D01*
D15*
X545904Y849314D02*
X545904Y842326D01*
X538916Y842326D01*
X538916Y849314D01*
X545904Y849314D01*
X545904Y846395D02*
X538916Y846395D01*
X563444Y849314D02*
X563444Y842326D01*
X556456Y842326D01*
X556456Y849314D01*
X563444Y849314D01*
X563444Y846395D02*
X556456Y846395D01*
D14*
X703008Y933912D02*
X703008Y943928D01*
X703008Y933912D02*
X693992Y933912D01*
X693992Y943928D01*
X703008Y943928D01*
X703008Y936053D02*
X693992Y936053D01*
X693992Y938194D02*
X703008Y938194D01*
X703008Y940335D02*
X693992Y940335D01*
X693992Y942476D02*
X703008Y942476D01*
X703008Y950912D02*
X703008Y960928D01*
X703008Y950912D02*
X693992Y950912D01*
X693992Y960928D01*
X703008Y960928D01*
X703008Y953053D02*
X693992Y953053D01*
X693992Y955194D02*
X703008Y955194D01*
X703008Y957335D02*
X693992Y957335D01*
X693992Y959476D02*
X703008Y959476D01*
X685228Y943928D02*
X685228Y933912D01*
X676212Y933912D01*
X676212Y943928D01*
X685228Y943928D01*
X685228Y936053D02*
X676212Y936053D01*
X676212Y938194D02*
X685228Y938194D01*
X685228Y940335D02*
X676212Y940335D01*
X676212Y942476D02*
X685228Y942476D01*
X685228Y950912D02*
X685228Y960928D01*
X685228Y950912D02*
X676212Y950912D01*
X676212Y960928D01*
X685228Y960928D01*
X685228Y953053D02*
X676212Y953053D01*
X676212Y955194D02*
X685228Y955194D01*
X685228Y957335D02*
X676212Y957335D01*
X676212Y959476D02*
X685228Y959476D01*
D10*
X746760Y802640D03*
X543560Y802640D03*
D16*
X655658Y914738D02*
X658662Y914738D01*
X655658Y914738D02*
X655658Y917742D01*
X658662Y917742D01*
X658662Y914738D01*
X658662Y916891D02*
X655658Y916891D01*
X655658Y906738D02*
X658662Y906738D01*
X655658Y906738D02*
X655658Y909742D01*
X658662Y909742D01*
X658662Y906738D01*
X658662Y908891D02*
X655658Y908891D01*
X655658Y898738D02*
X658662Y898738D01*
X655658Y898738D02*
X655658Y901742D01*
X658662Y901742D01*
X658662Y898738D01*
X658662Y900891D02*
X655658Y900891D01*
X655658Y890738D02*
X658662Y890738D01*
X655658Y890738D02*
X655658Y893742D01*
X658662Y893742D01*
X658662Y890738D01*
X658662Y892891D02*
X655658Y892891D01*
X634662Y890738D02*
X631658Y890738D01*
X631658Y893742D01*
X634662Y893742D01*
X634662Y890738D01*
X634662Y892891D02*
X631658Y892891D01*
X631658Y898738D02*
X634662Y898738D01*
X631658Y898738D02*
X631658Y901742D01*
X634662Y901742D01*
X634662Y898738D01*
X634662Y900891D02*
X631658Y900891D01*
X631658Y906738D02*
X634662Y906738D01*
X631658Y906738D02*
X631658Y909742D01*
X634662Y909742D01*
X634662Y906738D01*
X634662Y908891D02*
X631658Y908891D01*
X631658Y914738D02*
X634662Y914738D01*
X631658Y914738D02*
X631658Y917742D01*
X634662Y917742D01*
X634662Y914738D01*
X634662Y916891D02*
X631658Y916891D01*
D14*
X620568Y904938D02*
X610552Y904938D01*
X620568Y904938D02*
X620568Y895922D01*
X610552Y895922D01*
X610552Y904938D01*
X610552Y898063D02*
X620568Y898063D01*
X620568Y900204D02*
X610552Y900204D01*
X610552Y902345D02*
X620568Y902345D01*
X620568Y904486D02*
X610552Y904486D01*
X603568Y904938D02*
X593552Y904938D01*
X603568Y904938D02*
X603568Y895922D01*
X593552Y895922D01*
X593552Y904938D01*
X593552Y898063D02*
X603568Y898063D01*
X603568Y900204D02*
X593552Y900204D01*
X593552Y902345D02*
X603568Y902345D01*
X603568Y904486D02*
X593552Y904486D01*
X624268Y916522D02*
X624268Y926538D01*
X624268Y916522D02*
X615252Y916522D01*
X615252Y926538D01*
X624268Y926538D01*
X624268Y918663D02*
X615252Y918663D01*
X615252Y920804D02*
X624268Y920804D01*
X624268Y922945D02*
X615252Y922945D01*
X615252Y925086D02*
X624268Y925086D01*
X624268Y933522D02*
X624268Y943538D01*
X624268Y933522D02*
X615252Y933522D01*
X615252Y943538D01*
X624268Y943538D01*
X624268Y935663D02*
X615252Y935663D01*
X615252Y937804D02*
X624268Y937804D01*
X624268Y939945D02*
X615252Y939945D01*
X615252Y942086D02*
X624268Y942086D01*
D17*
X708660Y789940D03*
X683260Y789940D03*
X657860Y789940D03*
X632460Y789940D03*
X607060Y789940D03*
X581660Y789940D03*
D14*
X593552Y874332D02*
X603568Y874332D01*
X593552Y874332D02*
X593552Y883348D01*
X603568Y883348D01*
X603568Y874332D01*
X603568Y876473D02*
X593552Y876473D01*
X593552Y878614D02*
X603568Y878614D01*
X603568Y880755D02*
X593552Y880755D01*
X593552Y882896D02*
X603568Y882896D01*
X610552Y874332D02*
X620568Y874332D01*
X610552Y874332D02*
X610552Y883348D01*
X620568Y883348D01*
X620568Y874332D01*
X620568Y876473D02*
X610552Y876473D01*
X610552Y878614D02*
X620568Y878614D01*
X620568Y880755D02*
X610552Y880755D01*
X610552Y882896D02*
X620568Y882896D01*
D10*
X802640Y1005840D03*
X1005840Y1005840D03*
D11*
X1022350Y786130D03*
X784860Y1023620D03*
D12*
X781783Y937747D02*
X781783Y926733D01*
X781783Y937747D02*
X800797Y937747D01*
X800797Y926733D01*
X781783Y926733D01*
X781783Y928876D02*
X800797Y928876D01*
X800797Y931019D02*
X781783Y931019D01*
X781783Y933162D02*
X800797Y933162D01*
X800797Y935305D02*
X781783Y935305D01*
X781783Y937448D02*
X800797Y937448D01*
X781783Y881747D02*
X781783Y870733D01*
X781783Y881747D02*
X800797Y881747D01*
X800797Y870733D01*
X781783Y870733D01*
X781783Y872876D02*
X800797Y872876D01*
X800797Y875019D02*
X781783Y875019D01*
X781783Y877162D02*
X800797Y877162D01*
X800797Y879305D02*
X781783Y879305D01*
X781783Y881448D02*
X800797Y881448D01*
D13*
X821782Y916732D02*
X821782Y921748D01*
X834298Y921748D01*
X834298Y916732D01*
X821782Y916732D01*
X821782Y918873D02*
X834298Y918873D01*
X834298Y921014D02*
X821782Y921014D01*
X821782Y911748D02*
X821782Y906732D01*
X821782Y911748D02*
X834298Y911748D01*
X834298Y906732D01*
X821782Y906732D01*
X821782Y908873D02*
X834298Y908873D01*
X834298Y911014D02*
X821782Y911014D01*
X821782Y901748D02*
X821782Y896732D01*
X821782Y901748D02*
X834298Y901748D01*
X834298Y896732D01*
X821782Y896732D01*
X821782Y898873D02*
X834298Y898873D01*
X834298Y901014D02*
X821782Y901014D01*
X821782Y891748D02*
X821782Y886732D01*
X821782Y891748D02*
X834298Y891748D01*
X834298Y886732D01*
X821782Y886732D01*
X821782Y888873D02*
X834298Y888873D01*
X834298Y891014D02*
X821782Y891014D01*
D12*
X1026697Y881747D02*
X1026697Y870733D01*
X1007683Y870733D01*
X1007683Y881747D01*
X1026697Y881747D01*
X1026697Y872876D02*
X1007683Y872876D01*
X1007683Y875019D02*
X1026697Y875019D01*
X1026697Y877162D02*
X1007683Y877162D01*
X1007683Y879305D02*
X1026697Y879305D01*
X1026697Y881448D02*
X1007683Y881448D01*
X1026697Y926733D02*
X1026697Y937747D01*
X1026697Y926733D02*
X1007683Y926733D01*
X1007683Y937747D01*
X1026697Y937747D01*
X1026697Y928876D02*
X1007683Y928876D01*
X1007683Y931019D02*
X1026697Y931019D01*
X1026697Y933162D02*
X1007683Y933162D01*
X1007683Y935305D02*
X1026697Y935305D01*
X1026697Y937448D02*
X1007683Y937448D01*
D13*
X986698Y891748D02*
X986698Y886732D01*
X974182Y886732D01*
X974182Y891748D01*
X986698Y891748D01*
X986698Y888873D02*
X974182Y888873D01*
X974182Y891014D02*
X986698Y891014D01*
X986698Y896732D02*
X986698Y901748D01*
X986698Y896732D02*
X974182Y896732D01*
X974182Y901748D01*
X986698Y901748D01*
X986698Y898873D02*
X974182Y898873D01*
X974182Y901014D02*
X986698Y901014D01*
X986698Y906732D02*
X986698Y911748D01*
X986698Y906732D02*
X974182Y906732D01*
X974182Y911748D01*
X986698Y911748D01*
X986698Y908873D02*
X974182Y908873D01*
X974182Y911014D02*
X986698Y911014D01*
X986698Y916732D02*
X986698Y921748D01*
X986698Y916732D02*
X974182Y916732D01*
X974182Y921748D01*
X986698Y921748D01*
X986698Y918873D02*
X974182Y918873D01*
X974182Y921014D02*
X986698Y921014D01*
D14*
X839788Y841312D02*
X829772Y841312D01*
X829772Y850328D01*
X839788Y850328D01*
X839788Y841312D01*
X839788Y843453D02*
X829772Y843453D01*
X829772Y845594D02*
X839788Y845594D01*
X839788Y847735D02*
X829772Y847735D01*
X829772Y849876D02*
X839788Y849876D01*
X846772Y841312D02*
X856788Y841312D01*
X846772Y841312D02*
X846772Y850328D01*
X856788Y850328D01*
X856788Y841312D01*
X856788Y843453D02*
X846772Y843453D01*
X846772Y845594D02*
X856788Y845594D01*
X856788Y847735D02*
X846772Y847735D01*
X846772Y849876D02*
X856788Y849876D01*
D15*
X804984Y849314D02*
X804984Y842326D01*
X797996Y842326D01*
X797996Y849314D01*
X804984Y849314D01*
X804984Y846395D02*
X797996Y846395D01*
X822524Y849314D02*
X822524Y842326D01*
X815536Y842326D01*
X815536Y849314D01*
X822524Y849314D01*
X822524Y846395D02*
X815536Y846395D01*
D14*
X962088Y933912D02*
X962088Y943928D01*
X962088Y933912D02*
X953072Y933912D01*
X953072Y943928D01*
X962088Y943928D01*
X962088Y936053D02*
X953072Y936053D01*
X953072Y938194D02*
X962088Y938194D01*
X962088Y940335D02*
X953072Y940335D01*
X953072Y942476D02*
X962088Y942476D01*
X962088Y950912D02*
X962088Y960928D01*
X962088Y950912D02*
X953072Y950912D01*
X953072Y960928D01*
X962088Y960928D01*
X962088Y953053D02*
X953072Y953053D01*
X953072Y955194D02*
X962088Y955194D01*
X962088Y957335D02*
X953072Y957335D01*
X953072Y959476D02*
X962088Y959476D01*
X944308Y943928D02*
X944308Y933912D01*
X935292Y933912D01*
X935292Y943928D01*
X944308Y943928D01*
X944308Y936053D02*
X935292Y936053D01*
X935292Y938194D02*
X944308Y938194D01*
X944308Y940335D02*
X935292Y940335D01*
X935292Y942476D02*
X944308Y942476D01*
X944308Y950912D02*
X944308Y960928D01*
X944308Y950912D02*
X935292Y950912D01*
X935292Y960928D01*
X944308Y960928D01*
X944308Y953053D02*
X935292Y953053D01*
X935292Y955194D02*
X944308Y955194D01*
X944308Y957335D02*
X935292Y957335D01*
X935292Y959476D02*
X944308Y959476D01*
D10*
X1005840Y802640D03*
X802640Y802640D03*
D16*
X914738Y914738D02*
X917742Y914738D01*
X914738Y914738D02*
X914738Y917742D01*
X917742Y917742D01*
X917742Y914738D01*
X917742Y916891D02*
X914738Y916891D01*
X914738Y906738D02*
X917742Y906738D01*
X914738Y906738D02*
X914738Y909742D01*
X917742Y909742D01*
X917742Y906738D01*
X917742Y908891D02*
X914738Y908891D01*
X914738Y898738D02*
X917742Y898738D01*
X914738Y898738D02*
X914738Y901742D01*
X917742Y901742D01*
X917742Y898738D01*
X917742Y900891D02*
X914738Y900891D01*
X914738Y890738D02*
X917742Y890738D01*
X914738Y890738D02*
X914738Y893742D01*
X917742Y893742D01*
X917742Y890738D01*
X917742Y892891D02*
X914738Y892891D01*
X893742Y890738D02*
X890738Y890738D01*
X890738Y893742D01*
X893742Y893742D01*
X893742Y890738D01*
X893742Y892891D02*
X890738Y892891D01*
X890738Y898738D02*
X893742Y898738D01*
X890738Y898738D02*
X890738Y901742D01*
X893742Y901742D01*
X893742Y898738D01*
X893742Y900891D02*
X890738Y900891D01*
X890738Y906738D02*
X893742Y906738D01*
X890738Y906738D02*
X890738Y909742D01*
X893742Y909742D01*
X893742Y906738D01*
X893742Y908891D02*
X890738Y908891D01*
X890738Y914738D02*
X893742Y914738D01*
X890738Y914738D02*
X890738Y917742D01*
X893742Y917742D01*
X893742Y914738D01*
X893742Y916891D02*
X890738Y916891D01*
D14*
X879648Y904938D02*
X869632Y904938D01*
X879648Y904938D02*
X879648Y895922D01*
X869632Y895922D01*
X869632Y904938D01*
X869632Y898063D02*
X879648Y898063D01*
X879648Y900204D02*
X869632Y900204D01*
X869632Y902345D02*
X879648Y902345D01*
X879648Y904486D02*
X869632Y904486D01*
X862648Y904938D02*
X852632Y904938D01*
X862648Y904938D02*
X862648Y895922D01*
X852632Y895922D01*
X852632Y904938D01*
X852632Y898063D02*
X862648Y898063D01*
X862648Y900204D02*
X852632Y900204D01*
X852632Y902345D02*
X862648Y902345D01*
X862648Y904486D02*
X852632Y904486D01*
X883348Y916522D02*
X883348Y926538D01*
X883348Y916522D02*
X874332Y916522D01*
X874332Y926538D01*
X883348Y926538D01*
X883348Y918663D02*
X874332Y918663D01*
X874332Y920804D02*
X883348Y920804D01*
X883348Y922945D02*
X874332Y922945D01*
X874332Y925086D02*
X883348Y925086D01*
X883348Y933522D02*
X883348Y943538D01*
X883348Y933522D02*
X874332Y933522D01*
X874332Y943538D01*
X883348Y943538D01*
X883348Y935663D02*
X874332Y935663D01*
X874332Y937804D02*
X883348Y937804D01*
X883348Y939945D02*
X874332Y939945D01*
X874332Y942086D02*
X883348Y942086D01*
D17*
X967740Y789940D03*
X942340Y789940D03*
X916940Y789940D03*
X891540Y789940D03*
X866140Y789940D03*
X840740Y789940D03*
D14*
X852632Y874332D02*
X862648Y874332D01*
X852632Y874332D02*
X852632Y883348D01*
X862648Y883348D01*
X862648Y874332D01*
X862648Y876473D02*
X852632Y876473D01*
X852632Y878614D02*
X862648Y878614D01*
X862648Y880755D02*
X852632Y880755D01*
X852632Y882896D02*
X862648Y882896D01*
X869632Y874332D02*
X879648Y874332D01*
X869632Y874332D02*
X869632Y883348D01*
X879648Y883348D01*
X879648Y874332D01*
X879648Y876473D02*
X869632Y876473D01*
X869632Y878614D02*
X879648Y878614D01*
X879648Y880755D02*
X869632Y880755D01*
X869632Y882896D02*
X879648Y882896D01*
D10*
X1061720Y1005840D03*
X1264920Y1005840D03*
D11*
X1281430Y786130D03*
X1043940Y1023620D03*
D12*
X1040863Y937747D02*
X1040863Y926733D01*
X1040863Y937747D02*
X1059877Y937747D01*
X1059877Y926733D01*
X1040863Y926733D01*
X1040863Y928876D02*
X1059877Y928876D01*
X1059877Y931019D02*
X1040863Y931019D01*
X1040863Y933162D02*
X1059877Y933162D01*
X1059877Y935305D02*
X1040863Y935305D01*
X1040863Y937448D02*
X1059877Y937448D01*
X1040863Y881747D02*
X1040863Y870733D01*
X1040863Y881747D02*
X1059877Y881747D01*
X1059877Y870733D01*
X1040863Y870733D01*
X1040863Y872876D02*
X1059877Y872876D01*
X1059877Y875019D02*
X1040863Y875019D01*
X1040863Y877162D02*
X1059877Y877162D01*
X1059877Y879305D02*
X1040863Y879305D01*
X1040863Y881448D02*
X1059877Y881448D01*
D13*
X1080862Y916732D02*
X1080862Y921748D01*
X1093378Y921748D01*
X1093378Y916732D01*
X1080862Y916732D01*
X1080862Y918873D02*
X1093378Y918873D01*
X1093378Y921014D02*
X1080862Y921014D01*
X1080862Y911748D02*
X1080862Y906732D01*
X1080862Y911748D02*
X1093378Y911748D01*
X1093378Y906732D01*
X1080862Y906732D01*
X1080862Y908873D02*
X1093378Y908873D01*
X1093378Y911014D02*
X1080862Y911014D01*
X1080862Y901748D02*
X1080862Y896732D01*
X1080862Y901748D02*
X1093378Y901748D01*
X1093378Y896732D01*
X1080862Y896732D01*
X1080862Y898873D02*
X1093378Y898873D01*
X1093378Y901014D02*
X1080862Y901014D01*
X1080862Y891748D02*
X1080862Y886732D01*
X1080862Y891748D02*
X1093378Y891748D01*
X1093378Y886732D01*
X1080862Y886732D01*
X1080862Y888873D02*
X1093378Y888873D01*
X1093378Y891014D02*
X1080862Y891014D01*
D12*
X1285777Y881747D02*
X1285777Y870733D01*
X1266763Y870733D01*
X1266763Y881747D01*
X1285777Y881747D01*
X1285777Y872876D02*
X1266763Y872876D01*
X1266763Y875019D02*
X1285777Y875019D01*
X1285777Y877162D02*
X1266763Y877162D01*
X1266763Y879305D02*
X1285777Y879305D01*
X1285777Y881448D02*
X1266763Y881448D01*
X1285777Y926733D02*
X1285777Y937747D01*
X1285777Y926733D02*
X1266763Y926733D01*
X1266763Y937747D01*
X1285777Y937747D01*
X1285777Y928876D02*
X1266763Y928876D01*
X1266763Y931019D02*
X1285777Y931019D01*
X1285777Y933162D02*
X1266763Y933162D01*
X1266763Y935305D02*
X1285777Y935305D01*
X1285777Y937448D02*
X1266763Y937448D01*
D13*
X1245778Y891748D02*
X1245778Y886732D01*
X1233262Y886732D01*
X1233262Y891748D01*
X1245778Y891748D01*
X1245778Y888873D02*
X1233262Y888873D01*
X1233262Y891014D02*
X1245778Y891014D01*
X1245778Y896732D02*
X1245778Y901748D01*
X1245778Y896732D02*
X1233262Y896732D01*
X1233262Y901748D01*
X1245778Y901748D01*
X1245778Y898873D02*
X1233262Y898873D01*
X1233262Y901014D02*
X1245778Y901014D01*
X1245778Y906732D02*
X1245778Y911748D01*
X1245778Y906732D02*
X1233262Y906732D01*
X1233262Y911748D01*
X1245778Y911748D01*
X1245778Y908873D02*
X1233262Y908873D01*
X1233262Y911014D02*
X1245778Y911014D01*
X1245778Y916732D02*
X1245778Y921748D01*
X1245778Y916732D02*
X1233262Y916732D01*
X1233262Y921748D01*
X1245778Y921748D01*
X1245778Y918873D02*
X1233262Y918873D01*
X1233262Y921014D02*
X1245778Y921014D01*
D14*
X1098868Y841312D02*
X1088852Y841312D01*
X1088852Y850328D01*
X1098868Y850328D01*
X1098868Y841312D01*
X1098868Y843453D02*
X1088852Y843453D01*
X1088852Y845594D02*
X1098868Y845594D01*
X1098868Y847735D02*
X1088852Y847735D01*
X1088852Y849876D02*
X1098868Y849876D01*
X1105852Y841312D02*
X1115868Y841312D01*
X1105852Y841312D02*
X1105852Y850328D01*
X1115868Y850328D01*
X1115868Y841312D01*
X1115868Y843453D02*
X1105852Y843453D01*
X1105852Y845594D02*
X1115868Y845594D01*
X1115868Y847735D02*
X1105852Y847735D01*
X1105852Y849876D02*
X1115868Y849876D01*
D15*
X1064064Y849314D02*
X1064064Y842326D01*
X1057076Y842326D01*
X1057076Y849314D01*
X1064064Y849314D01*
X1064064Y846395D02*
X1057076Y846395D01*
X1081604Y849314D02*
X1081604Y842326D01*
X1074616Y842326D01*
X1074616Y849314D01*
X1081604Y849314D01*
X1081604Y846395D02*
X1074616Y846395D01*
D14*
X1221168Y933912D02*
X1221168Y943928D01*
X1221168Y933912D02*
X1212152Y933912D01*
X1212152Y943928D01*
X1221168Y943928D01*
X1221168Y936053D02*
X1212152Y936053D01*
X1212152Y938194D02*
X1221168Y938194D01*
X1221168Y940335D02*
X1212152Y940335D01*
X1212152Y942476D02*
X1221168Y942476D01*
X1221168Y950912D02*
X1221168Y960928D01*
X1221168Y950912D02*
X1212152Y950912D01*
X1212152Y960928D01*
X1221168Y960928D01*
X1221168Y953053D02*
X1212152Y953053D01*
X1212152Y955194D02*
X1221168Y955194D01*
X1221168Y957335D02*
X1212152Y957335D01*
X1212152Y959476D02*
X1221168Y959476D01*
X1203388Y943928D02*
X1203388Y933912D01*
X1194372Y933912D01*
X1194372Y943928D01*
X1203388Y943928D01*
X1203388Y936053D02*
X1194372Y936053D01*
X1194372Y938194D02*
X1203388Y938194D01*
X1203388Y940335D02*
X1194372Y940335D01*
X1194372Y942476D02*
X1203388Y942476D01*
X1203388Y950912D02*
X1203388Y960928D01*
X1203388Y950912D02*
X1194372Y950912D01*
X1194372Y960928D01*
X1203388Y960928D01*
X1203388Y953053D02*
X1194372Y953053D01*
X1194372Y955194D02*
X1203388Y955194D01*
X1203388Y957335D02*
X1194372Y957335D01*
X1194372Y959476D02*
X1203388Y959476D01*
D10*
X1264920Y802640D03*
X1061720Y802640D03*
D16*
X1173818Y914738D02*
X1176822Y914738D01*
X1173818Y914738D02*
X1173818Y917742D01*
X1176822Y917742D01*
X1176822Y914738D01*
X1176822Y916891D02*
X1173818Y916891D01*
X1173818Y906738D02*
X1176822Y906738D01*
X1173818Y906738D02*
X1173818Y909742D01*
X1176822Y909742D01*
X1176822Y906738D01*
X1176822Y908891D02*
X1173818Y908891D01*
X1173818Y898738D02*
X1176822Y898738D01*
X1173818Y898738D02*
X1173818Y901742D01*
X1176822Y901742D01*
X1176822Y898738D01*
X1176822Y900891D02*
X1173818Y900891D01*
X1173818Y890738D02*
X1176822Y890738D01*
X1173818Y890738D02*
X1173818Y893742D01*
X1176822Y893742D01*
X1176822Y890738D01*
X1176822Y892891D02*
X1173818Y892891D01*
X1152822Y890738D02*
X1149818Y890738D01*
X1149818Y893742D01*
X1152822Y893742D01*
X1152822Y890738D01*
X1152822Y892891D02*
X1149818Y892891D01*
X1149818Y898738D02*
X1152822Y898738D01*
X1149818Y898738D02*
X1149818Y901742D01*
X1152822Y901742D01*
X1152822Y898738D01*
X1152822Y900891D02*
X1149818Y900891D01*
X1149818Y906738D02*
X1152822Y906738D01*
X1149818Y906738D02*
X1149818Y909742D01*
X1152822Y909742D01*
X1152822Y906738D01*
X1152822Y908891D02*
X1149818Y908891D01*
X1149818Y914738D02*
X1152822Y914738D01*
X1149818Y914738D02*
X1149818Y917742D01*
X1152822Y917742D01*
X1152822Y914738D01*
X1152822Y916891D02*
X1149818Y916891D01*
D14*
X1138728Y904938D02*
X1128712Y904938D01*
X1138728Y904938D02*
X1138728Y895922D01*
X1128712Y895922D01*
X1128712Y904938D01*
X1128712Y898063D02*
X1138728Y898063D01*
X1138728Y900204D02*
X1128712Y900204D01*
X1128712Y902345D02*
X1138728Y902345D01*
X1138728Y904486D02*
X1128712Y904486D01*
X1121728Y904938D02*
X1111712Y904938D01*
X1121728Y904938D02*
X1121728Y895922D01*
X1111712Y895922D01*
X1111712Y904938D01*
X1111712Y898063D02*
X1121728Y898063D01*
X1121728Y900204D02*
X1111712Y900204D01*
X1111712Y902345D02*
X1121728Y902345D01*
X1121728Y904486D02*
X1111712Y904486D01*
X1142428Y916522D02*
X1142428Y926538D01*
X1142428Y916522D02*
X1133412Y916522D01*
X1133412Y926538D01*
X1142428Y926538D01*
X1142428Y918663D02*
X1133412Y918663D01*
X1133412Y920804D02*
X1142428Y920804D01*
X1142428Y922945D02*
X1133412Y922945D01*
X1133412Y925086D02*
X1142428Y925086D01*
X1142428Y933522D02*
X1142428Y943538D01*
X1142428Y933522D02*
X1133412Y933522D01*
X1133412Y943538D01*
X1142428Y943538D01*
X1142428Y935663D02*
X1133412Y935663D01*
X1133412Y937804D02*
X1142428Y937804D01*
X1142428Y939945D02*
X1133412Y939945D01*
X1133412Y942086D02*
X1142428Y942086D01*
D17*
X1226820Y789940D03*
X1201420Y789940D03*
X1176020Y789940D03*
X1150620Y789940D03*
X1125220Y789940D03*
X1099820Y789940D03*
D14*
X1111712Y874332D02*
X1121728Y874332D01*
X1111712Y874332D02*
X1111712Y883348D01*
X1121728Y883348D01*
X1121728Y874332D01*
X1121728Y876473D02*
X1111712Y876473D01*
X1111712Y878614D02*
X1121728Y878614D01*
X1121728Y880755D02*
X1111712Y880755D01*
X1111712Y882896D02*
X1121728Y882896D01*
X1128712Y874332D02*
X1138728Y874332D01*
X1128712Y874332D02*
X1128712Y883348D01*
X1138728Y883348D01*
X1138728Y874332D01*
X1138728Y876473D02*
X1128712Y876473D01*
X1128712Y878614D02*
X1138728Y878614D01*
X1138728Y880755D02*
X1128712Y880755D01*
X1128712Y882896D02*
X1138728Y882896D01*
D10*
X1320800Y1005840D03*
X1524000Y1005840D03*
D11*
X1540510Y786130D03*
X1303020Y1023620D03*
D12*
X1299943Y937747D02*
X1299943Y926733D01*
X1299943Y937747D02*
X1318957Y937747D01*
X1318957Y926733D01*
X1299943Y926733D01*
X1299943Y928876D02*
X1318957Y928876D01*
X1318957Y931019D02*
X1299943Y931019D01*
X1299943Y933162D02*
X1318957Y933162D01*
X1318957Y935305D02*
X1299943Y935305D01*
X1299943Y937448D02*
X1318957Y937448D01*
X1299943Y881747D02*
X1299943Y870733D01*
X1299943Y881747D02*
X1318957Y881747D01*
X1318957Y870733D01*
X1299943Y870733D01*
X1299943Y872876D02*
X1318957Y872876D01*
X1318957Y875019D02*
X1299943Y875019D01*
X1299943Y877162D02*
X1318957Y877162D01*
X1318957Y879305D02*
X1299943Y879305D01*
X1299943Y881448D02*
X1318957Y881448D01*
D13*
X1339942Y916732D02*
X1339942Y921748D01*
X1352458Y921748D01*
X1352458Y916732D01*
X1339942Y916732D01*
X1339942Y918873D02*
X1352458Y918873D01*
X1352458Y921014D02*
X1339942Y921014D01*
X1339942Y911748D02*
X1339942Y906732D01*
X1339942Y911748D02*
X1352458Y911748D01*
X1352458Y906732D01*
X1339942Y906732D01*
X1339942Y908873D02*
X1352458Y908873D01*
X1352458Y911014D02*
X1339942Y911014D01*
X1339942Y901748D02*
X1339942Y896732D01*
X1339942Y901748D02*
X1352458Y901748D01*
X1352458Y896732D01*
X1339942Y896732D01*
X1339942Y898873D02*
X1352458Y898873D01*
X1352458Y901014D02*
X1339942Y901014D01*
X1339942Y891748D02*
X1339942Y886732D01*
X1339942Y891748D02*
X1352458Y891748D01*
X1352458Y886732D01*
X1339942Y886732D01*
X1339942Y888873D02*
X1352458Y888873D01*
X1352458Y891014D02*
X1339942Y891014D01*
D12*
X1544857Y881747D02*
X1544857Y870733D01*
X1525843Y870733D01*
X1525843Y881747D01*
X1544857Y881747D01*
X1544857Y872876D02*
X1525843Y872876D01*
X1525843Y875019D02*
X1544857Y875019D01*
X1544857Y877162D02*
X1525843Y877162D01*
X1525843Y879305D02*
X1544857Y879305D01*
X1544857Y881448D02*
X1525843Y881448D01*
X1544857Y926733D02*
X1544857Y937747D01*
X1544857Y926733D02*
X1525843Y926733D01*
X1525843Y937747D01*
X1544857Y937747D01*
X1544857Y928876D02*
X1525843Y928876D01*
X1525843Y931019D02*
X1544857Y931019D01*
X1544857Y933162D02*
X1525843Y933162D01*
X1525843Y935305D02*
X1544857Y935305D01*
X1544857Y937448D02*
X1525843Y937448D01*
D13*
X1504858Y891748D02*
X1504858Y886732D01*
X1492342Y886732D01*
X1492342Y891748D01*
X1504858Y891748D01*
X1504858Y888873D02*
X1492342Y888873D01*
X1492342Y891014D02*
X1504858Y891014D01*
X1504858Y896732D02*
X1504858Y901748D01*
X1504858Y896732D02*
X1492342Y896732D01*
X1492342Y901748D01*
X1504858Y901748D01*
X1504858Y898873D02*
X1492342Y898873D01*
X1492342Y901014D02*
X1504858Y901014D01*
X1504858Y906732D02*
X1504858Y911748D01*
X1504858Y906732D02*
X1492342Y906732D01*
X1492342Y911748D01*
X1504858Y911748D01*
X1504858Y908873D02*
X1492342Y908873D01*
X1492342Y911014D02*
X1504858Y911014D01*
X1504858Y916732D02*
X1504858Y921748D01*
X1504858Y916732D02*
X1492342Y916732D01*
X1492342Y921748D01*
X1504858Y921748D01*
X1504858Y918873D02*
X1492342Y918873D01*
X1492342Y921014D02*
X1504858Y921014D01*
D14*
X1357948Y841312D02*
X1347932Y841312D01*
X1347932Y850328D01*
X1357948Y850328D01*
X1357948Y841312D01*
X1357948Y843453D02*
X1347932Y843453D01*
X1347932Y845594D02*
X1357948Y845594D01*
X1357948Y847735D02*
X1347932Y847735D01*
X1347932Y849876D02*
X1357948Y849876D01*
X1364932Y841312D02*
X1374948Y841312D01*
X1364932Y841312D02*
X1364932Y850328D01*
X1374948Y850328D01*
X1374948Y841312D01*
X1374948Y843453D02*
X1364932Y843453D01*
X1364932Y845594D02*
X1374948Y845594D01*
X1374948Y847735D02*
X1364932Y847735D01*
X1364932Y849876D02*
X1374948Y849876D01*
D15*
X1323144Y849314D02*
X1323144Y842326D01*
X1316156Y842326D01*
X1316156Y849314D01*
X1323144Y849314D01*
X1323144Y846395D02*
X1316156Y846395D01*
X1340684Y849314D02*
X1340684Y842326D01*
X1333696Y842326D01*
X1333696Y849314D01*
X1340684Y849314D01*
X1340684Y846395D02*
X1333696Y846395D01*
D14*
X1480248Y933912D02*
X1480248Y943928D01*
X1480248Y933912D02*
X1471232Y933912D01*
X1471232Y943928D01*
X1480248Y943928D01*
X1480248Y936053D02*
X1471232Y936053D01*
X1471232Y938194D02*
X1480248Y938194D01*
X1480248Y940335D02*
X1471232Y940335D01*
X1471232Y942476D02*
X1480248Y942476D01*
X1480248Y950912D02*
X1480248Y960928D01*
X1480248Y950912D02*
X1471232Y950912D01*
X1471232Y960928D01*
X1480248Y960928D01*
X1480248Y953053D02*
X1471232Y953053D01*
X1471232Y955194D02*
X1480248Y955194D01*
X1480248Y957335D02*
X1471232Y957335D01*
X1471232Y959476D02*
X1480248Y959476D01*
X1462468Y943928D02*
X1462468Y933912D01*
X1453452Y933912D01*
X1453452Y943928D01*
X1462468Y943928D01*
X1462468Y936053D02*
X1453452Y936053D01*
X1453452Y938194D02*
X1462468Y938194D01*
X1462468Y940335D02*
X1453452Y940335D01*
X1453452Y942476D02*
X1462468Y942476D01*
X1462468Y950912D02*
X1462468Y960928D01*
X1462468Y950912D02*
X1453452Y950912D01*
X1453452Y960928D01*
X1462468Y960928D01*
X1462468Y953053D02*
X1453452Y953053D01*
X1453452Y955194D02*
X1462468Y955194D01*
X1462468Y957335D02*
X1453452Y957335D01*
X1453452Y959476D02*
X1462468Y959476D01*
D10*
X1524000Y802640D03*
X1320800Y802640D03*
D16*
X1432898Y914738D02*
X1435902Y914738D01*
X1432898Y914738D02*
X1432898Y917742D01*
X1435902Y917742D01*
X1435902Y914738D01*
X1435902Y916891D02*
X1432898Y916891D01*
X1432898Y906738D02*
X1435902Y906738D01*
X1432898Y906738D02*
X1432898Y909742D01*
X1435902Y909742D01*
X1435902Y906738D01*
X1435902Y908891D02*
X1432898Y908891D01*
X1432898Y898738D02*
X1435902Y898738D01*
X1432898Y898738D02*
X1432898Y901742D01*
X1435902Y901742D01*
X1435902Y898738D01*
X1435902Y900891D02*
X1432898Y900891D01*
X1432898Y890738D02*
X1435902Y890738D01*
X1432898Y890738D02*
X1432898Y893742D01*
X1435902Y893742D01*
X1435902Y890738D01*
X1435902Y892891D02*
X1432898Y892891D01*
X1411902Y890738D02*
X1408898Y890738D01*
X1408898Y893742D01*
X1411902Y893742D01*
X1411902Y890738D01*
X1411902Y892891D02*
X1408898Y892891D01*
X1408898Y898738D02*
X1411902Y898738D01*
X1408898Y898738D02*
X1408898Y901742D01*
X1411902Y901742D01*
X1411902Y898738D01*
X1411902Y900891D02*
X1408898Y900891D01*
X1408898Y906738D02*
X1411902Y906738D01*
X1408898Y906738D02*
X1408898Y909742D01*
X1411902Y909742D01*
X1411902Y906738D01*
X1411902Y908891D02*
X1408898Y908891D01*
X1408898Y914738D02*
X1411902Y914738D01*
X1408898Y914738D02*
X1408898Y917742D01*
X1411902Y917742D01*
X1411902Y914738D01*
X1411902Y916891D02*
X1408898Y916891D01*
D14*
X1397808Y904938D02*
X1387792Y904938D01*
X1397808Y904938D02*
X1397808Y895922D01*
X1387792Y895922D01*
X1387792Y904938D01*
X1387792Y898063D02*
X1397808Y898063D01*
X1397808Y900204D02*
X1387792Y900204D01*
X1387792Y902345D02*
X1397808Y902345D01*
X1397808Y904486D02*
X1387792Y904486D01*
X1380808Y904938D02*
X1370792Y904938D01*
X1380808Y904938D02*
X1380808Y895922D01*
X1370792Y895922D01*
X1370792Y904938D01*
X1370792Y898063D02*
X1380808Y898063D01*
X1380808Y900204D02*
X1370792Y900204D01*
X1370792Y902345D02*
X1380808Y902345D01*
X1380808Y904486D02*
X1370792Y904486D01*
X1401508Y916522D02*
X1401508Y926538D01*
X1401508Y916522D02*
X1392492Y916522D01*
X1392492Y926538D01*
X1401508Y926538D01*
X1401508Y918663D02*
X1392492Y918663D01*
X1392492Y920804D02*
X1401508Y920804D01*
X1401508Y922945D02*
X1392492Y922945D01*
X1392492Y925086D02*
X1401508Y925086D01*
X1401508Y933522D02*
X1401508Y943538D01*
X1401508Y933522D02*
X1392492Y933522D01*
X1392492Y943538D01*
X1401508Y943538D01*
X1401508Y935663D02*
X1392492Y935663D01*
X1392492Y937804D02*
X1401508Y937804D01*
X1401508Y939945D02*
X1392492Y939945D01*
X1392492Y942086D02*
X1401508Y942086D01*
D17*
X1485900Y789940D03*
X1460500Y789940D03*
X1435100Y789940D03*
X1409700Y789940D03*
X1384300Y789940D03*
X1358900Y789940D03*
D14*
X1370792Y874332D02*
X1380808Y874332D01*
X1370792Y874332D02*
X1370792Y883348D01*
X1380808Y883348D01*
X1380808Y874332D01*
X1380808Y876473D02*
X1370792Y876473D01*
X1370792Y878614D02*
X1380808Y878614D01*
X1380808Y880755D02*
X1370792Y880755D01*
X1370792Y882896D02*
X1380808Y882896D01*
X1387792Y874332D02*
X1397808Y874332D01*
X1387792Y874332D02*
X1387792Y883348D01*
X1397808Y883348D01*
X1397808Y874332D01*
X1397808Y876473D02*
X1387792Y876473D01*
X1387792Y878614D02*
X1397808Y878614D01*
X1397808Y880755D02*
X1387792Y880755D01*
X1387792Y882896D02*
X1397808Y882896D01*
D18*
X-26238Y1004570D03*
X1575638Y1004570D03*
D19*
X-35293Y63500D02*
X-35290Y63722D01*
X-35282Y63944D01*
X-35268Y64166D01*
X-35249Y64388D01*
X-35225Y64608D01*
X-35195Y64829D01*
X-35160Y65048D01*
X-35119Y65267D01*
X-35073Y65484D01*
X-35022Y65700D01*
X-34965Y65915D01*
X-34903Y66129D01*
X-34836Y66340D01*
X-34764Y66551D01*
X-34686Y66759D01*
X-34604Y66965D01*
X-34516Y67169D01*
X-34424Y67372D01*
X-34326Y67571D01*
X-34224Y67768D01*
X-34117Y67963D01*
X-34005Y68155D01*
X-33888Y68344D01*
X-33767Y68531D01*
X-33641Y68714D01*
X-33511Y68894D01*
X-33376Y69071D01*
X-33238Y69244D01*
X-33095Y69414D01*
X-32947Y69581D01*
X-32796Y69744D01*
X-32641Y69903D01*
X-32482Y70058D01*
X-32319Y70209D01*
X-32152Y70357D01*
X-31982Y70500D01*
X-31809Y70638D01*
X-31632Y70773D01*
X-31452Y70903D01*
X-31269Y71029D01*
X-31082Y71150D01*
X-30893Y71267D01*
X-30701Y71379D01*
X-30506Y71486D01*
X-30309Y71588D01*
X-30110Y71686D01*
X-29907Y71778D01*
X-29703Y71866D01*
X-29497Y71948D01*
X-29289Y72026D01*
X-29078Y72098D01*
X-28867Y72165D01*
X-28653Y72227D01*
X-28438Y72284D01*
X-28222Y72335D01*
X-28005Y72381D01*
X-27786Y72422D01*
X-27567Y72457D01*
X-27346Y72487D01*
X-27126Y72511D01*
X-26904Y72530D01*
X-26682Y72544D01*
X-26460Y72552D01*
X-26238Y72555D01*
X-26016Y72552D01*
X-25794Y72544D01*
X-25572Y72530D01*
X-25350Y72511D01*
X-25130Y72487D01*
X-24909Y72457D01*
X-24690Y72422D01*
X-24471Y72381D01*
X-24254Y72335D01*
X-24038Y72284D01*
X-23823Y72227D01*
X-23609Y72165D01*
X-23398Y72098D01*
X-23187Y72026D01*
X-22979Y71948D01*
X-22773Y71866D01*
X-22569Y71778D01*
X-22366Y71686D01*
X-22167Y71588D01*
X-21970Y71486D01*
X-21775Y71379D01*
X-21583Y71267D01*
X-21394Y71150D01*
X-21207Y71029D01*
X-21024Y70903D01*
X-20844Y70773D01*
X-20667Y70638D01*
X-20494Y70500D01*
X-20324Y70357D01*
X-20157Y70209D01*
X-19994Y70058D01*
X-19835Y69903D01*
X-19680Y69744D01*
X-19529Y69581D01*
X-19381Y69414D01*
X-19238Y69244D01*
X-19100Y69071D01*
X-18965Y68894D01*
X-18835Y68714D01*
X-18709Y68531D01*
X-18588Y68344D01*
X-18471Y68155D01*
X-18359Y67963D01*
X-18252Y67768D01*
X-18150Y67571D01*
X-18052Y67372D01*
X-17960Y67169D01*
X-17872Y66965D01*
X-17790Y66759D01*
X-17712Y66551D01*
X-17640Y66340D01*
X-17573Y66129D01*
X-17511Y65915D01*
X-17454Y65700D01*
X-17403Y65484D01*
X-17357Y65267D01*
X-17316Y65048D01*
X-17281Y64829D01*
X-17251Y64608D01*
X-17227Y64388D01*
X-17208Y64166D01*
X-17194Y63944D01*
X-17186Y63722D01*
X-17183Y63500D01*
X-17186Y63278D01*
X-17194Y63056D01*
X-17208Y62834D01*
X-17227Y62612D01*
X-17251Y62392D01*
X-17281Y62171D01*
X-17316Y61952D01*
X-17357Y61733D01*
X-17403Y61516D01*
X-17454Y61300D01*
X-17511Y61085D01*
X-17573Y60871D01*
X-17640Y60660D01*
X-17712Y60449D01*
X-17790Y60241D01*
X-17872Y60035D01*
X-17960Y59831D01*
X-18052Y59628D01*
X-18150Y59429D01*
X-18252Y59232D01*
X-18359Y59037D01*
X-18471Y58845D01*
X-18588Y58656D01*
X-18709Y58469D01*
X-18835Y58286D01*
X-18965Y58106D01*
X-19100Y57929D01*
X-19238Y57756D01*
X-19381Y57586D01*
X-19529Y57419D01*
X-19680Y57256D01*
X-19835Y57097D01*
X-19994Y56942D01*
X-20157Y56791D01*
X-20324Y56643D01*
X-20494Y56500D01*
X-20667Y56362D01*
X-20844Y56227D01*
X-21024Y56097D01*
X-21207Y55971D01*
X-21394Y55850D01*
X-21583Y55733D01*
X-21775Y55621D01*
X-21970Y55514D01*
X-22167Y55412D01*
X-22366Y55314D01*
X-22569Y55222D01*
X-22773Y55134D01*
X-22979Y55052D01*
X-23187Y54974D01*
X-23398Y54902D01*
X-23609Y54835D01*
X-23823Y54773D01*
X-24038Y54716D01*
X-24254Y54665D01*
X-24471Y54619D01*
X-24690Y54578D01*
X-24909Y54543D01*
X-25130Y54513D01*
X-25350Y54489D01*
X-25572Y54470D01*
X-25794Y54456D01*
X-26016Y54448D01*
X-26238Y54445D01*
X-26460Y54448D01*
X-26682Y54456D01*
X-26904Y54470D01*
X-27126Y54489D01*
X-27346Y54513D01*
X-27567Y54543D01*
X-27786Y54578D01*
X-28005Y54619D01*
X-28222Y54665D01*
X-28438Y54716D01*
X-28653Y54773D01*
X-28867Y54835D01*
X-29078Y54902D01*
X-29289Y54974D01*
X-29497Y55052D01*
X-29703Y55134D01*
X-29907Y55222D01*
X-30110Y55314D01*
X-30309Y55412D01*
X-30506Y55514D01*
X-30701Y55621D01*
X-30893Y55733D01*
X-31082Y55850D01*
X-31269Y55971D01*
X-31452Y56097D01*
X-31632Y56227D01*
X-31809Y56362D01*
X-31982Y56500D01*
X-32152Y56643D01*
X-32319Y56791D01*
X-32482Y56942D01*
X-32641Y57097D01*
X-32796Y57256D01*
X-32947Y57419D01*
X-33095Y57586D01*
X-33238Y57756D01*
X-33376Y57929D01*
X-33511Y58106D01*
X-33641Y58286D01*
X-33767Y58469D01*
X-33888Y58656D01*
X-34005Y58845D01*
X-34117Y59037D01*
X-34224Y59232D01*
X-34326Y59429D01*
X-34424Y59628D01*
X-34516Y59831D01*
X-34604Y60035D01*
X-34686Y60241D01*
X-34764Y60449D01*
X-34836Y60660D01*
X-34903Y60871D01*
X-34965Y61085D01*
X-35022Y61300D01*
X-35073Y61516D01*
X-35119Y61733D01*
X-35160Y61952D01*
X-35195Y62171D01*
X-35225Y62392D01*
X-35249Y62612D01*
X-35268Y62834D01*
X-35282Y63056D01*
X-35290Y63278D01*
X-35293Y63500D01*
D20*
X-26238Y63500D03*
M02*
