M48
;GenerationSoftware,Autodesk,EAGLE,9.6.2*%
;CreationDate,2022-02-16T17:14:07Z*%
FMAT,2
ICI,OFF
METRIC,TZ,000.000
T4C0.300
T3C0.305
T2C1.016
T1C3.302
%
G90
M71
T1
X28448Y22860
X2540Y22860
X2540Y2540
X106172Y22860
X74676Y2540
X100584Y2540
X22860Y22860
X48768Y2540
X22860Y2540
X54356Y22860
X48768Y22860
X74676Y22860
X80264Y2540
X28448Y2540
X80264Y22860
X132080Y80264
X54356Y2540
X100584Y22860
X126492Y22860
X126492Y2540
X106172Y2540
X132080Y22860
X152400Y22860
X152400Y2540
X132080Y2540
X2540Y48768
X22860Y48768
X22860Y28448
X2540Y28448
X28448Y48768
X48768Y48768
X48768Y28448
X28448Y28448
X54356Y48768
X74676Y48768
X74676Y28448
X54356Y28448
X80264Y48768
X100584Y48768
X100584Y28448
X80264Y28448
X106172Y48768
X126492Y48768
X126492Y28448
X106172Y28448
X132080Y48768
X152400Y48768
X152400Y28448
X132080Y28448
X2540Y74676
X22860Y74676
X22860Y54356
X2540Y54356
X28448Y74676
X48768Y74676
X48768Y54356
X28448Y54356
X54356Y74676
X74676Y74676
X74676Y54356
X54356Y54356
X80264Y74676
X100584Y74676
X100584Y54356
X80264Y54356
X106172Y74676
X126492Y74676
X126492Y54356
X106172Y54356
X132080Y74676
X152400Y74676
X152400Y54356
X132080Y54356
X2540Y100584
X22860Y100584
X22860Y80264
X2540Y80264
X28448Y100584
X48768Y100584
X48768Y80264
X28448Y80264
X54356Y100584
X74676Y100584
X74676Y80264
X54356Y80264
X80264Y100584
X100584Y100584
X100584Y80264
X80264Y80264
X106172Y100584
X126492Y100584
X126492Y80264
X106172Y80264
X132080Y100584
X152400Y100584
X152400Y80264
T2
X135890Y1270
X19050Y1270
X16510Y1270
X13970Y1270
X11430Y1270
X8890Y1270
X6350Y1270
X44958Y1270
X42418Y1270
X39878Y1270
X37338Y1270
X34798Y1270
X32258Y1270
X70866Y1270
X68326Y1270
X65786Y1270
X63246Y1270
X60706Y1270
X58166Y1270
X96774Y1270
X94234Y1270
X91694Y1270
X89154Y1270
X86614Y1270
X84074Y1270
X122682Y1270
X120142Y1270
X117602Y1270
X115062Y1270
X112522Y1270
X109982Y1270
X148590Y1270
X146050Y1270
X143510Y1270
X140970Y1270
X138430Y1270
X19050Y27178
X16510Y27178
X13970Y27178
X11430Y27178
X8890Y27178
X6350Y27178
X44958Y27178
X42418Y27178
X39878Y27178
X37338Y27178
X34798Y27178
X32258Y27178
X70866Y27178
X68326Y27178
X65786Y27178
X63246Y27178
X60706Y27178
X58166Y27178
X96774Y27178
X94234Y27178
X91694Y27178
X89154Y27178
X86614Y27178
X84074Y27178
X122682Y27178
X120142Y27178
X117602Y27178
X115062Y27178
X112522Y27178
X109982Y27178
X148590Y27178
X146050Y27178
X143510Y27178
X140970Y27178
X138430Y27178
X135890Y27178
X19050Y53086
X16510Y53086
X13970Y53086
X11430Y53086
X8890Y53086
X6350Y53086
X44958Y53086
X42418Y53086
X39878Y53086
X37338Y53086
X34798Y53086
X32258Y53086
X70866Y53086
X68326Y53086
X65786Y53086
X63246Y53086
X60706Y53086
X58166Y53086
X96774Y53086
X94234Y53086
X91694Y53086
X89154Y53086
X86614Y53086
X84074Y53086
X122682Y53086
X120142Y53086
X117602Y53086
X115062Y53086
X112522Y53086
X109982Y53086
X148590Y53086
X146050Y53086
X143510Y53086
X140970Y53086
X138430Y53086
X135890Y53086
X19050Y78994
X16510Y78994
X13970Y78994
X11430Y78994
X8890Y78994
X6350Y78994
X44958Y78994
X42418Y78994
X39878Y78994
X37338Y78994
X34798Y78994
X32258Y78994
X70866Y78994
X68326Y78994
X65786Y78994
X63246Y78994
X60706Y78994
X58166Y78994
X96774Y78994
X94234Y78994
X91694Y78994
X89154Y78994
X86614Y78994
X84074Y78994
X122682Y78994
X120142Y78994
X117602Y78994
X115062Y78994
X112522Y78994
X109982Y78994
X148590Y78994
X146050Y78994
X143510Y78994
X140970Y78994
X138430Y78994
X135890Y78994
T3
X59944Y35052
X63246Y36449
X87503Y37211
X95504Y34798
X92265Y40958
X81534Y40132
X84582Y38227
X87884Y43434
X88519Y39116
X90932Y36322
X99695Y37084
X90043Y37846
X92075Y35560
X93980Y32258
X95504Y38608
X94107Y35179
X94361Y37465
X96647Y40259
X93980Y40259
X93472Y36703
X93472Y38208
X86233Y32766
X95885Y44831
X93853Y44831
X90932Y38989
X85852Y35052
X89154Y36449
X113411Y37211
X121412Y34798
X118173Y40958
X107442Y40132
X110490Y38227
X113792Y43434
X114427Y39116
X116840Y36322
X125603Y37084
X115951Y37846
X117983Y35560
X119888Y32258
X121412Y38608
X120015Y35179
X120269Y37465
X122555Y40259
X119888Y40259
X119380Y36703
X119380Y38208
X112141Y32766
X121793Y44831
X119761Y44831
X116840Y38989
X111760Y35052
X115062Y36449
X139319Y37211
X147320Y34798
X144082Y40958
X133350Y40132
X136398Y38227
X139700Y43434
X140335Y39116
X142748Y36322
X151511Y37084
X141859Y37846
X143891Y35560
X145796Y32258
X147320Y38608
X145923Y35179
X146177Y37465
X148463Y40259
X145796Y40259
X145288Y36703
X145288Y38208
X138049Y32766
X147701Y44831
X145669Y44831
X142748Y38989
X137668Y35052
X140970Y36449
X9779Y63119
X17780Y60706
X14541Y66866
X3810Y66040
X6858Y64135
X10160Y69342
X10795Y65024
X13208Y62230
X21971Y62992
X12319Y63754
X14351Y61468
X16256Y58166
X17780Y64516
X16383Y61087
X16637Y63373
X18923Y66167
X16256Y66167
X15748Y62611
X15748Y64116
X8509Y58674
X18161Y70739
X16129Y70739
X13208Y64897
X8128Y60960
X11430Y62357
X35687Y63119
X43688Y60706
X40450Y66866
X29718Y66040
X32766Y64135
X36068Y69342
X36703Y65024
X39116Y62230
X47879Y62992
X38227Y63754
X40259Y61468
X42164Y58166
X43688Y64516
X42291Y61087
X42545Y63373
X44831Y66167
X42164Y66167
X41656Y62611
X41656Y64116
X34417Y58674
X44069Y70739
X42037Y70739
X39116Y64897
X34036Y60960
X37338Y62357
X61595Y63119
X69596Y60706
X66358Y66866
X55626Y66040
X58674Y64135
X61976Y69342
X62611Y65024
X65024Y62230
X73787Y62992
X64135Y63754
X66167Y61468
X68072Y58166
X69596Y64516
X68199Y61087
X68453Y63373
X70739Y66167
X68072Y66167
X67564Y62611
X67564Y64116
X60325Y58674
X69977Y70739
X67945Y70739
X65024Y64897
X59944Y60960
X63246Y62357
X87503Y63119
X95504Y60706
X92265Y66866
X81534Y66040
X84582Y64135
X87884Y69342
X88519Y65024
X90932Y62230
X99695Y62992
X90043Y63754
X92075Y61468
X93980Y58166
X95504Y64516
X94107Y61087
X94361Y63373
X96647Y66167
X93980Y66167
X93472Y62611
X93472Y64116
X86233Y58674
X95885Y70739
X93853Y70739
X90932Y64897
X85852Y60960
X89154Y62357
X113411Y63119
X121412Y60706
X118173Y66866
X107442Y66040
X110490Y64135
X113792Y69342
X114427Y65024
X116840Y62230
X125603Y62992
X115951Y63754
X117983Y61468
X119888Y58166
X121412Y64516
X120015Y61087
X120269Y63373
X107442Y14224
X119888Y66167
X119380Y62611
X119380Y64116
X112141Y58674
X121793Y70739
X119761Y70739
X116840Y64897
X111760Y60960
X115062Y62357
X139319Y63119
X147320Y60706
X144082Y66866
X133350Y66040
X136398Y64135
X139700Y69342
X140335Y65024
X142748Y62230
X151511Y62992
X141859Y63754
X143891Y61468
X145796Y58166
X147320Y64516
X145923Y61087
X146177Y63373
X148463Y66167
X145796Y66167
X145288Y62611
X145288Y64116
X138049Y58674
X147701Y70739
X145669Y70739
X142748Y64897
X137668Y60960
X140970Y62357
X9779Y89027
X17780Y86614
X14541Y92773
X3810Y91948
X6858Y90043
X10160Y95250
X10795Y90932
X13208Y88138
X21971Y88900
X12319Y89662
X14351Y87376
X16256Y84074
X17780Y90424
X16383Y86995
X16637Y89281
X18923Y92075
X16256Y92075
X15748Y88519
X15748Y90024
X8509Y84582
X18161Y96647
X16129Y96647
X13208Y90805
X8128Y86868
X11430Y88265
X35687Y89027
X43688Y86614
X40450Y92773
X29718Y91948
X32766Y90043
X36068Y95250
X36703Y90932
X39116Y88138
X47879Y88900
X38227Y89662
X40259Y87376
X42164Y84074
X43688Y90424
X42291Y86995
X42545Y89281
X44831Y92075
X42164Y92075
X41656Y88519
X41656Y90024
X34417Y84582
X44069Y96647
X42037Y96647
X39116Y90805
X34036Y86868
X37338Y88265
X61595Y89027
X69596Y86614
X66358Y92773
X55626Y91948
X58674Y90043
X61976Y95250
X62611Y90932
X65024Y88138
X73787Y88900
X64135Y89662
X66167Y87376
X68072Y84074
X69596Y90424
X68199Y86995
X68453Y89281
X70739Y92075
X68072Y92075
X67564Y88519
X67564Y90024
X60325Y84582
X69977Y96647
X67945Y96647
X65024Y90805
X59944Y86868
X63246Y88265
X87503Y89027
X95504Y86614
X92265Y92773
X81534Y91948
X84582Y90043
X87884Y95250
X88519Y90932
X90932Y88138
X99695Y88900
X90043Y89662
X92075Y87376
X93980Y84074
X95504Y90424
X94107Y86995
X94361Y89281
X96647Y92075
X93980Y92075
X93472Y88519
X93472Y90024
X86233Y84582
X95885Y96647
X93853Y96647
X90932Y90805
X85852Y86868
X89154Y88265
X113411Y89027
X121412Y86614
X118173Y92773
X107442Y91948
X110490Y90043
X113792Y95250
X114427Y90932
X116840Y88138
X125603Y88900
X115951Y89662
X117983Y87376
X119888Y84074
X121412Y90424
X120015Y86995
X120269Y89281
X122555Y92075
X119888Y92075
X119380Y88519
X119380Y90024
X112141Y84582
X121793Y96647
X119761Y96647
X116840Y90805
X111760Y86868
X115062Y88265
X139319Y89027
X147320Y86614
X144082Y92773
X133350Y91948
X136398Y90043
X139700Y95250
X140335Y90932
X142748Y88138
X151511Y88900
X141859Y89662
X143891Y87376
X145796Y84074
X147320Y90424
X145923Y86995
X146177Y89281
X148463Y92075
X145796Y92075
X145288Y88519
X145288Y90024
X138049Y84582
X147701Y96647
X145669Y96647
X142748Y90805
X137668Y86868
X140970Y88265
X9779Y11303
X17780Y8890
X14541Y15049
X3810Y14224
X6858Y12319
X10160Y17526
X10795Y13208
X13208Y10414
X21971Y11176
X12319Y11938
X14351Y9652
X16256Y6350
X17780Y12700
X16383Y9271
X16637Y11557
X18923Y14351
X16256Y14351
X15748Y10795
X15748Y12300
X8509Y6858
X18161Y18923
X16129Y18923
X13208Y13081
X8128Y9144
X11430Y10541
X35687Y11303
X43688Y8890
X40450Y15049
X29718Y14224
X32766Y12319
X36068Y17526
X36703Y13208
X39116Y10414
X47879Y11176
X38227Y11938
X40259Y9652
X42164Y6350
X43688Y12700
X42291Y9271
X42545Y11557
X44831Y14351
X42164Y14351
X41656Y10795
X41656Y12300
X34417Y6858
X44069Y18923
X42037Y18923
X39116Y13081
X34036Y9144
X37338Y10541
X61595Y11303
X69596Y8890
X66358Y15049
X55626Y14224
X58674Y12319
X61976Y17526
X62611Y13208
X65024Y10414
X73787Y11176
X64135Y11938
X66167Y9652
X68072Y6350
X69596Y12700
X68199Y9271
X68453Y11557
X70739Y14351
X68072Y14351
X67564Y10795
X67564Y12300
X60325Y6858
X69977Y18923
X67945Y18923
X65024Y13081
X59944Y9144
X63246Y10541
X87503Y11303
X95504Y8890
X92265Y15049
X81534Y14224
X84582Y12319
X87884Y17526
X88519Y13208
X90932Y10414
X99695Y11176
X90043Y11938
X92075Y9652
X93980Y6350
X95504Y12700
X94107Y9271
X94361Y11557
X96647Y14351
X93980Y14351
X93472Y10795
X93472Y12300
X86233Y6858
X95885Y18923
X93853Y18923
X90932Y13081
X85852Y9144
X89154Y10541
X113411Y11303
X121412Y8890
X118173Y15049
X110490Y12319
X113792Y17526
X114427Y13208
X116840Y10414
X125603Y11176
X115951Y11938
X117983Y9652
X119888Y6350
X121412Y12700
X120015Y9271
X120269Y11557
X122555Y66167
X122555Y14351
X119888Y14351
X119380Y10795
X119380Y12300
X112141Y6858
X121793Y18923
X119761Y18923
X116840Y13081
X111760Y9144
X115062Y10541
X139319Y11303
X147320Y8890
X144082Y15049
X133350Y14224
X136398Y12319
X139700Y17526
X140335Y13208
X142748Y10414
X151511Y11176
X141859Y11938
X143891Y9652
X145796Y6350
X147320Y12700
X145923Y9271
X146177Y11557
X148463Y14351
X145796Y14351
X145288Y10795
X145288Y12300
X138049Y6858
X147701Y18923
X145669Y18923
X142748Y13081
X137668Y9144
X140970Y10541
X9779Y37211
X17780Y34798
X14541Y40958
X3810Y40132
X6858Y38227
X10160Y43434
X10795Y39116
X13208Y36322
X21971Y37084
X12319Y37846
X14351Y35560
X16256Y32258
X17780Y38608
X16383Y35179
X16637Y37465
X18923Y40259
X16256Y40259
X15748Y36703
X15748Y38208
X8509Y32766
X18161Y44831
X16129Y44831
X13208Y38989
X8128Y35052
X11430Y36449
X35687Y37211
X43688Y34798
X40450Y40958
X29718Y40132
X32766Y38227
X36068Y43434
X36703Y39116
X39116Y36322
X47879Y37084
X38227Y37846
X40259Y35560
X42164Y32258
X43688Y38608
X42291Y35179
X42545Y37465
X44831Y40259
X42164Y40259
X41656Y36703
X41656Y38208
X34417Y32766
X44069Y44831
X42037Y44831
X39116Y38989
X34036Y35052
X37338Y36449
X61595Y37211
X69596Y34798
X66358Y40958
X55626Y40132
X58674Y38227
X61976Y43434
X62611Y39116
X65024Y36322
X73787Y37084
X64135Y37846
X66167Y35560
X68072Y32258
X69596Y38608
X68199Y35179
X68453Y37465
X70739Y40259
X68072Y40259
X67564Y36703
X67564Y38208
X60325Y32766
X69977Y44831
X67945Y44831
X65024Y38989
T4
X104648Y58166
X78740Y58166
X52832Y58166
X26924Y58166
X1016Y58166
X130556Y32258
X104648Y32258
X78740Y32258
X52832Y32258
X26924Y32258
X1016Y32258
X130556Y6350
X104648Y6350
X78740Y6350
X52832Y6350
X26924Y6350
X1016Y6350
X52832Y84074
X130556Y58166
X78740Y84074
X104648Y84074
X26924Y84074
X130556Y84074
X1016Y84074
M30